%TF.GenerationSoftware,KiCad,Pcbnew,9.0.4*%
%TF.CreationDate,2026-03-06T17:25:50-05:00*%
%TF.ProjectId,control-module,636f6e74-726f-46c2-9d6d-6f64756c652e,rev?*%
%TF.SameCoordinates,Original*%
%TF.FileFunction,Soldermask,Top*%
%TF.FilePolarity,Negative*%
%FSLAX46Y46*%
G04 Gerber Fmt 4.6, Leading zero omitted, Abs format (unit mm)*
G04 Created by KiCad (PCBNEW 9.0.4) date 2026-03-06 17:25:50*
%MOMM*%
%LPD*%
G01*
G04 APERTURE LIST*
G04 Aperture macros list*
%AMRoundRect*
0 Rectangle with rounded corners*
0 $1 Rounding radius*
0 $2 $3 $4 $5 $6 $7 $8 $9 X,Y pos of 4 corners*
0 Add a 4 corners polygon primitive as box body*
4,1,4,$2,$3,$4,$5,$6,$7,$8,$9,$2,$3,0*
0 Add four circle primitives for the rounded corners*
1,1,$1+$1,$2,$3*
1,1,$1+$1,$4,$5*
1,1,$1+$1,$6,$7*
1,1,$1+$1,$8,$9*
0 Add four rect primitives between the rounded corners*
20,1,$1+$1,$2,$3,$4,$5,0*
20,1,$1+$1,$4,$5,$6,$7,0*
20,1,$1+$1,$6,$7,$8,$9,0*
20,1,$1+$1,$8,$9,$2,$3,0*%
%AMFreePoly0*
4,1,21,1.372500,0.787500,0.862500,0.787500,0.862500,0.532500,1.372500,0.532500,1.372500,0.127500,0.862500,0.127500,0.862500,-0.127500,1.372500,-0.127500,1.372500,-0.532500,0.862500,-0.532500,0.862500,-0.787500,1.372500,-0.787500,1.372500,-1.195000,0.612500,-1.195000,0.612500,-1.117500,-0.862500,-1.117500,-0.862500,1.117500,0.612500,1.117500,0.612500,1.195000,1.372500,1.195000,
1.372500,0.787500,1.372500,0.787500,$1*%
%AMFreePoly1*
4,1,23,0.500000,-0.750000,0.000000,-0.750000,0.000000,-0.745722,-0.065263,-0.745722,-0.191342,-0.711940,-0.304381,-0.646677,-0.396677,-0.554381,-0.461940,-0.441342,-0.495722,-0.315263,-0.495722,-0.250000,-0.500000,-0.250000,-0.500000,0.250000,-0.495722,0.250000,-0.495722,0.315263,-0.461940,0.441342,-0.396677,0.554381,-0.304381,0.646677,-0.191342,0.711940,-0.065263,0.745722,0.000000,0.745722,
0.000000,0.750000,0.500000,0.750000,0.500000,-0.750000,0.500000,-0.750000,$1*%
%AMFreePoly2*
4,1,23,0.000000,0.745722,0.065263,0.745722,0.191342,0.711940,0.304381,0.646677,0.396677,0.554381,0.461940,0.441342,0.495722,0.315263,0.495722,0.250000,0.500000,0.250000,0.500000,-0.250000,0.495722,-0.250000,0.495722,-0.315263,0.461940,-0.441342,0.396677,-0.554381,0.304381,-0.646677,0.191342,-0.711940,0.065263,-0.745722,0.000000,-0.745722,0.000000,-0.750000,-0.500000,-0.750000,
-0.500000,0.750000,0.000000,0.750000,0.000000,0.745722,0.000000,0.745722,$1*%
G04 Aperture macros list end*
%ADD10C,0.010000*%
%ADD11C,3.000000*%
%ADD12C,1.700000*%
%ADD13RoundRect,0.140000X-0.170000X0.140000X-0.170000X-0.140000X0.170000X-0.140000X0.170000X0.140000X0*%
%ADD14RoundRect,0.218750X0.218750X0.256250X-0.218750X0.256250X-0.218750X-0.256250X0.218750X-0.256250X0*%
%ADD15RoundRect,0.100000X-0.100000X0.130000X-0.100000X-0.130000X0.100000X-0.130000X0.100000X0.130000X0*%
%ADD16RoundRect,0.237500X0.237500X-0.250000X0.237500X0.250000X-0.237500X0.250000X-0.237500X-0.250000X0*%
%ADD17R,0.405000X0.990000*%
%ADD18FreePoly0,90.000000*%
%ADD19C,0.800000*%
%ADD20C,6.400000*%
%ADD21RoundRect,0.237500X-0.250000X-0.237500X0.250000X-0.237500X0.250000X0.237500X-0.250000X0.237500X0*%
%ADD22RoundRect,0.237500X0.237500X-0.300000X0.237500X0.300000X-0.237500X0.300000X-0.237500X-0.300000X0*%
%ADD23RoundRect,0.249999X0.850001X0.850001X-0.850001X0.850001X-0.850001X-0.850001X0.850001X-0.850001X0*%
%ADD24C,2.200000*%
%ADD25RoundRect,0.050000X-0.285000X-0.100000X0.285000X-0.100000X0.285000X0.100000X-0.285000X0.100000X0*%
%ADD26RoundRect,0.147500X-0.147500X-0.172500X0.147500X-0.172500X0.147500X0.172500X-0.147500X0.172500X0*%
%ADD27RoundRect,0.200000X0.275000X-0.200000X0.275000X0.200000X-0.275000X0.200000X-0.275000X-0.200000X0*%
%ADD28R,0.640000X0.700000*%
%ADD29R,0.500000X0.700000*%
%ADD30RoundRect,0.250000X0.250000X0.650000X-0.250000X0.650000X-0.250000X-0.650000X0.250000X-0.650000X0*%
%ADD31RoundRect,0.237500X0.300000X0.237500X-0.300000X0.237500X-0.300000X-0.237500X0.300000X-0.237500X0*%
%ADD32RoundRect,0.135000X0.185000X-0.135000X0.185000X0.135000X-0.185000X0.135000X-0.185000X-0.135000X0*%
%ADD33R,0.950000X0.550000*%
%ADD34RoundRect,0.237500X-0.237500X0.250000X-0.237500X-0.250000X0.237500X-0.250000X0.237500X0.250000X0*%
%ADD35RoundRect,0.225000X-0.250000X0.225000X-0.250000X-0.225000X0.250000X-0.225000X0.250000X0.225000X0*%
%ADD36FreePoly1,90.000000*%
%ADD37FreePoly2,90.000000*%
%ADD38RoundRect,0.087500X-0.087500X0.225000X-0.087500X-0.225000X0.087500X-0.225000X0.087500X0.225000X0*%
%ADD39RoundRect,0.087500X-0.225000X0.087500X-0.225000X-0.087500X0.225000X-0.087500X0.225000X0.087500X0*%
%ADD40RoundRect,0.150000X-0.150000X0.512500X-0.150000X-0.512500X0.150000X-0.512500X0.150000X0.512500X0*%
%ADD41RoundRect,0.140000X-0.140000X-0.170000X0.140000X-0.170000X0.140000X0.170000X-0.140000X0.170000X0*%
%ADD42RoundRect,0.140000X0.170000X-0.140000X0.170000X0.140000X-0.170000X0.140000X-0.170000X-0.140000X0*%
%ADD43RoundRect,0.218750X0.218750X0.381250X-0.218750X0.381250X-0.218750X-0.381250X0.218750X-0.381250X0*%
%ADD44R,0.800000X1.500000*%
%ADD45RoundRect,0.362500X-0.362500X-0.637500X0.362500X-0.637500X0.362500X0.637500X-0.362500X0.637500X0*%
%ADD46FreePoly1,180.000000*%
%ADD47FreePoly2,180.000000*%
%ADD48RoundRect,0.237500X-0.300000X-0.237500X0.300000X-0.237500X0.300000X0.237500X-0.300000X0.237500X0*%
%ADD49RoundRect,0.237500X0.237500X-0.287500X0.237500X0.287500X-0.237500X0.287500X-0.237500X-0.287500X0*%
%ADD50RoundRect,0.140000X0.140000X0.170000X-0.140000X0.170000X-0.140000X-0.170000X0.140000X-0.170000X0*%
%ADD51RoundRect,0.250000X1.350000X-0.385000X1.350000X0.385000X-1.350000X0.385000X-1.350000X-0.385000X0*%
%ADD52RoundRect,0.250000X1.600000X-0.425000X1.600000X0.425000X-1.600000X0.425000X-1.600000X-0.425000X0*%
%ADD53RoundRect,0.150000X-0.512500X-0.150000X0.512500X-0.150000X0.512500X0.150000X-0.512500X0.150000X0*%
%ADD54RoundRect,0.102000X0.373000X0.323000X-0.373000X0.323000X-0.373000X-0.323000X0.373000X-0.323000X0*%
%ADD55RoundRect,0.237500X-0.237500X0.300000X-0.237500X-0.300000X0.237500X-0.300000X0.237500X0.300000X0*%
%ADD56RoundRect,0.150000X0.150000X-0.512500X0.150000X0.512500X-0.150000X0.512500X-0.150000X-0.512500X0*%
%ADD57RoundRect,0.190000X-0.610000X-0.190000X0.610000X-0.190000X0.610000X0.190000X-0.610000X0.190000X0*%
%ADD58RoundRect,0.250000X0.350000X0.625000X-0.350000X0.625000X-0.350000X-0.625000X0.350000X-0.625000X0*%
%ADD59O,1.200000X1.750000*%
%ADD60R,1.000000X1.000000*%
%ADD61C,1.000000*%
%ADD62C,2.000000*%
%ADD63RoundRect,0.200000X-0.275000X0.200000X-0.275000X-0.200000X0.275000X-0.200000X0.275000X0.200000X0*%
%ADD64RoundRect,0.218750X0.256250X-0.218750X0.256250X0.218750X-0.256250X0.218750X-0.256250X-0.218750X0*%
%ADD65RoundRect,0.250000X-0.350000X-0.625000X0.350000X-0.625000X0.350000X0.625000X-0.350000X0.625000X0*%
%ADD66RoundRect,0.190000X0.610000X0.190000X-0.610000X0.190000X-0.610000X-0.190000X0.610000X-0.190000X0*%
%ADD67RoundRect,0.225000X0.225000X0.250000X-0.225000X0.250000X-0.225000X-0.250000X0.225000X-0.250000X0*%
%ADD68C,0.650000*%
%ADD69RoundRect,0.150000X-0.150000X-0.425000X0.150000X-0.425000X0.150000X0.425000X-0.150000X0.425000X0*%
%ADD70RoundRect,0.075000X-0.075000X-0.500000X0.075000X-0.500000X0.075000X0.500000X-0.075000X0.500000X0*%
%ADD71O,1.000000X2.100000*%
%ADD72O,2.032000X2.794000*%
%ADD73RoundRect,0.147500X-0.172500X0.147500X-0.172500X-0.147500X0.172500X-0.147500X0.172500X0.147500X0*%
%ADD74RoundRect,0.237500X-0.237500X0.287500X-0.237500X-0.287500X0.237500X-0.287500X0.237500X0.287500X0*%
%ADD75RoundRect,0.075000X-0.700000X-0.075000X0.700000X-0.075000X0.700000X0.075000X-0.700000X0.075000X0*%
%ADD76RoundRect,0.075000X-0.075000X-0.700000X0.075000X-0.700000X0.075000X0.700000X-0.075000X0.700000X0*%
%ADD77RoundRect,0.062500X0.062500X-0.375000X0.062500X0.375000X-0.062500X0.375000X-0.062500X-0.375000X0*%
%ADD78RoundRect,0.062500X0.375000X-0.062500X0.375000X0.062500X-0.375000X0.062500X-0.375000X-0.062500X0*%
%ADD79R,5.600000X5.600000*%
G04 APERTURE END LIST*
D10*
%TO.C,U8*%
X219750000Y-69800000D02*
X217850000Y-69800000D01*
X217850000Y-68200000D01*
X219750000Y-68200000D01*
X219750000Y-69800000D01*
G36*
X219750000Y-69800000D02*
G01*
X217850000Y-69800000D01*
X217850000Y-68200000D01*
X219750000Y-68200000D01*
X219750000Y-69800000D01*
G37*
X219750000Y-71700000D02*
X217850000Y-71700000D01*
X217850000Y-70100000D01*
X219750000Y-70100000D01*
X219750000Y-71700000D01*
G36*
X219750000Y-71700000D02*
G01*
X217850000Y-71700000D01*
X217850000Y-70100000D01*
X219750000Y-70100000D01*
X219750000Y-71700000D01*
G37*
X219750000Y-73600000D02*
X217850000Y-73600000D01*
X217850000Y-72000000D01*
X219750000Y-72000000D01*
X219750000Y-73600000D01*
G36*
X219750000Y-73600000D02*
G01*
X217850000Y-73600000D01*
X217850000Y-72000000D01*
X219750000Y-72000000D01*
X219750000Y-73600000D01*
G37*
X219750000Y-75500000D02*
X217850000Y-75500000D01*
X217850000Y-73900000D01*
X219750000Y-73900000D01*
X219750000Y-75500000D01*
G36*
X219750000Y-75500000D02*
G01*
X217850000Y-75500000D01*
X217850000Y-73900000D01*
X219750000Y-73900000D01*
X219750000Y-75500000D01*
G37*
X219750000Y-77400000D02*
X217850000Y-77400000D01*
X217850000Y-75800000D01*
X219750000Y-75800000D01*
X219750000Y-77400000D01*
G36*
X219750000Y-77400000D02*
G01*
X217850000Y-77400000D01*
X217850000Y-75800000D01*
X219750000Y-75800000D01*
X219750000Y-77400000D01*
G37*
X222400000Y-67150000D02*
X220800000Y-67150000D01*
X220800000Y-65250000D01*
X222400000Y-65250000D01*
X222400000Y-67150000D01*
G36*
X222400000Y-67150000D02*
G01*
X220800000Y-67150000D01*
X220800000Y-65250000D01*
X222400000Y-65250000D01*
X222400000Y-67150000D01*
G37*
X222400000Y-80350000D02*
X220800000Y-80350000D01*
X220800000Y-78450000D01*
X222400000Y-78450000D01*
X222400000Y-80350000D01*
G36*
X222400000Y-80350000D02*
G01*
X220800000Y-80350000D01*
X220800000Y-78450000D01*
X222400000Y-78450000D01*
X222400000Y-80350000D01*
G37*
X224300000Y-67150000D02*
X222700000Y-67150000D01*
X222700000Y-65250000D01*
X224300000Y-65250000D01*
X224300000Y-67150000D01*
G36*
X224300000Y-67150000D02*
G01*
X222700000Y-67150000D01*
X222700000Y-65250000D01*
X224300000Y-65250000D01*
X224300000Y-67150000D01*
G37*
X224300000Y-80350000D02*
X222700000Y-80350000D01*
X222700000Y-78450000D01*
X224300000Y-78450000D01*
X224300000Y-80350000D01*
G36*
X224300000Y-80350000D02*
G01*
X222700000Y-80350000D01*
X222700000Y-78450000D01*
X224300000Y-78450000D01*
X224300000Y-80350000D01*
G37*
X226200000Y-67150000D02*
X224600000Y-67150000D01*
X224600000Y-65250000D01*
X226200000Y-65250000D01*
X226200000Y-67150000D01*
G36*
X226200000Y-67150000D02*
G01*
X224600000Y-67150000D01*
X224600000Y-65250000D01*
X226200000Y-65250000D01*
X226200000Y-67150000D01*
G37*
X226200000Y-80350000D02*
X224600000Y-80350000D01*
X224600000Y-78450000D01*
X226200000Y-78450000D01*
X226200000Y-80350000D01*
G36*
X226200000Y-80350000D02*
G01*
X224600000Y-80350000D01*
X224600000Y-78450000D01*
X226200000Y-78450000D01*
X226200000Y-80350000D01*
G37*
X228100000Y-67150000D02*
X226500000Y-67150000D01*
X226500000Y-65250000D01*
X228100000Y-65250000D01*
X228100000Y-67150000D01*
G36*
X228100000Y-67150000D02*
G01*
X226500000Y-67150000D01*
X226500000Y-65250000D01*
X228100000Y-65250000D01*
X228100000Y-67150000D01*
G37*
X228100000Y-80350000D02*
X226500000Y-80350000D01*
X226500000Y-78450000D01*
X228100000Y-78450000D01*
X228100000Y-80350000D01*
G36*
X228100000Y-80350000D02*
G01*
X226500000Y-80350000D01*
X226500000Y-78450000D01*
X228100000Y-78450000D01*
X228100000Y-80350000D01*
G37*
X230000000Y-67150000D02*
X228400000Y-67150000D01*
X228400000Y-65250000D01*
X230000000Y-65250000D01*
X230000000Y-67150000D01*
G36*
X230000000Y-67150000D02*
G01*
X228400000Y-67150000D01*
X228400000Y-65250000D01*
X230000000Y-65250000D01*
X230000000Y-67150000D01*
G37*
X230000000Y-80350000D02*
X228400000Y-80350000D01*
X228400000Y-78450000D01*
X230000000Y-78450000D01*
X230000000Y-80350000D01*
G36*
X230000000Y-80350000D02*
G01*
X228400000Y-80350000D01*
X228400000Y-78450000D01*
X230000000Y-78450000D01*
X230000000Y-80350000D01*
G37*
X232950000Y-69800000D02*
X231050000Y-69800000D01*
X231050000Y-68200000D01*
X232950000Y-68200000D01*
X232950000Y-69800000D01*
G36*
X232950000Y-69800000D02*
G01*
X231050000Y-69800000D01*
X231050000Y-68200000D01*
X232950000Y-68200000D01*
X232950000Y-69800000D01*
G37*
X232950000Y-71700000D02*
X231050000Y-71700000D01*
X231050000Y-70100000D01*
X232950000Y-70100000D01*
X232950000Y-71700000D01*
G36*
X232950000Y-71700000D02*
G01*
X231050000Y-71700000D01*
X231050000Y-70100000D01*
X232950000Y-70100000D01*
X232950000Y-71700000D01*
G37*
X232950000Y-73600000D02*
X231050000Y-73600000D01*
X231050000Y-72000000D01*
X232950000Y-72000000D01*
X232950000Y-73600000D01*
G36*
X232950000Y-73600000D02*
G01*
X231050000Y-73600000D01*
X231050000Y-72000000D01*
X232950000Y-72000000D01*
X232950000Y-73600000D01*
G37*
X232950000Y-75500000D02*
X231050000Y-75500000D01*
X231050000Y-73900000D01*
X232950000Y-73900000D01*
X232950000Y-75500000D01*
G36*
X232950000Y-75500000D02*
G01*
X231050000Y-75500000D01*
X231050000Y-73900000D01*
X232950000Y-73900000D01*
X232950000Y-75500000D01*
G37*
X232950000Y-77400000D02*
X231050000Y-77400000D01*
X231050000Y-75800000D01*
X232950000Y-75800000D01*
X232950000Y-77400000D01*
G36*
X232950000Y-77400000D02*
G01*
X231050000Y-77400000D01*
X231050000Y-75800000D01*
X232950000Y-75800000D01*
X232950000Y-77400000D01*
G37*
%TO.C,JP2*%
G36*
X159750000Y-60400000D02*
G01*
X161250000Y-60400000D01*
X161250000Y-60100000D01*
X159750000Y-60100000D01*
X159750000Y-60400000D01*
G37*
%TO.C,JP1*%
G36*
X179894000Y-67964000D02*
G01*
X179594000Y-67964000D01*
X179594000Y-66464000D01*
X179894000Y-66464000D01*
X179894000Y-67964000D01*
G37*
%TD*%
D11*
%TO.C,BARO_MOSI1*%
X133625000Y-73250000D03*
%TD*%
D12*
%TO.C,*%
X156500000Y-48750000D03*
%TD*%
%TO.C,*%
X148225000Y-48750000D03*
%TD*%
%TO.C,*%
X151000000Y-48750000D03*
%TD*%
%TO.C,*%
X153750000Y-48750000D03*
%TD*%
%TO.C,*%
X156500000Y-45750000D03*
%TD*%
%TO.C,*%
X153750000Y-45750000D03*
%TD*%
%TO.C,*%
X151000000Y-45750000D03*
%TD*%
%TO.C,*%
X148250000Y-45750000D03*
%TD*%
D13*
%TO.C,C25*%
X214640000Y-44300000D03*
X214640000Y-45260000D03*
%TD*%
D14*
%TO.C,L2*%
X211702500Y-44330000D03*
X213277500Y-44330000D03*
%TD*%
D15*
%TO.C,C24*%
X215590000Y-44900000D03*
X215590000Y-44260000D03*
%TD*%
D16*
%TO.C,R9*%
X124137500Y-45458500D03*
X124137500Y-43633500D03*
%TD*%
D17*
%TO.C,Q2*%
X135246500Y-43655500D03*
X135906500Y-43655500D03*
X136566500Y-43655500D03*
X137226500Y-43655500D03*
D18*
X136236500Y-41663000D03*
%TD*%
D13*
%TO.C,C34*%
X212650000Y-53995000D03*
X212650000Y-54955000D03*
%TD*%
D19*
%TO.C,H1*%
X244402944Y-84697056D03*
X245105888Y-83000000D03*
X245105888Y-86394112D03*
X246802944Y-82297056D03*
D20*
X246802944Y-84697056D03*
D19*
X246802944Y-87097056D03*
X248500000Y-83000000D03*
X248500000Y-86394112D03*
X249202944Y-84697056D03*
%TD*%
D21*
%TO.C,R15*%
X135197000Y-39250000D03*
X137022000Y-39250000D03*
%TD*%
D22*
%TO.C,C8*%
X160713000Y-55743500D03*
X160713000Y-54018500D03*
%TD*%
D23*
%TO.C,J1*%
X142330000Y-24626500D03*
D24*
X139790000Y-24626500D03*
X137250000Y-24626500D03*
X134710000Y-24626500D03*
X132170000Y-24626500D03*
X129630000Y-24626500D03*
%TD*%
D25*
%TO.C,U1*%
X162530000Y-75217500D03*
X162530000Y-75717500D03*
X162530000Y-76217500D03*
X162530000Y-76717500D03*
X164010000Y-76717500D03*
X164010000Y-76217500D03*
X164010000Y-75717500D03*
X164010000Y-75217500D03*
%TD*%
D26*
%TO.C,L4*%
X226640000Y-36200000D03*
X227610000Y-36200000D03*
%TD*%
D11*
%TO.C,IMU_INT2*%
X141500000Y-64250000D03*
%TD*%
%TO.C,PYRO1_FIRE1*%
X136986500Y-48413000D03*
%TD*%
D21*
%TO.C,R11*%
X120561000Y-39500000D03*
X122386000Y-39500000D03*
%TD*%
D11*
%TO.C,PYRO2_OUT1*%
X127600500Y-44220500D03*
%TD*%
%TO.C,BARO_CS1*%
X123125000Y-75500000D03*
%TD*%
%TO.C,SD_EJECT1*%
X164500000Y-43000000D03*
%TD*%
D27*
%TO.C,R3*%
X203910000Y-79485000D03*
X203910000Y-77835000D03*
%TD*%
D17*
%TO.C,Q1*%
X120610500Y-43905500D03*
X121270500Y-43905500D03*
X121930500Y-43905500D03*
X122590500Y-43905500D03*
D18*
X121600500Y-41913000D03*
%TD*%
D28*
%TO.C,RN2*%
X159270000Y-34850000D03*
D29*
X158400000Y-34850000D03*
X157600000Y-34850000D03*
D28*
X156730000Y-34850000D03*
X156730000Y-36250000D03*
D29*
X157600000Y-36250000D03*
X158400000Y-36250000D03*
D28*
X159270000Y-36250000D03*
%TD*%
D26*
%TO.C,L6*%
X230510000Y-43250000D03*
X231480000Y-43250000D03*
%TD*%
D12*
%TO.C,*%
X149240000Y-61770000D03*
%TD*%
D11*
%TO.C,SD_CLK1*%
X152741000Y-24808000D03*
%TD*%
D30*
%TO.C,Y1*%
X214900000Y-40885000D03*
X212400000Y-40885000D03*
%TD*%
D19*
%TO.C,H4*%
X118100000Y-25250000D03*
X118802944Y-23552944D03*
X118802944Y-26947056D03*
X120500000Y-22850000D03*
D20*
X120500000Y-25250000D03*
D19*
X120500000Y-27650000D03*
X122197056Y-23552944D03*
X122197056Y-26947056D03*
X122900000Y-25250000D03*
%TD*%
D31*
%TO.C,C46*%
X208022500Y-31610000D03*
X206297500Y-31610000D03*
%TD*%
D11*
%TO.C,USB_D+1*%
X198150000Y-76090000D03*
%TD*%
D32*
%TO.C,R19*%
X223600000Y-38410000D03*
X223600000Y-37390000D03*
%TD*%
D11*
%TO.C,USB_D-1*%
X188330000Y-76570000D03*
%TD*%
D12*
%TO.C,*%
X135990000Y-87430000D03*
%TD*%
D33*
%TO.C,U4*%
X126900000Y-71867000D03*
X126900000Y-73117000D03*
X126900000Y-74367000D03*
X126900000Y-75617000D03*
X129050000Y-75617000D03*
X129050000Y-74367000D03*
X129050000Y-73117000D03*
X129050000Y-71867000D03*
%TD*%
D31*
%TO.C,C10*%
X162210500Y-50436000D03*
X160485500Y-50436000D03*
%TD*%
D12*
%TO.C,*%
X146490000Y-61770000D03*
%TD*%
%TO.C,+3.3V*%
X146500000Y-58750000D03*
%TD*%
D13*
%TO.C,C36*%
X214850000Y-38205000D03*
X214850000Y-39165000D03*
%TD*%
D34*
%TO.C,R18*%
X148090000Y-83260000D03*
X148090000Y-85085000D03*
%TD*%
D11*
%TO.C,V_{mux}1*%
X170610000Y-80850000D03*
%TD*%
%TO.C,3V3_sd1*%
X157991000Y-29058000D03*
%TD*%
D35*
%TO.C,C54*%
X224880000Y-50425000D03*
X224880000Y-51975000D03*
%TD*%
D12*
%TO.C,*%
X127740000Y-84420000D03*
%TD*%
%TO.C,*%
X136010000Y-84430000D03*
%TD*%
D11*
%TO.C,PYRO2_FIRE1*%
X122350500Y-48470500D03*
%TD*%
D36*
%TO.C,JP2*%
X160500000Y-60900000D03*
D37*
X160500000Y-59600000D03*
%TD*%
D34*
%TO.C,R16*%
X149290000Y-72567500D03*
X149290000Y-74392500D03*
%TD*%
D12*
%TO.C,GNDD*%
X152000000Y-58750000D03*
%TD*%
%TO.C,GNDD*%
X149250000Y-58750000D03*
%TD*%
D38*
%TO.C,U5*%
X128875000Y-63087500D03*
X128375000Y-63087500D03*
X127875000Y-63087500D03*
X127375000Y-63087500D03*
D39*
X127212500Y-63750000D03*
X127212500Y-64250000D03*
X127212500Y-64750000D03*
D38*
X127375000Y-65412500D03*
X127875000Y-65412500D03*
X128375000Y-65412500D03*
X128875000Y-65412500D03*
D39*
X129037500Y-64750000D03*
X129037500Y-64250000D03*
X129037500Y-63750000D03*
%TD*%
D19*
%TO.C,H3*%
X118100000Y-84750000D03*
X118802944Y-83052944D03*
X118802944Y-86447056D03*
X120500000Y-82350000D03*
D20*
X120500000Y-84750000D03*
D19*
X120500000Y-87150000D03*
X122197056Y-83052944D03*
X122197056Y-86447056D03*
X122900000Y-84750000D03*
%TD*%
D12*
%TO.C,REF\u002A\u002A*%
X154750000Y-61750000D03*
%TD*%
D40*
%TO.C,U10*%
X208060000Y-33722500D03*
X207110000Y-33722500D03*
X206160000Y-33722500D03*
X206160000Y-35997500D03*
X208060000Y-35997500D03*
%TD*%
D13*
%TO.C,C45*%
X243600000Y-43250000D03*
X243600000Y-44210000D03*
%TD*%
D41*
%TO.C,C43*%
X238720000Y-43250000D03*
X239680000Y-43250000D03*
%TD*%
D42*
%TO.C,C50*%
X221400000Y-39760000D03*
X221400000Y-38800000D03*
%TD*%
D11*
%TO.C,VDD3V3*%
X173380000Y-84600000D03*
%TD*%
D13*
%TO.C,C57*%
X223597500Y-50270000D03*
X223597500Y-51230000D03*
%TD*%
D31*
%TO.C,C2*%
X171989500Y-61231000D03*
X170264500Y-61231000D03*
%TD*%
D11*
%TO.C,BARO_SCK1*%
X133625000Y-69000000D03*
%TD*%
D42*
%TO.C,C58*%
X222600000Y-40830000D03*
X222600000Y-39870000D03*
%TD*%
D11*
%TO.C,SD_DAT1*%
X157991000Y-24808000D03*
%TD*%
D41*
%TO.C,C27*%
X226620000Y-35150000D03*
X227580000Y-35150000D03*
%TD*%
D13*
%TO.C,C23*%
X215905000Y-48355000D03*
X215905000Y-49315000D03*
%TD*%
D12*
%TO.C,*%
X127750000Y-87420000D03*
%TD*%
D11*
%TO.C,Pwr_Mux_ST1*%
X171530000Y-70930000D03*
%TD*%
D34*
%TO.C,R14*%
X138773500Y-39226500D03*
X138773500Y-41051500D03*
%TD*%
D43*
%TO.C,L3*%
X215987500Y-52600000D03*
X213862500Y-52600000D03*
%TD*%
D11*
%TO.C,3V3_reg2*%
X213650000Y-22890000D03*
%TD*%
D27*
%TO.C,R7*%
X199586612Y-83804000D03*
X199586612Y-82154000D03*
%TD*%
%TO.C,R6*%
X187394612Y-83804000D03*
X187394612Y-82154000D03*
%TD*%
D34*
%TO.C,R17*%
X150920000Y-83190000D03*
X150920000Y-85015000D03*
%TD*%
D44*
%TO.C,J4*%
X166883000Y-25708000D03*
X167983000Y-25708000D03*
X169083000Y-25708000D03*
X170183000Y-25708000D03*
X171283000Y-25708000D03*
X172383000Y-25708000D03*
X173483000Y-25708000D03*
X174583000Y-25708000D03*
D45*
X163213000Y-23108000D03*
X163213000Y-31408000D03*
X176963000Y-23108000D03*
X176963000Y-31408000D03*
%TD*%
D11*
%TO.C,+5V_USB1*%
X198310000Y-70630000D03*
%TD*%
D46*
%TO.C,JP1*%
X180394000Y-67214000D03*
D47*
X179094000Y-67214000D03*
%TD*%
D48*
%TO.C,C1*%
X196173112Y-80413542D03*
X197898112Y-80413542D03*
%TD*%
D35*
%TO.C,C22*%
X214680000Y-48360000D03*
X214680000Y-49910000D03*
%TD*%
D12*
%TO.C,*%
X146490000Y-64750000D03*
%TD*%
D42*
%TO.C,C37*%
X228100000Y-41940000D03*
X228100000Y-40980000D03*
%TD*%
D11*
%TO.C,PYRO1_OUT1*%
X142236500Y-44413000D03*
%TD*%
D21*
%TO.C,R8*%
X120561000Y-45469000D03*
X122386000Y-45469000D03*
%TD*%
D11*
%TO.C,GNDD1*%
X122350500Y-35970500D03*
%TD*%
D42*
%TO.C,C38*%
X226850000Y-41940000D03*
X226850000Y-40980000D03*
%TD*%
D34*
%TO.C,R1*%
X164276250Y-80862500D03*
X164276250Y-82687500D03*
%TD*%
D11*
%TO.C,BARO_MISO1*%
X133625000Y-77500000D03*
%TD*%
D49*
%TO.C,D4*%
X148070000Y-80722500D03*
X148070000Y-78972500D03*
%TD*%
D19*
%TO.C,H2*%
X244402944Y-25197056D03*
X245105888Y-23500000D03*
X245105888Y-26894112D03*
X246802944Y-22797056D03*
D20*
X246802944Y-25197056D03*
D19*
X246802944Y-27597056D03*
X248500000Y-23500000D03*
X248500000Y-26894112D03*
X249202944Y-25197056D03*
%TD*%
D11*
%TO.C,BAT_SENSE_MID1*%
X180250000Y-75250000D03*
%TD*%
D26*
%TO.C,L7*%
X235715000Y-43250000D03*
X236685000Y-43250000D03*
%TD*%
D12*
%TO.C,GNDD*%
X154750000Y-58750000D03*
%TD*%
D50*
%TO.C,C31*%
X213430000Y-39100000D03*
X212470000Y-39100000D03*
%TD*%
D51*
%TO.C,J6*%
X250077500Y-43240000D03*
D52*
X249827500Y-40415000D03*
X249827500Y-46065000D03*
%TD*%
D11*
%TO.C,BATT1*%
X167650000Y-84590000D03*
%TD*%
%TO.C,SPI_CS1*%
X141500000Y-59750000D03*
%TD*%
D31*
%TO.C,C6*%
X162210500Y-48912000D03*
X160485500Y-48912000D03*
%TD*%
D22*
%TO.C,C12*%
X177350000Y-57267500D03*
X177350000Y-55542500D03*
%TD*%
D53*
%TO.C,U7*%
X170132500Y-75140000D03*
X170132500Y-76090000D03*
X170132500Y-77040000D03*
X172407500Y-77040000D03*
X172407500Y-75140000D03*
%TD*%
D54*
%TO.C,Y2*%
X225150000Y-35000000D03*
X223700000Y-35000000D03*
X223700000Y-36150000D03*
X225150000Y-36150000D03*
%TD*%
D55*
%TO.C,C21*%
X174750000Y-75136250D03*
X174750000Y-76861250D03*
%TD*%
D28*
%TO.C,RN1*%
X176588000Y-63582000D03*
D29*
X177458000Y-63582000D03*
X178258000Y-63582000D03*
D28*
X179128000Y-63582000D03*
X179128000Y-62182000D03*
D29*
X178258000Y-62182000D03*
X177458000Y-62182000D03*
D28*
X176588000Y-62182000D03*
%TD*%
D56*
%TO.C,U2*%
X192540612Y-80497500D03*
X193490612Y-80497500D03*
X194440612Y-80497500D03*
X194440612Y-78222500D03*
X193490612Y-78222500D03*
X192540612Y-78222500D03*
%TD*%
D11*
%TO.C,PYRO1_GNDD1*%
X136986500Y-36163000D03*
%TD*%
D26*
%TO.C,L8*%
X241515000Y-43250000D03*
X242485000Y-43250000D03*
%TD*%
D34*
%TO.C,R10*%
X124137500Y-39476500D03*
X124137500Y-41301500D03*
%TD*%
D16*
%TO.C,R2*%
X162276250Y-82675000D03*
X162276250Y-80850000D03*
%TD*%
D11*
%TO.C,TP_GND_2*%
X142250000Y-83000000D03*
%TD*%
D57*
%TO.C,SW1*%
X155420000Y-38595000D03*
X155420000Y-39865000D03*
X155420000Y-41135000D03*
X155420000Y-42405000D03*
X160500000Y-42405000D03*
X160500000Y-41135000D03*
X160500000Y-39865000D03*
X160500000Y-38595000D03*
%TD*%
D58*
%TO.C,BT2*%
X208910000Y-26910000D03*
D59*
X206910000Y-26910000D03*
%TD*%
D55*
%TO.C,C14*%
X161213000Y-26336000D03*
X161213000Y-28061000D03*
%TD*%
D22*
%TO.C,C11*%
X162237000Y-55743500D03*
X162237000Y-54018500D03*
%TD*%
D31*
%TO.C,C5*%
X171989500Y-62755000D03*
X170264500Y-62755000D03*
%TD*%
D11*
%TO.C,SPI_MISO1*%
X123875000Y-58250000D03*
%TD*%
D12*
%TO.C,*%
X152010000Y-64750000D03*
%TD*%
D31*
%TO.C,C4*%
X162210500Y-45864000D03*
X160485500Y-45864000D03*
%TD*%
D11*
%TO.C,3V3_mcu1*%
X176250000Y-38750000D03*
%TD*%
D53*
%TO.C,U6*%
X155152500Y-72780000D03*
X155152500Y-73730000D03*
X155152500Y-74680000D03*
X157427500Y-74680000D03*
X157427500Y-72780000D03*
%TD*%
D11*
%TO.C,PYRO2_CONT1*%
X127600500Y-39720500D03*
%TD*%
D31*
%TO.C,C47*%
X208072500Y-38060000D03*
X206347500Y-38060000D03*
%TD*%
D13*
%TO.C,C40*%
X232600000Y-43250000D03*
X232600000Y-44210000D03*
%TD*%
D11*
%TO.C,BOOT1*%
X164500000Y-38750000D03*
%TD*%
D60*
%TO.C,J5*%
X189250000Y-40580000D03*
D61*
X187980000Y-40580000D03*
X189250000Y-39310000D03*
X187980000Y-39310000D03*
X189250000Y-38040000D03*
X187980000Y-38040000D03*
X189250000Y-36770000D03*
X187980000Y-36770000D03*
X189250000Y-35500000D03*
X187980000Y-35500000D03*
X189250000Y-34230000D03*
X187980000Y-34230000D03*
X189250000Y-32960000D03*
X187980000Y-32960000D03*
%TD*%
D55*
%TO.C,C9*%
X167063000Y-61257500D03*
X167063000Y-62982500D03*
%TD*%
D16*
%TO.C,R13*%
X138773500Y-45208500D03*
X138773500Y-43383500D03*
%TD*%
D22*
%TO.C,C18*%
X160070000Y-76892500D03*
X160070000Y-75167500D03*
%TD*%
D50*
%TO.C,C56*%
X216580000Y-46200000D03*
X215620000Y-46200000D03*
%TD*%
D60*
%TO.C,J7*%
X204440000Y-46780000D03*
D61*
X205710000Y-46780000D03*
X204440000Y-48050000D03*
X205710000Y-48050000D03*
X204440000Y-49320000D03*
X205710000Y-49320000D03*
X204440000Y-50590000D03*
X205710000Y-50590000D03*
X204440000Y-51860000D03*
X205710000Y-51860000D03*
X204440000Y-53130000D03*
X205710000Y-53130000D03*
X204440000Y-54400000D03*
X205710000Y-54400000D03*
%TD*%
D31*
%TO.C,C17*%
X128987500Y-67250000D03*
X127262500Y-67250000D03*
%TD*%
%TO.C,C15*%
X128987500Y-70000000D03*
X127262500Y-70000000D03*
%TD*%
D50*
%TO.C,C41*%
X234680000Y-43250000D03*
X233720000Y-43250000D03*
%TD*%
D12*
%TO.C,*%
X152010000Y-61770000D03*
%TD*%
D11*
%TO.C,PYRO1_CONT1*%
X142236500Y-39663000D03*
%TD*%
D13*
%TO.C,C30*%
X213875000Y-53945000D03*
X213875000Y-54905000D03*
%TD*%
D55*
%TO.C,C7*%
X175064000Y-61257500D03*
X175064000Y-62982500D03*
%TD*%
D62*
%TO.C,FID1*%
X121760000Y-72170000D03*
%TD*%
D63*
%TO.C,R5*%
X177350000Y-59009000D03*
X177350000Y-60659000D03*
%TD*%
D11*
%TO.C,SPI_MOSI1*%
X128125000Y-58250000D03*
%TD*%
D64*
%TO.C,D2*%
X179128000Y-60621500D03*
X179128000Y-59046500D03*
%TD*%
D12*
%TO.C,*%
X130510000Y-87430000D03*
%TD*%
D64*
%TO.C,D1*%
X206010000Y-79427500D03*
X206010000Y-77852500D03*
%TD*%
D12*
%TO.C,*%
X149240000Y-64750000D03*
%TD*%
D65*
%TO.C,BT1*%
X155460000Y-80731250D03*
D59*
X157460000Y-80731250D03*
%TD*%
D22*
%TO.C,C16*%
X125250000Y-67112500D03*
X125250000Y-65387500D03*
%TD*%
D31*
%TO.C,C3*%
X162210500Y-47388000D03*
X160485500Y-47388000D03*
%TD*%
D42*
%TO.C,C55*%
X217060000Y-41860000D03*
X217060000Y-40900000D03*
%TD*%
D12*
%TO.C,REF\u002A\u002A*%
X154750000Y-64750000D03*
%TD*%
D11*
%TO.C,SD_CMD1*%
X152741000Y-29058000D03*
%TD*%
D49*
%TO.C,D3*%
X150890000Y-80665000D03*
X150890000Y-78915000D03*
%TD*%
D62*
%TO.C,FID2*%
X182310000Y-24490000D03*
%TD*%
D11*
%TO.C,TP_GND_1*%
X181110000Y-82390000D03*
%TD*%
D66*
%TO.C,SW2*%
X225870000Y-31175000D03*
X225870000Y-29905000D03*
X225870000Y-28635000D03*
X225870000Y-27365000D03*
X220790000Y-27365000D03*
X220790000Y-28635000D03*
X220790000Y-29905000D03*
X220790000Y-31175000D03*
%TD*%
D67*
%TO.C,C48*%
X207985000Y-39610000D03*
X206435000Y-39610000D03*
%TD*%
D55*
%TO.C,C19*%
X166900000Y-75138750D03*
X166900000Y-76863750D03*
%TD*%
D42*
%TO.C,C26*%
X223600000Y-40255000D03*
X223600000Y-39295000D03*
%TD*%
D28*
%TO.C,RN3*%
X224000000Y-23370000D03*
D29*
X223130000Y-23370000D03*
X222330000Y-23370000D03*
D28*
X221460000Y-23370000D03*
X221460000Y-24770000D03*
D29*
X222330000Y-24770000D03*
X223130000Y-24770000D03*
D28*
X224000000Y-24770000D03*
%TD*%
D12*
%TO.C,*%
X130500000Y-84430000D03*
%TD*%
%TO.C,*%
X133260000Y-87430000D03*
%TD*%
D11*
%TO.C,NRST1*%
X169750000Y-38750000D03*
%TD*%
D48*
%TO.C,C20*%
X155517500Y-77300000D03*
X157242500Y-77300000D03*
%TD*%
D11*
%TO.C,SPI_SCK1*%
X141500000Y-55500000D03*
%TD*%
D13*
%TO.C,C44*%
X240600000Y-43250000D03*
X240600000Y-44210000D03*
%TD*%
D21*
%TO.C,R12*%
X135197000Y-45219000D03*
X137022000Y-45219000D03*
%TD*%
D13*
%TO.C,C42*%
X237800000Y-43250000D03*
X237800000Y-44210000D03*
%TD*%
D68*
%TO.C,J3*%
X190600612Y-83613000D03*
X196380612Y-83613000D03*
D69*
X190290612Y-82538000D03*
X191090612Y-82538000D03*
D70*
X192240612Y-82538000D03*
X193240612Y-82538000D03*
X193740612Y-82538000D03*
X194740612Y-82538000D03*
D69*
X195890612Y-82538000D03*
X196690612Y-82538000D03*
X196690612Y-82538000D03*
X195890612Y-82538000D03*
D70*
X195240612Y-82538000D03*
X194240612Y-82538000D03*
X192740612Y-82538000D03*
X191740612Y-82538000D03*
D69*
X191090612Y-82538000D03*
X190290612Y-82538000D03*
D71*
X189170612Y-83113000D03*
D72*
X189170612Y-87293000D03*
D71*
X197810612Y-83113000D03*
D72*
X197810612Y-87293000D03*
%TD*%
D11*
%TO.C,IMU_INT1*%
X123750000Y-62500000D03*
%TD*%
D63*
%TO.C,R4*%
X165500000Y-71705000D03*
X165500000Y-73355000D03*
%TD*%
D73*
%TO.C,L5*%
X229400000Y-42250000D03*
X229400000Y-43220000D03*
%TD*%
D74*
%TO.C,L1*%
X173540000Y-61245000D03*
X173540000Y-62995000D03*
%TD*%
D75*
%TO.C,U3*%
X164076000Y-49771000D03*
X164076000Y-50271000D03*
X164076000Y-50771000D03*
X164076000Y-51271000D03*
X164076000Y-51771000D03*
X164076000Y-52271000D03*
X164076000Y-52771000D03*
X164076000Y-53271000D03*
X164076000Y-53771000D03*
X164076000Y-54271000D03*
X164076000Y-54771000D03*
X164076000Y-55271000D03*
X164076000Y-55771000D03*
X164076000Y-56271000D03*
X164076000Y-56771000D03*
X164076000Y-57271000D03*
D76*
X166001000Y-59196000D03*
X166501000Y-59196000D03*
X167001000Y-59196000D03*
X167501000Y-59196000D03*
X168001000Y-59196000D03*
X168501000Y-59196000D03*
X169001000Y-59196000D03*
X169501000Y-59196000D03*
X170001000Y-59196000D03*
X170501000Y-59196000D03*
X171001000Y-59196000D03*
X171501000Y-59196000D03*
X172001000Y-59196000D03*
X172501000Y-59196000D03*
X173001000Y-59196000D03*
X173501000Y-59196000D03*
D75*
X175426000Y-57271000D03*
X175426000Y-56771000D03*
X175426000Y-56271000D03*
X175426000Y-55771000D03*
X175426000Y-55271000D03*
X175426000Y-54771000D03*
X175426000Y-54271000D03*
X175426000Y-53771000D03*
X175426000Y-53271000D03*
X175426000Y-52771000D03*
X175426000Y-52271000D03*
X175426000Y-51771000D03*
X175426000Y-51271000D03*
X175426000Y-50771000D03*
X175426000Y-50271000D03*
X175426000Y-49771000D03*
D76*
X173501000Y-47846000D03*
X173001000Y-47846000D03*
X172501000Y-47846000D03*
X172001000Y-47846000D03*
X171501000Y-47846000D03*
X171001000Y-47846000D03*
X170501000Y-47846000D03*
X170001000Y-47846000D03*
X169501000Y-47846000D03*
X169001000Y-47846000D03*
X168501000Y-47846000D03*
X168001000Y-47846000D03*
X167501000Y-47846000D03*
X167001000Y-47846000D03*
X166501000Y-47846000D03*
X166001000Y-47846000D03*
%TD*%
D62*
%TO.C,FID3*%
X248530000Y-77320000D03*
%TD*%
D77*
%TO.C,U9*%
X218612500Y-48937500D03*
X219112500Y-48937500D03*
X219612500Y-48937500D03*
X220112500Y-48937500D03*
X220612500Y-48937500D03*
X221112500Y-48937500D03*
X221612500Y-48937500D03*
X222112500Y-48937500D03*
X222612500Y-48937500D03*
X223112500Y-48937500D03*
X223612500Y-48937500D03*
X224112500Y-48937500D03*
D78*
X224800000Y-48250000D03*
X224800000Y-47750000D03*
X224800000Y-47250000D03*
X224800000Y-46750000D03*
X224800000Y-46250000D03*
X224800000Y-45750000D03*
X224800000Y-45250000D03*
X224800000Y-44750000D03*
X224800000Y-44250000D03*
X224800000Y-43750000D03*
X224800000Y-43250000D03*
X224800000Y-42750000D03*
D77*
X224112500Y-42062500D03*
X223612500Y-42062500D03*
X223112500Y-42062500D03*
X222612500Y-42062500D03*
X222112500Y-42062500D03*
X221612500Y-42062500D03*
X221112500Y-42062500D03*
X220612500Y-42062500D03*
X220112500Y-42062500D03*
X219612500Y-42062500D03*
X219112500Y-42062500D03*
X218612500Y-42062500D03*
D78*
X217925000Y-42750000D03*
X217925000Y-43250000D03*
X217925000Y-43750000D03*
X217925000Y-44250000D03*
X217925000Y-44750000D03*
X217925000Y-45250000D03*
X217925000Y-45750000D03*
X217925000Y-46250000D03*
X217925000Y-46750000D03*
X217925000Y-47250000D03*
X217925000Y-47750000D03*
X217925000Y-48250000D03*
D79*
X221362500Y-45500000D03*
%TD*%
D22*
%TO.C,C13*%
X177604000Y-49774500D03*
X177604000Y-48049500D03*
%TD*%
D41*
%TO.C,C39*%
X230520000Y-42250000D03*
X231480000Y-42250000D03*
%TD*%
D12*
%TO.C,GNDD*%
X133250000Y-84430000D03*
%TD*%
M02*
