%TF.GenerationSoftware,KiCad,Pcbnew,9.0.4*%
%TF.CreationDate,2026-03-06T17:25:50-05:00*%
%TF.ProjectId,control-module,636f6e74-726f-46c2-9d6d-6f64756c652e,rev?*%
%TF.SameCoordinates,Original*%
%TF.FileFunction,Legend,Bot*%
%TF.FilePolarity,Positive*%
%FSLAX46Y46*%
G04 Gerber Fmt 4.6, Leading zero omitted, Abs format (unit mm)*
G04 Created by KiCad (PCBNEW 9.0.4) date 2026-03-06 17:25:50*
%MOMM*%
%LPD*%
G01*
G04 APERTURE LIST*
%ADD10C,0.150000*%
%ADD11C,0.120000*%
%ADD12C,0.000000*%
G04 APERTURE END LIST*
D10*
X129252180Y-28729220D02*
X130252180Y-28729220D01*
X130252180Y-28729220D02*
X130252180Y-28348268D01*
X130252180Y-28348268D02*
X130204561Y-28253030D01*
X130204561Y-28253030D02*
X130156942Y-28205411D01*
X130156942Y-28205411D02*
X130061704Y-28157792D01*
X130061704Y-28157792D02*
X129918847Y-28157792D01*
X129918847Y-28157792D02*
X129823609Y-28205411D01*
X129823609Y-28205411D02*
X129775990Y-28253030D01*
X129775990Y-28253030D02*
X129728371Y-28348268D01*
X129728371Y-28348268D02*
X129728371Y-28729220D01*
X130156942Y-27776839D02*
X130204561Y-27729220D01*
X130204561Y-27729220D02*
X130252180Y-27633982D01*
X130252180Y-27633982D02*
X130252180Y-27395887D01*
X130252180Y-27395887D02*
X130204561Y-27300649D01*
X130204561Y-27300649D02*
X130156942Y-27253030D01*
X130156942Y-27253030D02*
X130061704Y-27205411D01*
X130061704Y-27205411D02*
X129966466Y-27205411D01*
X129966466Y-27205411D02*
X129823609Y-27253030D01*
X129823609Y-27253030D02*
X129252180Y-27824458D01*
X129252180Y-27824458D02*
X129252180Y-27205411D01*
X129633133Y-26776839D02*
X129633133Y-26014935D01*
X129252180Y-26395887D02*
X130014085Y-26395887D01*
X134332180Y-28729220D02*
X135332180Y-28729220D01*
X135332180Y-28729220D02*
X135332180Y-28348268D01*
X135332180Y-28348268D02*
X135284561Y-28253030D01*
X135284561Y-28253030D02*
X135236942Y-28205411D01*
X135236942Y-28205411D02*
X135141704Y-28157792D01*
X135141704Y-28157792D02*
X134998847Y-28157792D01*
X134998847Y-28157792D02*
X134903609Y-28205411D01*
X134903609Y-28205411D02*
X134855990Y-28253030D01*
X134855990Y-28253030D02*
X134808371Y-28348268D01*
X134808371Y-28348268D02*
X134808371Y-28729220D01*
X134332180Y-27205411D02*
X134332180Y-27776839D01*
X134332180Y-27491125D02*
X135332180Y-27491125D01*
X135332180Y-27491125D02*
X135189323Y-27586363D01*
X135189323Y-27586363D02*
X135094085Y-27681601D01*
X135094085Y-27681601D02*
X135046466Y-27776839D01*
X134713133Y-26776839D02*
X134713133Y-26014935D01*
X134332180Y-26395887D02*
X135094085Y-26395887D01*
X131792180Y-28729220D02*
X132792180Y-28729220D01*
X132792180Y-28729220D02*
X132792180Y-28348268D01*
X132792180Y-28348268D02*
X132744561Y-28253030D01*
X132744561Y-28253030D02*
X132696942Y-28205411D01*
X132696942Y-28205411D02*
X132601704Y-28157792D01*
X132601704Y-28157792D02*
X132458847Y-28157792D01*
X132458847Y-28157792D02*
X132363609Y-28205411D01*
X132363609Y-28205411D02*
X132315990Y-28253030D01*
X132315990Y-28253030D02*
X132268371Y-28348268D01*
X132268371Y-28348268D02*
X132268371Y-28729220D01*
X132696942Y-27776839D02*
X132744561Y-27729220D01*
X132744561Y-27729220D02*
X132792180Y-27633982D01*
X132792180Y-27633982D02*
X132792180Y-27395887D01*
X132792180Y-27395887D02*
X132744561Y-27300649D01*
X132744561Y-27300649D02*
X132696942Y-27253030D01*
X132696942Y-27253030D02*
X132601704Y-27205411D01*
X132601704Y-27205411D02*
X132506466Y-27205411D01*
X132506466Y-27205411D02*
X132363609Y-27253030D01*
X132363609Y-27253030D02*
X131792180Y-27824458D01*
X131792180Y-27824458D02*
X131792180Y-27205411D01*
X132173133Y-26776839D02*
X132173133Y-26014935D01*
X136872180Y-28729220D02*
X137872180Y-28729220D01*
X137872180Y-28729220D02*
X137872180Y-28348268D01*
X137872180Y-28348268D02*
X137824561Y-28253030D01*
X137824561Y-28253030D02*
X137776942Y-28205411D01*
X137776942Y-28205411D02*
X137681704Y-28157792D01*
X137681704Y-28157792D02*
X137538847Y-28157792D01*
X137538847Y-28157792D02*
X137443609Y-28205411D01*
X137443609Y-28205411D02*
X137395990Y-28253030D01*
X137395990Y-28253030D02*
X137348371Y-28348268D01*
X137348371Y-28348268D02*
X137348371Y-28729220D01*
X136872180Y-27205411D02*
X136872180Y-27776839D01*
X136872180Y-27491125D02*
X137872180Y-27491125D01*
X137872180Y-27491125D02*
X137729323Y-27586363D01*
X137729323Y-27586363D02*
X137634085Y-27681601D01*
X137634085Y-27681601D02*
X137586466Y-27776839D01*
X137253133Y-26776839D02*
X137253133Y-26014935D01*
X140412180Y-27856077D02*
X139412180Y-27522744D01*
X139412180Y-27522744D02*
X140412180Y-27189411D01*
X139793133Y-26856077D02*
X139793133Y-26094173D01*
X139412180Y-26475125D02*
X140174085Y-26475125D01*
X188677800Y-57886190D02*
X188630180Y-57743333D01*
X188630180Y-57743333D02*
X188630180Y-57505238D01*
X188630180Y-57505238D02*
X188677800Y-57410000D01*
X188677800Y-57410000D02*
X188725419Y-57362381D01*
X188725419Y-57362381D02*
X188820657Y-57314762D01*
X188820657Y-57314762D02*
X188915895Y-57314762D01*
X188915895Y-57314762D02*
X189011133Y-57362381D01*
X189011133Y-57362381D02*
X189058752Y-57410000D01*
X189058752Y-57410000D02*
X189106371Y-57505238D01*
X189106371Y-57505238D02*
X189153990Y-57695714D01*
X189153990Y-57695714D02*
X189201609Y-57790952D01*
X189201609Y-57790952D02*
X189249228Y-57838571D01*
X189249228Y-57838571D02*
X189344466Y-57886190D01*
X189344466Y-57886190D02*
X189439704Y-57886190D01*
X189439704Y-57886190D02*
X189534942Y-57838571D01*
X189534942Y-57838571D02*
X189582561Y-57790952D01*
X189582561Y-57790952D02*
X189630180Y-57695714D01*
X189630180Y-57695714D02*
X189630180Y-57457619D01*
X189630180Y-57457619D02*
X189582561Y-57314762D01*
X189296847Y-56886190D02*
X188296847Y-56886190D01*
X189249228Y-56886190D02*
X189296847Y-56790952D01*
X189296847Y-56790952D02*
X189296847Y-56600476D01*
X189296847Y-56600476D02*
X189249228Y-56505238D01*
X189249228Y-56505238D02*
X189201609Y-56457619D01*
X189201609Y-56457619D02*
X189106371Y-56410000D01*
X189106371Y-56410000D02*
X188820657Y-56410000D01*
X188820657Y-56410000D02*
X188725419Y-56457619D01*
X188725419Y-56457619D02*
X188677800Y-56505238D01*
X188677800Y-56505238D02*
X188630180Y-56600476D01*
X188630180Y-56600476D02*
X188630180Y-56790952D01*
X188630180Y-56790952D02*
X188677800Y-56886190D01*
X188630180Y-55981428D02*
X189296847Y-55981428D01*
X189106371Y-55981428D02*
X189201609Y-55933809D01*
X189201609Y-55933809D02*
X189249228Y-55886190D01*
X189249228Y-55886190D02*
X189296847Y-55790952D01*
X189296847Y-55790952D02*
X189296847Y-55695714D01*
X188630180Y-55362380D02*
X189296847Y-55362380D01*
X189630180Y-55362380D02*
X189582561Y-55409999D01*
X189582561Y-55409999D02*
X189534942Y-55362380D01*
X189534942Y-55362380D02*
X189582561Y-55314761D01*
X189582561Y-55314761D02*
X189630180Y-55362380D01*
X189630180Y-55362380D02*
X189534942Y-55362380D01*
X189296847Y-54886190D02*
X188630180Y-54886190D01*
X189201609Y-54886190D02*
X189249228Y-54838571D01*
X189249228Y-54838571D02*
X189296847Y-54743333D01*
X189296847Y-54743333D02*
X189296847Y-54600476D01*
X189296847Y-54600476D02*
X189249228Y-54505238D01*
X189249228Y-54505238D02*
X189153990Y-54457619D01*
X189153990Y-54457619D02*
X188630180Y-54457619D01*
X189296847Y-53552857D02*
X188487323Y-53552857D01*
X188487323Y-53552857D02*
X188392085Y-53600476D01*
X188392085Y-53600476D02*
X188344466Y-53648095D01*
X188344466Y-53648095D02*
X188296847Y-53743333D01*
X188296847Y-53743333D02*
X188296847Y-53886190D01*
X188296847Y-53886190D02*
X188344466Y-53981428D01*
X188677800Y-53552857D02*
X188630180Y-53648095D01*
X188630180Y-53648095D02*
X188630180Y-53838571D01*
X188630180Y-53838571D02*
X188677800Y-53933809D01*
X188677800Y-53933809D02*
X188725419Y-53981428D01*
X188725419Y-53981428D02*
X188820657Y-54029047D01*
X188820657Y-54029047D02*
X189106371Y-54029047D01*
X189106371Y-54029047D02*
X189201609Y-53981428D01*
X189201609Y-53981428D02*
X189249228Y-53933809D01*
X189249228Y-53933809D02*
X189296847Y-53838571D01*
X189296847Y-53838571D02*
X189296847Y-53648095D01*
X189296847Y-53648095D02*
X189249228Y-53552857D01*
X189534942Y-52362380D02*
X189582561Y-52314761D01*
X189582561Y-52314761D02*
X189630180Y-52219523D01*
X189630180Y-52219523D02*
X189630180Y-51981428D01*
X189630180Y-51981428D02*
X189582561Y-51886190D01*
X189582561Y-51886190D02*
X189534942Y-51838571D01*
X189534942Y-51838571D02*
X189439704Y-51790952D01*
X189439704Y-51790952D02*
X189344466Y-51790952D01*
X189344466Y-51790952D02*
X189201609Y-51838571D01*
X189201609Y-51838571D02*
X188630180Y-52409999D01*
X188630180Y-52409999D02*
X188630180Y-51790952D01*
X189630180Y-51171904D02*
X189630180Y-51076666D01*
X189630180Y-51076666D02*
X189582561Y-50981428D01*
X189582561Y-50981428D02*
X189534942Y-50933809D01*
X189534942Y-50933809D02*
X189439704Y-50886190D01*
X189439704Y-50886190D02*
X189249228Y-50838571D01*
X189249228Y-50838571D02*
X189011133Y-50838571D01*
X189011133Y-50838571D02*
X188820657Y-50886190D01*
X188820657Y-50886190D02*
X188725419Y-50933809D01*
X188725419Y-50933809D02*
X188677800Y-50981428D01*
X188677800Y-50981428D02*
X188630180Y-51076666D01*
X188630180Y-51076666D02*
X188630180Y-51171904D01*
X188630180Y-51171904D02*
X188677800Y-51267142D01*
X188677800Y-51267142D02*
X188725419Y-51314761D01*
X188725419Y-51314761D02*
X188820657Y-51362380D01*
X188820657Y-51362380D02*
X189011133Y-51409999D01*
X189011133Y-51409999D02*
X189249228Y-51409999D01*
X189249228Y-51409999D02*
X189439704Y-51362380D01*
X189439704Y-51362380D02*
X189534942Y-51314761D01*
X189534942Y-51314761D02*
X189582561Y-51267142D01*
X189582561Y-51267142D02*
X189630180Y-51171904D01*
X189534942Y-50457618D02*
X189582561Y-50409999D01*
X189582561Y-50409999D02*
X189630180Y-50314761D01*
X189630180Y-50314761D02*
X189630180Y-50076666D01*
X189630180Y-50076666D02*
X189582561Y-49981428D01*
X189582561Y-49981428D02*
X189534942Y-49933809D01*
X189534942Y-49933809D02*
X189439704Y-49886190D01*
X189439704Y-49886190D02*
X189344466Y-49886190D01*
X189344466Y-49886190D02*
X189201609Y-49933809D01*
X189201609Y-49933809D02*
X188630180Y-50505237D01*
X188630180Y-50505237D02*
X188630180Y-49886190D01*
X189630180Y-49029047D02*
X189630180Y-49219523D01*
X189630180Y-49219523D02*
X189582561Y-49314761D01*
X189582561Y-49314761D02*
X189534942Y-49362380D01*
X189534942Y-49362380D02*
X189392085Y-49457618D01*
X189392085Y-49457618D02*
X189201609Y-49505237D01*
X189201609Y-49505237D02*
X188820657Y-49505237D01*
X188820657Y-49505237D02*
X188725419Y-49457618D01*
X188725419Y-49457618D02*
X188677800Y-49409999D01*
X188677800Y-49409999D02*
X188630180Y-49314761D01*
X188630180Y-49314761D02*
X188630180Y-49124285D01*
X188630180Y-49124285D02*
X188677800Y-49029047D01*
X188677800Y-49029047D02*
X188725419Y-48981428D01*
X188725419Y-48981428D02*
X188820657Y-48933809D01*
X188820657Y-48933809D02*
X189058752Y-48933809D01*
X189058752Y-48933809D02*
X189153990Y-48981428D01*
X189153990Y-48981428D02*
X189201609Y-49029047D01*
X189201609Y-49029047D02*
X189249228Y-49124285D01*
X189249228Y-49124285D02*
X189249228Y-49314761D01*
X189249228Y-49314761D02*
X189201609Y-49409999D01*
X189201609Y-49409999D02*
X189153990Y-49457618D01*
X189153990Y-49457618D02*
X189058752Y-49505237D01*
X186630180Y-58717144D02*
X186439704Y-58717144D01*
X186630180Y-58336192D02*
X186439704Y-58336192D01*
X185725419Y-57336192D02*
X185677800Y-57383811D01*
X185677800Y-57383811D02*
X185630180Y-57526668D01*
X185630180Y-57526668D02*
X185630180Y-57621906D01*
X185630180Y-57621906D02*
X185677800Y-57764763D01*
X185677800Y-57764763D02*
X185773038Y-57860001D01*
X185773038Y-57860001D02*
X185868276Y-57907620D01*
X185868276Y-57907620D02*
X186058752Y-57955239D01*
X186058752Y-57955239D02*
X186201609Y-57955239D01*
X186201609Y-57955239D02*
X186392085Y-57907620D01*
X186392085Y-57907620D02*
X186487323Y-57860001D01*
X186487323Y-57860001D02*
X186582561Y-57764763D01*
X186582561Y-57764763D02*
X186630180Y-57621906D01*
X186630180Y-57621906D02*
X186630180Y-57526668D01*
X186630180Y-57526668D02*
X186582561Y-57383811D01*
X186582561Y-57383811D02*
X186534942Y-57336192D01*
X185630180Y-56764763D02*
X185677800Y-56860001D01*
X185677800Y-56860001D02*
X185725419Y-56907620D01*
X185725419Y-56907620D02*
X185820657Y-56955239D01*
X185820657Y-56955239D02*
X186106371Y-56955239D01*
X186106371Y-56955239D02*
X186201609Y-56907620D01*
X186201609Y-56907620D02*
X186249228Y-56860001D01*
X186249228Y-56860001D02*
X186296847Y-56764763D01*
X186296847Y-56764763D02*
X186296847Y-56621906D01*
X186296847Y-56621906D02*
X186249228Y-56526668D01*
X186249228Y-56526668D02*
X186201609Y-56479049D01*
X186201609Y-56479049D02*
X186106371Y-56431430D01*
X186106371Y-56431430D02*
X185820657Y-56431430D01*
X185820657Y-56431430D02*
X185725419Y-56479049D01*
X185725419Y-56479049D02*
X185677800Y-56526668D01*
X185677800Y-56526668D02*
X185630180Y-56621906D01*
X185630180Y-56621906D02*
X185630180Y-56764763D01*
X185630180Y-56002858D02*
X186296847Y-56002858D01*
X186201609Y-56002858D02*
X186249228Y-55955239D01*
X186249228Y-55955239D02*
X186296847Y-55860001D01*
X186296847Y-55860001D02*
X186296847Y-55717144D01*
X186296847Y-55717144D02*
X186249228Y-55621906D01*
X186249228Y-55621906D02*
X186153990Y-55574287D01*
X186153990Y-55574287D02*
X185630180Y-55574287D01*
X186153990Y-55574287D02*
X186249228Y-55526668D01*
X186249228Y-55526668D02*
X186296847Y-55431430D01*
X186296847Y-55431430D02*
X186296847Y-55288573D01*
X186296847Y-55288573D02*
X186249228Y-55193334D01*
X186249228Y-55193334D02*
X186153990Y-55145715D01*
X186153990Y-55145715D02*
X185630180Y-55145715D01*
X186296847Y-54669525D02*
X185296847Y-54669525D01*
X186249228Y-54669525D02*
X186296847Y-54574287D01*
X186296847Y-54574287D02*
X186296847Y-54383811D01*
X186296847Y-54383811D02*
X186249228Y-54288573D01*
X186249228Y-54288573D02*
X186201609Y-54240954D01*
X186201609Y-54240954D02*
X186106371Y-54193335D01*
X186106371Y-54193335D02*
X185820657Y-54193335D01*
X185820657Y-54193335D02*
X185725419Y-54240954D01*
X185725419Y-54240954D02*
X185677800Y-54288573D01*
X185677800Y-54288573D02*
X185630180Y-54383811D01*
X185630180Y-54383811D02*
X185630180Y-54574287D01*
X185630180Y-54574287D02*
X185677800Y-54669525D01*
X186296847Y-53336192D02*
X185630180Y-53336192D01*
X186296847Y-53764763D02*
X185773038Y-53764763D01*
X185773038Y-53764763D02*
X185677800Y-53717144D01*
X185677800Y-53717144D02*
X185630180Y-53621906D01*
X185630180Y-53621906D02*
X185630180Y-53479049D01*
X185630180Y-53479049D02*
X185677800Y-53383811D01*
X185677800Y-53383811D02*
X185725419Y-53336192D01*
X186296847Y-53002858D02*
X186296847Y-52621906D01*
X186630180Y-52860001D02*
X185773038Y-52860001D01*
X185773038Y-52860001D02*
X185677800Y-52812382D01*
X185677800Y-52812382D02*
X185630180Y-52717144D01*
X185630180Y-52717144D02*
X185630180Y-52621906D01*
X185630180Y-51860001D02*
X186153990Y-51860001D01*
X186153990Y-51860001D02*
X186249228Y-51907620D01*
X186249228Y-51907620D02*
X186296847Y-52002858D01*
X186296847Y-52002858D02*
X186296847Y-52193334D01*
X186296847Y-52193334D02*
X186249228Y-52288572D01*
X185677800Y-51860001D02*
X185630180Y-51955239D01*
X185630180Y-51955239D02*
X185630180Y-52193334D01*
X185630180Y-52193334D02*
X185677800Y-52288572D01*
X185677800Y-52288572D02*
X185773038Y-52336191D01*
X185773038Y-52336191D02*
X185868276Y-52336191D01*
X185868276Y-52336191D02*
X185963514Y-52288572D01*
X185963514Y-52288572D02*
X186011133Y-52193334D01*
X186011133Y-52193334D02*
X186011133Y-51955239D01*
X186011133Y-51955239D02*
X186058752Y-51860001D01*
X185630180Y-51383810D02*
X186630180Y-51383810D01*
X185630180Y-50955239D02*
X186153990Y-50955239D01*
X186153990Y-50955239D02*
X186249228Y-51002858D01*
X186249228Y-51002858D02*
X186296847Y-51098096D01*
X186296847Y-51098096D02*
X186296847Y-51240953D01*
X186296847Y-51240953D02*
X186249228Y-51336191D01*
X186249228Y-51336191D02*
X186201609Y-51383810D01*
X185677800Y-50431429D02*
X185630180Y-50431429D01*
X185630180Y-50431429D02*
X185534942Y-50479048D01*
X185534942Y-50479048D02*
X185487323Y-50526667D01*
X185630180Y-49098096D02*
X185677800Y-49193334D01*
X185677800Y-49193334D02*
X185773038Y-49240953D01*
X185773038Y-49240953D02*
X186630180Y-49240953D01*
X185630180Y-48288572D02*
X186153990Y-48288572D01*
X186153990Y-48288572D02*
X186249228Y-48336191D01*
X186249228Y-48336191D02*
X186296847Y-48431429D01*
X186296847Y-48431429D02*
X186296847Y-48621905D01*
X186296847Y-48621905D02*
X186249228Y-48717143D01*
X185677800Y-48288572D02*
X185630180Y-48383810D01*
X185630180Y-48383810D02*
X185630180Y-48621905D01*
X185630180Y-48621905D02*
X185677800Y-48717143D01*
X185677800Y-48717143D02*
X185773038Y-48764762D01*
X185773038Y-48764762D02*
X185868276Y-48764762D01*
X185868276Y-48764762D02*
X185963514Y-48717143D01*
X185963514Y-48717143D02*
X186011133Y-48621905D01*
X186011133Y-48621905D02*
X186011133Y-48383810D01*
X186011133Y-48383810D02*
X186058752Y-48288572D01*
X186296847Y-47383810D02*
X185630180Y-47383810D01*
X186296847Y-47812381D02*
X185773038Y-47812381D01*
X185773038Y-47812381D02*
X185677800Y-47764762D01*
X185677800Y-47764762D02*
X185630180Y-47669524D01*
X185630180Y-47669524D02*
X185630180Y-47526667D01*
X185630180Y-47526667D02*
X185677800Y-47431429D01*
X185677800Y-47431429D02*
X185725419Y-47383810D01*
X186296847Y-46907619D02*
X185630180Y-46907619D01*
X186201609Y-46907619D02*
X186249228Y-46860000D01*
X186249228Y-46860000D02*
X186296847Y-46764762D01*
X186296847Y-46764762D02*
X186296847Y-46621905D01*
X186296847Y-46621905D02*
X186249228Y-46526667D01*
X186249228Y-46526667D02*
X186153990Y-46479048D01*
X186153990Y-46479048D02*
X185630180Y-46479048D01*
X185677800Y-45574286D02*
X185630180Y-45669524D01*
X185630180Y-45669524D02*
X185630180Y-45860000D01*
X185630180Y-45860000D02*
X185677800Y-45955238D01*
X185677800Y-45955238D02*
X185725419Y-46002857D01*
X185725419Y-46002857D02*
X185820657Y-46050476D01*
X185820657Y-46050476D02*
X186106371Y-46050476D01*
X186106371Y-46050476D02*
X186201609Y-46002857D01*
X186201609Y-46002857D02*
X186249228Y-45955238D01*
X186249228Y-45955238D02*
X186296847Y-45860000D01*
X186296847Y-45860000D02*
X186296847Y-45669524D01*
X186296847Y-45669524D02*
X186249228Y-45574286D01*
X185630180Y-45145714D02*
X186630180Y-45145714D01*
X185630180Y-44717143D02*
X186153990Y-44717143D01*
X186153990Y-44717143D02*
X186249228Y-44764762D01*
X186249228Y-44764762D02*
X186296847Y-44860000D01*
X186296847Y-44860000D02*
X186296847Y-45002857D01*
X186296847Y-45002857D02*
X186249228Y-45098095D01*
X186249228Y-45098095D02*
X186201609Y-45145714D01*
X186296847Y-43621904D02*
X186296847Y-43240952D01*
X186630180Y-43479047D02*
X185773038Y-43479047D01*
X185773038Y-43479047D02*
X185677800Y-43431428D01*
X185677800Y-43431428D02*
X185630180Y-43336190D01*
X185630180Y-43336190D02*
X185630180Y-43240952D01*
X185630180Y-42907618D02*
X186630180Y-42907618D01*
X185630180Y-42479047D02*
X186153990Y-42479047D01*
X186153990Y-42479047D02*
X186249228Y-42526666D01*
X186249228Y-42526666D02*
X186296847Y-42621904D01*
X186296847Y-42621904D02*
X186296847Y-42764761D01*
X186296847Y-42764761D02*
X186249228Y-42859999D01*
X186249228Y-42859999D02*
X186201609Y-42907618D01*
X185630180Y-42002856D02*
X186296847Y-42002856D01*
X186630180Y-42002856D02*
X186582561Y-42050475D01*
X186582561Y-42050475D02*
X186534942Y-42002856D01*
X186534942Y-42002856D02*
X186582561Y-41955237D01*
X186582561Y-41955237D02*
X186630180Y-42002856D01*
X186630180Y-42002856D02*
X186534942Y-42002856D01*
X185677800Y-41574285D02*
X185630180Y-41479047D01*
X185630180Y-41479047D02*
X185630180Y-41288571D01*
X185630180Y-41288571D02*
X185677800Y-41193333D01*
X185677800Y-41193333D02*
X185773038Y-41145714D01*
X185773038Y-41145714D02*
X185820657Y-41145714D01*
X185820657Y-41145714D02*
X185915895Y-41193333D01*
X185915895Y-41193333D02*
X185963514Y-41288571D01*
X185963514Y-41288571D02*
X185963514Y-41431428D01*
X185963514Y-41431428D02*
X186011133Y-41526666D01*
X186011133Y-41526666D02*
X186106371Y-41574285D01*
X186106371Y-41574285D02*
X186153990Y-41574285D01*
X186153990Y-41574285D02*
X186249228Y-41526666D01*
X186249228Y-41526666D02*
X186296847Y-41431428D01*
X186296847Y-41431428D02*
X186296847Y-41288571D01*
X186296847Y-41288571D02*
X186249228Y-41193333D01*
X185630180Y-39955237D02*
X186296847Y-39955237D01*
X186106371Y-39955237D02*
X186201609Y-39907618D01*
X186201609Y-39907618D02*
X186249228Y-39859999D01*
X186249228Y-39859999D02*
X186296847Y-39764761D01*
X186296847Y-39764761D02*
X186296847Y-39669523D01*
X185630180Y-39193332D02*
X185677800Y-39288570D01*
X185677800Y-39288570D02*
X185725419Y-39336189D01*
X185725419Y-39336189D02*
X185820657Y-39383808D01*
X185820657Y-39383808D02*
X186106371Y-39383808D01*
X186106371Y-39383808D02*
X186201609Y-39336189D01*
X186201609Y-39336189D02*
X186249228Y-39288570D01*
X186249228Y-39288570D02*
X186296847Y-39193332D01*
X186296847Y-39193332D02*
X186296847Y-39050475D01*
X186296847Y-39050475D02*
X186249228Y-38955237D01*
X186249228Y-38955237D02*
X186201609Y-38907618D01*
X186201609Y-38907618D02*
X186106371Y-38859999D01*
X186106371Y-38859999D02*
X185820657Y-38859999D01*
X185820657Y-38859999D02*
X185725419Y-38907618D01*
X185725419Y-38907618D02*
X185677800Y-38955237D01*
X185677800Y-38955237D02*
X185630180Y-39050475D01*
X185630180Y-39050475D02*
X185630180Y-39193332D01*
X185677800Y-38002856D02*
X185630180Y-38098094D01*
X185630180Y-38098094D02*
X185630180Y-38288570D01*
X185630180Y-38288570D02*
X185677800Y-38383808D01*
X185677800Y-38383808D02*
X185725419Y-38431427D01*
X185725419Y-38431427D02*
X185820657Y-38479046D01*
X185820657Y-38479046D02*
X186106371Y-38479046D01*
X186106371Y-38479046D02*
X186201609Y-38431427D01*
X186201609Y-38431427D02*
X186249228Y-38383808D01*
X186249228Y-38383808D02*
X186296847Y-38288570D01*
X186296847Y-38288570D02*
X186296847Y-38098094D01*
X186296847Y-38098094D02*
X186249228Y-38002856D01*
X185630180Y-37574284D02*
X186630180Y-37574284D01*
X186011133Y-37479046D02*
X185630180Y-37193332D01*
X186296847Y-37193332D02*
X185915895Y-37574284D01*
X185677800Y-36383808D02*
X185630180Y-36479046D01*
X185630180Y-36479046D02*
X185630180Y-36669522D01*
X185630180Y-36669522D02*
X185677800Y-36764760D01*
X185677800Y-36764760D02*
X185773038Y-36812379D01*
X185773038Y-36812379D02*
X186153990Y-36812379D01*
X186153990Y-36812379D02*
X186249228Y-36764760D01*
X186249228Y-36764760D02*
X186296847Y-36669522D01*
X186296847Y-36669522D02*
X186296847Y-36479046D01*
X186296847Y-36479046D02*
X186249228Y-36383808D01*
X186249228Y-36383808D02*
X186153990Y-36336189D01*
X186153990Y-36336189D02*
X186058752Y-36336189D01*
X186058752Y-36336189D02*
X185963514Y-36812379D01*
X186296847Y-36050474D02*
X186296847Y-35669522D01*
X186630180Y-35907617D02*
X185773038Y-35907617D01*
X185773038Y-35907617D02*
X185677800Y-35859998D01*
X185677800Y-35859998D02*
X185630180Y-35764760D01*
X185630180Y-35764760D02*
X185630180Y-35669522D01*
X186630180Y-35383807D02*
X186439704Y-35383807D01*
X186630180Y-35002855D02*
X186439704Y-35002855D01*
X142952180Y-27856077D02*
X141952180Y-27522744D01*
X141952180Y-27522744D02*
X142952180Y-27189411D01*
X142333133Y-26856077D02*
X142333133Y-26094173D01*
X191975419Y-57349049D02*
X191927800Y-57396668D01*
X191927800Y-57396668D02*
X191880180Y-57539525D01*
X191880180Y-57539525D02*
X191880180Y-57634763D01*
X191880180Y-57634763D02*
X191927800Y-57777620D01*
X191927800Y-57777620D02*
X192023038Y-57872858D01*
X192023038Y-57872858D02*
X192118276Y-57920477D01*
X192118276Y-57920477D02*
X192308752Y-57968096D01*
X192308752Y-57968096D02*
X192451609Y-57968096D01*
X192451609Y-57968096D02*
X192642085Y-57920477D01*
X192642085Y-57920477D02*
X192737323Y-57872858D01*
X192737323Y-57872858D02*
X192832561Y-57777620D01*
X192832561Y-57777620D02*
X192880180Y-57634763D01*
X192880180Y-57634763D02*
X192880180Y-57539525D01*
X192880180Y-57539525D02*
X192832561Y-57396668D01*
X192832561Y-57396668D02*
X192784942Y-57349049D01*
X191880180Y-56777620D02*
X191927800Y-56872858D01*
X191927800Y-56872858D02*
X191975419Y-56920477D01*
X191975419Y-56920477D02*
X192070657Y-56968096D01*
X192070657Y-56968096D02*
X192356371Y-56968096D01*
X192356371Y-56968096D02*
X192451609Y-56920477D01*
X192451609Y-56920477D02*
X192499228Y-56872858D01*
X192499228Y-56872858D02*
X192546847Y-56777620D01*
X192546847Y-56777620D02*
X192546847Y-56634763D01*
X192546847Y-56634763D02*
X192499228Y-56539525D01*
X192499228Y-56539525D02*
X192451609Y-56491906D01*
X192451609Y-56491906D02*
X192356371Y-56444287D01*
X192356371Y-56444287D02*
X192070657Y-56444287D01*
X192070657Y-56444287D02*
X191975419Y-56491906D01*
X191975419Y-56491906D02*
X191927800Y-56539525D01*
X191927800Y-56539525D02*
X191880180Y-56634763D01*
X191880180Y-56634763D02*
X191880180Y-56777620D01*
X192546847Y-56015715D02*
X191880180Y-56015715D01*
X192451609Y-56015715D02*
X192499228Y-55968096D01*
X192499228Y-55968096D02*
X192546847Y-55872858D01*
X192546847Y-55872858D02*
X192546847Y-55730001D01*
X192546847Y-55730001D02*
X192499228Y-55634763D01*
X192499228Y-55634763D02*
X192403990Y-55587144D01*
X192403990Y-55587144D02*
X191880180Y-55587144D01*
X192546847Y-55253810D02*
X192546847Y-54872858D01*
X192880180Y-55110953D02*
X192023038Y-55110953D01*
X192023038Y-55110953D02*
X191927800Y-55063334D01*
X191927800Y-55063334D02*
X191880180Y-54968096D01*
X191880180Y-54968096D02*
X191880180Y-54872858D01*
X191880180Y-54539524D02*
X192546847Y-54539524D01*
X192356371Y-54539524D02*
X192451609Y-54491905D01*
X192451609Y-54491905D02*
X192499228Y-54444286D01*
X192499228Y-54444286D02*
X192546847Y-54349048D01*
X192546847Y-54349048D02*
X192546847Y-54253810D01*
X191880180Y-53777619D02*
X191927800Y-53872857D01*
X191927800Y-53872857D02*
X191975419Y-53920476D01*
X191975419Y-53920476D02*
X192070657Y-53968095D01*
X192070657Y-53968095D02*
X192356371Y-53968095D01*
X192356371Y-53968095D02*
X192451609Y-53920476D01*
X192451609Y-53920476D02*
X192499228Y-53872857D01*
X192499228Y-53872857D02*
X192546847Y-53777619D01*
X192546847Y-53777619D02*
X192546847Y-53634762D01*
X192546847Y-53634762D02*
X192499228Y-53539524D01*
X192499228Y-53539524D02*
X192451609Y-53491905D01*
X192451609Y-53491905D02*
X192356371Y-53444286D01*
X192356371Y-53444286D02*
X192070657Y-53444286D01*
X192070657Y-53444286D02*
X191975419Y-53491905D01*
X191975419Y-53491905D02*
X191927800Y-53539524D01*
X191927800Y-53539524D02*
X191880180Y-53634762D01*
X191880180Y-53634762D02*
X191880180Y-53777619D01*
X191880180Y-52872857D02*
X191927800Y-52968095D01*
X191927800Y-52968095D02*
X192023038Y-53015714D01*
X192023038Y-53015714D02*
X192880180Y-53015714D01*
X191880180Y-51729999D02*
X192880180Y-51729999D01*
X192880180Y-51729999D02*
X192165895Y-51396666D01*
X192165895Y-51396666D02*
X192880180Y-51063333D01*
X192880180Y-51063333D02*
X191880180Y-51063333D01*
X191880180Y-50444285D02*
X191927800Y-50539523D01*
X191927800Y-50539523D02*
X191975419Y-50587142D01*
X191975419Y-50587142D02*
X192070657Y-50634761D01*
X192070657Y-50634761D02*
X192356371Y-50634761D01*
X192356371Y-50634761D02*
X192451609Y-50587142D01*
X192451609Y-50587142D02*
X192499228Y-50539523D01*
X192499228Y-50539523D02*
X192546847Y-50444285D01*
X192546847Y-50444285D02*
X192546847Y-50301428D01*
X192546847Y-50301428D02*
X192499228Y-50206190D01*
X192499228Y-50206190D02*
X192451609Y-50158571D01*
X192451609Y-50158571D02*
X192356371Y-50110952D01*
X192356371Y-50110952D02*
X192070657Y-50110952D01*
X192070657Y-50110952D02*
X191975419Y-50158571D01*
X191975419Y-50158571D02*
X191927800Y-50206190D01*
X191927800Y-50206190D02*
X191880180Y-50301428D01*
X191880180Y-50301428D02*
X191880180Y-50444285D01*
X191880180Y-49253809D02*
X192880180Y-49253809D01*
X191927800Y-49253809D02*
X191880180Y-49349047D01*
X191880180Y-49349047D02*
X191880180Y-49539523D01*
X191880180Y-49539523D02*
X191927800Y-49634761D01*
X191927800Y-49634761D02*
X191975419Y-49682380D01*
X191975419Y-49682380D02*
X192070657Y-49729999D01*
X192070657Y-49729999D02*
X192356371Y-49729999D01*
X192356371Y-49729999D02*
X192451609Y-49682380D01*
X192451609Y-49682380D02*
X192499228Y-49634761D01*
X192499228Y-49634761D02*
X192546847Y-49539523D01*
X192546847Y-49539523D02*
X192546847Y-49349047D01*
X192546847Y-49349047D02*
X192499228Y-49253809D01*
X192546847Y-48349047D02*
X191880180Y-48349047D01*
X192546847Y-48777618D02*
X192023038Y-48777618D01*
X192023038Y-48777618D02*
X191927800Y-48729999D01*
X191927800Y-48729999D02*
X191880180Y-48634761D01*
X191880180Y-48634761D02*
X191880180Y-48491904D01*
X191880180Y-48491904D02*
X191927800Y-48396666D01*
X191927800Y-48396666D02*
X191975419Y-48349047D01*
X191880180Y-47729999D02*
X191927800Y-47825237D01*
X191927800Y-47825237D02*
X192023038Y-47872856D01*
X192023038Y-47872856D02*
X192880180Y-47872856D01*
X191927800Y-46968094D02*
X191880180Y-47063332D01*
X191880180Y-47063332D02*
X191880180Y-47253808D01*
X191880180Y-47253808D02*
X191927800Y-47349046D01*
X191927800Y-47349046D02*
X192023038Y-47396665D01*
X192023038Y-47396665D02*
X192403990Y-47396665D01*
X192403990Y-47396665D02*
X192499228Y-47349046D01*
X192499228Y-47349046D02*
X192546847Y-47253808D01*
X192546847Y-47253808D02*
X192546847Y-47063332D01*
X192546847Y-47063332D02*
X192499228Y-46968094D01*
X192499228Y-46968094D02*
X192403990Y-46920475D01*
X192403990Y-46920475D02*
X192308752Y-46920475D01*
X192308752Y-46920475D02*
X192213514Y-47396665D01*
X192880180Y-45872855D02*
X192880180Y-45301427D01*
X191880180Y-45587141D02*
X192880180Y-45587141D01*
X191927800Y-44587141D02*
X191880180Y-44682379D01*
X191880180Y-44682379D02*
X191880180Y-44872855D01*
X191880180Y-44872855D02*
X191927800Y-44968093D01*
X191927800Y-44968093D02*
X192023038Y-45015712D01*
X192023038Y-45015712D02*
X192403990Y-45015712D01*
X192403990Y-45015712D02*
X192499228Y-44968093D01*
X192499228Y-44968093D02*
X192546847Y-44872855D01*
X192546847Y-44872855D02*
X192546847Y-44682379D01*
X192546847Y-44682379D02*
X192499228Y-44587141D01*
X192499228Y-44587141D02*
X192403990Y-44539522D01*
X192403990Y-44539522D02*
X192308752Y-44539522D01*
X192308752Y-44539522D02*
X192213514Y-45015712D01*
X191927800Y-44158569D02*
X191880180Y-44063331D01*
X191880180Y-44063331D02*
X191880180Y-43872855D01*
X191880180Y-43872855D02*
X191927800Y-43777617D01*
X191927800Y-43777617D02*
X192023038Y-43729998D01*
X192023038Y-43729998D02*
X192070657Y-43729998D01*
X192070657Y-43729998D02*
X192165895Y-43777617D01*
X192165895Y-43777617D02*
X192213514Y-43872855D01*
X192213514Y-43872855D02*
X192213514Y-44015712D01*
X192213514Y-44015712D02*
X192261133Y-44110950D01*
X192261133Y-44110950D02*
X192356371Y-44158569D01*
X192356371Y-44158569D02*
X192403990Y-44158569D01*
X192403990Y-44158569D02*
X192499228Y-44110950D01*
X192499228Y-44110950D02*
X192546847Y-44015712D01*
X192546847Y-44015712D02*
X192546847Y-43872855D01*
X192546847Y-43872855D02*
X192499228Y-43777617D01*
X192546847Y-43444283D02*
X192546847Y-43063331D01*
X192880180Y-43301426D02*
X192023038Y-43301426D01*
X192023038Y-43301426D02*
X191927800Y-43253807D01*
X191927800Y-43253807D02*
X191880180Y-43158569D01*
X191880180Y-43158569D02*
X191880180Y-43063331D01*
X191880180Y-42729997D02*
X192880180Y-42729997D01*
X192499228Y-42729997D02*
X192546847Y-42634759D01*
X192546847Y-42634759D02*
X192546847Y-42444283D01*
X192546847Y-42444283D02*
X192499228Y-42349045D01*
X192499228Y-42349045D02*
X192451609Y-42301426D01*
X192451609Y-42301426D02*
X192356371Y-42253807D01*
X192356371Y-42253807D02*
X192070657Y-42253807D01*
X192070657Y-42253807D02*
X191975419Y-42301426D01*
X191975419Y-42301426D02*
X191927800Y-42349045D01*
X191927800Y-42349045D02*
X191880180Y-42444283D01*
X191880180Y-42444283D02*
X191880180Y-42634759D01*
X191880180Y-42634759D02*
X191927800Y-42729997D01*
X191927800Y-41444283D02*
X191880180Y-41539521D01*
X191880180Y-41539521D02*
X191880180Y-41729997D01*
X191880180Y-41729997D02*
X191927800Y-41825235D01*
X191927800Y-41825235D02*
X192023038Y-41872854D01*
X192023038Y-41872854D02*
X192403990Y-41872854D01*
X192403990Y-41872854D02*
X192499228Y-41825235D01*
X192499228Y-41825235D02*
X192546847Y-41729997D01*
X192546847Y-41729997D02*
X192546847Y-41539521D01*
X192546847Y-41539521D02*
X192499228Y-41444283D01*
X192499228Y-41444283D02*
X192403990Y-41396664D01*
X192403990Y-41396664D02*
X192308752Y-41396664D01*
X192308752Y-41396664D02*
X192213514Y-41872854D01*
X191880180Y-40539521D02*
X192880180Y-40539521D01*
X191927800Y-40539521D02*
X191880180Y-40634759D01*
X191880180Y-40634759D02*
X191880180Y-40825235D01*
X191880180Y-40825235D02*
X191927800Y-40920473D01*
X191927800Y-40920473D02*
X191975419Y-40968092D01*
X191975419Y-40968092D02*
X192070657Y-41015711D01*
X192070657Y-41015711D02*
X192356371Y-41015711D01*
X192356371Y-41015711D02*
X192451609Y-40968092D01*
X192451609Y-40968092D02*
X192499228Y-40920473D01*
X192499228Y-40920473D02*
X192546847Y-40825235D01*
X192546847Y-40825235D02*
X192546847Y-40634759D01*
X192546847Y-40634759D02*
X192499228Y-40539521D01*
X228254819Y-57596666D02*
X228969104Y-57596666D01*
X228969104Y-57596666D02*
X229111961Y-57549047D01*
X229111961Y-57549047D02*
X229207200Y-57453809D01*
X229207200Y-57453809D02*
X229254819Y-57310952D01*
X229254819Y-57310952D02*
X229254819Y-57215714D01*
X229254819Y-58072857D02*
X228254819Y-58072857D01*
X228254819Y-58072857D02*
X228254819Y-58453809D01*
X228254819Y-58453809D02*
X228302438Y-58549047D01*
X228302438Y-58549047D02*
X228350057Y-58596666D01*
X228350057Y-58596666D02*
X228445295Y-58644285D01*
X228445295Y-58644285D02*
X228588152Y-58644285D01*
X228588152Y-58644285D02*
X228683390Y-58596666D01*
X228683390Y-58596666D02*
X228731009Y-58549047D01*
X228731009Y-58549047D02*
X228778628Y-58453809D01*
X228778628Y-58453809D02*
X228778628Y-58072857D01*
X228588152Y-59501428D02*
X229254819Y-59501428D01*
X228207200Y-59263333D02*
X228921485Y-59025238D01*
X228921485Y-59025238D02*
X228921485Y-59644285D01*
X226709580Y-71797142D02*
X226757200Y-71749523D01*
X226757200Y-71749523D02*
X226804819Y-71606666D01*
X226804819Y-71606666D02*
X226804819Y-71511428D01*
X226804819Y-71511428D02*
X226757200Y-71368571D01*
X226757200Y-71368571D02*
X226661961Y-71273333D01*
X226661961Y-71273333D02*
X226566723Y-71225714D01*
X226566723Y-71225714D02*
X226376247Y-71178095D01*
X226376247Y-71178095D02*
X226233390Y-71178095D01*
X226233390Y-71178095D02*
X226042914Y-71225714D01*
X226042914Y-71225714D02*
X225947676Y-71273333D01*
X225947676Y-71273333D02*
X225852438Y-71368571D01*
X225852438Y-71368571D02*
X225804819Y-71511428D01*
X225804819Y-71511428D02*
X225804819Y-71606666D01*
X225804819Y-71606666D02*
X225852438Y-71749523D01*
X225852438Y-71749523D02*
X225900057Y-71797142D01*
X225804819Y-72130476D02*
X225804819Y-72749523D01*
X225804819Y-72749523D02*
X226185771Y-72416190D01*
X226185771Y-72416190D02*
X226185771Y-72559047D01*
X226185771Y-72559047D02*
X226233390Y-72654285D01*
X226233390Y-72654285D02*
X226281009Y-72701904D01*
X226281009Y-72701904D02*
X226376247Y-72749523D01*
X226376247Y-72749523D02*
X226614342Y-72749523D01*
X226614342Y-72749523D02*
X226709580Y-72701904D01*
X226709580Y-72701904D02*
X226757200Y-72654285D01*
X226757200Y-72654285D02*
X226804819Y-72559047D01*
X226804819Y-72559047D02*
X226804819Y-72273333D01*
X226804819Y-72273333D02*
X226757200Y-72178095D01*
X226757200Y-72178095D02*
X226709580Y-72130476D01*
X225900057Y-73130476D02*
X225852438Y-73178095D01*
X225852438Y-73178095D02*
X225804819Y-73273333D01*
X225804819Y-73273333D02*
X225804819Y-73511428D01*
X225804819Y-73511428D02*
X225852438Y-73606666D01*
X225852438Y-73606666D02*
X225900057Y-73654285D01*
X225900057Y-73654285D02*
X225995295Y-73701904D01*
X225995295Y-73701904D02*
X226090533Y-73701904D01*
X226090533Y-73701904D02*
X226233390Y-73654285D01*
X226233390Y-73654285D02*
X226804819Y-73082857D01*
X226804819Y-73082857D02*
X226804819Y-73701904D01*
X222459580Y-74797142D02*
X222507200Y-74749523D01*
X222507200Y-74749523D02*
X222554819Y-74606666D01*
X222554819Y-74606666D02*
X222554819Y-74511428D01*
X222554819Y-74511428D02*
X222507200Y-74368571D01*
X222507200Y-74368571D02*
X222411961Y-74273333D01*
X222411961Y-74273333D02*
X222316723Y-74225714D01*
X222316723Y-74225714D02*
X222126247Y-74178095D01*
X222126247Y-74178095D02*
X221983390Y-74178095D01*
X221983390Y-74178095D02*
X221792914Y-74225714D01*
X221792914Y-74225714D02*
X221697676Y-74273333D01*
X221697676Y-74273333D02*
X221602438Y-74368571D01*
X221602438Y-74368571D02*
X221554819Y-74511428D01*
X221554819Y-74511428D02*
X221554819Y-74606666D01*
X221554819Y-74606666D02*
X221602438Y-74749523D01*
X221602438Y-74749523D02*
X221650057Y-74797142D01*
X221650057Y-75178095D02*
X221602438Y-75225714D01*
X221602438Y-75225714D02*
X221554819Y-75320952D01*
X221554819Y-75320952D02*
X221554819Y-75559047D01*
X221554819Y-75559047D02*
X221602438Y-75654285D01*
X221602438Y-75654285D02*
X221650057Y-75701904D01*
X221650057Y-75701904D02*
X221745295Y-75749523D01*
X221745295Y-75749523D02*
X221840533Y-75749523D01*
X221840533Y-75749523D02*
X221983390Y-75701904D01*
X221983390Y-75701904D02*
X222554819Y-75130476D01*
X222554819Y-75130476D02*
X222554819Y-75749523D01*
X222554819Y-76225714D02*
X222554819Y-76416190D01*
X222554819Y-76416190D02*
X222507200Y-76511428D01*
X222507200Y-76511428D02*
X222459580Y-76559047D01*
X222459580Y-76559047D02*
X222316723Y-76654285D01*
X222316723Y-76654285D02*
X222126247Y-76701904D01*
X222126247Y-76701904D02*
X221745295Y-76701904D01*
X221745295Y-76701904D02*
X221650057Y-76654285D01*
X221650057Y-76654285D02*
X221602438Y-76606666D01*
X221602438Y-76606666D02*
X221554819Y-76511428D01*
X221554819Y-76511428D02*
X221554819Y-76320952D01*
X221554819Y-76320952D02*
X221602438Y-76225714D01*
X221602438Y-76225714D02*
X221650057Y-76178095D01*
X221650057Y-76178095D02*
X221745295Y-76130476D01*
X221745295Y-76130476D02*
X221983390Y-76130476D01*
X221983390Y-76130476D02*
X222078628Y-76178095D01*
X222078628Y-76178095D02*
X222126247Y-76225714D01*
X222126247Y-76225714D02*
X222173866Y-76320952D01*
X222173866Y-76320952D02*
X222173866Y-76511428D01*
X222173866Y-76511428D02*
X222126247Y-76606666D01*
X222126247Y-76606666D02*
X222078628Y-76654285D01*
X222078628Y-76654285D02*
X221983390Y-76701904D01*
X224729580Y-73497142D02*
X224777200Y-73449523D01*
X224777200Y-73449523D02*
X224824819Y-73306666D01*
X224824819Y-73306666D02*
X224824819Y-73211428D01*
X224824819Y-73211428D02*
X224777200Y-73068571D01*
X224777200Y-73068571D02*
X224681961Y-72973333D01*
X224681961Y-72973333D02*
X224586723Y-72925714D01*
X224586723Y-72925714D02*
X224396247Y-72878095D01*
X224396247Y-72878095D02*
X224253390Y-72878095D01*
X224253390Y-72878095D02*
X224062914Y-72925714D01*
X224062914Y-72925714D02*
X223967676Y-72973333D01*
X223967676Y-72973333D02*
X223872438Y-73068571D01*
X223872438Y-73068571D02*
X223824819Y-73211428D01*
X223824819Y-73211428D02*
X223824819Y-73306666D01*
X223824819Y-73306666D02*
X223872438Y-73449523D01*
X223872438Y-73449523D02*
X223920057Y-73497142D01*
X223920057Y-73878095D02*
X223872438Y-73925714D01*
X223872438Y-73925714D02*
X223824819Y-74020952D01*
X223824819Y-74020952D02*
X223824819Y-74259047D01*
X223824819Y-74259047D02*
X223872438Y-74354285D01*
X223872438Y-74354285D02*
X223920057Y-74401904D01*
X223920057Y-74401904D02*
X224015295Y-74449523D01*
X224015295Y-74449523D02*
X224110533Y-74449523D01*
X224110533Y-74449523D02*
X224253390Y-74401904D01*
X224253390Y-74401904D02*
X224824819Y-73830476D01*
X224824819Y-73830476D02*
X224824819Y-74449523D01*
X224253390Y-75020952D02*
X224205771Y-74925714D01*
X224205771Y-74925714D02*
X224158152Y-74878095D01*
X224158152Y-74878095D02*
X224062914Y-74830476D01*
X224062914Y-74830476D02*
X224015295Y-74830476D01*
X224015295Y-74830476D02*
X223920057Y-74878095D01*
X223920057Y-74878095D02*
X223872438Y-74925714D01*
X223872438Y-74925714D02*
X223824819Y-75020952D01*
X223824819Y-75020952D02*
X223824819Y-75211428D01*
X223824819Y-75211428D02*
X223872438Y-75306666D01*
X223872438Y-75306666D02*
X223920057Y-75354285D01*
X223920057Y-75354285D02*
X224015295Y-75401904D01*
X224015295Y-75401904D02*
X224062914Y-75401904D01*
X224062914Y-75401904D02*
X224158152Y-75354285D01*
X224158152Y-75354285D02*
X224205771Y-75306666D01*
X224205771Y-75306666D02*
X224253390Y-75211428D01*
X224253390Y-75211428D02*
X224253390Y-75020952D01*
X224253390Y-75020952D02*
X224301009Y-74925714D01*
X224301009Y-74925714D02*
X224348628Y-74878095D01*
X224348628Y-74878095D02*
X224443866Y-74830476D01*
X224443866Y-74830476D02*
X224634342Y-74830476D01*
X224634342Y-74830476D02*
X224729580Y-74878095D01*
X224729580Y-74878095D02*
X224777200Y-74925714D01*
X224777200Y-74925714D02*
X224824819Y-75020952D01*
X224824819Y-75020952D02*
X224824819Y-75211428D01*
X224824819Y-75211428D02*
X224777200Y-75306666D01*
X224777200Y-75306666D02*
X224729580Y-75354285D01*
X224729580Y-75354285D02*
X224634342Y-75401904D01*
X224634342Y-75401904D02*
X224443866Y-75401904D01*
X224443866Y-75401904D02*
X224348628Y-75354285D01*
X224348628Y-75354285D02*
X224301009Y-75306666D01*
X224301009Y-75306666D02*
X224253390Y-75211428D01*
X224559580Y-36857142D02*
X224607200Y-36809523D01*
X224607200Y-36809523D02*
X224654819Y-36666666D01*
X224654819Y-36666666D02*
X224654819Y-36571428D01*
X224654819Y-36571428D02*
X224607200Y-36428571D01*
X224607200Y-36428571D02*
X224511961Y-36333333D01*
X224511961Y-36333333D02*
X224416723Y-36285714D01*
X224416723Y-36285714D02*
X224226247Y-36238095D01*
X224226247Y-36238095D02*
X224083390Y-36238095D01*
X224083390Y-36238095D02*
X223892914Y-36285714D01*
X223892914Y-36285714D02*
X223797676Y-36333333D01*
X223797676Y-36333333D02*
X223702438Y-36428571D01*
X223702438Y-36428571D02*
X223654819Y-36571428D01*
X223654819Y-36571428D02*
X223654819Y-36666666D01*
X223654819Y-36666666D02*
X223702438Y-36809523D01*
X223702438Y-36809523D02*
X223750057Y-36857142D01*
X223654819Y-37761904D02*
X223654819Y-37285714D01*
X223654819Y-37285714D02*
X224131009Y-37238095D01*
X224131009Y-37238095D02*
X224083390Y-37285714D01*
X224083390Y-37285714D02*
X224035771Y-37380952D01*
X224035771Y-37380952D02*
X224035771Y-37619047D01*
X224035771Y-37619047D02*
X224083390Y-37714285D01*
X224083390Y-37714285D02*
X224131009Y-37761904D01*
X224131009Y-37761904D02*
X224226247Y-37809523D01*
X224226247Y-37809523D02*
X224464342Y-37809523D01*
X224464342Y-37809523D02*
X224559580Y-37761904D01*
X224559580Y-37761904D02*
X224607200Y-37714285D01*
X224607200Y-37714285D02*
X224654819Y-37619047D01*
X224654819Y-37619047D02*
X224654819Y-37380952D01*
X224654819Y-37380952D02*
X224607200Y-37285714D01*
X224607200Y-37285714D02*
X224559580Y-37238095D01*
X224654819Y-38761904D02*
X224654819Y-38190476D01*
X224654819Y-38476190D02*
X223654819Y-38476190D01*
X223654819Y-38476190D02*
X223797676Y-38380952D01*
X223797676Y-38380952D02*
X223892914Y-38285714D01*
X223892914Y-38285714D02*
X223940533Y-38190476D01*
X226619580Y-39407142D02*
X226667200Y-39359523D01*
X226667200Y-39359523D02*
X226714819Y-39216666D01*
X226714819Y-39216666D02*
X226714819Y-39121428D01*
X226714819Y-39121428D02*
X226667200Y-38978571D01*
X226667200Y-38978571D02*
X226571961Y-38883333D01*
X226571961Y-38883333D02*
X226476723Y-38835714D01*
X226476723Y-38835714D02*
X226286247Y-38788095D01*
X226286247Y-38788095D02*
X226143390Y-38788095D01*
X226143390Y-38788095D02*
X225952914Y-38835714D01*
X225952914Y-38835714D02*
X225857676Y-38883333D01*
X225857676Y-38883333D02*
X225762438Y-38978571D01*
X225762438Y-38978571D02*
X225714819Y-39121428D01*
X225714819Y-39121428D02*
X225714819Y-39216666D01*
X225714819Y-39216666D02*
X225762438Y-39359523D01*
X225762438Y-39359523D02*
X225810057Y-39407142D01*
X225714819Y-40311904D02*
X225714819Y-39835714D01*
X225714819Y-39835714D02*
X226191009Y-39788095D01*
X226191009Y-39788095D02*
X226143390Y-39835714D01*
X226143390Y-39835714D02*
X226095771Y-39930952D01*
X226095771Y-39930952D02*
X226095771Y-40169047D01*
X226095771Y-40169047D02*
X226143390Y-40264285D01*
X226143390Y-40264285D02*
X226191009Y-40311904D01*
X226191009Y-40311904D02*
X226286247Y-40359523D01*
X226286247Y-40359523D02*
X226524342Y-40359523D01*
X226524342Y-40359523D02*
X226619580Y-40311904D01*
X226619580Y-40311904D02*
X226667200Y-40264285D01*
X226667200Y-40264285D02*
X226714819Y-40169047D01*
X226714819Y-40169047D02*
X226714819Y-39930952D01*
X226714819Y-39930952D02*
X226667200Y-39835714D01*
X226667200Y-39835714D02*
X226619580Y-39788095D01*
X225810057Y-40740476D02*
X225762438Y-40788095D01*
X225762438Y-40788095D02*
X225714819Y-40883333D01*
X225714819Y-40883333D02*
X225714819Y-41121428D01*
X225714819Y-41121428D02*
X225762438Y-41216666D01*
X225762438Y-41216666D02*
X225810057Y-41264285D01*
X225810057Y-41264285D02*
X225905295Y-41311904D01*
X225905295Y-41311904D02*
X226000533Y-41311904D01*
X226000533Y-41311904D02*
X226143390Y-41264285D01*
X226143390Y-41264285D02*
X226714819Y-40692857D01*
X226714819Y-40692857D02*
X226714819Y-41311904D01*
X237703333Y-53664819D02*
X237703333Y-54379104D01*
X237703333Y-54379104D02*
X237750952Y-54521961D01*
X237750952Y-54521961D02*
X237846190Y-54617200D01*
X237846190Y-54617200D02*
X237989047Y-54664819D01*
X237989047Y-54664819D02*
X238084285Y-54664819D01*
X237227142Y-54664819D02*
X237227142Y-53664819D01*
X237227142Y-53664819D02*
X236846190Y-53664819D01*
X236846190Y-53664819D02*
X236750952Y-53712438D01*
X236750952Y-53712438D02*
X236703333Y-53760057D01*
X236703333Y-53760057D02*
X236655714Y-53855295D01*
X236655714Y-53855295D02*
X236655714Y-53998152D01*
X236655714Y-53998152D02*
X236703333Y-54093390D01*
X236703333Y-54093390D02*
X236750952Y-54141009D01*
X236750952Y-54141009D02*
X236846190Y-54188628D01*
X236846190Y-54188628D02*
X237227142Y-54188628D01*
X236322380Y-53664819D02*
X235703333Y-53664819D01*
X235703333Y-53664819D02*
X236036666Y-54045771D01*
X236036666Y-54045771D02*
X235893809Y-54045771D01*
X235893809Y-54045771D02*
X235798571Y-54093390D01*
X235798571Y-54093390D02*
X235750952Y-54141009D01*
X235750952Y-54141009D02*
X235703333Y-54236247D01*
X235703333Y-54236247D02*
X235703333Y-54474342D01*
X235703333Y-54474342D02*
X235750952Y-54569580D01*
X235750952Y-54569580D02*
X235798571Y-54617200D01*
X235798571Y-54617200D02*
X235893809Y-54664819D01*
X235893809Y-54664819D02*
X236179523Y-54664819D01*
X236179523Y-54664819D02*
X236274761Y-54617200D01*
X236274761Y-54617200D02*
X236322380Y-54569580D01*
D11*
%TO.C,JP4*%
X229790000Y-57400000D02*
X229790000Y-58000000D01*
X230490000Y-58700000D02*
X231890000Y-58700000D01*
X231890000Y-56700000D02*
X230490000Y-56700000D01*
X232590000Y-58000000D02*
X232590000Y-57400000D01*
X229790000Y-57400000D02*
G75*
G02*
X230490000Y-56700000I699999J1D01*
G01*
X230490000Y-58700000D02*
G75*
G02*
X229790000Y-58000000I-1J699999D01*
G01*
X231890000Y-56700000D02*
G75*
G02*
X232590000Y-57400000I0J-700000D01*
G01*
X232590000Y-58000000D02*
G75*
G02*
X231890000Y-58700000I-700000J0D01*
G01*
%TO.C,C32*%
X225600000Y-69219420D02*
X225600000Y-69500580D01*
X226620000Y-69219420D02*
X226620000Y-69500580D01*
%TO.C,C29*%
X221460000Y-71843733D02*
X221460000Y-72136267D01*
X222480000Y-71843733D02*
X222480000Y-72136267D01*
%TO.C,C28*%
X223560000Y-70743733D02*
X223560000Y-71036267D01*
X224580000Y-70743733D02*
X224580000Y-71036267D01*
%TO.C,C51*%
X223790000Y-40157836D02*
X223790000Y-39942164D01*
X224510000Y-40157836D02*
X224510000Y-39942164D01*
%TO.C,C52*%
X224740000Y-40157836D02*
X224740000Y-39942164D01*
X225460000Y-40157836D02*
X225460000Y-39942164D01*
D12*
%TO.C,G\u002A\u002A\u002A*%
G36*
X195245460Y-48371675D02*
G01*
X195250722Y-48374618D01*
X195262028Y-48381049D01*
X195278992Y-48390749D01*
X195301231Y-48403494D01*
X195328360Y-48419063D01*
X195359995Y-48437236D01*
X195395750Y-48457789D01*
X195435243Y-48480503D01*
X195478087Y-48505155D01*
X195523900Y-48531523D01*
X195572296Y-48559387D01*
X195622892Y-48588524D01*
X195675302Y-48618713D01*
X195729142Y-48649733D01*
X195784028Y-48681362D01*
X195839576Y-48713379D01*
X195895401Y-48745561D01*
X195951118Y-48777688D01*
X196006344Y-48809537D01*
X196060694Y-48840888D01*
X196113782Y-48871519D01*
X196165226Y-48901208D01*
X196214641Y-48929734D01*
X196261642Y-48956875D01*
X196305844Y-48982409D01*
X196346864Y-49006116D01*
X196384317Y-49027773D01*
X196417818Y-49047160D01*
X196446983Y-49064053D01*
X196471428Y-49078233D01*
X196515599Y-49103880D01*
X196874044Y-48768857D01*
X196883375Y-48760135D01*
X196927269Y-48719115D01*
X196969652Y-48679513D01*
X197010192Y-48641640D01*
X197048553Y-48605808D01*
X197084403Y-48572330D01*
X197117407Y-48541517D01*
X197147230Y-48513680D01*
X197173539Y-48489132D01*
X197196000Y-48468185D01*
X197214278Y-48451150D01*
X197228040Y-48438340D01*
X197236951Y-48430065D01*
X197240678Y-48426638D01*
X197248867Y-48419442D01*
X197248867Y-48746142D01*
X197248867Y-49072841D01*
X196897075Y-49382294D01*
X196545284Y-49691746D01*
X197278604Y-49692700D01*
X198011925Y-49693654D01*
X198011925Y-49959959D01*
X198011925Y-50226265D01*
X196627467Y-50226265D01*
X195243008Y-50226265D01*
X195243008Y-49959950D01*
X195243008Y-49693635D01*
X195563806Y-49693635D01*
X195884604Y-49693635D01*
X196013674Y-49570264D01*
X196026463Y-49558033D01*
X196054471Y-49531181D01*
X196077569Y-49508899D01*
X196096175Y-49490751D01*
X196110708Y-49476299D01*
X196121587Y-49465108D01*
X196129228Y-49456741D01*
X196134050Y-49450760D01*
X196136473Y-49446730D01*
X196136913Y-49444214D01*
X196135789Y-49442775D01*
X196134813Y-49442217D01*
X196128005Y-49438377D01*
X196115162Y-49431158D01*
X196096674Y-49420778D01*
X196072928Y-49407454D01*
X196044315Y-49391406D01*
X196011224Y-49372852D01*
X195974043Y-49352008D01*
X195933161Y-49329094D01*
X195888968Y-49304328D01*
X195841853Y-49277927D01*
X195792205Y-49250111D01*
X195740413Y-49221096D01*
X195686866Y-49191102D01*
X195244897Y-48943546D01*
X195243929Y-48657526D01*
X195243911Y-48652386D01*
X195243791Y-48606865D01*
X195243731Y-48563668D01*
X195243728Y-48523376D01*
X195243780Y-48486571D01*
X195243885Y-48453834D01*
X195244041Y-48425746D01*
X195244244Y-48402887D01*
X195244493Y-48385840D01*
X195244785Y-48375186D01*
X195245117Y-48371506D01*
X195245460Y-48371675D01*
G37*
G36*
X195482880Y-44965235D02*
G01*
X195504478Y-44967613D01*
X195541699Y-44971746D01*
X195576232Y-44975626D01*
X195607390Y-44979172D01*
X195634481Y-44982305D01*
X195656819Y-44984944D01*
X195673713Y-44987010D01*
X195684474Y-44988422D01*
X195688413Y-44989100D01*
X195687938Y-44992966D01*
X195685471Y-45002563D01*
X195681409Y-45016427D01*
X195676159Y-45033101D01*
X195670435Y-45051101D01*
X195657357Y-45096304D01*
X195648072Y-45135932D01*
X195642526Y-45170658D01*
X195640666Y-45201153D01*
X195642437Y-45228087D01*
X195647784Y-45252132D01*
X195656653Y-45273959D01*
X195660717Y-45281509D01*
X195677626Y-45304972D01*
X195698459Y-45322574D01*
X195723992Y-45334852D01*
X195755000Y-45342348D01*
X195758300Y-45342704D01*
X195770471Y-45343378D01*
X195790171Y-45344018D01*
X195817384Y-45344625D01*
X195852094Y-45345199D01*
X195894283Y-45345738D01*
X195943934Y-45346244D01*
X196001031Y-45346715D01*
X196065558Y-45347152D01*
X196137497Y-45347554D01*
X196216831Y-45347921D01*
X196303545Y-45348254D01*
X196825786Y-45350074D01*
X196825786Y-45168464D01*
X196825786Y-44986854D01*
X197037327Y-44986854D01*
X197248867Y-44986854D01*
X197248867Y-45168155D01*
X197248867Y-45349457D01*
X197605569Y-45350420D01*
X197962270Y-45351384D01*
X197806630Y-45615810D01*
X197650990Y-45880235D01*
X197449929Y-45881213D01*
X197248867Y-45882190D01*
X197248867Y-46004927D01*
X197248867Y-46127663D01*
X197037327Y-46127663D01*
X196825786Y-46127663D01*
X196825786Y-46005116D01*
X196825786Y-45882569D01*
X196260103Y-45881037D01*
X196250846Y-45881011D01*
X196164368Y-45880749D01*
X196085253Y-45880461D01*
X196013325Y-45880144D01*
X195948411Y-45879798D01*
X195890336Y-45879419D01*
X195838925Y-45879008D01*
X195794004Y-45878561D01*
X195755397Y-45878077D01*
X195722931Y-45877555D01*
X195696431Y-45876992D01*
X195675722Y-45876387D01*
X195660630Y-45875739D01*
X195650979Y-45875045D01*
X195619073Y-45871391D01*
X195558768Y-45861988D01*
X195504908Y-45849827D01*
X195457016Y-45834687D01*
X195414617Y-45816343D01*
X195377232Y-45794573D01*
X195344385Y-45769154D01*
X195315599Y-45739863D01*
X195290397Y-45706477D01*
X195277832Y-45686200D01*
X195255249Y-45642180D01*
X195235607Y-45593590D01*
X195219508Y-45542216D01*
X195207550Y-45489846D01*
X195200335Y-45438266D01*
X195199577Y-45427221D01*
X195198821Y-45406338D01*
X195198435Y-45381097D01*
X195198404Y-45353370D01*
X195198717Y-45325030D01*
X195199361Y-45297949D01*
X195200323Y-45274001D01*
X195201590Y-45255057D01*
X195206014Y-45214706D01*
X195212732Y-45168707D01*
X195220902Y-45123860D01*
X195229994Y-45083361D01*
X195232624Y-45073260D01*
X195239032Y-45050558D01*
X195246289Y-45026783D01*
X195253840Y-45003610D01*
X195261130Y-44982715D01*
X195267603Y-44965774D01*
X195272705Y-44954462D01*
X195278894Y-44942846D01*
X195482880Y-44965235D01*
G37*
G36*
X200201939Y-45372224D02*
G01*
X200286911Y-45372247D01*
X200371683Y-45372304D01*
X200449577Y-45372402D01*
X200520943Y-45372545D01*
X200586134Y-45372739D01*
X200645499Y-45372989D01*
X200699391Y-45373300D01*
X200748161Y-45373679D01*
X200792158Y-45374130D01*
X200831736Y-45374658D01*
X200867245Y-45375270D01*
X200899036Y-45375970D01*
X200927460Y-45376764D01*
X200952869Y-45377657D01*
X200975613Y-45378655D01*
X200996044Y-45379763D01*
X201014514Y-45380986D01*
X201031373Y-45382330D01*
X201046972Y-45383801D01*
X201061663Y-45385402D01*
X201114256Y-45392754D01*
X201171482Y-45404271D01*
X201223873Y-45419169D01*
X201272652Y-45437865D01*
X201319046Y-45460777D01*
X201364278Y-45488320D01*
X201402268Y-45516802D01*
X201443473Y-45555952D01*
X201480549Y-45600475D01*
X201513385Y-45649784D01*
X201541869Y-45703295D01*
X201565892Y-45760420D01*
X201585343Y-45820574D01*
X201600112Y-45883170D01*
X201610088Y-45947623D01*
X201615160Y-46013345D01*
X201615218Y-46079752D01*
X201610152Y-46146257D01*
X201599851Y-46212273D01*
X201584205Y-46277215D01*
X201563102Y-46340497D01*
X201536434Y-46401532D01*
X201512679Y-46445764D01*
X201472520Y-46508075D01*
X201426039Y-46567805D01*
X201373911Y-46624109D01*
X201316813Y-46676140D01*
X201279281Y-46707511D01*
X201424812Y-46708500D01*
X201570343Y-46709488D01*
X201570343Y-46956871D01*
X201570343Y-47204254D01*
X200567413Y-47204254D01*
X199564483Y-47204254D01*
X199564483Y-46938206D01*
X199564483Y-46672158D01*
X200116945Y-46670486D01*
X200196425Y-46670221D01*
X200278005Y-46669891D01*
X200353026Y-46669523D01*
X200421389Y-46669116D01*
X200482993Y-46668673D01*
X200537739Y-46668194D01*
X200585528Y-46667681D01*
X200626260Y-46667134D01*
X200659835Y-46666553D01*
X200686154Y-46665942D01*
X200705117Y-46665299D01*
X200716625Y-46664626D01*
X200752229Y-46661245D01*
X200803017Y-46655439D01*
X200847392Y-46648974D01*
X200886045Y-46641713D01*
X200919670Y-46633521D01*
X200948960Y-46624259D01*
X200974606Y-46613793D01*
X200987951Y-46607280D01*
X201032024Y-46580507D01*
X201072509Y-46547634D01*
X201108789Y-46509375D01*
X201140244Y-46466444D01*
X201166257Y-46419556D01*
X201186209Y-46369423D01*
X201190419Y-46355799D01*
X201197657Y-46326975D01*
X201202326Y-46297937D01*
X201204753Y-46266294D01*
X201205263Y-46229655D01*
X201204201Y-46196440D01*
X201201237Y-46167381D01*
X201195919Y-46141309D01*
X201187783Y-46115977D01*
X201176368Y-46089138D01*
X201158141Y-46055845D01*
X201131060Y-46020302D01*
X201098463Y-45989917D01*
X201060358Y-45964694D01*
X201016750Y-45944637D01*
X200967647Y-45929752D01*
X200913055Y-45920041D01*
X200911456Y-45919843D01*
X200898322Y-45918255D01*
X200885495Y-45916808D01*
X200872583Y-45915494D01*
X200859192Y-45914305D01*
X200844930Y-45913233D01*
X200829403Y-45912271D01*
X200812218Y-45911411D01*
X200792982Y-45910647D01*
X200771301Y-45909970D01*
X200746784Y-45909372D01*
X200719035Y-45908847D01*
X200687663Y-45908386D01*
X200652275Y-45907983D01*
X200612476Y-45907629D01*
X200567875Y-45907317D01*
X200518077Y-45907039D01*
X200462690Y-45906788D01*
X200401320Y-45906557D01*
X200333575Y-45906337D01*
X200259061Y-45906121D01*
X200177385Y-45905903D01*
X199564483Y-45904301D01*
X199564483Y-45638231D01*
X199564483Y-45372160D01*
X200201939Y-45372224D01*
G37*
G36*
X200661389Y-52771777D02*
G01*
X200751014Y-52780738D01*
X200836950Y-52796127D01*
X200919417Y-52818008D01*
X200998637Y-52846448D01*
X201074832Y-52881512D01*
X201148224Y-52923266D01*
X201219034Y-52971774D01*
X201222413Y-52974326D01*
X201244809Y-52992492D01*
X201270247Y-53014868D01*
X201297446Y-53040182D01*
X201325125Y-53067165D01*
X201352003Y-53094543D01*
X201376801Y-53121046D01*
X201398236Y-53145403D01*
X201415029Y-53166342D01*
X201439082Y-53199822D01*
X201481468Y-53266630D01*
X201517655Y-53335458D01*
X201547960Y-53407097D01*
X201572699Y-53482340D01*
X201592187Y-53561978D01*
X201606742Y-53646803D01*
X201607892Y-53655996D01*
X201610369Y-53683948D01*
X201612195Y-53717143D01*
X201613370Y-53753984D01*
X201613895Y-53792876D01*
X201613768Y-53832223D01*
X201612991Y-53870427D01*
X201611562Y-53905893D01*
X201609483Y-53937024D01*
X201606752Y-53962225D01*
X201596694Y-54023102D01*
X201576500Y-54111136D01*
X201550252Y-54194930D01*
X201518004Y-54274369D01*
X201479811Y-54349340D01*
X201435725Y-54419728D01*
X201385803Y-54485420D01*
X201330096Y-54546301D01*
X201292014Y-54581944D01*
X201230772Y-54631158D01*
X201163985Y-54676127D01*
X201092283Y-54716506D01*
X201016299Y-54751948D01*
X200936664Y-54782108D01*
X200854009Y-54806642D01*
X200788838Y-54820812D01*
X200711390Y-54831768D01*
X200630031Y-54837509D01*
X200567413Y-54837877D01*
X200545611Y-54838005D01*
X200458978Y-54833229D01*
X200370982Y-54823151D01*
X200370160Y-54823032D01*
X200280922Y-54806882D01*
X200196018Y-54784934D01*
X200115599Y-54757270D01*
X200039815Y-54723974D01*
X199968816Y-54685126D01*
X199902752Y-54640809D01*
X199841775Y-54591105D01*
X199786033Y-54536097D01*
X199735678Y-54475867D01*
X199725407Y-54462032D01*
X199681242Y-54395353D01*
X199641684Y-54323372D01*
X199607023Y-54246860D01*
X199577551Y-54166588D01*
X199553558Y-54083329D01*
X199535333Y-53997853D01*
X199523167Y-53910934D01*
X199521541Y-53888586D01*
X199520568Y-53859652D01*
X199520274Y-53826477D01*
X199520374Y-53816120D01*
X199954814Y-53816120D01*
X199954881Y-53834327D01*
X199955743Y-53847011D01*
X199960253Y-53877148D01*
X199965876Y-53908123D01*
X199972125Y-53934694D01*
X199979477Y-53958584D01*
X199988406Y-53981516D01*
X199999388Y-54005212D01*
X200004774Y-54015862D01*
X200022024Y-54046296D01*
X200041149Y-54074136D01*
X200063704Y-54101504D01*
X200091246Y-54130525D01*
X200112274Y-54150618D01*
X200153065Y-54184139D01*
X200195934Y-54211995D01*
X200242553Y-54235206D01*
X200294592Y-54254794D01*
X200297497Y-54255740D01*
X200338478Y-54267848D01*
X200378958Y-54277267D01*
X200420515Y-54284214D01*
X200464726Y-54288908D01*
X200513166Y-54291564D01*
X200567413Y-54292402D01*
X200571401Y-54292398D01*
X200625193Y-54291441D01*
X200673289Y-54288650D01*
X200717264Y-54283807D01*
X200758696Y-54276695D01*
X200799160Y-54267096D01*
X200840234Y-54254794D01*
X200868180Y-54244957D01*
X200917181Y-54223605D01*
X200961633Y-54198097D01*
X201003209Y-54167411D01*
X201043580Y-54130525D01*
X201050694Y-54123304D01*
X201086919Y-54082276D01*
X201116464Y-54040356D01*
X201140052Y-53996233D01*
X201158403Y-53948592D01*
X201172239Y-53896119D01*
X201175320Y-53876639D01*
X201177610Y-53850163D01*
X201178779Y-53820356D01*
X201178826Y-53789378D01*
X201177752Y-53759388D01*
X201175556Y-53732549D01*
X201172239Y-53711021D01*
X201167883Y-53692378D01*
X201149791Y-53635872D01*
X201125309Y-53583126D01*
X201094703Y-53534401D01*
X201058238Y-53489960D01*
X201016180Y-53450064D01*
X200968795Y-53414975D01*
X200916347Y-53384956D01*
X200859104Y-53360268D01*
X200797329Y-53341173D01*
X200772730Y-53335174D01*
X200747730Y-53329790D01*
X200723882Y-53325636D01*
X200699738Y-53322567D01*
X200673847Y-53320435D01*
X200644758Y-53319091D01*
X200611023Y-53318389D01*
X200571191Y-53318182D01*
X200537123Y-53318339D01*
X200502147Y-53318922D01*
X200472749Y-53319913D01*
X200449585Y-53321289D01*
X200433311Y-53323028D01*
X200427108Y-53323983D01*
X200364086Y-53335690D01*
X200307333Y-53350250D01*
X200256047Y-53368026D01*
X200209428Y-53389380D01*
X200166674Y-53414675D01*
X200126984Y-53444273D01*
X200089558Y-53478536D01*
X200057376Y-53513666D01*
X200023552Y-53559209D01*
X199996706Y-53606897D01*
X199976582Y-53657205D01*
X199962921Y-53710605D01*
X199962760Y-53711465D01*
X199960414Y-53727619D01*
X199958342Y-53748139D01*
X199956649Y-53771048D01*
X199955438Y-53794368D01*
X199954814Y-53816120D01*
X199520374Y-53816120D01*
X199520618Y-53790728D01*
X199521555Y-53754071D01*
X199523044Y-53718172D01*
X199525040Y-53684699D01*
X199527500Y-53655317D01*
X199530383Y-53631693D01*
X199538439Y-53584981D01*
X199558322Y-53499942D01*
X199584377Y-53419126D01*
X199616739Y-53342262D01*
X199655546Y-53269078D01*
X199700931Y-53199306D01*
X199753030Y-53132673D01*
X199811978Y-53068911D01*
X199866349Y-53018241D01*
X199934534Y-52963973D01*
X200006547Y-52916120D01*
X200082146Y-52874828D01*
X200161085Y-52840241D01*
X200243121Y-52812505D01*
X200281129Y-52802187D01*
X200340563Y-52789089D01*
X200401503Y-52779494D01*
X200465799Y-52773130D01*
X200535304Y-52769727D01*
X200567852Y-52769178D01*
X200661389Y-52771777D01*
G37*
G36*
X195926438Y-50597724D02*
G01*
X195926768Y-50599407D01*
X195928891Y-50610785D01*
X195932001Y-50628014D01*
X195935971Y-50650356D01*
X195940674Y-50677071D01*
X195945983Y-50707422D01*
X195951771Y-50740670D01*
X195957912Y-50776076D01*
X195964277Y-50812902D01*
X195970741Y-50850409D01*
X195977176Y-50887858D01*
X195983456Y-50924512D01*
X195989453Y-50959632D01*
X195995040Y-50992478D01*
X196000091Y-51022313D01*
X196004479Y-51048398D01*
X196008076Y-51069995D01*
X196010756Y-51086364D01*
X196012391Y-51096768D01*
X196012856Y-51100468D01*
X196011844Y-51100788D01*
X196004930Y-51102615D01*
X195992606Y-51105736D01*
X195976180Y-51109822D01*
X195956958Y-51114543D01*
X195952989Y-51115522D01*
X195894182Y-51132514D01*
X195842047Y-51152626D01*
X195796305Y-51176046D01*
X195756678Y-51202961D01*
X195722889Y-51233559D01*
X195694658Y-51268025D01*
X195671708Y-51306549D01*
X195664392Y-51322177D01*
X195648142Y-51368140D01*
X195637671Y-51417311D01*
X195632977Y-51468474D01*
X195634061Y-51520412D01*
X195640921Y-51571909D01*
X195653556Y-51621748D01*
X195671966Y-51668714D01*
X195674656Y-51674305D01*
X195701315Y-51720624D01*
X195733474Y-51761954D01*
X195771206Y-51798350D01*
X195814588Y-51829869D01*
X195863694Y-51856565D01*
X195918600Y-51878495D01*
X195979381Y-51895713D01*
X196003711Y-51900959D01*
X196056907Y-51910027D01*
X196114818Y-51917116D01*
X196175694Y-51922102D01*
X196237786Y-51924857D01*
X196299344Y-51925254D01*
X196358618Y-51923167D01*
X196426741Y-51917639D01*
X196491327Y-51908889D01*
X196549742Y-51896927D01*
X196602401Y-51881586D01*
X196649718Y-51862699D01*
X196692108Y-51840101D01*
X196729984Y-51813625D01*
X196763762Y-51783104D01*
X196793854Y-51748372D01*
X196801593Y-51737875D01*
X196827011Y-51695766D01*
X196847263Y-51649185D01*
X196862085Y-51599184D01*
X196871215Y-51546815D01*
X196874387Y-51493131D01*
X196871339Y-51439182D01*
X196866456Y-51406741D01*
X196853703Y-51356176D01*
X196835228Y-51310535D01*
X196811014Y-51269798D01*
X196781042Y-51233945D01*
X196745293Y-51202956D01*
X196703750Y-51176808D01*
X196656393Y-51155483D01*
X196603204Y-51138958D01*
X196590192Y-51135628D01*
X196576248Y-51131915D01*
X196566510Y-51129147D01*
X196562543Y-51127755D01*
X196562703Y-51125906D01*
X196564003Y-51117341D01*
X196566478Y-51102354D01*
X196570022Y-51081545D01*
X196574531Y-51055515D01*
X196579899Y-51024864D01*
X196586023Y-50990195D01*
X196592796Y-50952106D01*
X196600115Y-50911199D01*
X196607874Y-50868075D01*
X196612721Y-50841251D01*
X196621697Y-50791902D01*
X196629516Y-50749408D01*
X196636259Y-50713372D01*
X196642006Y-50683398D01*
X196646836Y-50659088D01*
X196650829Y-50640045D01*
X196654064Y-50625873D01*
X196656622Y-50616175D01*
X196658583Y-50610554D01*
X196660026Y-50608612D01*
X196660241Y-50608584D01*
X196666304Y-50609552D01*
X196677781Y-50612591D01*
X196693111Y-50617255D01*
X196710731Y-50623098D01*
X196716547Y-50625117D01*
X196796749Y-50656348D01*
X196870702Y-50691802D01*
X196938470Y-50731555D01*
X197000116Y-50775682D01*
X197055706Y-50824260D01*
X197105303Y-50877365D01*
X197148972Y-50935072D01*
X197186778Y-50997458D01*
X197218784Y-51064597D01*
X197245056Y-51136567D01*
X197265657Y-51213443D01*
X197280652Y-51295301D01*
X197285660Y-51334774D01*
X197291418Y-51403909D01*
X197293861Y-51474940D01*
X197293027Y-51546113D01*
X197288952Y-51615672D01*
X197281673Y-51681865D01*
X197271227Y-51742936D01*
X197260684Y-51788768D01*
X197237238Y-51867501D01*
X197207929Y-51941618D01*
X197172620Y-52011378D01*
X197131174Y-52077038D01*
X197083453Y-52138855D01*
X197029320Y-52197088D01*
X196983237Y-52239762D01*
X196932686Y-52280157D01*
X196879360Y-52316052D01*
X196821159Y-52348979D01*
X196790523Y-52364241D01*
X196723718Y-52392940D01*
X196653416Y-52417041D01*
X196579018Y-52436690D01*
X196499927Y-52452034D01*
X196415542Y-52463218D01*
X196325265Y-52470391D01*
X196257954Y-52472682D01*
X196164830Y-52471012D01*
X196073371Y-52463784D01*
X195984386Y-52451121D01*
X195898684Y-52433145D01*
X195817076Y-52409978D01*
X195740370Y-52381744D01*
X195673494Y-52350708D01*
X195604017Y-52310816D01*
X195539251Y-52265285D01*
X195479422Y-52214421D01*
X195424753Y-52158531D01*
X195375470Y-52097919D01*
X195331798Y-52032894D01*
X195293960Y-51963761D01*
X195262181Y-51890826D01*
X195236687Y-51814396D01*
X195217701Y-51734777D01*
X195205448Y-51652276D01*
X195204438Y-51642711D01*
X195202588Y-51625416D01*
X195200995Y-51610800D01*
X195199921Y-51601280D01*
X195199918Y-51601255D01*
X195199555Y-51593989D01*
X195199321Y-51580311D01*
X195199218Y-51561356D01*
X195199247Y-51538259D01*
X195199412Y-51512154D01*
X195199714Y-51484177D01*
X195200550Y-51443978D01*
X195202886Y-51391262D01*
X195206743Y-51343315D01*
X195212333Y-51298544D01*
X195219867Y-51255357D01*
X195229555Y-51212161D01*
X195241607Y-51167365D01*
X195251195Y-51136203D01*
X195278933Y-51062866D01*
X195312574Y-50994243D01*
X195352112Y-50930338D01*
X195397544Y-50871155D01*
X195448866Y-50816698D01*
X195506074Y-50766969D01*
X195569164Y-50721973D01*
X195638132Y-50681713D01*
X195712974Y-50646193D01*
X195793685Y-50615417D01*
X195880262Y-50589388D01*
X195922557Y-50578211D01*
X195926438Y-50597724D01*
G37*
G36*
X196339914Y-52771777D02*
G01*
X196429539Y-52780738D01*
X196515474Y-52796127D01*
X196597941Y-52818008D01*
X196677161Y-52846448D01*
X196753357Y-52881512D01*
X196826748Y-52923266D01*
X196897559Y-52971774D01*
X196900937Y-52974326D01*
X196923333Y-52992492D01*
X196948771Y-53014868D01*
X196975970Y-53040182D01*
X197003649Y-53067165D01*
X197030528Y-53094543D01*
X197055325Y-53121046D01*
X197076761Y-53145403D01*
X197093554Y-53166342D01*
X197117607Y-53199822D01*
X197159993Y-53266630D01*
X197196180Y-53335458D01*
X197226485Y-53407097D01*
X197251224Y-53482340D01*
X197270712Y-53561978D01*
X197285266Y-53646803D01*
X197286417Y-53655996D01*
X197288893Y-53683948D01*
X197290720Y-53717143D01*
X197291895Y-53753984D01*
X197292419Y-53792876D01*
X197292293Y-53832223D01*
X197291515Y-53870427D01*
X197290087Y-53905893D01*
X197288007Y-53937024D01*
X197285277Y-53962225D01*
X197275219Y-54023102D01*
X197255025Y-54111136D01*
X197228776Y-54194930D01*
X197196529Y-54274369D01*
X197158335Y-54349340D01*
X197114250Y-54419728D01*
X197064327Y-54485420D01*
X197008621Y-54546301D01*
X196970538Y-54581944D01*
X196909297Y-54631158D01*
X196842510Y-54676127D01*
X196770808Y-54716506D01*
X196694824Y-54751948D01*
X196615188Y-54782108D01*
X196532534Y-54806642D01*
X196467363Y-54820812D01*
X196389914Y-54831768D01*
X196308556Y-54837509D01*
X196245938Y-54837877D01*
X196224135Y-54838005D01*
X196137503Y-54833229D01*
X196049507Y-54823151D01*
X196048685Y-54823032D01*
X195959447Y-54806882D01*
X195874543Y-54784934D01*
X195794124Y-54757270D01*
X195718339Y-54723974D01*
X195647340Y-54685126D01*
X195581277Y-54640809D01*
X195520299Y-54591105D01*
X195464558Y-54536097D01*
X195414203Y-54475867D01*
X195403932Y-54462032D01*
X195359766Y-54395353D01*
X195320208Y-54323372D01*
X195285548Y-54246860D01*
X195256076Y-54166588D01*
X195232082Y-54083329D01*
X195213857Y-53997853D01*
X195201691Y-53910934D01*
X195200066Y-53888586D01*
X195199092Y-53859652D01*
X195198799Y-53826477D01*
X195198899Y-53816120D01*
X195633339Y-53816120D01*
X195633406Y-53834327D01*
X195634268Y-53847011D01*
X195638778Y-53877148D01*
X195644400Y-53908123D01*
X195650650Y-53934694D01*
X195658001Y-53958584D01*
X195666931Y-53981516D01*
X195677913Y-54005212D01*
X195683299Y-54015862D01*
X195700549Y-54046296D01*
X195719673Y-54074136D01*
X195742228Y-54101504D01*
X195769770Y-54130525D01*
X195790799Y-54150618D01*
X195831590Y-54184139D01*
X195874459Y-54211995D01*
X195921077Y-54235206D01*
X195973117Y-54254794D01*
X195976022Y-54255740D01*
X196017002Y-54267848D01*
X196057483Y-54277267D01*
X196099040Y-54284214D01*
X196143250Y-54288908D01*
X196191691Y-54291564D01*
X196245938Y-54292402D01*
X196254390Y-54292380D01*
X196282034Y-54292040D01*
X196309009Y-54291336D01*
X196333594Y-54290334D01*
X196354067Y-54289100D01*
X196368707Y-54287701D01*
X196428191Y-54278076D01*
X196491552Y-54263010D01*
X196549697Y-54243516D01*
X196603259Y-54219376D01*
X196652870Y-54190374D01*
X196667897Y-54179362D01*
X196687900Y-54162508D01*
X196709526Y-54142521D01*
X196731240Y-54120932D01*
X196751507Y-54099273D01*
X196768794Y-54079077D01*
X196781565Y-54061875D01*
X196795308Y-54040041D01*
X196818801Y-53996048D01*
X196836287Y-53951948D01*
X196848218Y-53906197D01*
X196855044Y-53857252D01*
X196857219Y-53803570D01*
X196856911Y-53780056D01*
X196854367Y-53738728D01*
X196848882Y-53701616D01*
X196840011Y-53666741D01*
X196827307Y-53632126D01*
X196810324Y-53595795D01*
X196806049Y-53587595D01*
X196775003Y-53537296D01*
X196738176Y-53491720D01*
X196695812Y-53451053D01*
X196648154Y-53415479D01*
X196595446Y-53385184D01*
X196537932Y-53360354D01*
X196475854Y-53341173D01*
X196451255Y-53335174D01*
X196426254Y-53329790D01*
X196402407Y-53325636D01*
X196378263Y-53322567D01*
X196352371Y-53320435D01*
X196323283Y-53319091D01*
X196289548Y-53318389D01*
X196249715Y-53318182D01*
X196215647Y-53318339D01*
X196180672Y-53318922D01*
X196151274Y-53319913D01*
X196128110Y-53321289D01*
X196111836Y-53323028D01*
X196105632Y-53323983D01*
X196042611Y-53335690D01*
X195985857Y-53350250D01*
X195934572Y-53368026D01*
X195887952Y-53389380D01*
X195845199Y-53414675D01*
X195805509Y-53444273D01*
X195768082Y-53478536D01*
X195735900Y-53513666D01*
X195702076Y-53559209D01*
X195675231Y-53606897D01*
X195655107Y-53657205D01*
X195641446Y-53710605D01*
X195641285Y-53711465D01*
X195638939Y-53727619D01*
X195636867Y-53748139D01*
X195635174Y-53771048D01*
X195633963Y-53794368D01*
X195633339Y-53816120D01*
X195198899Y-53816120D01*
X195199143Y-53790728D01*
X195200080Y-53754071D01*
X195201568Y-53718172D01*
X195203564Y-53684699D01*
X195206025Y-53655317D01*
X195208907Y-53631693D01*
X195216964Y-53584981D01*
X195236846Y-53499942D01*
X195262901Y-53419126D01*
X195295264Y-53342262D01*
X195334070Y-53269078D01*
X195379455Y-53199306D01*
X195431554Y-53132673D01*
X195490502Y-53068911D01*
X195544874Y-53018241D01*
X195613058Y-52963973D01*
X195685072Y-52916120D01*
X195760670Y-52874828D01*
X195839610Y-52840241D01*
X195921646Y-52812505D01*
X195959654Y-52802187D01*
X196019088Y-52789089D01*
X196080027Y-52779494D01*
X196144324Y-52773130D01*
X196213829Y-52769727D01*
X196246376Y-52769178D01*
X196339914Y-52771777D01*
G37*
G36*
X201566639Y-49627815D02*
G01*
X201567450Y-49632260D01*
X201568142Y-49640310D01*
X201568723Y-49652404D01*
X201569200Y-49668980D01*
X201569582Y-49690477D01*
X201569877Y-49717335D01*
X201570093Y-49749992D01*
X201570237Y-49788887D01*
X201570318Y-49834459D01*
X201570343Y-49887148D01*
X201570343Y-50149464D01*
X200917066Y-50339909D01*
X200875982Y-50351892D01*
X200808916Y-50371482D01*
X200744064Y-50390459D01*
X200681788Y-50408716D01*
X200622448Y-50426147D01*
X200566402Y-50442644D01*
X200514012Y-50458102D01*
X200465638Y-50472414D01*
X200421638Y-50485472D01*
X200382374Y-50497170D01*
X200348205Y-50507401D01*
X200319491Y-50516059D01*
X200296593Y-50523037D01*
X200279870Y-50528228D01*
X200269682Y-50531525D01*
X200266389Y-50532822D01*
X200267471Y-50533173D01*
X200274884Y-50535202D01*
X200288939Y-50538915D01*
X200309184Y-50544197D01*
X200335170Y-50550935D01*
X200366448Y-50559012D01*
X200402567Y-50568315D01*
X200443078Y-50578728D01*
X200487531Y-50590138D01*
X200535477Y-50602429D01*
X200586466Y-50615487D01*
X200640048Y-50629197D01*
X200695773Y-50643444D01*
X200753192Y-50658114D01*
X200811855Y-50673092D01*
X200871313Y-50688264D01*
X200931115Y-50703514D01*
X200990812Y-50718728D01*
X201049954Y-50733792D01*
X201108091Y-50748591D01*
X201164774Y-50763009D01*
X201219554Y-50776934D01*
X201271980Y-50790249D01*
X201321602Y-50802840D01*
X201367971Y-50814592D01*
X201410638Y-50825391D01*
X201449152Y-50835123D01*
X201483064Y-50843672D01*
X201511924Y-50850923D01*
X201535283Y-50856763D01*
X201552690Y-50861076D01*
X201563697Y-50863748D01*
X201567852Y-50864664D01*
X201568103Y-50865964D01*
X201568489Y-50873819D01*
X201568824Y-50888253D01*
X201569104Y-50908655D01*
X201569325Y-50934412D01*
X201569485Y-50964910D01*
X201569578Y-50999538D01*
X201569602Y-51037683D01*
X201569552Y-51078732D01*
X201569425Y-51122072D01*
X201568454Y-51379480D01*
X200924388Y-51548742D01*
X200897101Y-51555913D01*
X200829597Y-51573655D01*
X200764122Y-51590865D01*
X200701055Y-51607445D01*
X200640770Y-51623295D01*
X200583647Y-51638316D01*
X200530061Y-51652409D01*
X200480389Y-51665474D01*
X200435009Y-51677413D01*
X200394298Y-51688127D01*
X200358631Y-51697515D01*
X200328387Y-51705480D01*
X200303942Y-51711921D01*
X200285673Y-51716740D01*
X200273958Y-51719838D01*
X200269172Y-51721115D01*
X200268680Y-51721592D01*
X200270092Y-51722740D01*
X200274078Y-51724559D01*
X200280914Y-51727130D01*
X200290876Y-51730536D01*
X200304240Y-51734858D01*
X200321282Y-51740178D01*
X200342279Y-51746577D01*
X200367506Y-51754138D01*
X200397241Y-51762941D01*
X200431759Y-51773069D01*
X200471336Y-51784602D01*
X200516249Y-51797624D01*
X200566773Y-51812215D01*
X200623186Y-51828457D01*
X200685762Y-51846432D01*
X200754779Y-51866222D01*
X200830512Y-51887908D01*
X200913238Y-51911571D01*
X201568454Y-52098916D01*
X201569425Y-52356730D01*
X201570396Y-52614544D01*
X201561870Y-52612784D01*
X201561358Y-52612645D01*
X201555046Y-52610726D01*
X201541909Y-52606646D01*
X201522243Y-52600496D01*
X201496339Y-52592369D01*
X201464492Y-52582359D01*
X201426994Y-52570557D01*
X201384140Y-52557057D01*
X201336223Y-52541950D01*
X201283535Y-52525330D01*
X201226372Y-52507289D01*
X201165026Y-52487920D01*
X201099790Y-52467315D01*
X201030958Y-52445567D01*
X200958824Y-52422769D01*
X200883681Y-52399012D01*
X200805822Y-52374391D01*
X200725542Y-52348997D01*
X200643132Y-52322923D01*
X200558888Y-52296261D01*
X199564432Y-51981497D01*
X199565402Y-51722858D01*
X199566372Y-51464219D01*
X200205716Y-51295721D01*
X200231026Y-51289049D01*
X200298090Y-51271356D01*
X200363024Y-51254203D01*
X200425457Y-51237690D01*
X200485021Y-51221916D01*
X200541345Y-51206978D01*
X200594059Y-51192975D01*
X200642794Y-51180006D01*
X200687181Y-51168169D01*
X200726849Y-51157563D01*
X200761428Y-51148286D01*
X200790550Y-51140438D01*
X200813844Y-51134116D01*
X200830940Y-51129419D01*
X200841468Y-51126446D01*
X200845060Y-51125295D01*
X200844746Y-51125172D01*
X200839108Y-51123530D01*
X200826757Y-51120088D01*
X200808142Y-51114969D01*
X200783714Y-51108293D01*
X200753923Y-51100182D01*
X200719220Y-51090756D01*
X200680056Y-51080138D01*
X200636880Y-51068448D01*
X200590144Y-51055808D01*
X200540298Y-51042339D01*
X200487793Y-51028163D01*
X200433078Y-51013400D01*
X200376606Y-50998172D01*
X200318825Y-50982601D01*
X200260186Y-50966807D01*
X200201141Y-50950912D01*
X200142139Y-50935037D01*
X200083632Y-50919303D01*
X200026069Y-50903832D01*
X199969901Y-50888745D01*
X199915579Y-50874164D01*
X199863553Y-50860209D01*
X199814274Y-50847002D01*
X199768192Y-50834664D01*
X199725757Y-50823316D01*
X199687421Y-50813080D01*
X199653634Y-50804078D01*
X199624846Y-50796429D01*
X199601508Y-50790256D01*
X199584070Y-50785680D01*
X199572983Y-50782822D01*
X199564483Y-50780678D01*
X199564483Y-50524911D01*
X199564483Y-50269144D01*
X200562691Y-49948713D01*
X200592053Y-49939287D01*
X200675748Y-49912419D01*
X200757485Y-49886178D01*
X200836974Y-49860658D01*
X200913923Y-49835952D01*
X200988041Y-49812152D01*
X201059039Y-49789354D01*
X201126624Y-49767650D01*
X201190506Y-49747133D01*
X201250395Y-49727898D01*
X201305998Y-49710037D01*
X201357026Y-49693643D01*
X201403188Y-49678812D01*
X201444192Y-49665635D01*
X201479748Y-49654206D01*
X201509564Y-49644619D01*
X201533351Y-49636967D01*
X201550816Y-49631344D01*
X201561670Y-49627842D01*
X201565621Y-49626557D01*
X201565701Y-49626536D01*
X201566639Y-49627815D01*
G37*
G36*
X196186093Y-46336760D02*
G01*
X196191106Y-46336901D01*
X196278935Y-46340675D01*
X196360423Y-46346825D01*
X196436396Y-46355460D01*
X196507675Y-46366690D01*
X196575087Y-46380626D01*
X196639453Y-46397378D01*
X196665035Y-46405087D01*
X196738038Y-46430885D01*
X196807592Y-46461159D01*
X196872788Y-46495446D01*
X196932718Y-46533281D01*
X196986471Y-46574203D01*
X196990891Y-46577940D01*
X197049241Y-46632428D01*
X197101452Y-46691316D01*
X197147518Y-46754591D01*
X197187431Y-46822238D01*
X197221182Y-46894243D01*
X197248765Y-46970591D01*
X197270171Y-47051267D01*
X197285394Y-47136259D01*
X197286833Y-47148315D01*
X197288937Y-47173905D01*
X197290550Y-47204203D01*
X197291660Y-47237679D01*
X197292259Y-47272801D01*
X197292335Y-47308042D01*
X197291880Y-47341869D01*
X197290883Y-47372753D01*
X197289334Y-47399164D01*
X197287224Y-47419572D01*
X197283992Y-47440915D01*
X197267654Y-47521763D01*
X197245386Y-47598099D01*
X197217024Y-47670260D01*
X197182403Y-47738581D01*
X197141356Y-47803399D01*
X197093719Y-47865050D01*
X197039327Y-47923870D01*
X197033843Y-47929281D01*
X196973728Y-47983223D01*
X196909560Y-48031294D01*
X196841208Y-48073541D01*
X196768541Y-48110011D01*
X196691428Y-48140749D01*
X196609739Y-48165802D01*
X196523343Y-48185218D01*
X196432109Y-48199042D01*
X196417815Y-48200272D01*
X196335907Y-48207321D01*
X196234605Y-48210101D01*
X196213725Y-48210002D01*
X196120472Y-48206696D01*
X196032480Y-48198606D01*
X195949166Y-48185606D01*
X195869943Y-48167565D01*
X195794228Y-48144357D01*
X195721435Y-48115853D01*
X195650979Y-48081923D01*
X195628396Y-48069613D01*
X195560327Y-48027278D01*
X195498098Y-47980167D01*
X195441706Y-47928274D01*
X195391148Y-47871592D01*
X195346419Y-47810117D01*
X195307516Y-47743840D01*
X195274436Y-47672758D01*
X195247175Y-47596863D01*
X195225728Y-47516150D01*
X195210093Y-47430612D01*
X195200266Y-47340244D01*
X195199693Y-47330586D01*
X195198969Y-47309525D01*
X195198534Y-47283868D01*
X195198380Y-47255350D01*
X195198495Y-47225708D01*
X195198870Y-47196675D01*
X195199495Y-47169988D01*
X195200361Y-47147382D01*
X195201457Y-47130592D01*
X195208739Y-47067441D01*
X195223320Y-46985729D01*
X195243365Y-46908957D01*
X195268991Y-46836843D01*
X195300317Y-46769109D01*
X195337461Y-46705473D01*
X195380540Y-46645657D01*
X195429673Y-46589379D01*
X195475698Y-46545063D01*
X195531105Y-46500359D01*
X195592047Y-46459564D01*
X195659259Y-46422142D01*
X195679275Y-46412253D01*
X195700813Y-46402137D01*
X195722331Y-46392474D01*
X195742701Y-46383737D01*
X195760790Y-46376397D01*
X195775469Y-46370928D01*
X195785607Y-46367802D01*
X195790073Y-46367490D01*
X195790306Y-46368141D01*
X195791739Y-46374716D01*
X195794241Y-46387744D01*
X195797689Y-46406492D01*
X195801958Y-46430232D01*
X195806922Y-46458232D01*
X195812457Y-46489761D01*
X195818438Y-46524089D01*
X195824739Y-46560485D01*
X195831236Y-46598219D01*
X195837804Y-46636560D01*
X195844317Y-46674777D01*
X195850652Y-46712140D01*
X195856682Y-46747918D01*
X195862283Y-46781380D01*
X195867331Y-46811796D01*
X195871699Y-46838435D01*
X195875264Y-46860566D01*
X195877899Y-46877460D01*
X195879481Y-46888384D01*
X195879884Y-46892609D01*
X195879599Y-46893041D01*
X195874350Y-46896230D01*
X195864089Y-46900555D01*
X195850688Y-46905208D01*
X195821993Y-46915484D01*
X195785198Y-46931800D01*
X195749843Y-46950755D01*
X195717955Y-46971241D01*
X195691563Y-46992149D01*
X195674788Y-47008890D01*
X195648761Y-47042766D01*
X195627715Y-47081173D01*
X195611775Y-47123272D01*
X195601064Y-47168222D01*
X195595707Y-47215182D01*
X195595828Y-47263312D01*
X195601552Y-47311771D01*
X195613003Y-47359719D01*
X195630305Y-47406315D01*
X195640933Y-47428025D01*
X195667032Y-47469888D01*
X195699038Y-47509522D01*
X195735872Y-47545800D01*
X195776451Y-47577594D01*
X195819696Y-47603779D01*
X195849808Y-47617764D01*
X195892048Y-47633326D01*
X195937579Y-47646398D01*
X195984122Y-47656423D01*
X196029398Y-47662846D01*
X196071129Y-47665111D01*
X196092948Y-47665111D01*
X196092948Y-47261485D01*
X196417815Y-47261485D01*
X196417815Y-47658691D01*
X196460312Y-47656148D01*
X196491976Y-47653567D01*
X196554357Y-47644023D01*
X196611904Y-47628877D01*
X196664534Y-47608172D01*
X196712161Y-47581952D01*
X196754701Y-47550260D01*
X196792068Y-47513140D01*
X196824177Y-47470635D01*
X196831228Y-47459510D01*
X196851357Y-47422808D01*
X196866200Y-47386094D01*
X196876232Y-47347683D01*
X196881928Y-47305889D01*
X196883762Y-47259028D01*
X196883029Y-47225980D01*
X196879989Y-47192702D01*
X196874182Y-47162700D01*
X196865176Y-47133815D01*
X196852534Y-47103891D01*
X196850305Y-47099207D01*
X196823409Y-47051803D01*
X196791117Y-47009668D01*
X196753489Y-46972847D01*
X196710581Y-46941383D01*
X196662452Y-46915318D01*
X196609159Y-46894696D01*
X196550761Y-46879560D01*
X196542959Y-46878076D01*
X196523619Y-46874911D01*
X196501344Y-46871758D01*
X196478211Y-46868867D01*
X196456295Y-46866490D01*
X196437675Y-46864877D01*
X196424425Y-46864281D01*
X196423595Y-46864451D01*
X196422631Y-46865395D01*
X196421780Y-46867547D01*
X196421036Y-46871330D01*
X196420390Y-46877168D01*
X196419837Y-46885484D01*
X196419368Y-46896700D01*
X196418978Y-46911240D01*
X196418659Y-46929526D01*
X196418403Y-46951983D01*
X196418205Y-46979033D01*
X196418056Y-47011100D01*
X196417951Y-47048605D01*
X196417880Y-47091973D01*
X196417839Y-47141627D01*
X196417820Y-47197990D01*
X196417815Y-47261485D01*
X196092948Y-47261485D01*
X196092948Y-46999665D01*
X196092948Y-46334220D01*
X196186093Y-46336760D01*
G37*
G36*
X195522544Y-55186651D02*
G01*
X195568018Y-55215118D01*
X195630064Y-55253987D01*
X195686348Y-55289292D01*
X195737257Y-55321287D01*
X195783183Y-55350225D01*
X195824514Y-55376359D01*
X195861640Y-55399944D01*
X195894950Y-55421233D01*
X195924833Y-55440479D01*
X195951679Y-55457937D01*
X195975877Y-55473859D01*
X195997817Y-55488500D01*
X196017887Y-55502114D01*
X196036478Y-55514953D01*
X196053978Y-55527272D01*
X196070777Y-55539324D01*
X196087264Y-55551362D01*
X196103829Y-55563641D01*
X196120861Y-55576414D01*
X196184832Y-55627195D01*
X196243090Y-55679218D01*
X196296266Y-55733374D01*
X196345593Y-55791008D01*
X196392303Y-55853465D01*
X196437628Y-55922090D01*
X196464709Y-55965474D01*
X196473048Y-55918139D01*
X196477917Y-55892055D01*
X196497451Y-55808636D01*
X196522055Y-55730524D01*
X196551670Y-55657798D01*
X196586235Y-55590535D01*
X196625690Y-55528813D01*
X196669977Y-55472712D01*
X196719034Y-55422309D01*
X196772803Y-55377682D01*
X196831223Y-55338910D01*
X196894234Y-55306072D01*
X196961776Y-55279245D01*
X196993676Y-55269127D01*
X197049588Y-55255103D01*
X197107527Y-55245364D01*
X197169032Y-55239676D01*
X197235646Y-55237807D01*
X197247187Y-55237856D01*
X197316711Y-55240746D01*
X197381794Y-55248307D01*
X197443947Y-55260834D01*
X197504679Y-55278619D01*
X197565500Y-55301958D01*
X197617518Y-55326748D01*
X197674217Y-55359859D01*
X197727639Y-55397568D01*
X197776747Y-55439067D01*
X197820501Y-55483542D01*
X197857862Y-55530183D01*
X197875045Y-55555544D01*
X197900957Y-55599753D01*
X197923524Y-55646825D01*
X197942985Y-55697502D01*
X197959582Y-55752525D01*
X197973556Y-55812636D01*
X197985147Y-55878576D01*
X197994597Y-55951086D01*
X197995626Y-55960359D01*
X197997307Y-55975760D01*
X197998845Y-55990461D01*
X198000247Y-56004836D01*
X198001520Y-56019262D01*
X198002673Y-56034114D01*
X198003710Y-56049766D01*
X198004641Y-56066594D01*
X198005472Y-56084973D01*
X198006210Y-56105279D01*
X198006862Y-56127887D01*
X198007436Y-56153171D01*
X198007938Y-56181508D01*
X198008376Y-56213272D01*
X198008757Y-56248838D01*
X198009088Y-56288583D01*
X198009376Y-56332881D01*
X198009628Y-56382107D01*
X198009852Y-56436636D01*
X198010054Y-56496845D01*
X198010242Y-56563107D01*
X198010423Y-56635799D01*
X198010604Y-56715295D01*
X198010792Y-56801971D01*
X198012294Y-57501755D01*
X197192214Y-57501755D01*
X196627651Y-57501755D01*
X195243008Y-57501755D01*
X195243008Y-57222219D01*
X195243008Y-56942683D01*
X195821541Y-56942683D01*
X196400075Y-56942683D01*
X196839981Y-56942683D01*
X197192214Y-56942683D01*
X197544448Y-56942683D01*
X197542253Y-56552655D01*
X197542027Y-56515418D01*
X197541646Y-56461894D01*
X197541212Y-56410295D01*
X197540735Y-56361184D01*
X197540222Y-56315125D01*
X197539680Y-56272680D01*
X197539118Y-56234411D01*
X197538543Y-56200883D01*
X197537964Y-56172658D01*
X197537388Y-56150299D01*
X197536823Y-56134369D01*
X197536277Y-56125431D01*
X197535051Y-56114536D01*
X197525347Y-56061222D01*
X197510058Y-56012444D01*
X197489362Y-55968437D01*
X197463440Y-55929439D01*
X197432469Y-55895686D01*
X197396630Y-55867414D01*
X197356100Y-55844859D01*
X197311061Y-55828257D01*
X197277949Y-55820799D01*
X197238074Y-55815791D01*
X197196872Y-55814198D01*
X197157263Y-55816247D01*
X197121964Y-55820929D01*
X197080554Y-55829869D01*
X197043974Y-55842456D01*
X197010947Y-55859257D01*
X196980196Y-55880835D01*
X196950444Y-55907756D01*
X196946556Y-55911698D01*
X196927830Y-55932177D01*
X196911786Y-55952843D01*
X196898160Y-55974514D01*
X196886685Y-55998008D01*
X196877097Y-56024144D01*
X196869131Y-56053738D01*
X196862520Y-56087609D01*
X196856999Y-56126576D01*
X196852304Y-56171456D01*
X196848169Y-56223067D01*
X196847741Y-56230670D01*
X196847090Y-56247817D01*
X196846430Y-56271397D01*
X196845771Y-56300739D01*
X196845122Y-56335174D01*
X196844495Y-56374031D01*
X196843900Y-56416641D01*
X196843347Y-56462333D01*
X196842848Y-56510438D01*
X196842413Y-56560286D01*
X196842052Y-56611207D01*
X196839981Y-56942683D01*
X196400075Y-56942683D01*
X196397693Y-56820859D01*
X196396587Y-56776443D01*
X196394663Y-56728442D01*
X196391996Y-56686515D01*
X196388473Y-56649860D01*
X196383976Y-56617672D01*
X196378389Y-56589148D01*
X196371597Y-56563484D01*
X196363485Y-56539877D01*
X196353935Y-56517523D01*
X196340829Y-56491728D01*
X196324202Y-56464288D01*
X196304900Y-56437759D01*
X196282247Y-56411417D01*
X196255566Y-56384538D01*
X196224182Y-56356399D01*
X196187419Y-56326276D01*
X196144601Y-56293446D01*
X196134160Y-56285684D01*
X196117972Y-56273806D01*
X196100438Y-56261129D01*
X196081204Y-56247412D01*
X196059918Y-56232415D01*
X196036226Y-56215894D01*
X196009774Y-56197609D01*
X195980210Y-56177319D01*
X195947179Y-56154780D01*
X195910329Y-56129753D01*
X195869305Y-56101995D01*
X195823756Y-56071265D01*
X195773326Y-56037321D01*
X195717664Y-55999921D01*
X195656414Y-55958825D01*
X195589225Y-55913790D01*
X195582982Y-55909607D01*
X195537310Y-55878970D01*
X195493465Y-55849503D01*
X195451852Y-55821480D01*
X195412875Y-55795176D01*
X195376940Y-55770866D01*
X195344453Y-55748827D01*
X195315817Y-55729332D01*
X195291439Y-55712658D01*
X195271723Y-55699079D01*
X195257075Y-55688870D01*
X195247899Y-55682307D01*
X195244600Y-55679665D01*
X195244395Y-55676335D01*
X195244186Y-55665905D01*
X195244011Y-55648944D01*
X195243870Y-55626002D01*
X195243763Y-55597629D01*
X195243693Y-55564374D01*
X195243660Y-55526787D01*
X195243665Y-55485417D01*
X195243710Y-55440814D01*
X195243795Y-55393527D01*
X195243922Y-55344106D01*
X195244897Y-55012884D01*
X195522544Y-55186651D01*
G37*
G36*
X199844019Y-55186651D02*
G01*
X199889493Y-55215118D01*
X199951540Y-55253987D01*
X200007823Y-55289292D01*
X200058733Y-55321287D01*
X200104659Y-55350225D01*
X200145990Y-55376359D01*
X200183116Y-55399944D01*
X200216425Y-55421233D01*
X200246309Y-55440479D01*
X200273155Y-55457937D01*
X200297353Y-55473859D01*
X200319292Y-55488500D01*
X200339363Y-55502114D01*
X200357953Y-55514953D01*
X200375453Y-55527272D01*
X200392252Y-55539324D01*
X200408740Y-55551362D01*
X200425305Y-55563641D01*
X200442336Y-55576414D01*
X200506308Y-55627195D01*
X200564566Y-55679218D01*
X200617742Y-55733374D01*
X200667069Y-55791008D01*
X200713778Y-55853465D01*
X200759103Y-55922090D01*
X200786185Y-55965474D01*
X200794524Y-55918139D01*
X200799392Y-55892055D01*
X200818926Y-55808636D01*
X200843530Y-55730524D01*
X200873145Y-55657798D01*
X200907710Y-55590535D01*
X200947166Y-55528813D01*
X200991452Y-55472712D01*
X201040510Y-55422309D01*
X201094278Y-55377682D01*
X201152698Y-55338910D01*
X201215709Y-55306072D01*
X201283252Y-55279245D01*
X201315151Y-55269127D01*
X201371064Y-55255103D01*
X201429002Y-55245364D01*
X201490508Y-55239676D01*
X201557122Y-55237807D01*
X201568662Y-55237856D01*
X201638186Y-55240746D01*
X201703269Y-55248307D01*
X201765422Y-55260834D01*
X201826154Y-55278619D01*
X201886975Y-55301958D01*
X201938994Y-55326748D01*
X201995692Y-55359859D01*
X202049115Y-55397568D01*
X202098223Y-55439067D01*
X202141976Y-55483542D01*
X202179337Y-55530183D01*
X202196520Y-55555544D01*
X202222432Y-55599753D01*
X202244999Y-55646825D01*
X202264460Y-55697502D01*
X202281057Y-55752525D01*
X202295031Y-55812636D01*
X202306623Y-55878576D01*
X202316073Y-55951086D01*
X202317101Y-55960359D01*
X202318782Y-55975760D01*
X202320320Y-55990461D01*
X202321722Y-56004836D01*
X202322996Y-56019262D01*
X202324148Y-56034114D01*
X202325186Y-56049766D01*
X202326117Y-56066594D01*
X202326947Y-56084973D01*
X202327685Y-56105279D01*
X202328338Y-56127887D01*
X202328911Y-56153171D01*
X202329413Y-56181508D01*
X202329851Y-56213272D01*
X202330232Y-56248838D01*
X202330563Y-56288583D01*
X202330851Y-56332881D01*
X202331103Y-56382107D01*
X202331327Y-56436636D01*
X202331530Y-56496845D01*
X202331718Y-56563107D01*
X202331898Y-56635799D01*
X202332079Y-56715295D01*
X202332267Y-56801971D01*
X202333769Y-57501755D01*
X201513690Y-57501755D01*
X200949126Y-57501755D01*
X199564483Y-57501755D01*
X199564483Y-57222219D01*
X199564483Y-56942683D01*
X200143017Y-56942683D01*
X200721550Y-56942683D01*
X201161456Y-56942683D01*
X201513690Y-56942683D01*
X201865924Y-56942683D01*
X201863728Y-56552655D01*
X201863502Y-56515418D01*
X201863121Y-56461894D01*
X201862688Y-56410295D01*
X201862210Y-56361184D01*
X201861697Y-56315125D01*
X201861155Y-56272680D01*
X201860593Y-56234411D01*
X201860019Y-56200883D01*
X201859439Y-56172658D01*
X201858863Y-56150299D01*
X201858298Y-56134369D01*
X201857752Y-56125431D01*
X201856527Y-56114536D01*
X201846823Y-56061222D01*
X201831533Y-56012444D01*
X201810838Y-55968437D01*
X201784915Y-55929439D01*
X201753944Y-55895686D01*
X201718105Y-55867414D01*
X201677576Y-55844859D01*
X201632536Y-55828257D01*
X201599424Y-55820799D01*
X201559549Y-55815791D01*
X201518347Y-55814198D01*
X201478738Y-55816247D01*
X201443439Y-55820929D01*
X201402029Y-55829869D01*
X201365449Y-55842456D01*
X201332422Y-55859257D01*
X201301671Y-55880835D01*
X201271919Y-55907756D01*
X201268031Y-55911698D01*
X201249305Y-55932177D01*
X201233262Y-55952843D01*
X201219635Y-55974514D01*
X201208161Y-55998008D01*
X201198573Y-56024144D01*
X201190606Y-56053738D01*
X201183995Y-56087609D01*
X201178475Y-56126576D01*
X201173779Y-56171456D01*
X201169644Y-56223067D01*
X201169216Y-56230670D01*
X201168566Y-56247817D01*
X201167906Y-56271397D01*
X201167246Y-56300739D01*
X201166597Y-56335174D01*
X201165970Y-56374031D01*
X201165375Y-56416641D01*
X201164823Y-56462333D01*
X201164324Y-56510438D01*
X201163888Y-56560286D01*
X201163527Y-56611207D01*
X201161456Y-56942683D01*
X200721550Y-56942683D01*
X200719168Y-56820859D01*
X200718063Y-56776443D01*
X200716138Y-56728442D01*
X200713472Y-56686515D01*
X200709948Y-56649860D01*
X200705451Y-56617672D01*
X200699864Y-56589148D01*
X200693073Y-56563484D01*
X200684960Y-56539877D01*
X200675410Y-56517523D01*
X200662304Y-56491728D01*
X200645678Y-56464288D01*
X200626376Y-56437759D01*
X200603722Y-56411417D01*
X200577041Y-56384538D01*
X200545658Y-56356399D01*
X200508894Y-56326276D01*
X200466076Y-56293446D01*
X200455635Y-56285684D01*
X200439447Y-56273806D01*
X200421913Y-56261129D01*
X200402680Y-56247412D01*
X200381393Y-56232415D01*
X200357701Y-56215894D01*
X200331250Y-56197609D01*
X200301685Y-56177319D01*
X200268654Y-56154780D01*
X200231804Y-56129753D01*
X200190781Y-56101995D01*
X200145231Y-56071265D01*
X200094801Y-56037321D01*
X200039139Y-55999921D01*
X199977890Y-55958825D01*
X199910701Y-55913790D01*
X199904457Y-55909607D01*
X199858786Y-55878970D01*
X199814940Y-55849503D01*
X199773327Y-55821480D01*
X199734350Y-55795176D01*
X199698416Y-55770866D01*
X199665928Y-55748827D01*
X199637293Y-55729332D01*
X199612915Y-55712658D01*
X199593199Y-55699079D01*
X199578550Y-55688870D01*
X199569374Y-55682307D01*
X199566075Y-55679665D01*
X199565870Y-55676335D01*
X199565662Y-55665905D01*
X199565486Y-55648944D01*
X199565345Y-55626002D01*
X199565239Y-55597629D01*
X199565168Y-55564374D01*
X199565135Y-55526787D01*
X199565140Y-55485417D01*
X199565185Y-55440814D01*
X199565270Y-55393527D01*
X199565397Y-55344106D01*
X199566372Y-55012884D01*
X199844019Y-55186651D01*
G37*
G36*
X199576734Y-47609970D02*
G01*
X199582470Y-47612500D01*
X199594799Y-47617940D01*
X199610490Y-47624866D01*
X199627499Y-47632375D01*
X199632182Y-47634428D01*
X199696495Y-47659903D01*
X199762101Y-47681081D01*
X199827039Y-47697391D01*
X199889349Y-47708268D01*
X199895870Y-47709116D01*
X199919887Y-47712010D01*
X199944446Y-47714571D01*
X199970050Y-47716808D01*
X199997198Y-47718733D01*
X200026392Y-47720358D01*
X200058131Y-47721692D01*
X200092918Y-47722746D01*
X200131251Y-47723532D01*
X200173633Y-47724061D01*
X200220563Y-47724342D01*
X200272543Y-47724388D01*
X200330073Y-47724209D01*
X200393654Y-47723816D01*
X200463786Y-47723220D01*
X200540970Y-47722431D01*
X200594409Y-47721878D01*
X200662487Y-47721278D01*
X200723840Y-47720880D01*
X200778952Y-47720690D01*
X200828304Y-47720714D01*
X200872378Y-47720959D01*
X200911657Y-47721432D01*
X200946621Y-47722137D01*
X200977753Y-47723082D01*
X201005535Y-47724274D01*
X201030449Y-47725717D01*
X201052976Y-47727419D01*
X201073600Y-47729385D01*
X201121166Y-47735301D01*
X201175943Y-47744609D01*
X201225114Y-47755930D01*
X201268086Y-47769122D01*
X201304266Y-47784044D01*
X201324538Y-47794687D01*
X201367468Y-47823080D01*
X201408219Y-47858143D01*
X201446356Y-47899378D01*
X201481446Y-47946285D01*
X201513054Y-47998368D01*
X201540745Y-48055129D01*
X201549771Y-48077221D01*
X201568427Y-48133117D01*
X201583995Y-48195627D01*
X201596447Y-48264540D01*
X201605753Y-48339648D01*
X201611887Y-48420741D01*
X201614818Y-48507610D01*
X201614520Y-48600045D01*
X201613701Y-48631140D01*
X201609823Y-48707486D01*
X201603317Y-48777699D01*
X201594041Y-48842514D01*
X201581855Y-48902667D01*
X201566619Y-48958894D01*
X201548194Y-49011931D01*
X201526438Y-49062513D01*
X201512537Y-49090435D01*
X201491015Y-49127888D01*
X201467106Y-49162444D01*
X201439340Y-49196166D01*
X201406244Y-49231118D01*
X201393875Y-49243233D01*
X201352524Y-49279949D01*
X201309283Y-49312286D01*
X201262266Y-49341568D01*
X201209590Y-49369117D01*
X201196620Y-49375151D01*
X201176690Y-49383818D01*
X201154733Y-49392840D01*
X201131874Y-49401805D01*
X201109236Y-49410305D01*
X201087944Y-49417930D01*
X201069122Y-49424268D01*
X201053894Y-49428911D01*
X201043382Y-49431447D01*
X201038712Y-49431467D01*
X201038491Y-49430749D01*
X201037061Y-49424076D01*
X201034487Y-49411038D01*
X201030907Y-49392396D01*
X201026461Y-49368911D01*
X201021290Y-49341344D01*
X201015532Y-49310455D01*
X201009327Y-49277006D01*
X201002815Y-49241756D01*
X200996136Y-49205467D01*
X200989428Y-49168900D01*
X200982833Y-49132816D01*
X200976489Y-49097974D01*
X200970536Y-49065137D01*
X200965114Y-49035065D01*
X200960363Y-49008518D01*
X200956421Y-48986258D01*
X200953429Y-48969045D01*
X200951527Y-48957640D01*
X200950853Y-48952804D01*
X200954014Y-48950501D01*
X200962497Y-48946600D01*
X200974440Y-48941977D01*
X200992526Y-48934805D01*
X201020203Y-48921958D01*
X201048458Y-48907036D01*
X201074682Y-48891439D01*
X201096265Y-48876568D01*
X201109439Y-48865858D01*
X201138049Y-48836824D01*
X201161552Y-48803557D01*
X201180059Y-48765746D01*
X201193679Y-48723079D01*
X201202522Y-48675243D01*
X201206697Y-48621925D01*
X201206314Y-48562813D01*
X201204436Y-48529100D01*
X201199372Y-48477690D01*
X201191753Y-48432758D01*
X201181380Y-48393837D01*
X201168050Y-48360465D01*
X201151563Y-48332175D01*
X201131719Y-48308504D01*
X201108316Y-48288987D01*
X201081155Y-48273159D01*
X201073229Y-48269390D01*
X201053163Y-48260840D01*
X201033934Y-48254518D01*
X201013871Y-48250110D01*
X200991299Y-48247304D01*
X200964548Y-48245787D01*
X200931943Y-48245247D01*
X200865837Y-48244959D01*
X200844361Y-48309109D01*
X200839382Y-48324310D01*
X200827821Y-48362175D01*
X200816106Y-48404212D01*
X200804103Y-48450977D01*
X200791679Y-48503022D01*
X200778699Y-48560900D01*
X200765029Y-48625166D01*
X200750535Y-48696372D01*
X200748182Y-48708116D01*
X200733354Y-48780249D01*
X200719209Y-48845521D01*
X200705580Y-48904488D01*
X200692301Y-48957707D01*
X200679205Y-49005735D01*
X200666125Y-49049130D01*
X200652896Y-49088448D01*
X200639351Y-49124245D01*
X200625322Y-49157080D01*
X200610645Y-49187508D01*
X200595151Y-49216087D01*
X200584675Y-49233595D01*
X200548236Y-49285034D01*
X200506445Y-49331478D01*
X200459810Y-49372562D01*
X200408838Y-49407917D01*
X200354039Y-49437177D01*
X200295920Y-49459975D01*
X200234992Y-49475944D01*
X200217163Y-49479246D01*
X200152114Y-49486940D01*
X200142732Y-49487091D01*
X200087243Y-49487983D01*
X200023319Y-49482510D01*
X199961112Y-49470656D01*
X199901389Y-49452557D01*
X199844922Y-49428347D01*
X199792478Y-49398162D01*
X199775240Y-49386355D01*
X199723504Y-49345095D01*
X199677411Y-49298877D01*
X199637036Y-49247834D01*
X199602456Y-49192100D01*
X199573746Y-49131807D01*
X199550982Y-49067089D01*
X199534239Y-48998079D01*
X199523594Y-48924911D01*
X199521963Y-48904139D01*
X199520642Y-48875644D01*
X199519922Y-48844229D01*
X199519806Y-48811984D01*
X199520300Y-48780998D01*
X199521408Y-48753362D01*
X199523136Y-48731165D01*
X199532425Y-48668319D01*
X199893656Y-48668319D01*
X199898186Y-48717291D01*
X199909926Y-48766256D01*
X199919208Y-48791744D01*
X199934281Y-48821239D01*
X199954158Y-48849367D01*
X199980019Y-48878008D01*
X199986662Y-48884638D01*
X200001786Y-48898772D01*
X200015439Y-48909545D01*
X200030042Y-48918740D01*
X200048015Y-48928144D01*
X200060702Y-48934057D01*
X200101852Y-48948476D01*
X200142732Y-48955639D01*
X200182922Y-48955537D01*
X200222001Y-48948158D01*
X200259546Y-48933492D01*
X200277222Y-48923000D01*
X200301536Y-48903838D01*
X200324752Y-48880614D01*
X200345074Y-48855173D01*
X200360709Y-48829361D01*
X200370342Y-48808553D01*
X200380343Y-48783420D01*
X200390356Y-48754408D01*
X200400555Y-48720918D01*
X200411112Y-48682349D01*
X200422200Y-48638101D01*
X200433992Y-48587572D01*
X200446659Y-48530161D01*
X200448971Y-48519519D01*
X200456265Y-48486815D01*
X200464140Y-48452608D01*
X200472322Y-48418009D01*
X200480536Y-48384127D01*
X200488507Y-48352074D01*
X200495960Y-48322959D01*
X200502621Y-48297893D01*
X200508213Y-48277987D01*
X200512463Y-48264349D01*
X200520091Y-48242187D01*
X200383208Y-48244102D01*
X200367099Y-48244341D01*
X200325747Y-48245136D01*
X200290726Y-48246164D01*
X200261129Y-48247514D01*
X200236051Y-48249276D01*
X200214585Y-48251539D01*
X200195824Y-48254393D01*
X200178862Y-48257925D01*
X200162792Y-48262227D01*
X200146708Y-48267386D01*
X200130681Y-48273493D01*
X200111750Y-48281820D01*
X200095711Y-48289951D01*
X200069011Y-48306974D01*
X200032712Y-48337078D01*
X199999467Y-48373003D01*
X199969794Y-48413912D01*
X199944209Y-48458972D01*
X199923230Y-48507348D01*
X199907372Y-48558204D01*
X199897153Y-48610707D01*
X199896227Y-48617985D01*
X199893656Y-48668319D01*
X199532425Y-48668319D01*
X199533142Y-48663470D01*
X199551331Y-48586696D01*
X199576577Y-48512315D01*
X199608939Y-48440200D01*
X199648475Y-48370223D01*
X199695242Y-48302257D01*
X199749299Y-48236176D01*
X199750543Y-48234769D01*
X199762096Y-48221459D01*
X199771314Y-48210412D01*
X199777288Y-48202743D01*
X199779110Y-48199567D01*
X199778057Y-48199110D01*
X199771030Y-48196728D01*
X199758324Y-48192672D01*
X199740987Y-48187271D01*
X199720064Y-48180851D01*
X199696604Y-48173741D01*
X199688754Y-48171367D01*
X199663591Y-48163654D01*
X199639744Y-48156197D01*
X199618697Y-48149468D01*
X199601930Y-48143940D01*
X199590926Y-48140084D01*
X199566372Y-48130872D01*
X199565402Y-47867710D01*
X199564432Y-47604547D01*
X199576734Y-47609970D01*
G37*
G36*
X197244581Y-41302392D02*
G01*
X197245512Y-41304741D01*
X197246297Y-41309113D01*
X197246950Y-41316009D01*
X197247482Y-41325932D01*
X197247906Y-41339387D01*
X197248235Y-41356875D01*
X197248479Y-41378900D01*
X197248651Y-41405964D01*
X197248764Y-41438572D01*
X197248830Y-41477225D01*
X197248860Y-41522427D01*
X197248867Y-41574682D01*
X197248867Y-41850171D01*
X196543417Y-42081825D01*
X196523740Y-42088287D01*
X196453542Y-42111346D01*
X196385332Y-42133761D01*
X196319455Y-42155419D01*
X196256258Y-42176205D01*
X196196086Y-42196006D01*
X196139286Y-42214707D01*
X196086204Y-42232193D01*
X196037186Y-42248352D01*
X195992578Y-42263069D01*
X195952726Y-42276229D01*
X195917977Y-42287719D01*
X195888675Y-42297424D01*
X195865168Y-42305231D01*
X195847801Y-42311025D01*
X195836920Y-42314692D01*
X195832872Y-42316118D01*
X195832844Y-42316133D01*
X195832655Y-42316557D01*
X195833376Y-42317252D01*
X195835257Y-42318304D01*
X195838548Y-42319798D01*
X195843499Y-42321820D01*
X195850360Y-42324454D01*
X195859382Y-42327787D01*
X195870814Y-42331904D01*
X195884906Y-42336890D01*
X195901909Y-42342830D01*
X195922072Y-42349810D01*
X195945646Y-42357915D01*
X195972881Y-42367230D01*
X196004027Y-42377842D01*
X196039333Y-42389834D01*
X196079051Y-42403294D01*
X196123429Y-42418305D01*
X196172719Y-42434954D01*
X196227170Y-42453325D01*
X196287032Y-42473504D01*
X196352555Y-42495577D01*
X196423990Y-42519629D01*
X196501586Y-42545745D01*
X196585594Y-42574010D01*
X196676264Y-42604510D01*
X196773845Y-42637331D01*
X197248867Y-42797092D01*
X197248867Y-43079807D01*
X197248867Y-43082204D01*
X197248851Y-43127572D01*
X197248805Y-43170647D01*
X197248733Y-43210844D01*
X197248637Y-43247578D01*
X197248520Y-43280264D01*
X197248383Y-43308318D01*
X197248230Y-43331156D01*
X197248063Y-43348192D01*
X197247884Y-43358843D01*
X197247695Y-43362523D01*
X197247675Y-43362522D01*
X197243680Y-43361184D01*
X197234625Y-43357798D01*
X197222425Y-43353079D01*
X197222025Y-43352922D01*
X197209946Y-43348238D01*
X197201122Y-43344905D01*
X197197441Y-43343635D01*
X197198121Y-43345465D01*
X197201628Y-43352721D01*
X197207466Y-43364218D01*
X197214945Y-43378577D01*
X197217972Y-43384398D01*
X197243710Y-43440538D01*
X197264304Y-43498348D01*
X197279636Y-43556925D01*
X197289591Y-43615368D01*
X197294051Y-43672775D01*
X197292900Y-43728245D01*
X197286022Y-43780876D01*
X197273299Y-43829767D01*
X197267655Y-43845322D01*
X197252923Y-43878967D01*
X197235612Y-43911353D01*
X197217322Y-43939345D01*
X197206522Y-43953149D01*
X197179681Y-43982772D01*
X197146723Y-44014167D01*
X197108294Y-44046770D01*
X197065044Y-44080016D01*
X197017621Y-44113339D01*
X196968559Y-44146357D01*
X197108713Y-44147347D01*
X197248867Y-44148338D01*
X197248867Y-44395719D01*
X197248867Y-44643100D01*
X196245938Y-44643100D01*
X195243008Y-44643100D01*
X195243008Y-44377190D01*
X195243008Y-44111280D01*
X195695365Y-44109323D01*
X195718784Y-44109217D01*
X195778768Y-44108901D01*
X195837232Y-44108531D01*
X195893629Y-44108114D01*
X195947409Y-44107656D01*
X195998024Y-44107164D01*
X196044925Y-44106643D01*
X196087563Y-44106101D01*
X196125389Y-44105543D01*
X196157856Y-44104975D01*
X196184413Y-44104405D01*
X196204513Y-44103838D01*
X196217606Y-44103281D01*
X196256412Y-44100884D01*
X196317005Y-44096489D01*
X196371194Y-44091582D01*
X196419700Y-44086024D01*
X196463245Y-44079675D01*
X196502552Y-44072394D01*
X196538342Y-44064041D01*
X196571337Y-44054476D01*
X196602259Y-44043557D01*
X196631830Y-44031145D01*
X196660771Y-44017099D01*
X196678140Y-44007591D01*
X196716056Y-43982029D01*
X196747541Y-43952942D01*
X196773001Y-43919837D01*
X196792842Y-43882223D01*
X196807472Y-43839607D01*
X196811513Y-43819290D01*
X196814386Y-43793312D01*
X196815835Y-43764860D01*
X196815801Y-43736397D01*
X196814226Y-43710382D01*
X196811051Y-43689278D01*
X196809937Y-43684473D01*
X196798406Y-43645105D01*
X196782392Y-43603377D01*
X196762896Y-43561674D01*
X196740921Y-43522382D01*
X196737712Y-43516748D01*
X196734232Y-43508776D01*
X196734122Y-43504938D01*
X196734530Y-43504763D01*
X196740354Y-43502590D01*
X196752527Y-43498172D01*
X196770443Y-43491725D01*
X196793493Y-43483465D01*
X196821073Y-43473611D01*
X196852575Y-43462379D01*
X196887392Y-43449985D01*
X196924920Y-43436646D01*
X196964550Y-43422579D01*
X196984218Y-43415591D01*
X197031211Y-43398792D01*
X197072335Y-43383930D01*
X197107407Y-43371076D01*
X197136241Y-43360299D01*
X197158655Y-43351667D01*
X197174464Y-43345251D01*
X197183485Y-43341119D01*
X197185534Y-43339340D01*
X197185155Y-43339196D01*
X197179333Y-43336985D01*
X197166809Y-43332233D01*
X197147870Y-43325050D01*
X197122803Y-43315544D01*
X197091897Y-43303825D01*
X197055439Y-43290001D01*
X197013717Y-43274182D01*
X196967018Y-43256477D01*
X196915630Y-43236994D01*
X196859841Y-43215843D01*
X196799938Y-43193133D01*
X196736210Y-43168972D01*
X196668943Y-43143471D01*
X196598426Y-43116737D01*
X196524945Y-43088881D01*
X196448790Y-43060011D01*
X196370247Y-43030236D01*
X196289604Y-42999666D01*
X196207149Y-42968408D01*
X195235314Y-42600005D01*
X195198964Y-42611367D01*
X195161704Y-42624132D01*
X195112094Y-42644489D01*
X195064271Y-42667826D01*
X195019676Y-42693365D01*
X194979750Y-42720328D01*
X194945936Y-42747936D01*
X194931773Y-42762201D01*
X194907494Y-42793762D01*
X194886934Y-42830317D01*
X194870806Y-42870501D01*
X194859821Y-42912950D01*
X194854810Y-42946643D01*
X194851423Y-42998780D01*
X194852263Y-43056127D01*
X194857314Y-43118080D01*
X194866563Y-43184035D01*
X194867391Y-43189074D01*
X194870045Y-43206733D01*
X194871804Y-43221026D01*
X194872521Y-43230596D01*
X194872046Y-43234087D01*
X194869005Y-43233843D01*
X194859082Y-43232827D01*
X194843202Y-43231111D01*
X194822208Y-43228791D01*
X194796940Y-43225963D01*
X194768241Y-43222725D01*
X194736951Y-43219174D01*
X194703913Y-43215405D01*
X194669967Y-43211515D01*
X194635956Y-43207602D01*
X194602720Y-43203762D01*
X194571102Y-43200091D01*
X194541942Y-43196686D01*
X194516082Y-43193644D01*
X194494363Y-43191062D01*
X194477628Y-43189035D01*
X194466717Y-43187662D01*
X194462473Y-43187038D01*
X194460142Y-43183473D01*
X194456917Y-43173275D01*
X194453217Y-43157511D01*
X194449218Y-43137210D01*
X194445097Y-43113401D01*
X194441031Y-43087113D01*
X194437197Y-43059374D01*
X194433771Y-43031213D01*
X194430932Y-43003659D01*
X194429934Y-42989448D01*
X194429017Y-42964854D01*
X194428579Y-42935574D01*
X194428588Y-42903138D01*
X194429016Y-42869076D01*
X194429831Y-42834916D01*
X194431005Y-42802189D01*
X194432506Y-42772424D01*
X194434304Y-42747152D01*
X194436370Y-42727901D01*
X194447393Y-42664103D01*
X194465124Y-42593874D01*
X194487969Y-42528794D01*
X194515863Y-42469004D01*
X194548737Y-42414644D01*
X194586525Y-42365854D01*
X194629162Y-42322774D01*
X194650048Y-42304750D01*
X194673925Y-42285704D01*
X194698901Y-42267557D01*
X194725534Y-42250031D01*
X194754383Y-42232852D01*
X194786008Y-42215743D01*
X194820967Y-42198429D01*
X194859820Y-42180636D01*
X194903126Y-42162086D01*
X194951443Y-42142504D01*
X195005330Y-42121615D01*
X195065346Y-42099143D01*
X195132051Y-42074812D01*
X195132950Y-42074488D01*
X195146778Y-42069474D01*
X195166974Y-42062124D01*
X195193192Y-42052566D01*
X195225088Y-42040925D01*
X195262315Y-42027328D01*
X195304529Y-42011902D01*
X195351384Y-41994772D01*
X195402536Y-41976066D01*
X195457638Y-41955910D01*
X195516347Y-41934430D01*
X195578317Y-41911753D01*
X195643202Y-41888005D01*
X195710657Y-41863312D01*
X195780338Y-41837802D01*
X195851899Y-41811600D01*
X195924995Y-41784833D01*
X195999280Y-41757628D01*
X196074410Y-41730111D01*
X196150039Y-41702408D01*
X196225822Y-41674646D01*
X196301414Y-41646951D01*
X196376470Y-41619451D01*
X196450644Y-41592270D01*
X196523592Y-41565536D01*
X196594967Y-41539375D01*
X196664426Y-41513914D01*
X196731623Y-41489279D01*
X196796212Y-41465597D01*
X196857848Y-41442993D01*
X196916187Y-41421595D01*
X196970883Y-41401529D01*
X197021591Y-41382922D01*
X197067965Y-41365899D01*
X197109661Y-41350587D01*
X197146333Y-41337113D01*
X197177636Y-41325604D01*
X197203226Y-41316185D01*
X197222756Y-41308983D01*
X197235881Y-41304125D01*
X197242257Y-41301737D01*
X197243494Y-41301560D01*
X197244581Y-41302392D01*
G37*
G36*
X201764728Y-58538986D02*
G01*
X201801850Y-58548967D01*
X201837948Y-58566397D01*
X201856111Y-58578362D01*
X201879389Y-58598932D01*
X201897591Y-58623073D01*
X201911536Y-58651956D01*
X201922042Y-58686753D01*
X201924142Y-58696025D01*
X201926518Y-58708978D01*
X201927964Y-58722008D01*
X201928598Y-58736981D01*
X201928537Y-58755763D01*
X201927896Y-58780220D01*
X201927865Y-58781185D01*
X201926635Y-58812246D01*
X201924976Y-58837996D01*
X201922609Y-58860619D01*
X201919252Y-58882296D01*
X201914626Y-58905210D01*
X201908449Y-58931544D01*
X201902368Y-58954586D01*
X201893794Y-58983879D01*
X201883718Y-59015966D01*
X201872640Y-59049406D01*
X201861061Y-59082761D01*
X201849482Y-59114590D01*
X201838403Y-59143454D01*
X201828327Y-59167913D01*
X201819752Y-59186526D01*
X201816204Y-59194088D01*
X201810288Y-59207888D01*
X201804523Y-59222413D01*
X201800513Y-59232369D01*
X201792892Y-59249373D01*
X201785528Y-59263965D01*
X201785112Y-59264724D01*
X201778282Y-59278190D01*
X201770447Y-59294993D01*
X201763221Y-59311679D01*
X201757194Y-59325100D01*
X201747979Y-59343753D01*
X201737305Y-59364045D01*
X201726462Y-59383452D01*
X201719052Y-59396265D01*
X201706716Y-59417640D01*
X201692740Y-59441894D01*
X201678338Y-59466921D01*
X201664721Y-59490616D01*
X201656458Y-59504995D01*
X201640498Y-59532709D01*
X201623621Y-59561960D01*
X201607383Y-59590049D01*
X201593341Y-59614279D01*
X201588015Y-59623458D01*
X201572596Y-59650067D01*
X201555936Y-59678861D01*
X201539715Y-59706934D01*
X201525613Y-59731382D01*
X201517219Y-59745904D01*
X201505881Y-59765372D01*
X201495698Y-59782694D01*
X201487536Y-59796400D01*
X201482262Y-59805019D01*
X201478785Y-59810690D01*
X201474003Y-59819355D01*
X201472127Y-59824112D01*
X201471122Y-59826972D01*
X201466980Y-59834827D01*
X201460725Y-59845205D01*
X201449322Y-59863185D01*
X201518807Y-59935660D01*
X201568554Y-59988203D01*
X201627920Y-60052974D01*
X201683376Y-60116075D01*
X201736200Y-60179004D01*
X201787675Y-60243259D01*
X201839079Y-60310337D01*
X201901510Y-60395886D01*
X201997070Y-60537084D01*
X202086171Y-60682017D01*
X202168705Y-60830455D01*
X202244565Y-60982164D01*
X202313645Y-61136913D01*
X202375837Y-61294470D01*
X202431034Y-61454605D01*
X202479128Y-61617085D01*
X202520012Y-61781678D01*
X202522364Y-61792181D01*
X202536077Y-61855729D01*
X202548197Y-61916470D01*
X202558950Y-61975884D01*
X202568563Y-62035452D01*
X202577262Y-62096654D01*
X202585275Y-62160969D01*
X202592827Y-62229879D01*
X202600147Y-62304864D01*
X202601818Y-62323090D01*
X202603798Y-62345650D01*
X202605448Y-62366295D01*
X202606801Y-62385972D01*
X202607888Y-62405628D01*
X202608739Y-62426209D01*
X202609387Y-62448664D01*
X202609863Y-62473938D01*
X202610198Y-62502979D01*
X202610424Y-62536735D01*
X202610573Y-62576151D01*
X202610675Y-62622175D01*
X202610685Y-62664727D01*
X202610490Y-62718051D01*
X202610064Y-62766751D01*
X202609418Y-62810242D01*
X202608560Y-62847938D01*
X202607500Y-62879252D01*
X202606246Y-62903600D01*
X202600405Y-62980075D01*
X202583134Y-63137434D01*
X202558871Y-63295609D01*
X202527824Y-63453839D01*
X202490197Y-63611363D01*
X202446198Y-63767421D01*
X202396033Y-63921251D01*
X202339909Y-64072093D01*
X202278031Y-64219186D01*
X202210607Y-64361768D01*
X202136653Y-64502110D01*
X202052084Y-64647336D01*
X201961229Y-64788981D01*
X201864386Y-64926660D01*
X201761849Y-65059990D01*
X201653917Y-65188585D01*
X201540885Y-65312060D01*
X201423050Y-65430031D01*
X201300708Y-65542114D01*
X201243579Y-65591180D01*
X201110748Y-65698236D01*
X200973798Y-65799145D01*
X200832966Y-65893793D01*
X200688486Y-65982067D01*
X200540596Y-66063853D01*
X200389532Y-66139036D01*
X200235530Y-66207502D01*
X200078825Y-66269138D01*
X199919655Y-66323830D01*
X199758254Y-66371463D01*
X199682865Y-66390131D01*
X199594860Y-66411924D01*
X199429708Y-66445099D01*
X199407277Y-66448867D01*
X199371112Y-66454339D01*
X199329629Y-66460076D01*
X199284109Y-66465936D01*
X199235827Y-66471779D01*
X199186065Y-66477464D01*
X199136099Y-66482850D01*
X199087209Y-66487796D01*
X199040673Y-66492162D01*
X198997769Y-66495807D01*
X198959776Y-66498589D01*
X198927972Y-66500369D01*
X198893753Y-66501591D01*
X198848829Y-66502584D01*
X198800247Y-66503105D01*
X198749252Y-66503174D01*
X198697090Y-66502809D01*
X198645007Y-66502031D01*
X198594246Y-66500858D01*
X198546054Y-66499311D01*
X198501676Y-66497407D01*
X198462356Y-66495168D01*
X198429340Y-66492611D01*
X198340851Y-66483788D01*
X198232634Y-66470895D01*
X198129346Y-66456051D01*
X198029602Y-66439035D01*
X197932015Y-66419624D01*
X197835200Y-66397598D01*
X197741441Y-66373629D01*
X197611012Y-66336048D01*
X197481147Y-66293833D01*
X197353503Y-66247562D01*
X197229735Y-66197811D01*
X197111501Y-66145160D01*
X197111430Y-66145127D01*
X197095256Y-66137825D01*
X197081516Y-66132155D01*
X197071661Y-66128678D01*
X197067142Y-66127958D01*
X197065321Y-66129171D01*
X197057572Y-66134684D01*
X197045531Y-66143458D01*
X197030380Y-66154615D01*
X197013302Y-66167276D01*
X196995479Y-66180564D01*
X196978095Y-66193600D01*
X196962332Y-66205506D01*
X196949373Y-66215404D01*
X196938423Y-66223718D01*
X196924480Y-66233962D01*
X196912979Y-66242028D01*
X196905666Y-66246667D01*
X196903330Y-66248010D01*
X196893743Y-66254096D01*
X196880954Y-66262704D01*
X196867073Y-66272426D01*
X196849026Y-66285157D01*
X196793735Y-66322369D01*
X196737014Y-66358086D01*
X196724805Y-66365575D01*
X196706447Y-66377053D01*
X196689529Y-66387858D01*
X196676574Y-66396389D01*
X196671562Y-66399701D01*
X196656279Y-66409303D01*
X196637229Y-66420828D01*
X196616405Y-66433106D01*
X196595804Y-66444970D01*
X196577421Y-66455251D01*
X196563249Y-66462780D01*
X196561487Y-66463674D01*
X196552211Y-66468406D01*
X196538294Y-66475528D01*
X196521305Y-66484237D01*
X196502809Y-66493731D01*
X196477000Y-66506698D01*
X196440416Y-66524321D01*
X196401545Y-66542328D01*
X196361880Y-66560066D01*
X196322915Y-66576880D01*
X196286145Y-66592117D01*
X196253062Y-66605123D01*
X196225161Y-66615244D01*
X196215416Y-66618549D01*
X196144552Y-66641283D01*
X196078610Y-66659947D01*
X196016462Y-66674755D01*
X195956975Y-66685924D01*
X195899022Y-66693670D01*
X195841471Y-66698209D01*
X195783192Y-66699757D01*
X195780760Y-66699743D01*
X195756486Y-66699608D01*
X195708403Y-66698003D01*
X195664574Y-66694443D01*
X195622919Y-66688673D01*
X195581359Y-66680435D01*
X195537813Y-66669473D01*
X195523741Y-66665550D01*
X195492966Y-66656325D01*
X195465974Y-66646999D01*
X195440775Y-66636718D01*
X195415378Y-66624632D01*
X195387794Y-66609888D01*
X195356032Y-66591634D01*
X195354739Y-66590873D01*
X195321977Y-66570857D01*
X195293077Y-66551462D01*
X195266694Y-66531538D01*
X195241484Y-66509936D01*
X195216102Y-66485506D01*
X195189203Y-66457099D01*
X195159444Y-66423565D01*
X195143727Y-66404754D01*
X195103399Y-66349736D01*
X195065949Y-66288573D01*
X195031740Y-66222013D01*
X195001135Y-66150803D01*
X194974497Y-66075691D01*
X194952191Y-65997424D01*
X194947628Y-65978939D01*
X194936269Y-65929082D01*
X194926530Y-65879701D01*
X194918224Y-65829461D01*
X194911163Y-65777026D01*
X194905161Y-65721059D01*
X194900030Y-65660225D01*
X194895583Y-65593189D01*
X194894994Y-65581699D01*
X194893985Y-65546170D01*
X194893985Y-65546129D01*
X195013804Y-65546129D01*
X195013812Y-65572631D01*
X195013983Y-65594730D01*
X195014331Y-65611376D01*
X195014869Y-65621520D01*
X195015572Y-65628890D01*
X195016909Y-65643207D01*
X195018551Y-65661008D01*
X195020290Y-65680039D01*
X195021858Y-65697239D01*
X195024061Y-65720986D01*
X195025890Y-65739697D01*
X195027526Y-65754931D01*
X195029154Y-65768247D01*
X195030956Y-65781205D01*
X195033115Y-65795365D01*
X195035815Y-65812285D01*
X195042292Y-65850638D01*
X195055304Y-65917426D01*
X195069761Y-65978605D01*
X195086034Y-66035409D01*
X195104493Y-66089073D01*
X195125507Y-66140834D01*
X195149447Y-66191925D01*
X195154155Y-66201186D01*
X195167972Y-66226799D01*
X195183007Y-66252807D01*
X195198359Y-66277771D01*
X195213124Y-66300253D01*
X195226401Y-66318813D01*
X195237287Y-66332012D01*
X195237308Y-66332034D01*
X195241586Y-66336923D01*
X195249058Y-66345726D01*
X195258118Y-66356553D01*
X195282130Y-66383715D01*
X195330157Y-66429411D01*
X195382834Y-66469359D01*
X195439880Y-66503453D01*
X195501011Y-66531589D01*
X195565947Y-66553663D01*
X195634405Y-66569569D01*
X195706104Y-66579202D01*
X195780760Y-66582459D01*
X195858092Y-66579235D01*
X195902799Y-66574170D01*
X195960486Y-66564363D01*
X196022167Y-66550726D01*
X196086681Y-66533572D01*
X196152866Y-66513213D01*
X196219560Y-66489962D01*
X196285602Y-66464132D01*
X196348165Y-66436891D01*
X196417764Y-66403493D01*
X196489900Y-66365707D01*
X196565177Y-66323204D01*
X196644200Y-66275655D01*
X196727571Y-66222729D01*
X196752789Y-66206122D01*
X196802807Y-66172121D01*
X196855834Y-66134861D01*
X196910279Y-66095514D01*
X196964550Y-66055254D01*
X197017055Y-66015253D01*
X197066201Y-65976684D01*
X197110397Y-65940720D01*
X197121241Y-65931712D01*
X197141227Y-65915160D01*
X197162039Y-65897970D01*
X197180603Y-65882684D01*
X197193776Y-65871744D01*
X197210700Y-65857406D01*
X197226123Y-65844058D01*
X197237855Y-65833577D01*
X197250103Y-65822427D01*
X197262399Y-65811429D01*
X197271852Y-65803170D01*
X197279473Y-65796559D01*
X197291597Y-65785821D01*
X197303786Y-65774839D01*
X197313078Y-65766412D01*
X197327292Y-65753605D01*
X197339672Y-65742537D01*
X197363839Y-65720797D01*
X197397895Y-65689474D01*
X197435173Y-65654554D01*
X197474789Y-65616903D01*
X197515860Y-65577386D01*
X197557502Y-65536869D01*
X197598832Y-65496216D01*
X197638965Y-65456293D01*
X197677020Y-65417966D01*
X197712111Y-65382099D01*
X197743356Y-65349558D01*
X197769871Y-65321208D01*
X197779800Y-65310436D01*
X197798995Y-65289764D01*
X197818518Y-65268905D01*
X197836564Y-65249784D01*
X197851329Y-65234325D01*
X197856029Y-65229405D01*
X197870373Y-65214047D01*
X197888217Y-65194593D01*
X197908779Y-65171923D01*
X197931280Y-65146916D01*
X197954938Y-65120454D01*
X197978972Y-65093415D01*
X198002602Y-65066680D01*
X198025046Y-65041129D01*
X198045524Y-65017641D01*
X198063255Y-64997097D01*
X198077458Y-64980376D01*
X198087352Y-64968358D01*
X198088666Y-64966737D01*
X198095812Y-64958204D01*
X198106377Y-64945824D01*
X198119161Y-64930997D01*
X198132962Y-64915125D01*
X198133053Y-64915022D01*
X198156607Y-64887606D01*
X198183566Y-64855459D01*
X198212837Y-64819906D01*
X198243327Y-64782277D01*
X198273941Y-64743899D01*
X198282924Y-64732634D01*
X198292334Y-64721048D01*
X198299218Y-64712822D01*
X198302509Y-64709251D01*
X198304217Y-64707671D01*
X198310723Y-64700405D01*
X198321037Y-64688126D01*
X198334643Y-64671488D01*
X198351029Y-64651143D01*
X198369682Y-64627743D01*
X198390088Y-64601941D01*
X198411733Y-64574389D01*
X198434105Y-64545739D01*
X198456690Y-64516644D01*
X198478974Y-64487757D01*
X198500444Y-64459729D01*
X198520586Y-64433214D01*
X198538888Y-64408863D01*
X198545866Y-64399566D01*
X198558180Y-64383303D01*
X198569452Y-64368562D01*
X198572930Y-64364004D01*
X198583151Y-64350388D01*
X198596793Y-64332017D01*
X198613177Y-64309813D01*
X198631622Y-64284703D01*
X198651450Y-64257610D01*
X198671979Y-64229460D01*
X198692531Y-64201175D01*
X198693145Y-64200329D01*
X198703770Y-64185796D01*
X198712795Y-64173650D01*
X198719283Y-64165139D01*
X198722298Y-64161512D01*
X198722694Y-64161122D01*
X198726236Y-64156589D01*
X198733107Y-64147057D01*
X198743487Y-64132271D01*
X198757551Y-64111978D01*
X198775477Y-64085923D01*
X198797441Y-64053852D01*
X198797776Y-64053363D01*
X198810349Y-64035129D01*
X198825410Y-64013506D01*
X198841095Y-63991157D01*
X198855542Y-63970747D01*
X198868594Y-63952402D01*
X198880162Y-63936094D01*
X198890258Y-63921770D01*
X198899697Y-63908252D01*
X198909291Y-63894360D01*
X198919854Y-63878918D01*
X198932200Y-63860746D01*
X198947143Y-63838666D01*
X198965496Y-63811501D01*
X198977055Y-63794349D01*
X198991621Y-63772630D01*
X199004708Y-63753002D01*
X199015625Y-63736504D01*
X199023681Y-63724178D01*
X199028186Y-63717063D01*
X199028648Y-63716299D01*
X199034516Y-63706996D01*
X199043367Y-63693361D01*
X199054083Y-63677107D01*
X199065544Y-63659945D01*
X199071381Y-63651244D01*
X199093323Y-63618234D01*
X199115219Y-63584856D01*
X199136221Y-63552426D01*
X199155479Y-63522263D01*
X199172143Y-63495683D01*
X199185366Y-63474004D01*
X199191868Y-63463251D01*
X199202272Y-63446504D01*
X199211783Y-63431695D01*
X199218944Y-63421119D01*
X199224315Y-63413155D01*
X199232995Y-63399641D01*
X199243860Y-63382319D01*
X199256042Y-63362573D01*
X199268671Y-63341791D01*
X199278572Y-63325451D01*
X199293268Y-63301439D01*
X199307884Y-63277800D01*
X199321158Y-63256574D01*
X199331827Y-63239798D01*
X199333133Y-63237770D01*
X199347509Y-63215072D01*
X199363507Y-63189235D01*
X199380663Y-63161057D01*
X199398513Y-63131339D01*
X199416594Y-63100877D01*
X199434442Y-63070470D01*
X199451593Y-63040918D01*
X199467583Y-63013019D01*
X199481949Y-62987571D01*
X199494227Y-62965373D01*
X199503953Y-62947223D01*
X199510663Y-62933921D01*
X199513894Y-62926265D01*
X199517940Y-62906273D01*
X199518020Y-62877382D01*
X199511935Y-62849181D01*
X199500277Y-62822900D01*
X199483637Y-62799768D01*
X199462605Y-62781015D01*
X199437773Y-62767872D01*
X199435839Y-62767162D01*
X199404098Y-62759357D01*
X199373328Y-62758881D01*
X199344117Y-62765529D01*
X199317047Y-62779095D01*
X199292706Y-62799374D01*
X199271677Y-62826161D01*
X199270890Y-62827403D01*
X199264951Y-62837183D01*
X199256986Y-62850744D01*
X199247723Y-62866797D01*
X199237889Y-62884052D01*
X199228212Y-62901220D01*
X199219419Y-62917012D01*
X199212237Y-62930139D01*
X199207395Y-62939311D01*
X199205619Y-62943240D01*
X199204288Y-62946224D01*
X199200016Y-62954082D01*
X199193824Y-62964818D01*
X199191974Y-62967978D01*
X199184771Y-62980495D01*
X199175287Y-62997171D01*
X199164542Y-63016208D01*
X199153554Y-63035813D01*
X199151660Y-63039195D01*
X199138999Y-63061457D01*
X199125424Y-63084830D01*
X199112447Y-63106733D01*
X199101579Y-63124584D01*
X199090613Y-63142579D01*
X199077414Y-63164837D01*
X199063896Y-63188118D01*
X199051725Y-63209578D01*
X199049288Y-63213946D01*
X199039036Y-63232309D01*
X199029580Y-63249237D01*
X199021882Y-63263010D01*
X199016903Y-63271907D01*
X199015226Y-63274836D01*
X199007399Y-63287514D01*
X198999967Y-63298350D01*
X198996460Y-63303414D01*
X198989125Y-63314873D01*
X198980120Y-63329575D01*
X198970659Y-63345569D01*
X198966069Y-63353434D01*
X198953403Y-63374907D01*
X198939949Y-63397461D01*
X198927940Y-63417341D01*
X198918713Y-63432482D01*
X198905728Y-63453794D01*
X198892103Y-63476161D01*
X198879613Y-63496669D01*
X198836713Y-63566026D01*
X198788282Y-63642103D01*
X198780319Y-63654455D01*
X198768098Y-63673440D01*
X198754945Y-63693899D01*
X198742604Y-63713120D01*
X198740944Y-63715702D01*
X198731708Y-63729950D01*
X198719718Y-63748312D01*
X198705663Y-63769744D01*
X198690234Y-63793203D01*
X198674118Y-63817645D01*
X198658006Y-63842028D01*
X198642586Y-63865307D01*
X198628549Y-63886440D01*
X198616583Y-63904382D01*
X198607378Y-63918091D01*
X198601622Y-63926523D01*
X198599503Y-63929610D01*
X198593015Y-63939216D01*
X198583772Y-63953004D01*
X198572675Y-63969630D01*
X198560625Y-63987746D01*
X198528731Y-64035442D01*
X198478326Y-64109289D01*
X198430997Y-64176622D01*
X198424399Y-64185886D01*
X198414602Y-64199753D01*
X198406665Y-64211122D01*
X198401863Y-64218174D01*
X198401226Y-64219133D01*
X198394163Y-64228952D01*
X198386065Y-64239298D01*
X198382564Y-64243766D01*
X198374405Y-64254803D01*
X198364339Y-64268900D01*
X198353790Y-64284083D01*
X198346634Y-64294469D01*
X198337727Y-64307202D01*
X198330905Y-64316722D01*
X198327246Y-64321510D01*
X198326329Y-64322637D01*
X198321374Y-64329279D01*
X198313322Y-64340397D01*
X198303057Y-64354767D01*
X198291461Y-64371163D01*
X198286714Y-64377893D01*
X198275549Y-64393597D01*
X198266066Y-64406765D01*
X198259148Y-64416178D01*
X198255677Y-64420617D01*
X198255301Y-64421025D01*
X198250142Y-64427206D01*
X198243510Y-64435727D01*
X198241964Y-64437773D01*
X198235247Y-64446636D01*
X198225430Y-64459568D01*
X198213576Y-64475170D01*
X198200747Y-64492044D01*
X198197024Y-64496940D01*
X198183278Y-64515046D01*
X198170081Y-64532466D01*
X198158776Y-64547426D01*
X198150705Y-64558150D01*
X198147689Y-64562138D01*
X198138076Y-64574623D01*
X198125594Y-64590637D01*
X198111522Y-64608542D01*
X198097142Y-64626698D01*
X198085090Y-64641857D01*
X198059681Y-64673864D01*
X198037793Y-64701523D01*
X198018571Y-64725915D01*
X198001164Y-64748121D01*
X197984719Y-64769222D01*
X197976388Y-64779893D01*
X197966403Y-64792547D01*
X197958629Y-64802241D01*
X197954268Y-64807466D01*
X197951886Y-64810235D01*
X197945089Y-64818449D01*
X197935683Y-64830011D01*
X197924948Y-64843353D01*
X197917709Y-64852345D01*
X197908406Y-64863727D01*
X197901568Y-64871881D01*
X197898308Y-64875462D01*
X197898144Y-64875605D01*
X197894386Y-64879741D01*
X197886945Y-64888392D01*
X197876817Y-64900388D01*
X197864996Y-64914564D01*
X197858413Y-64922487D01*
X197837702Y-64947244D01*
X197815301Y-64973811D01*
X197792027Y-65001235D01*
X197768694Y-65028566D01*
X197746119Y-65054851D01*
X197725119Y-65079141D01*
X197706509Y-65100482D01*
X197691106Y-65117925D01*
X197679726Y-65130517D01*
X197650636Y-65162268D01*
X197623663Y-65192313D01*
X197598287Y-65221276D01*
X197587954Y-65233074D01*
X197561422Y-65262457D01*
X197530247Y-65295963D01*
X197495082Y-65332932D01*
X197456581Y-65372708D01*
X197415396Y-65414631D01*
X197372181Y-65458043D01*
X197327590Y-65502286D01*
X197282276Y-65546702D01*
X197236892Y-65590633D01*
X197192091Y-65633420D01*
X197148527Y-65674406D01*
X197123432Y-65697566D01*
X197093680Y-65724533D01*
X197061969Y-65752856D01*
X197029365Y-65781605D01*
X196996939Y-65809849D01*
X196965760Y-65836658D01*
X196936895Y-65861101D01*
X196911413Y-65882248D01*
X196890384Y-65899168D01*
X196878547Y-65908516D01*
X196864837Y-65919436D01*
X196853880Y-65928255D01*
X196843910Y-65936159D01*
X196830148Y-65946761D01*
X196816342Y-65957150D01*
X196815860Y-65957508D01*
X196803710Y-65966583D01*
X196787686Y-65978633D01*
X196769814Y-65992130D01*
X196752124Y-66005546D01*
X196742530Y-66012794D01*
X196696211Y-66046723D01*
X196645343Y-66082471D01*
X196591752Y-66118815D01*
X196537267Y-66154532D01*
X196483716Y-66188398D01*
X196432925Y-66219191D01*
X196432471Y-66219459D01*
X196358190Y-66261244D01*
X196282927Y-66299532D01*
X196207524Y-66334001D01*
X196132822Y-66364331D01*
X196059665Y-66390203D01*
X195988894Y-66411296D01*
X195921351Y-66427289D01*
X195857879Y-66437863D01*
X195852464Y-66438512D01*
X195825829Y-66440908D01*
X195795829Y-66442574D01*
X195764635Y-66443469D01*
X195756029Y-66443493D01*
X195734421Y-66443552D01*
X195707358Y-66442782D01*
X195685620Y-66441117D01*
X195679954Y-66440364D01*
X195662788Y-66437467D01*
X195641916Y-66433373D01*
X195619568Y-66428575D01*
X195597976Y-66423560D01*
X195579371Y-66418820D01*
X195565985Y-66414844D01*
X195562431Y-66413615D01*
X195506250Y-66390270D01*
X195454088Y-66360868D01*
X195405801Y-66325274D01*
X195361244Y-66283353D01*
X195320274Y-66234970D01*
X195282746Y-66179992D01*
X195248517Y-66118283D01*
X195240803Y-66102453D01*
X195213716Y-66039235D01*
X195189496Y-65970100D01*
X195168455Y-65896010D01*
X195150906Y-65817929D01*
X195139690Y-65753255D01*
X195129245Y-65672302D01*
X195121731Y-65586835D01*
X195117212Y-65498202D01*
X195116308Y-65442087D01*
X195237099Y-65442087D01*
X195237104Y-65481020D01*
X195237420Y-65516570D01*
X195238067Y-65547460D01*
X195239064Y-65572413D01*
X195239259Y-65575900D01*
X195245577Y-65653102D01*
X195255558Y-65729214D01*
X195268966Y-65803216D01*
X195285561Y-65874086D01*
X195305107Y-65940804D01*
X195327365Y-66002347D01*
X195352097Y-66057695D01*
X195353808Y-66061110D01*
X195376345Y-66103040D01*
X195399157Y-66139392D01*
X195423449Y-66171942D01*
X195450427Y-66202465D01*
X195452226Y-66204342D01*
X195485198Y-66235489D01*
X195519247Y-66261108D01*
X195555931Y-66282095D01*
X195596805Y-66299348D01*
X195643424Y-66313764D01*
X195651616Y-66315885D01*
X195664132Y-66318737D01*
X195676288Y-66320778D01*
X195689667Y-66322151D01*
X195705852Y-66323000D01*
X195726427Y-66323469D01*
X195752972Y-66323701D01*
X195756029Y-66323715D01*
X195794472Y-66323324D01*
X195828186Y-66321633D01*
X195859516Y-66318326D01*
X195890803Y-66313090D01*
X195924391Y-66305610D01*
X195962624Y-66295572D01*
X196007974Y-66282165D01*
X196098117Y-66250491D01*
X196189727Y-66211774D01*
X196282446Y-66166172D01*
X196375914Y-66113843D01*
X196376698Y-66113378D01*
X196411731Y-66092335D01*
X196445637Y-66071526D01*
X196477322Y-66051644D01*
X196505695Y-66033381D01*
X196529665Y-66017432D01*
X196548139Y-66004488D01*
X196552561Y-66001312D01*
X196564760Y-65992767D01*
X196579788Y-65982424D01*
X196595358Y-65971864D01*
X196595593Y-65971706D01*
X196609986Y-65961804D01*
X196626322Y-65950234D01*
X196642970Y-65938189D01*
X196658297Y-65926862D01*
X196670672Y-65917445D01*
X196678463Y-65911130D01*
X196678865Y-65910494D01*
X196676392Y-65908033D01*
X196674093Y-65906741D01*
X196666098Y-65901727D01*
X196653376Y-65893519D01*
X196636838Y-65882711D01*
X196617395Y-65869895D01*
X196595959Y-65855664D01*
X196512751Y-65798657D01*
X196375903Y-65697655D01*
X196243897Y-65590918D01*
X196116880Y-65478602D01*
X195994998Y-65360866D01*
X195878399Y-65237866D01*
X195767228Y-65109759D01*
X195661631Y-64976704D01*
X195561757Y-64838858D01*
X195467750Y-64696377D01*
X195379758Y-64549419D01*
X195345743Y-64489691D01*
X195343327Y-64505978D01*
X195342995Y-64508106D01*
X195340696Y-64520879D01*
X195337424Y-64537304D01*
X195333773Y-64554373D01*
X195328101Y-64580993D01*
X195321099Y-64616105D01*
X195313411Y-64656687D01*
X195305239Y-64701696D01*
X195304242Y-64707267D01*
X195300193Y-64729590D01*
X195295748Y-64753730D01*
X195291703Y-64775357D01*
X195289824Y-64785663D01*
X195287114Y-64802098D01*
X195285251Y-64815499D01*
X195284559Y-64823680D01*
X195284559Y-64823772D01*
X195283813Y-64832848D01*
X195281898Y-64846373D01*
X195279222Y-64861455D01*
X195278199Y-64866940D01*
X195275186Y-64885324D01*
X195272177Y-64906348D01*
X195269692Y-64926458D01*
X195268945Y-64933099D01*
X195266409Y-64954682D01*
X195263729Y-64976410D01*
X195261371Y-64994453D01*
X195260468Y-65001431D01*
X195258213Y-65021263D01*
X195256009Y-65043439D01*
X195254226Y-65064337D01*
X195253543Y-65073073D01*
X195251830Y-65093914D01*
X195249722Y-65118621D01*
X195247424Y-65144813D01*
X195245141Y-65170108D01*
X195244159Y-65182191D01*
X195242526Y-65209021D01*
X195241068Y-65241413D01*
X195239806Y-65278090D01*
X195238759Y-65317774D01*
X195237946Y-65359186D01*
X195237386Y-65401050D01*
X195237099Y-65442087D01*
X195116308Y-65442087D01*
X195115755Y-65407749D01*
X195117424Y-65316823D01*
X195122285Y-65226770D01*
X195125923Y-65177746D01*
X195130053Y-65125083D01*
X195133943Y-65078979D01*
X195137644Y-65038895D01*
X195141201Y-65004289D01*
X195144664Y-64974621D01*
X195144804Y-64973503D01*
X195147279Y-64953427D01*
X195150012Y-64930834D01*
X195152435Y-64910404D01*
X195154211Y-64896019D01*
X195158382Y-64865630D01*
X195163626Y-64830520D01*
X195169745Y-64791799D01*
X195176543Y-64750574D01*
X195183822Y-64707955D01*
X195191386Y-64665050D01*
X195199039Y-64622969D01*
X195206583Y-64582819D01*
X195213821Y-64545710D01*
X195220557Y-64512750D01*
X195226593Y-64485048D01*
X195231734Y-64463713D01*
X195232816Y-64459356D01*
X195235656Y-64447393D01*
X195239548Y-64430632D01*
X195244126Y-64410655D01*
X195249025Y-64389042D01*
X195262877Y-64327593D01*
X195238922Y-64276661D01*
X195234774Y-64267916D01*
X195226655Y-64251248D01*
X195219847Y-64237866D01*
X195214965Y-64228962D01*
X195212625Y-64225729D01*
X195211823Y-64226358D01*
X195209208Y-64232063D01*
X195206339Y-64241784D01*
X195205420Y-64245457D01*
X195202442Y-64257141D01*
X195198062Y-64274175D01*
X195192607Y-64295295D01*
X195186404Y-64319232D01*
X195179778Y-64344721D01*
X195176241Y-64358325D01*
X195164742Y-64402861D01*
X195154778Y-64442107D01*
X195145989Y-64477624D01*
X195138015Y-64510972D01*
X195130495Y-64543713D01*
X195123068Y-64577406D01*
X195115374Y-64613613D01*
X195107052Y-64653893D01*
X195097743Y-64699807D01*
X195093648Y-64720550D01*
X195083573Y-64774978D01*
X195073544Y-64833622D01*
X195063800Y-64894828D01*
X195054583Y-64956943D01*
X195046131Y-65018315D01*
X195038686Y-65077290D01*
X195032487Y-65132216D01*
X195027774Y-65181440D01*
X195026368Y-65197594D01*
X195024081Y-65222749D01*
X195021734Y-65247516D01*
X195019660Y-65268323D01*
X195019509Y-65269906D01*
X195018678Y-65282698D01*
X195017867Y-65301585D01*
X195017090Y-65325518D01*
X195016361Y-65353445D01*
X195015696Y-65384319D01*
X195015107Y-65417088D01*
X195014609Y-65450704D01*
X195014216Y-65484116D01*
X195013943Y-65516274D01*
X195013804Y-65546129D01*
X194893985Y-65546129D01*
X194893771Y-65504891D01*
X194894301Y-65459138D01*
X194895525Y-65410191D01*
X194897389Y-65359327D01*
X194899844Y-65307824D01*
X194902838Y-65256962D01*
X194906320Y-65208019D01*
X194910238Y-65162272D01*
X194914541Y-65121000D01*
X194915344Y-65113935D01*
X194917583Y-65093276D01*
X194919943Y-65070447D01*
X194922030Y-65049227D01*
X194923105Y-65038575D01*
X194925295Y-65019597D01*
X194927558Y-65002727D01*
X194929547Y-64990676D01*
X194930878Y-64983438D01*
X194933429Y-64968049D01*
X194936293Y-64949459D01*
X194939067Y-64930235D01*
X194942973Y-64902475D01*
X194947308Y-64872871D01*
X194951490Y-64845879D01*
X194955927Y-64818799D01*
X194956400Y-64815965D01*
X194959145Y-64799128D01*
X194962302Y-64779319D01*
X194965277Y-64760247D01*
X194965627Y-64758012D01*
X194968666Y-64740338D01*
X194972787Y-64718296D01*
X194977494Y-64694478D01*
X194982290Y-64671476D01*
X194983726Y-64664789D01*
X194988163Y-64643993D01*
X194992180Y-64624965D01*
X194995386Y-64609578D01*
X194997385Y-64599703D01*
X194997478Y-64599226D01*
X195003454Y-64570288D01*
X195011244Y-64535186D01*
X195020574Y-64494994D01*
X195031172Y-64450788D01*
X195042765Y-64403642D01*
X195055080Y-64354634D01*
X195067845Y-64304836D01*
X195080785Y-64255325D01*
X195093629Y-64207176D01*
X195106104Y-64161463D01*
X195117937Y-64119263D01*
X195128854Y-64081650D01*
X195139656Y-64045229D01*
X195128874Y-64017432D01*
X195126541Y-64011340D01*
X195117752Y-63987432D01*
X195107391Y-63958105D01*
X195095920Y-63924747D01*
X195083798Y-63888747D01*
X195071485Y-63851490D01*
X195059441Y-63814365D01*
X195048125Y-63778759D01*
X195037998Y-63746059D01*
X195029518Y-63717654D01*
X195014571Y-63664868D01*
X194986971Y-63559213D01*
X194962399Y-63453704D01*
X194941307Y-63350342D01*
X194924147Y-63251131D01*
X194921447Y-63232953D01*
X194917361Y-63202951D01*
X194912952Y-63168186D01*
X194908349Y-63129884D01*
X194903684Y-63089271D01*
X194899090Y-63047570D01*
X194894697Y-63006008D01*
X194890638Y-62965810D01*
X194887042Y-62928201D01*
X194884043Y-62894406D01*
X194881771Y-62865650D01*
X194880359Y-62843159D01*
X194879898Y-62831393D01*
X194879355Y-62809649D01*
X194878916Y-62782269D01*
X194878587Y-62750359D01*
X194878377Y-62715023D01*
X194878295Y-62677366D01*
X194878349Y-62638493D01*
X194878546Y-62599510D01*
X194878704Y-62578062D01*
X194879060Y-62537429D01*
X194879486Y-62502613D01*
X194880031Y-62472432D01*
X194880743Y-62445704D01*
X194881672Y-62421246D01*
X194882866Y-62397877D01*
X194884374Y-62374414D01*
X194886244Y-62349676D01*
X194888527Y-62322479D01*
X194891270Y-62291642D01*
X194892219Y-62281259D01*
X194895531Y-62246481D01*
X194899086Y-62211022D01*
X194902709Y-62176524D01*
X194906225Y-62144628D01*
X194909459Y-62116976D01*
X194912235Y-62095212D01*
X194915127Y-62074486D01*
X194937413Y-61938166D01*
X194965532Y-61799633D01*
X194999056Y-61660549D01*
X195037558Y-61522575D01*
X195080611Y-61387373D01*
X195126048Y-61261426D01*
X199519137Y-61261426D01*
X199521654Y-61264159D01*
X199522200Y-61264084D01*
X199528269Y-61261471D01*
X199538244Y-61255979D01*
X199550168Y-61248782D01*
X199562085Y-61241053D01*
X199572038Y-61233964D01*
X199575477Y-61231443D01*
X199587693Y-61223397D01*
X199602835Y-61214269D01*
X199619045Y-61205091D01*
X199634468Y-61196895D01*
X199647245Y-61190714D01*
X199655519Y-61187578D01*
X199655722Y-61187529D01*
X199663014Y-61185380D01*
X199675622Y-61181305D01*
X199691829Y-61175871D01*
X199709917Y-61169643D01*
X199728633Y-61163531D01*
X199746789Y-61158351D01*
X199762017Y-61154753D01*
X199772246Y-61153279D01*
X199777250Y-61153158D01*
X199785381Y-61153775D01*
X199789041Y-61156625D01*
X199790416Y-61162859D01*
X199790479Y-61163448D01*
X199789157Y-61175794D01*
X199782405Y-61188462D01*
X199769667Y-61202213D01*
X199750391Y-61217807D01*
X199742116Y-61224004D01*
X199719475Y-61242036D01*
X199700915Y-61258522D01*
X199687249Y-61272706D01*
X199679291Y-61283831D01*
X199675265Y-61290282D01*
X199667180Y-61301157D01*
X199657644Y-61312578D01*
X199656080Y-61314367D01*
X199645705Y-61327548D01*
X199635754Y-61342165D01*
X199626889Y-61356954D01*
X199619774Y-61370653D01*
X199615074Y-61382001D01*
X199613451Y-61389736D01*
X199615570Y-61392594D01*
X199616449Y-61392219D01*
X199622176Y-61388507D01*
X199631786Y-61381672D01*
X199643784Y-61372762D01*
X199645951Y-61371139D01*
X199665830Y-61357478D01*
X199688813Y-61343892D01*
X199716272Y-61329617D01*
X199749581Y-61313889D01*
X199762450Y-61308012D01*
X199781636Y-61299212D01*
X199799014Y-61291204D01*
X199809489Y-61286832D01*
X199827432Y-61280343D01*
X199847927Y-61273715D01*
X199868280Y-61267855D01*
X199875824Y-61265898D01*
X199904473Y-61259886D01*
X199929541Y-61257488D01*
X199953441Y-61258601D01*
X199978587Y-61263120D01*
X199985451Y-61265286D01*
X200001458Y-61275595D01*
X200014299Y-61292049D01*
X200023289Y-61313868D01*
X200023817Y-61315808D01*
X200027022Y-61339885D01*
X200023543Y-61363068D01*
X200013176Y-61385815D01*
X199995718Y-61408584D01*
X199970967Y-61431832D01*
X199951214Y-61447277D01*
X199927781Y-61463437D01*
X199901016Y-61479775D01*
X199869959Y-61496844D01*
X199833651Y-61515195D01*
X199791134Y-61535381D01*
X199786115Y-61537492D01*
X199773498Y-61542015D01*
X199757425Y-61547179D01*
X199739417Y-61552560D01*
X199720995Y-61557738D01*
X199703679Y-61562290D01*
X199688993Y-61565795D01*
X199678456Y-61567831D01*
X199673590Y-61567976D01*
X199672158Y-61567613D01*
X199664781Y-61568132D01*
X199654286Y-61570380D01*
X199638145Y-61574739D01*
X199653583Y-61588492D01*
X199665369Y-61599963D01*
X199673122Y-61611060D01*
X199676847Y-61623325D01*
X199677809Y-61639410D01*
X199677807Y-61640856D01*
X199677617Y-61648458D01*
X199676739Y-61655221D01*
X199674650Y-61662370D01*
X199670828Y-61671131D01*
X199664751Y-61682731D01*
X199655895Y-61698395D01*
X199643739Y-61719349D01*
X199642635Y-61721210D01*
X199635655Y-61731584D01*
X199626300Y-61743225D01*
X199613493Y-61757400D01*
X199596158Y-61775376D01*
X199590652Y-61781287D01*
X199582194Y-61792359D01*
X199578245Y-61800711D01*
X199578869Y-61805555D01*
X199584127Y-61806106D01*
X199594082Y-61801576D01*
X199595092Y-61800973D01*
X199603574Y-61795889D01*
X199616619Y-61788045D01*
X199632642Y-61778395D01*
X199650055Y-61767895D01*
X199663796Y-61759692D01*
X199693200Y-61742969D01*
X199717547Y-61730598D01*
X199737486Y-61722384D01*
X199753664Y-61718133D01*
X199766731Y-61717652D01*
X199777337Y-61720746D01*
X199786129Y-61727222D01*
X199791428Y-61733183D01*
X199794052Y-61739104D01*
X199794542Y-61747489D01*
X199793445Y-61760848D01*
X199792063Y-61772152D01*
X199789823Y-61785876D01*
X199787602Y-61795473D01*
X199784913Y-61804713D01*
X199782060Y-61816106D01*
X199779821Y-61821615D01*
X199773315Y-61831833D01*
X199764515Y-61842548D01*
X199758371Y-61849158D01*
X199745346Y-61863167D01*
X199733304Y-61876116D01*
X199731201Y-61878331D01*
X199719607Y-61889721D01*
X199705351Y-61902836D01*
X199691041Y-61915261D01*
X199684909Y-61920401D01*
X199664073Y-61938014D01*
X199648375Y-61951599D01*
X199637212Y-61961716D01*
X199629984Y-61968926D01*
X199626088Y-61973789D01*
X199624923Y-61976867D01*
X199626204Y-61979511D01*
X199632093Y-61981648D01*
X199639895Y-61981121D01*
X199646394Y-61977792D01*
X199646734Y-61977499D01*
X199652999Y-61974428D01*
X199664163Y-61970489D01*
X199678059Y-61966460D01*
X199697879Y-61961911D01*
X199719744Y-61959289D01*
X199735792Y-61960938D01*
X199746338Y-61966968D01*
X199751694Y-61977491D01*
X199752176Y-61992616D01*
X199751803Y-61995940D01*
X199746169Y-62027099D01*
X199737400Y-62053659D01*
X199737167Y-62054200D01*
X199731090Y-62069144D01*
X199724505Y-62087150D01*
X199716641Y-62110322D01*
X199713800Y-62118138D01*
X199707487Y-62133352D01*
X199700616Y-62148097D01*
X199700422Y-62148487D01*
X199693841Y-62163138D01*
X199688254Y-62178151D01*
X199684201Y-62191719D01*
X199682224Y-62202037D01*
X199682865Y-62207298D01*
X199683379Y-62207246D01*
X199688141Y-62203765D01*
X199697091Y-62195858D01*
X199709421Y-62184279D01*
X199724324Y-62169780D01*
X199740993Y-62153114D01*
X199761358Y-62132896D01*
X199786728Y-62109206D01*
X199808139Y-62091294D01*
X199825876Y-62078967D01*
X199840227Y-62072032D01*
X199851481Y-62070298D01*
X199859924Y-62073572D01*
X199864792Y-62078999D01*
X199870766Y-62092959D01*
X199873577Y-62111445D01*
X199873052Y-62132910D01*
X199869021Y-62155803D01*
X199865952Y-62168396D01*
X199862016Y-62187533D01*
X199860758Y-62199699D01*
X199862185Y-62204958D01*
X199866303Y-62203374D01*
X199873119Y-62195013D01*
X199883029Y-62181775D01*
X199897035Y-62165259D01*
X199911562Y-62150018D01*
X199925016Y-62137706D01*
X199935802Y-62129978D01*
X199942704Y-62126836D01*
X199959304Y-62123392D01*
X199975201Y-62124974D01*
X199987862Y-62131509D01*
X199989838Y-62133158D01*
X199997184Y-62136835D01*
X200000997Y-62133881D01*
X200000919Y-62124487D01*
X199997361Y-62090180D01*
X199999569Y-62054893D01*
X200008488Y-62021156D01*
X200024361Y-61987553D01*
X200027100Y-61982836D01*
X200037898Y-61966248D01*
X200048268Y-61954323D01*
X200059885Y-61945056D01*
X200066974Y-61940640D01*
X200082166Y-61934069D01*
X200095865Y-61932791D01*
X200108273Y-61937088D01*
X200119590Y-61947244D01*
X200130016Y-61963542D01*
X200139752Y-61986263D01*
X200148999Y-62015690D01*
X200157956Y-62052107D01*
X200166825Y-62095795D01*
X200170613Y-62114901D01*
X200175753Y-62136740D01*
X200180372Y-62151131D01*
X200184460Y-62158056D01*
X200188003Y-62157499D01*
X200190990Y-62149443D01*
X200193410Y-62133872D01*
X200195612Y-62115241D01*
X200199048Y-62089898D01*
X200202725Y-62066265D01*
X200206397Y-62045793D01*
X200209817Y-62029936D01*
X200212737Y-62020144D01*
X200213082Y-62019292D01*
X200216566Y-62008336D01*
X200218007Y-61999368D01*
X200218776Y-61994119D01*
X200223915Y-61982052D01*
X200232287Y-61970050D01*
X200242009Y-61961115D01*
X200248543Y-61957545D01*
X200254823Y-61957311D01*
X200263910Y-61960834D01*
X200264716Y-61961207D01*
X200275208Y-61966553D01*
X200283263Y-61971422D01*
X200289536Y-61973960D01*
X200293231Y-61970348D01*
X200294246Y-61960164D01*
X200292673Y-61943129D01*
X200289463Y-61919792D01*
X200286423Y-61897461D01*
X200283913Y-61878613D01*
X200281647Y-61861084D01*
X200279343Y-61842715D01*
X200276717Y-61821342D01*
X200274604Y-61800587D01*
X200272600Y-61772927D01*
X200271245Y-61744620D01*
X200270755Y-61719349D01*
X200270768Y-61713682D01*
X200271039Y-61693986D01*
X200271839Y-61676919D01*
X200273392Y-61660481D01*
X200275925Y-61642672D01*
X200279665Y-61621493D01*
X200284839Y-61594942D01*
X200286485Y-61589915D01*
X200291533Y-61578665D01*
X200298927Y-61564239D01*
X200307728Y-61548541D01*
X200308370Y-61547447D01*
X200322108Y-61526189D01*
X200334708Y-61511797D01*
X200347117Y-61503905D01*
X200360281Y-61502145D01*
X200375145Y-61506150D01*
X200392656Y-61515551D01*
X200409633Y-61528803D01*
X200426344Y-61547732D01*
X200442550Y-61572521D01*
X200458615Y-61603728D01*
X200474901Y-61641910D01*
X200481302Y-61660415D01*
X200489881Y-61696375D01*
X200495002Y-61734967D01*
X200496517Y-61773938D01*
X200494278Y-61811035D01*
X200488138Y-61844007D01*
X200487615Y-61849025D01*
X200489718Y-61857116D01*
X200491240Y-61858735D01*
X200494982Y-61858665D01*
X200501139Y-61854262D01*
X200510945Y-61844810D01*
X200516665Y-61839195D01*
X200529443Y-61828748D01*
X200539654Y-61824419D01*
X200548273Y-61825957D01*
X200556274Y-61833110D01*
X200557641Y-61834877D01*
X200566522Y-61852682D01*
X200570379Y-61874284D01*
X200568830Y-61897715D01*
X200567957Y-61903110D01*
X200567107Y-61915884D01*
X200568560Y-61923764D01*
X200570678Y-61926798D01*
X200574023Y-61926887D01*
X200579767Y-61921507D01*
X200585481Y-61913501D01*
X200589890Y-61903130D01*
X200592163Y-61895996D01*
X200596960Y-61883870D01*
X200602949Y-61870450D01*
X200609886Y-61854290D01*
X200616841Y-61831287D01*
X200620550Y-61806480D01*
X200621556Y-61777150D01*
X200621573Y-61772026D01*
X200622970Y-61747215D01*
X200626361Y-61726058D01*
X200631477Y-61709824D01*
X200638047Y-61699783D01*
X200642183Y-61697081D01*
X200651758Y-61696840D01*
X200662309Y-61703551D01*
X200673295Y-61716952D01*
X200679339Y-61727566D01*
X200685418Y-61743051D01*
X200690295Y-61762392D01*
X200694267Y-61786819D01*
X200697633Y-61817564D01*
X200699088Y-61833119D01*
X200701181Y-61853864D01*
X200703003Y-61868729D01*
X200704752Y-61878748D01*
X200706626Y-61884957D01*
X200708826Y-61888391D01*
X200711548Y-61890086D01*
X200716991Y-61889982D01*
X200722075Y-61884352D01*
X200724122Y-61874197D01*
X200724748Y-61870392D01*
X200728191Y-61860442D01*
X200733624Y-61848872D01*
X200736990Y-61842101D01*
X200741361Y-61831440D01*
X200743075Y-61824348D01*
X200744612Y-61818140D01*
X200748933Y-61807456D01*
X200755062Y-61794899D01*
X200760852Y-61783080D01*
X200766593Y-61769396D01*
X200769913Y-61759013D01*
X200770202Y-61757696D01*
X200773314Y-61744343D01*
X200776724Y-61730682D01*
X200778889Y-61720651D01*
X200780220Y-61693342D01*
X200774746Y-61667883D01*
X200767192Y-61647572D01*
X200747711Y-61596640D01*
X200728483Y-61548354D01*
X200710421Y-61505024D01*
X200706734Y-61495640D01*
X200702725Y-61479219D01*
X200702269Y-61461583D01*
X200703403Y-61439813D01*
X200721989Y-61440794D01*
X200727416Y-61441308D01*
X200740832Y-61444172D01*
X200751050Y-61448406D01*
X200754713Y-61450956D01*
X200768747Y-61464144D01*
X200783675Y-61482699D01*
X200798508Y-61505162D01*
X200812255Y-61530073D01*
X200823929Y-61555972D01*
X200827878Y-61563710D01*
X200833641Y-61569318D01*
X200838717Y-61568751D01*
X200841928Y-61561638D01*
X200842418Y-61556448D01*
X200842622Y-61543495D01*
X200842276Y-61525771D01*
X200841469Y-61504924D01*
X200840292Y-61482599D01*
X200838835Y-61460446D01*
X200837189Y-61440110D01*
X200835445Y-61423240D01*
X200833691Y-61411482D01*
X200832578Y-61406042D01*
X200819737Y-61356874D01*
X200802456Y-61311842D01*
X200780216Y-61270209D01*
X200752499Y-61231235D01*
X200718787Y-61194182D01*
X200678562Y-61158311D01*
X200665628Y-61148615D01*
X200631305Y-61122883D01*
X200622772Y-61117252D01*
X200607485Y-61107673D01*
X200586957Y-61095128D01*
X200561890Y-61080029D01*
X200532990Y-61062793D01*
X200500959Y-61043832D01*
X200466502Y-61023559D01*
X200430322Y-61002391D01*
X200393123Y-60980739D01*
X200355609Y-60959018D01*
X200318483Y-60937642D01*
X200282450Y-60917025D01*
X200248213Y-60897580D01*
X200245458Y-60896021D01*
X200229220Y-60886786D01*
X200210662Y-60876182D01*
X200193280Y-60866206D01*
X200156399Y-60847945D01*
X200112015Y-60832240D01*
X200066287Y-60821986D01*
X200021562Y-60817844D01*
X200002006Y-60818041D01*
X199969788Y-60820195D01*
X199934729Y-60824277D01*
X199898561Y-60829971D01*
X199863017Y-60836960D01*
X199829830Y-60844926D01*
X199800733Y-60853552D01*
X199777457Y-60862522D01*
X199767323Y-60867388D01*
X199749675Y-60876710D01*
X199731877Y-60886957D01*
X199715666Y-60897074D01*
X199702780Y-60906003D01*
X199694953Y-60912689D01*
X199690757Y-60917565D01*
X199690404Y-60920013D01*
X199695399Y-60920405D01*
X199695972Y-60920388D01*
X199703898Y-60919246D01*
X199716360Y-60916666D01*
X199730927Y-60913144D01*
X199752648Y-60908025D01*
X199793565Y-60901238D01*
X199830976Y-60898918D01*
X199863670Y-60901176D01*
X199877695Y-60903725D01*
X199898039Y-60909168D01*
X199913896Y-60915717D01*
X199924506Y-60922934D01*
X199929108Y-60930381D01*
X199926944Y-60937622D01*
X199923024Y-60941672D01*
X199908197Y-60952205D01*
X199886243Y-60963430D01*
X199857434Y-60975241D01*
X199822039Y-60987533D01*
X199780332Y-61000200D01*
X199732583Y-61013138D01*
X199725561Y-61015035D01*
X199686975Y-61028294D01*
X199647686Y-61046113D01*
X199610758Y-61067135D01*
X199602417Y-61072901D01*
X199593731Y-61080747D01*
X199590825Y-61086450D01*
X199593912Y-61089394D01*
X199603203Y-61088966D01*
X199625864Y-61085269D01*
X199643899Y-61083696D01*
X199655857Y-61084611D01*
X199662285Y-61088006D01*
X199663784Y-61090073D01*
X199665838Y-61098429D01*
X199661996Y-61108160D01*
X199651925Y-61119835D01*
X199635289Y-61134024D01*
X199622322Y-61144421D01*
X199602774Y-61161089D01*
X199584775Y-61177559D01*
X199569449Y-61192749D01*
X199557920Y-61205574D01*
X199551313Y-61214952D01*
X199550770Y-61215974D01*
X199545817Y-61223359D01*
X199541857Y-61226384D01*
X199540454Y-61226967D01*
X199535224Y-61231989D01*
X199528733Y-61240482D01*
X199527000Y-61243103D01*
X199521036Y-61254014D01*
X199519137Y-61261426D01*
X195126048Y-61261426D01*
X195127788Y-61256604D01*
X195143324Y-61216721D01*
X195208269Y-61062073D01*
X195279109Y-60911752D01*
X195356227Y-60765018D01*
X195440008Y-60621131D01*
X195491257Y-60541131D01*
X200127576Y-60541131D01*
X200131147Y-60555892D01*
X200139920Y-60574763D01*
X200142234Y-60579027D01*
X200151037Y-60595518D01*
X200163222Y-60618639D01*
X200178750Y-60648313D01*
X200197582Y-60684466D01*
X200219679Y-60727025D01*
X200245002Y-60775915D01*
X200253440Y-60791989D01*
X200263536Y-60810618D01*
X200272434Y-60826392D01*
X200279399Y-60838014D01*
X200283696Y-60844188D01*
X200286404Y-60846716D01*
X200295771Y-60853711D01*
X200308865Y-60862288D01*
X200323738Y-60871136D01*
X200324416Y-60871519D01*
X200335523Y-60877873D01*
X200352121Y-60887447D01*
X200373261Y-60899689D01*
X200397997Y-60914050D01*
X200425382Y-60929981D01*
X200454468Y-60946932D01*
X200484308Y-60964351D01*
X200612743Y-61039397D01*
X200665628Y-61039397D01*
X200669105Y-61039387D01*
X200688173Y-61039126D01*
X200712934Y-61038547D01*
X200741886Y-61037698D01*
X200773527Y-61036625D01*
X200806356Y-61035376D01*
X200838870Y-61033995D01*
X200865383Y-61032775D01*
X200894730Y-61031303D01*
X200917834Y-61029952D01*
X200935446Y-61028654D01*
X200948313Y-61027343D01*
X200957184Y-61025952D01*
X200962809Y-61024414D01*
X200965936Y-61022663D01*
X200969208Y-61018568D01*
X200975999Y-61008741D01*
X200985562Y-60994221D01*
X200997300Y-60975931D01*
X201010614Y-60954796D01*
X201024905Y-60931738D01*
X201039906Y-60907252D01*
X201052470Y-60886433D01*
X201061869Y-60870318D01*
X201068548Y-60858033D01*
X201072953Y-60848706D01*
X201075530Y-60841464D01*
X201076724Y-60835435D01*
X201076981Y-60829745D01*
X201076855Y-60826527D01*
X201075971Y-60814806D01*
X201074360Y-60797547D01*
X201072157Y-60776082D01*
X201069496Y-60751743D01*
X201066511Y-60725863D01*
X201066136Y-60722691D01*
X201062560Y-60692352D01*
X201058769Y-60660015D01*
X201055040Y-60628054D01*
X201051651Y-60598845D01*
X201048879Y-60574763D01*
X201046513Y-60554091D01*
X201043140Y-60524642D01*
X201039464Y-60492579D01*
X201035793Y-60460567D01*
X201032431Y-60431272D01*
X201031743Y-60425263D01*
X201028918Y-60400017D01*
X201026977Y-60380963D01*
X201025881Y-60367016D01*
X201025590Y-60357092D01*
X201026065Y-60350106D01*
X201027267Y-60344974D01*
X201029157Y-60340611D01*
X201030106Y-60338839D01*
X201034945Y-60330184D01*
X201043309Y-60315460D01*
X201055013Y-60294995D01*
X201069867Y-60269113D01*
X201087684Y-60238140D01*
X201108277Y-60202402D01*
X201131457Y-60162225D01*
X201157037Y-60117934D01*
X201184829Y-60069854D01*
X201214646Y-60018312D01*
X201246299Y-59963633D01*
X201279602Y-59906143D01*
X201288546Y-59890703D01*
X201310426Y-59852901D01*
X201334234Y-59811738D01*
X201358824Y-59769191D01*
X201383053Y-59727242D01*
X201405777Y-59687868D01*
X201425852Y-59653049D01*
X201435016Y-59637152D01*
X201455496Y-59601655D01*
X201477257Y-59563979D01*
X201499287Y-59525870D01*
X201520579Y-59489073D01*
X201540123Y-59455334D01*
X201556908Y-59426398D01*
X201560354Y-59420454D01*
X201576153Y-59392910D01*
X201591524Y-59365687D01*
X201605783Y-59340022D01*
X201618247Y-59317151D01*
X201628236Y-59298312D01*
X201635065Y-59284742D01*
X201640096Y-59274258D01*
X201651147Y-59251494D01*
X201662586Y-59228209D01*
X201672609Y-59208081D01*
X201678713Y-59195609D01*
X201685185Y-59181470D01*
X201689594Y-59170703D01*
X201691223Y-59164971D01*
X201691774Y-59162003D01*
X201695264Y-59153116D01*
X201700905Y-59142339D01*
X201703987Y-59136743D01*
X201711392Y-59121292D01*
X201717503Y-59106121D01*
X201718104Y-59104423D01*
X201723257Y-59090386D01*
X201729787Y-59073201D01*
X201736429Y-59056202D01*
X201737939Y-59052374D01*
X201743924Y-59036624D01*
X201748966Y-59022531D01*
X201752101Y-59012761D01*
X201756144Y-58999594D01*
X201760780Y-58986318D01*
X201762563Y-58981540D01*
X201774002Y-58946953D01*
X201784240Y-58909384D01*
X201792877Y-58870797D01*
X201799512Y-58833158D01*
X201803745Y-58798431D01*
X201805175Y-58768582D01*
X201803830Y-58738115D01*
X201799819Y-58713791D01*
X201792822Y-58694922D01*
X201782518Y-58680644D01*
X201768585Y-58670091D01*
X201752034Y-58663642D01*
X201730431Y-58662212D01*
X201705991Y-58667309D01*
X201678487Y-58678985D01*
X201647688Y-58697292D01*
X201640393Y-58702284D01*
X201612086Y-58723768D01*
X201581330Y-58749957D01*
X201549448Y-58779589D01*
X201517758Y-58811400D01*
X201487583Y-58844129D01*
X201460243Y-58876512D01*
X201453146Y-58885369D01*
X201433447Y-58910025D01*
X201417234Y-58930495D01*
X201403543Y-58948061D01*
X201391407Y-58964002D01*
X201379861Y-58979599D01*
X201367940Y-58996131D01*
X201354678Y-59014879D01*
X201339109Y-59037123D01*
X201336835Y-59040382D01*
X201329596Y-59050784D01*
X201322669Y-59060813D01*
X201315883Y-59070757D01*
X201309069Y-59080905D01*
X201302056Y-59091545D01*
X201294674Y-59102965D01*
X201286752Y-59115453D01*
X201278119Y-59129297D01*
X201268606Y-59144786D01*
X201258042Y-59162207D01*
X201246257Y-59181849D01*
X201233079Y-59204000D01*
X201218339Y-59228948D01*
X201201867Y-59256980D01*
X201183492Y-59288386D01*
X201163043Y-59323454D01*
X201140350Y-59362471D01*
X201115243Y-59405726D01*
X201087551Y-59453506D01*
X201057104Y-59506101D01*
X201023732Y-59563798D01*
X200987264Y-59626885D01*
X200947529Y-59695650D01*
X200904358Y-59770382D01*
X200857580Y-59851369D01*
X200855795Y-59854458D01*
X200833907Y-59892357D01*
X200812510Y-59929412D01*
X200792014Y-59964909D01*
X200772832Y-59998136D01*
X200755374Y-60028383D01*
X200740050Y-60054936D01*
X200727273Y-60077083D01*
X200717453Y-60094113D01*
X200711002Y-60105313D01*
X200708760Y-60109193D01*
X200699214Y-60125376D01*
X200690893Y-60138961D01*
X200684625Y-60148619D01*
X200681238Y-60153024D01*
X200679281Y-60154178D01*
X200674865Y-60156362D01*
X200667629Y-60159725D01*
X200657200Y-60164431D01*
X200643202Y-60170644D01*
X200625260Y-60178528D01*
X200603000Y-60188246D01*
X200576047Y-60199961D01*
X200544026Y-60213839D01*
X200506561Y-60230041D01*
X200463279Y-60248733D01*
X200413804Y-60270077D01*
X200357761Y-60294237D01*
X200331220Y-60305630D01*
X200303227Y-60317621D01*
X200280708Y-60327440D01*
X200262888Y-60335639D01*
X200248993Y-60342769D01*
X200238247Y-60349383D01*
X200229877Y-60356033D01*
X200223107Y-60363271D01*
X200217162Y-60371649D01*
X200211269Y-60381720D01*
X200204652Y-60394036D01*
X200196536Y-60409148D01*
X200190943Y-60419397D01*
X200179023Y-60441313D01*
X200167478Y-60462630D01*
X200157393Y-60481340D01*
X200149856Y-60495435D01*
X200146470Y-60501757D01*
X200139335Y-60514721D01*
X200133705Y-60524463D01*
X200130573Y-60529244D01*
X200129312Y-60530985D01*
X200127576Y-60541131D01*
X195491257Y-60541131D01*
X195530836Y-60479349D01*
X195568368Y-60424352D01*
X195669037Y-60286025D01*
X195775232Y-60152849D01*
X195886966Y-60024810D01*
X196004249Y-59901896D01*
X196127095Y-59784093D01*
X196255514Y-59671390D01*
X196389520Y-59563772D01*
X196400803Y-59555139D01*
X196538822Y-59454640D01*
X196680639Y-59360642D01*
X196826076Y-59273220D01*
X196974958Y-59192452D01*
X197127108Y-59118413D01*
X197282352Y-59051181D01*
X197440513Y-58990832D01*
X197601415Y-58937442D01*
X197764882Y-58891089D01*
X197930738Y-58851848D01*
X198098808Y-58819797D01*
X198109238Y-58818082D01*
X198146412Y-58812448D01*
X198188854Y-58806608D01*
X198235152Y-58800718D01*
X198283889Y-58794930D01*
X198333652Y-58789399D01*
X198383025Y-58784278D01*
X198430594Y-58779720D01*
X198474945Y-58775879D01*
X198514663Y-58772910D01*
X198548332Y-58770965D01*
X198583252Y-58769667D01*
X198625373Y-58768642D01*
X198671656Y-58767955D01*
X198720429Y-58767605D01*
X198770018Y-58767592D01*
X198818750Y-58767917D01*
X198864954Y-58768580D01*
X198906955Y-58769581D01*
X198943082Y-58770921D01*
X198961823Y-58771936D01*
X198997138Y-58774393D01*
X199037650Y-58777737D01*
X199081956Y-58781816D01*
X199128655Y-58786478D01*
X199176345Y-58791572D01*
X199223624Y-58796946D01*
X199269092Y-58802450D01*
X199311347Y-58807930D01*
X199348987Y-58813236D01*
X199380611Y-58818217D01*
X199463580Y-58833142D01*
X199624741Y-58867183D01*
X199783429Y-58907404D01*
X199938933Y-58953600D01*
X200090541Y-59005569D01*
X200237541Y-59063107D01*
X200332213Y-59104180D01*
X200478171Y-59173725D01*
X200622293Y-59249948D01*
X200763591Y-59332317D01*
X200901078Y-59420300D01*
X200945494Y-59450057D01*
X200972783Y-59402341D01*
X200985568Y-59379995D01*
X201009525Y-59338198D01*
X201030763Y-59301262D01*
X201049952Y-59268029D01*
X201067760Y-59237341D01*
X201084857Y-59208042D01*
X201101913Y-59178971D01*
X201114478Y-59157549D01*
X201127962Y-59134439D01*
X201140601Y-59112666D01*
X201151395Y-59093950D01*
X201159345Y-59080016D01*
X201164268Y-59071507D01*
X201176307Y-59051703D01*
X201189631Y-59030768D01*
X201202150Y-59012020D01*
X201208178Y-59003257D01*
X201221954Y-58983085D01*
X201235915Y-58962483D01*
X201247811Y-58944766D01*
X201253230Y-58936731D01*
X201263757Y-58921583D01*
X201273271Y-58908428D01*
X201280222Y-58899435D01*
X201294925Y-58881184D01*
X201311992Y-58859025D01*
X201329543Y-58835400D01*
X201330845Y-58833650D01*
X201339749Y-58822512D01*
X201352634Y-58807213D01*
X201368513Y-58788854D01*
X201386397Y-58768536D01*
X201405299Y-58747360D01*
X201424233Y-58726425D01*
X201442209Y-58706833D01*
X201458242Y-58689684D01*
X201471343Y-58676079D01*
X201480525Y-58667118D01*
X201489972Y-58658632D01*
X201527747Y-58626860D01*
X201564326Y-58599496D01*
X201598772Y-58577206D01*
X201630149Y-58560656D01*
X201646565Y-58553712D01*
X201687151Y-58541360D01*
X201726517Y-58536450D01*
X201764728Y-58538986D01*
G37*
D11*
%TO.C,JP3*%
X232440000Y-53430000D02*
X232440000Y-54030000D01*
X233140000Y-54730000D02*
X234540000Y-54730000D01*
X234540000Y-52730000D02*
X233140000Y-52730000D01*
X235240000Y-54030000D02*
X235240000Y-53430000D01*
X232440000Y-53430000D02*
G75*
G02*
X233140000Y-52730000I700000J0D01*
G01*
X233140000Y-54730000D02*
G75*
G02*
X232440000Y-54030000I0J700000D01*
G01*
X234540000Y-52730000D02*
G75*
G02*
X235240000Y-53430000I1J-699999D01*
G01*
X235240000Y-54030000D02*
G75*
G02*
X234540000Y-54730000I-699999J-1D01*
G01*
%TD*%
M02*
