M48
; DRILL file {KiCad 9.0.4} date 2026-03-05T13:32:55-0500
; FORMAT={-:-/ absolute / metric / decimal}
; #@! TF.CreationDate,2026-03-05T13:32:55-05:00
; #@! TF.GenerationSoftware,Kicad,Pcbnew,9.0.4
; #@! TF.FileFunction,Plated,1,2,PTH
FMAT,2
METRIC
; #@! TA.AperFunction,Plated,PTH,ViaDrill
T1C0.300
; #@! TA.AperFunction,Plated,PTH,ComponentDrill
T2C0.500
; #@! TA.AperFunction,Plated,PTH,ComponentDrill
T3C0.600
; #@! TA.AperFunction,Plated,PTH,ComponentDrill
T4C0.650
; #@! TA.AperFunction,Plated,PTH,ComponentDrill
T5C0.750
; #@! TA.AperFunction,Plated,PTH,ComponentDrill
T6C0.800
; #@! TA.AperFunction,Plated,PTH,ComponentDrill
T7C1.100
; #@! TA.AperFunction,Plated,PTH,ComponentDrill
T8C1.500
; #@! TA.AperFunction,Plated,PTH,ComponentDrill
T9C3.200
%
G90
G05
T1
X119.698Y-47.0
X125.0Y-73.0
X125.625Y-45.875
X125.75Y-64.0
X125.75Y-68.75
X128.125Y-64.5
X130.0Y-40.75
X131.0Y-65.25
X131.25Y-66.5
X134.25Y-46.25
X139.99Y-75.83
X144.5Y-41.926
X149.25Y-85.5
X150.25Y-53.7
X151.05Y-53.0
X152.75Y-54.476
X155.46Y-34.85
X156.0Y-52.0
X156.12Y-34.1
X158.25Y-56.25
X159.57Y-48.15
X159.57Y-49.674
X159.57Y-53.738
X159.57Y-54.5
X159.57Y-55.262
X160.491Y-33.058
X161.213Y-57.85
X161.313Y-29.259
X161.45Y-56.8
X162.5Y-58.5
X162.625Y-52.375
X162.75Y-77.5
X163.201Y-24.546
X163.324Y-60.194
X164.4Y-60.3
X165.0Y-61.25
X165.0Y-80.894
X165.412Y-52.976
X165.412Y-53.771
X166.25Y-65.28
X166.5Y-43.87
X166.5Y-50.25
X166.501Y-57.802
X166.7Y-78.15
X167.25Y-55.262
X167.25Y-56.024
X168.001Y-60.342
X168.4Y-62.15
X168.68Y-49.5
X168.691Y-64.056
X169.001Y-60.563
X169.25Y-42.11
X169.75Y-60.364
X170.02Y-49.19
X170.5Y-56.75
X170.768Y-64.487
X170.94Y-43.08
X171.11Y-49.54
X172.371Y-26.968
X172.47Y-49.56
X172.501Y-57.825
X172.78Y-79.94
X172.99Y-40.4
X173.491Y-24.058
X173.54Y-57.802
X173.75Y-46.22
X174.0Y-50.271
X174.0Y-51.5
X174.09Y-81.3
X174.302Y-62.12
X176.334Y-67.2
X176.951Y-24.69
X176.951Y-32.928
X178.258Y-61.104
X178.38Y-53.57
X178.75Y-45.0
X178.75Y-55.5
X179.25Y-52.5
X180.144Y-61.612
X181.16Y-64.69
X181.16Y-65.452
X181.95Y-53.25
X183.446Y-64.69
X183.446Y-65.452
X183.446Y-66.214
X183.446Y-66.976
X183.446Y-67.738
X183.446Y-68.5
X184.82Y-54.47
X185.0Y-56.25
X185.79Y-61.83
X185.845Y-62.675
X185.86Y-45.28
X185.985Y-63.575
X186.04Y-60.83
X188.619Y-24.612
X190.59Y-34.21
X191.41Y-31.92
X192.965Y-26.164
X194.715Y-30.454
X195.965Y-26.156
X200.811Y-24.612
X203.16Y-55.52
X207.12Y-46.64
X207.39Y-42.84
X207.94Y-54.14
X209.92Y-49.32
X211.66Y-46.54
X211.775Y-54.95
X212.45Y-39.905
X212.83Y-47.87
X212.889Y-64.21
X212.89Y-66.315
X212.89Y-68.684
X212.89Y-71.052
X212.89Y-73.421
X212.89Y-75.79
X212.89Y-78.159
X212.89Y-80.528
X212.89Y-82.896
X212.899Y-60.17
X212.9Y-62.26
X213.63Y-50.01
X214.15Y-40.73
X214.725Y-54.925
X214.98Y-66.314
X214.98Y-68.682
X214.98Y-71.051
X214.98Y-73.42
X214.98Y-75.789
X214.98Y-78.157
X214.98Y-80.526
X214.98Y-82.895
X215.04Y-51.2
X215.27Y-47.22
X215.86Y-64.19
X215.87Y-60.15
X215.871Y-62.24
X216.16Y-40.805
X216.29Y-47.4
X216.604Y-82.89
X216.605Y-84.98
X217.4Y-50.2
X217.4Y-51.0
X217.72Y-54.54
X217.8Y-49.6
X218.229Y-64.19
X218.239Y-60.15
X218.24Y-62.24
X218.25Y-79.89
X218.31Y-78.81
X218.38Y-65.76
X218.4Y-51.0
X218.42Y-67.09
X218.62Y-50.09
X218.972Y-82.89
X218.974Y-84.98
X219.2Y-31.2
X219.26Y-53.85
X219.27Y-60.28
X219.4Y-30.0
X219.5Y-79.86
X219.58Y-65.75
X219.6Y-43.6
X219.6Y-44.867
X219.6Y-46.133
X219.6Y-47.4
X219.62Y-78.75
X219.64Y-67.05
X219.94Y-53.01
X220.2Y-23.4
X220.44Y-39.62
X220.597Y-64.19
X220.607Y-60.15
X220.609Y-62.24
X220.8Y-43.6
X220.8Y-44.867
X220.8Y-46.133
X220.8Y-47.4
X220.8Y-52.72
X220.8Y-55.55
X221.275Y-37.25
X221.311Y-76.41
X221.321Y-68.76
X221.322Y-74.498
X221.341Y-82.89
X221.343Y-84.98
X221.51Y-51.81
X221.54Y-53.33
X221.8Y-61.0
X222.0Y-43.6
X222.0Y-44.867
X222.0Y-46.133
X222.0Y-47.4
X222.27Y-55.68
X222.29Y-57.54
X222.692Y-39.125
X222.966Y-64.19
X222.976Y-60.15
X222.977Y-62.24
X223.2Y-43.6
X223.2Y-44.867
X223.2Y-46.133
X223.2Y-47.4
X223.401Y-76.41
X223.411Y-68.76
X223.412Y-74.498
X223.441Y-72.64
X223.71Y-51.975
X223.71Y-82.89
X223.711Y-84.98
X224.1Y-41.15
X225.335Y-64.19
X225.345Y-60.15
X225.346Y-62.24
X225.491Y-76.41
X225.502Y-74.498
X225.525Y-37.325
X225.53Y-70.7
X225.53Y-72.64
X225.55Y-33.925
X226.079Y-82.89
X226.08Y-84.98
X226.44Y-47.35
X226.65Y-48.275
X227.4Y-31.2
X227.43Y-63.17
X227.46Y-46.96
X227.58Y-76.42
X227.592Y-74.507
X227.61Y-68.84
X227.62Y-70.71
X227.62Y-72.65
X227.92Y-44.2
X228.3Y-46.275
X228.31Y-48.295
X228.447Y-82.89
X228.449Y-84.98
X228.525Y-35.125
X228.72Y-44.2
X229.01Y-40.17
X229.08Y-41.03
X229.613Y-44.2
X229.67Y-72.595
X229.67Y-76.42
X229.68Y-68.77
X229.681Y-70.682
X229.681Y-74.507
X229.88Y-40.09
X230.0Y-41.4
X230.072Y-64.19
X230.082Y-60.15
X230.084Y-62.24
X230.4Y-39.31
X230.507Y-44.2
X230.7Y-46.275
X230.75Y-48.295
X230.8Y-41.4
X230.816Y-82.89
X230.817Y-84.98
X231.02Y-67.24
X231.08Y-66.18
X231.15Y-78.78
X231.2Y-79.89
X231.4Y-44.2
X231.6Y-41.4
X232.165Y-39.28
X232.32Y-67.25
X232.32Y-79.96
X232.38Y-78.76
X232.4Y-41.4
X232.4Y-66.18
X232.441Y-64.19
X232.451Y-60.15
X232.452Y-62.24
X232.56Y-45.06
X232.593Y-42.36
X233.185Y-82.89
X233.186Y-84.98
X233.2Y-48.26
X233.275Y-46.275
X233.393Y-42.36
X233.46Y-40.13
X233.52Y-44.2
X234.135Y-39.23
X234.14Y-70.84
X234.193Y-42.36
X234.32Y-44.2
X234.4Y-45.2
X234.52Y-72.78
X234.81Y-64.19
X234.82Y-60.15
X234.821Y-62.24
X234.85Y-66.31
X234.85Y-68.679
X234.85Y-71.047
X234.85Y-73.416
X234.85Y-75.785
X234.85Y-78.154
X234.85Y-80.522
X234.85Y-82.891
X235.087Y-42.36
X235.213Y-44.2
X235.225Y-40.1
X235.575Y-46.325
X235.64Y-48.26
X235.9Y-39.2
X235.98Y-42.36
X236.107Y-44.2
X236.41Y-41.04
X236.873Y-42.36
X236.94Y-66.309
X236.94Y-68.677
X236.94Y-71.046
X236.94Y-73.415
X236.94Y-75.784
X236.94Y-78.153
X236.94Y-80.521
X236.94Y-82.89
X236.949Y-64.19
X236.959Y-60.15
X236.96Y-62.24
X237.0Y-44.2
X237.635Y-40.1
X237.767Y-42.36
X237.8Y-44.97
X238.18Y-48.26
X238.31Y-39.2
X238.66Y-42.36
X238.82Y-41.04
X238.92Y-44.2
X239.2Y-46.43
X239.553Y-42.36
X239.72Y-44.2
X240.175Y-40.1
X240.447Y-42.36
X240.53Y-48.45
X240.56Y-45.01
X240.85Y-39.2
X241.34Y-42.36
X241.36Y-41.04
X241.507Y-44.2
X242.233Y-42.36
X242.4Y-44.2
X242.76Y-40.1
X242.82Y-46.68
X243.127Y-42.36
X243.26Y-48.26
X243.435Y-39.2
X243.59Y-45.04
X243.945Y-41.04
X244.02Y-42.36
X244.52Y-44.2
X244.913Y-42.36
X245.3Y-40.1
X245.32Y-44.2
X245.68Y-46.48
X245.8Y-48.26
X245.807Y-42.36
X245.975Y-39.2
X246.213Y-44.2
X246.485Y-41.04
X246.7Y-42.36
X247.107Y-44.2
X247.593Y-42.36
X248.26Y-48.2
X248.59Y-39.24
X248.64Y-47.24
X249.39Y-39.24
X249.44Y-47.24
X250.19Y-39.24
X250.24Y-47.24
X250.8Y-48.2
X251.04Y-39.24
X251.09Y-47.24
T2
X118.1Y-25.25
X118.1Y-84.75
X118.803Y-23.553
X118.803Y-26.947
X118.803Y-83.053
X118.803Y-86.447
X120.5Y-22.85
X120.5Y-27.65
X120.5Y-82.35
X120.5Y-87.15
X122.197Y-23.553
X122.197Y-26.947
X122.197Y-83.053
X122.197Y-86.447
X122.9Y-25.25
X122.9Y-84.75
X244.403Y-25.197
X244.403Y-84.697
X245.106Y-23.5
X245.106Y-26.894
X245.106Y-83.0
X245.106Y-86.394
X246.803Y-22.797
X246.803Y-27.597
X246.803Y-82.297
X246.803Y-87.097
X248.5Y-23.5
X248.5Y-26.894
X248.5Y-83.0
X248.5Y-86.394
X249.203Y-25.197
X249.203Y-84.697
T4
X187.98Y-32.96
X187.98Y-34.23
X187.98Y-35.5
X187.98Y-36.77
X187.98Y-38.04
X187.98Y-39.31
X187.98Y-40.58
X189.25Y-32.96
X189.25Y-34.23
X189.25Y-35.5
X189.25Y-36.77
X189.25Y-38.04
X189.25Y-39.31
X189.25Y-40.58
X204.44Y-46.78
X204.44Y-48.05
X204.44Y-49.32
X204.44Y-50.59
X204.44Y-51.86
X204.44Y-53.13
X204.44Y-54.4
X205.71Y-46.78
X205.71Y-48.05
X205.71Y-49.32
X205.71Y-50.59
X205.71Y-51.86
X205.71Y-53.13
X205.71Y-54.4
T5
X153.112Y-79.3
X155.112Y-79.3
X206.91Y-26.91
X208.91Y-26.91
T6
X133.25Y-84.43
X146.5Y-58.75
X149.25Y-58.75
X152.0Y-58.75
X154.75Y-58.75
X154.75Y-61.75
X154.75Y-64.75
T7
X129.63Y-24.627
X132.17Y-24.627
X134.71Y-24.627
X137.25Y-24.627
X139.79Y-24.627
X142.33Y-24.627
T8
X122.35Y-35.971
X122.35Y-48.471
X123.125Y-75.5
X123.75Y-62.5
X123.875Y-58.25
X127.6Y-39.721
X127.6Y-44.221
X128.125Y-58.25
X133.625Y-69.0
X133.625Y-73.25
X133.625Y-77.5
X136.987Y-36.163
X136.987Y-48.413
X141.5Y-55.5
X141.5Y-59.75
X141.5Y-64.25
X142.237Y-39.663
X142.237Y-44.413
X142.25Y-83.0
X150.791Y-73.669
X152.741Y-24.808
X152.741Y-29.058
X157.991Y-24.808
X157.991Y-29.058
X163.08Y-85.39
X164.5Y-38.75
X164.5Y-43.0
X169.75Y-38.75
X173.051Y-74.169
X176.25Y-38.75
X180.25Y-75.25
X180.25Y-79.5
X180.25Y-84.0
X182.25Y-47.347
X182.75Y-39.75
X182.75Y-57.75
X185.0Y-73.25
X213.65Y-22.89
T9
X120.5Y-25.25
X120.5Y-84.75
X246.803Y-25.197
X246.803Y-84.697
T3
X190.395Y-22.921G85X190.395Y-22.121
G05
X190.395Y-27.251G85X190.395Y-26.151
G05
X199.035Y-22.921G85X199.035Y-22.121
G05
X199.035Y-27.251G85X199.035Y-26.151
G05
M30
