%TF.GenerationSoftware,KiCad,Pcbnew,9.0.4*%
%TF.CreationDate,2026-03-05T13:31:54-05:00*%
%TF.ProjectId,control-module,636f6e74-726f-46c2-9d6d-6f64756c652e,rev?*%
%TF.SameCoordinates,Original*%
%TF.FileFunction,Legend,Bot*%
%TF.FilePolarity,Positive*%
%FSLAX46Y46*%
G04 Gerber Fmt 4.6, Leading zero omitted, Abs format (unit mm)*
G04 Created by KiCad (PCBNEW 9.0.4) date 2026-03-05 13:31:54*
%MOMM*%
%LPD*%
G01*
G04 APERTURE LIST*
%ADD10C,0.150000*%
%ADD11C,0.120000*%
%ADD12C,0.000000*%
G04 APERTURE END LIST*
D10*
X129252180Y-28729220D02*
X130252180Y-28729220D01*
X130252180Y-28729220D02*
X130252180Y-28348268D01*
X130252180Y-28348268D02*
X130204561Y-28253030D01*
X130204561Y-28253030D02*
X130156942Y-28205411D01*
X130156942Y-28205411D02*
X130061704Y-28157792D01*
X130061704Y-28157792D02*
X129918847Y-28157792D01*
X129918847Y-28157792D02*
X129823609Y-28205411D01*
X129823609Y-28205411D02*
X129775990Y-28253030D01*
X129775990Y-28253030D02*
X129728371Y-28348268D01*
X129728371Y-28348268D02*
X129728371Y-28729220D01*
X130156942Y-27776839D02*
X130204561Y-27729220D01*
X130204561Y-27729220D02*
X130252180Y-27633982D01*
X130252180Y-27633982D02*
X130252180Y-27395887D01*
X130252180Y-27395887D02*
X130204561Y-27300649D01*
X130204561Y-27300649D02*
X130156942Y-27253030D01*
X130156942Y-27253030D02*
X130061704Y-27205411D01*
X130061704Y-27205411D02*
X129966466Y-27205411D01*
X129966466Y-27205411D02*
X129823609Y-27253030D01*
X129823609Y-27253030D02*
X129252180Y-27824458D01*
X129252180Y-27824458D02*
X129252180Y-27205411D01*
X129633133Y-26776839D02*
X129633133Y-26014935D01*
X129252180Y-26395887D02*
X130014085Y-26395887D01*
X134332180Y-28729220D02*
X135332180Y-28729220D01*
X135332180Y-28729220D02*
X135332180Y-28348268D01*
X135332180Y-28348268D02*
X135284561Y-28253030D01*
X135284561Y-28253030D02*
X135236942Y-28205411D01*
X135236942Y-28205411D02*
X135141704Y-28157792D01*
X135141704Y-28157792D02*
X134998847Y-28157792D01*
X134998847Y-28157792D02*
X134903609Y-28205411D01*
X134903609Y-28205411D02*
X134855990Y-28253030D01*
X134855990Y-28253030D02*
X134808371Y-28348268D01*
X134808371Y-28348268D02*
X134808371Y-28729220D01*
X134332180Y-27205411D02*
X134332180Y-27776839D01*
X134332180Y-27491125D02*
X135332180Y-27491125D01*
X135332180Y-27491125D02*
X135189323Y-27586363D01*
X135189323Y-27586363D02*
X135094085Y-27681601D01*
X135094085Y-27681601D02*
X135046466Y-27776839D01*
X134713133Y-26776839D02*
X134713133Y-26014935D01*
X134332180Y-26395887D02*
X135094085Y-26395887D01*
X131792180Y-28729220D02*
X132792180Y-28729220D01*
X132792180Y-28729220D02*
X132792180Y-28348268D01*
X132792180Y-28348268D02*
X132744561Y-28253030D01*
X132744561Y-28253030D02*
X132696942Y-28205411D01*
X132696942Y-28205411D02*
X132601704Y-28157792D01*
X132601704Y-28157792D02*
X132458847Y-28157792D01*
X132458847Y-28157792D02*
X132363609Y-28205411D01*
X132363609Y-28205411D02*
X132315990Y-28253030D01*
X132315990Y-28253030D02*
X132268371Y-28348268D01*
X132268371Y-28348268D02*
X132268371Y-28729220D01*
X132696942Y-27776839D02*
X132744561Y-27729220D01*
X132744561Y-27729220D02*
X132792180Y-27633982D01*
X132792180Y-27633982D02*
X132792180Y-27395887D01*
X132792180Y-27395887D02*
X132744561Y-27300649D01*
X132744561Y-27300649D02*
X132696942Y-27253030D01*
X132696942Y-27253030D02*
X132601704Y-27205411D01*
X132601704Y-27205411D02*
X132506466Y-27205411D01*
X132506466Y-27205411D02*
X132363609Y-27253030D01*
X132363609Y-27253030D02*
X131792180Y-27824458D01*
X131792180Y-27824458D02*
X131792180Y-27205411D01*
X132173133Y-26776839D02*
X132173133Y-26014935D01*
X136872180Y-28729220D02*
X137872180Y-28729220D01*
X137872180Y-28729220D02*
X137872180Y-28348268D01*
X137872180Y-28348268D02*
X137824561Y-28253030D01*
X137824561Y-28253030D02*
X137776942Y-28205411D01*
X137776942Y-28205411D02*
X137681704Y-28157792D01*
X137681704Y-28157792D02*
X137538847Y-28157792D01*
X137538847Y-28157792D02*
X137443609Y-28205411D01*
X137443609Y-28205411D02*
X137395990Y-28253030D01*
X137395990Y-28253030D02*
X137348371Y-28348268D01*
X137348371Y-28348268D02*
X137348371Y-28729220D01*
X136872180Y-27205411D02*
X136872180Y-27776839D01*
X136872180Y-27491125D02*
X137872180Y-27491125D01*
X137872180Y-27491125D02*
X137729323Y-27586363D01*
X137729323Y-27586363D02*
X137634085Y-27681601D01*
X137634085Y-27681601D02*
X137586466Y-27776839D01*
X137253133Y-26776839D02*
X137253133Y-26014935D01*
X140412180Y-27856077D02*
X139412180Y-27522744D01*
X139412180Y-27522744D02*
X140412180Y-27189411D01*
X139793133Y-26856077D02*
X139793133Y-26094173D01*
X139412180Y-26475125D02*
X140174085Y-26475125D01*
X192697800Y-67176190D02*
X192650180Y-67033333D01*
X192650180Y-67033333D02*
X192650180Y-66795238D01*
X192650180Y-66795238D02*
X192697800Y-66700000D01*
X192697800Y-66700000D02*
X192745419Y-66652381D01*
X192745419Y-66652381D02*
X192840657Y-66604762D01*
X192840657Y-66604762D02*
X192935895Y-66604762D01*
X192935895Y-66604762D02*
X193031133Y-66652381D01*
X193031133Y-66652381D02*
X193078752Y-66700000D01*
X193078752Y-66700000D02*
X193126371Y-66795238D01*
X193126371Y-66795238D02*
X193173990Y-66985714D01*
X193173990Y-66985714D02*
X193221609Y-67080952D01*
X193221609Y-67080952D02*
X193269228Y-67128571D01*
X193269228Y-67128571D02*
X193364466Y-67176190D01*
X193364466Y-67176190D02*
X193459704Y-67176190D01*
X193459704Y-67176190D02*
X193554942Y-67128571D01*
X193554942Y-67128571D02*
X193602561Y-67080952D01*
X193602561Y-67080952D02*
X193650180Y-66985714D01*
X193650180Y-66985714D02*
X193650180Y-66747619D01*
X193650180Y-66747619D02*
X193602561Y-66604762D01*
X193316847Y-66176190D02*
X192316847Y-66176190D01*
X193269228Y-66176190D02*
X193316847Y-66080952D01*
X193316847Y-66080952D02*
X193316847Y-65890476D01*
X193316847Y-65890476D02*
X193269228Y-65795238D01*
X193269228Y-65795238D02*
X193221609Y-65747619D01*
X193221609Y-65747619D02*
X193126371Y-65700000D01*
X193126371Y-65700000D02*
X192840657Y-65700000D01*
X192840657Y-65700000D02*
X192745419Y-65747619D01*
X192745419Y-65747619D02*
X192697800Y-65795238D01*
X192697800Y-65795238D02*
X192650180Y-65890476D01*
X192650180Y-65890476D02*
X192650180Y-66080952D01*
X192650180Y-66080952D02*
X192697800Y-66176190D01*
X192650180Y-65271428D02*
X193316847Y-65271428D01*
X193126371Y-65271428D02*
X193221609Y-65223809D01*
X193221609Y-65223809D02*
X193269228Y-65176190D01*
X193269228Y-65176190D02*
X193316847Y-65080952D01*
X193316847Y-65080952D02*
X193316847Y-64985714D01*
X192650180Y-64652380D02*
X193316847Y-64652380D01*
X193650180Y-64652380D02*
X193602561Y-64699999D01*
X193602561Y-64699999D02*
X193554942Y-64652380D01*
X193554942Y-64652380D02*
X193602561Y-64604761D01*
X193602561Y-64604761D02*
X193650180Y-64652380D01*
X193650180Y-64652380D02*
X193554942Y-64652380D01*
X193316847Y-64176190D02*
X192650180Y-64176190D01*
X193221609Y-64176190D02*
X193269228Y-64128571D01*
X193269228Y-64128571D02*
X193316847Y-64033333D01*
X193316847Y-64033333D02*
X193316847Y-63890476D01*
X193316847Y-63890476D02*
X193269228Y-63795238D01*
X193269228Y-63795238D02*
X193173990Y-63747619D01*
X193173990Y-63747619D02*
X192650180Y-63747619D01*
X193316847Y-62842857D02*
X192507323Y-62842857D01*
X192507323Y-62842857D02*
X192412085Y-62890476D01*
X192412085Y-62890476D02*
X192364466Y-62938095D01*
X192364466Y-62938095D02*
X192316847Y-63033333D01*
X192316847Y-63033333D02*
X192316847Y-63176190D01*
X192316847Y-63176190D02*
X192364466Y-63271428D01*
X192697800Y-62842857D02*
X192650180Y-62938095D01*
X192650180Y-62938095D02*
X192650180Y-63128571D01*
X192650180Y-63128571D02*
X192697800Y-63223809D01*
X192697800Y-63223809D02*
X192745419Y-63271428D01*
X192745419Y-63271428D02*
X192840657Y-63319047D01*
X192840657Y-63319047D02*
X193126371Y-63319047D01*
X193126371Y-63319047D02*
X193221609Y-63271428D01*
X193221609Y-63271428D02*
X193269228Y-63223809D01*
X193269228Y-63223809D02*
X193316847Y-63128571D01*
X193316847Y-63128571D02*
X193316847Y-62938095D01*
X193316847Y-62938095D02*
X193269228Y-62842857D01*
X193554942Y-61652380D02*
X193602561Y-61604761D01*
X193602561Y-61604761D02*
X193650180Y-61509523D01*
X193650180Y-61509523D02*
X193650180Y-61271428D01*
X193650180Y-61271428D02*
X193602561Y-61176190D01*
X193602561Y-61176190D02*
X193554942Y-61128571D01*
X193554942Y-61128571D02*
X193459704Y-61080952D01*
X193459704Y-61080952D02*
X193364466Y-61080952D01*
X193364466Y-61080952D02*
X193221609Y-61128571D01*
X193221609Y-61128571D02*
X192650180Y-61699999D01*
X192650180Y-61699999D02*
X192650180Y-61080952D01*
X193650180Y-60461904D02*
X193650180Y-60366666D01*
X193650180Y-60366666D02*
X193602561Y-60271428D01*
X193602561Y-60271428D02*
X193554942Y-60223809D01*
X193554942Y-60223809D02*
X193459704Y-60176190D01*
X193459704Y-60176190D02*
X193269228Y-60128571D01*
X193269228Y-60128571D02*
X193031133Y-60128571D01*
X193031133Y-60128571D02*
X192840657Y-60176190D01*
X192840657Y-60176190D02*
X192745419Y-60223809D01*
X192745419Y-60223809D02*
X192697800Y-60271428D01*
X192697800Y-60271428D02*
X192650180Y-60366666D01*
X192650180Y-60366666D02*
X192650180Y-60461904D01*
X192650180Y-60461904D02*
X192697800Y-60557142D01*
X192697800Y-60557142D02*
X192745419Y-60604761D01*
X192745419Y-60604761D02*
X192840657Y-60652380D01*
X192840657Y-60652380D02*
X193031133Y-60699999D01*
X193031133Y-60699999D02*
X193269228Y-60699999D01*
X193269228Y-60699999D02*
X193459704Y-60652380D01*
X193459704Y-60652380D02*
X193554942Y-60604761D01*
X193554942Y-60604761D02*
X193602561Y-60557142D01*
X193602561Y-60557142D02*
X193650180Y-60461904D01*
X193554942Y-59747618D02*
X193602561Y-59699999D01*
X193602561Y-59699999D02*
X193650180Y-59604761D01*
X193650180Y-59604761D02*
X193650180Y-59366666D01*
X193650180Y-59366666D02*
X193602561Y-59271428D01*
X193602561Y-59271428D02*
X193554942Y-59223809D01*
X193554942Y-59223809D02*
X193459704Y-59176190D01*
X193459704Y-59176190D02*
X193364466Y-59176190D01*
X193364466Y-59176190D02*
X193221609Y-59223809D01*
X193221609Y-59223809D02*
X192650180Y-59795237D01*
X192650180Y-59795237D02*
X192650180Y-59176190D01*
X193650180Y-58319047D02*
X193650180Y-58509523D01*
X193650180Y-58509523D02*
X193602561Y-58604761D01*
X193602561Y-58604761D02*
X193554942Y-58652380D01*
X193554942Y-58652380D02*
X193412085Y-58747618D01*
X193412085Y-58747618D02*
X193221609Y-58795237D01*
X193221609Y-58795237D02*
X192840657Y-58795237D01*
X192840657Y-58795237D02*
X192745419Y-58747618D01*
X192745419Y-58747618D02*
X192697800Y-58699999D01*
X192697800Y-58699999D02*
X192650180Y-58604761D01*
X192650180Y-58604761D02*
X192650180Y-58414285D01*
X192650180Y-58414285D02*
X192697800Y-58319047D01*
X192697800Y-58319047D02*
X192745419Y-58271428D01*
X192745419Y-58271428D02*
X192840657Y-58223809D01*
X192840657Y-58223809D02*
X193078752Y-58223809D01*
X193078752Y-58223809D02*
X193173990Y-58271428D01*
X193173990Y-58271428D02*
X193221609Y-58319047D01*
X193221609Y-58319047D02*
X193269228Y-58414285D01*
X193269228Y-58414285D02*
X193269228Y-58604761D01*
X193269228Y-58604761D02*
X193221609Y-58699999D01*
X193221609Y-58699999D02*
X193173990Y-58747618D01*
X193173990Y-58747618D02*
X193078752Y-58795237D01*
X142952180Y-27856077D02*
X141952180Y-27522744D01*
X141952180Y-27522744D02*
X142952180Y-27189411D01*
X142333133Y-26856077D02*
X142333133Y-26094173D01*
X195375419Y-72789049D02*
X195327800Y-72836668D01*
X195327800Y-72836668D02*
X195280180Y-72979525D01*
X195280180Y-72979525D02*
X195280180Y-73074763D01*
X195280180Y-73074763D02*
X195327800Y-73217620D01*
X195327800Y-73217620D02*
X195423038Y-73312858D01*
X195423038Y-73312858D02*
X195518276Y-73360477D01*
X195518276Y-73360477D02*
X195708752Y-73408096D01*
X195708752Y-73408096D02*
X195851609Y-73408096D01*
X195851609Y-73408096D02*
X196042085Y-73360477D01*
X196042085Y-73360477D02*
X196137323Y-73312858D01*
X196137323Y-73312858D02*
X196232561Y-73217620D01*
X196232561Y-73217620D02*
X196280180Y-73074763D01*
X196280180Y-73074763D02*
X196280180Y-72979525D01*
X196280180Y-72979525D02*
X196232561Y-72836668D01*
X196232561Y-72836668D02*
X196184942Y-72789049D01*
X195280180Y-72217620D02*
X195327800Y-72312858D01*
X195327800Y-72312858D02*
X195375419Y-72360477D01*
X195375419Y-72360477D02*
X195470657Y-72408096D01*
X195470657Y-72408096D02*
X195756371Y-72408096D01*
X195756371Y-72408096D02*
X195851609Y-72360477D01*
X195851609Y-72360477D02*
X195899228Y-72312858D01*
X195899228Y-72312858D02*
X195946847Y-72217620D01*
X195946847Y-72217620D02*
X195946847Y-72074763D01*
X195946847Y-72074763D02*
X195899228Y-71979525D01*
X195899228Y-71979525D02*
X195851609Y-71931906D01*
X195851609Y-71931906D02*
X195756371Y-71884287D01*
X195756371Y-71884287D02*
X195470657Y-71884287D01*
X195470657Y-71884287D02*
X195375419Y-71931906D01*
X195375419Y-71931906D02*
X195327800Y-71979525D01*
X195327800Y-71979525D02*
X195280180Y-72074763D01*
X195280180Y-72074763D02*
X195280180Y-72217620D01*
X195946847Y-71455715D02*
X195280180Y-71455715D01*
X195851609Y-71455715D02*
X195899228Y-71408096D01*
X195899228Y-71408096D02*
X195946847Y-71312858D01*
X195946847Y-71312858D02*
X195946847Y-71170001D01*
X195946847Y-71170001D02*
X195899228Y-71074763D01*
X195899228Y-71074763D02*
X195803990Y-71027144D01*
X195803990Y-71027144D02*
X195280180Y-71027144D01*
X195946847Y-70693810D02*
X195946847Y-70312858D01*
X196280180Y-70550953D02*
X195423038Y-70550953D01*
X195423038Y-70550953D02*
X195327800Y-70503334D01*
X195327800Y-70503334D02*
X195280180Y-70408096D01*
X195280180Y-70408096D02*
X195280180Y-70312858D01*
X195280180Y-69979524D02*
X195946847Y-69979524D01*
X195756371Y-69979524D02*
X195851609Y-69931905D01*
X195851609Y-69931905D02*
X195899228Y-69884286D01*
X195899228Y-69884286D02*
X195946847Y-69789048D01*
X195946847Y-69789048D02*
X195946847Y-69693810D01*
X195280180Y-69217619D02*
X195327800Y-69312857D01*
X195327800Y-69312857D02*
X195375419Y-69360476D01*
X195375419Y-69360476D02*
X195470657Y-69408095D01*
X195470657Y-69408095D02*
X195756371Y-69408095D01*
X195756371Y-69408095D02*
X195851609Y-69360476D01*
X195851609Y-69360476D02*
X195899228Y-69312857D01*
X195899228Y-69312857D02*
X195946847Y-69217619D01*
X195946847Y-69217619D02*
X195946847Y-69074762D01*
X195946847Y-69074762D02*
X195899228Y-68979524D01*
X195899228Y-68979524D02*
X195851609Y-68931905D01*
X195851609Y-68931905D02*
X195756371Y-68884286D01*
X195756371Y-68884286D02*
X195470657Y-68884286D01*
X195470657Y-68884286D02*
X195375419Y-68931905D01*
X195375419Y-68931905D02*
X195327800Y-68979524D01*
X195327800Y-68979524D02*
X195280180Y-69074762D01*
X195280180Y-69074762D02*
X195280180Y-69217619D01*
X195280180Y-68312857D02*
X195327800Y-68408095D01*
X195327800Y-68408095D02*
X195423038Y-68455714D01*
X195423038Y-68455714D02*
X196280180Y-68455714D01*
X195280180Y-67169999D02*
X196280180Y-67169999D01*
X196280180Y-67169999D02*
X195565895Y-66836666D01*
X195565895Y-66836666D02*
X196280180Y-66503333D01*
X196280180Y-66503333D02*
X195280180Y-66503333D01*
X195280180Y-65884285D02*
X195327800Y-65979523D01*
X195327800Y-65979523D02*
X195375419Y-66027142D01*
X195375419Y-66027142D02*
X195470657Y-66074761D01*
X195470657Y-66074761D02*
X195756371Y-66074761D01*
X195756371Y-66074761D02*
X195851609Y-66027142D01*
X195851609Y-66027142D02*
X195899228Y-65979523D01*
X195899228Y-65979523D02*
X195946847Y-65884285D01*
X195946847Y-65884285D02*
X195946847Y-65741428D01*
X195946847Y-65741428D02*
X195899228Y-65646190D01*
X195899228Y-65646190D02*
X195851609Y-65598571D01*
X195851609Y-65598571D02*
X195756371Y-65550952D01*
X195756371Y-65550952D02*
X195470657Y-65550952D01*
X195470657Y-65550952D02*
X195375419Y-65598571D01*
X195375419Y-65598571D02*
X195327800Y-65646190D01*
X195327800Y-65646190D02*
X195280180Y-65741428D01*
X195280180Y-65741428D02*
X195280180Y-65884285D01*
X195280180Y-64693809D02*
X196280180Y-64693809D01*
X195327800Y-64693809D02*
X195280180Y-64789047D01*
X195280180Y-64789047D02*
X195280180Y-64979523D01*
X195280180Y-64979523D02*
X195327800Y-65074761D01*
X195327800Y-65074761D02*
X195375419Y-65122380D01*
X195375419Y-65122380D02*
X195470657Y-65169999D01*
X195470657Y-65169999D02*
X195756371Y-65169999D01*
X195756371Y-65169999D02*
X195851609Y-65122380D01*
X195851609Y-65122380D02*
X195899228Y-65074761D01*
X195899228Y-65074761D02*
X195946847Y-64979523D01*
X195946847Y-64979523D02*
X195946847Y-64789047D01*
X195946847Y-64789047D02*
X195899228Y-64693809D01*
X195946847Y-63789047D02*
X195280180Y-63789047D01*
X195946847Y-64217618D02*
X195423038Y-64217618D01*
X195423038Y-64217618D02*
X195327800Y-64169999D01*
X195327800Y-64169999D02*
X195280180Y-64074761D01*
X195280180Y-64074761D02*
X195280180Y-63931904D01*
X195280180Y-63931904D02*
X195327800Y-63836666D01*
X195327800Y-63836666D02*
X195375419Y-63789047D01*
X195280180Y-63169999D02*
X195327800Y-63265237D01*
X195327800Y-63265237D02*
X195423038Y-63312856D01*
X195423038Y-63312856D02*
X196280180Y-63312856D01*
X195327800Y-62408094D02*
X195280180Y-62503332D01*
X195280180Y-62503332D02*
X195280180Y-62693808D01*
X195280180Y-62693808D02*
X195327800Y-62789046D01*
X195327800Y-62789046D02*
X195423038Y-62836665D01*
X195423038Y-62836665D02*
X195803990Y-62836665D01*
X195803990Y-62836665D02*
X195899228Y-62789046D01*
X195899228Y-62789046D02*
X195946847Y-62693808D01*
X195946847Y-62693808D02*
X195946847Y-62503332D01*
X195946847Y-62503332D02*
X195899228Y-62408094D01*
X195899228Y-62408094D02*
X195803990Y-62360475D01*
X195803990Y-62360475D02*
X195708752Y-62360475D01*
X195708752Y-62360475D02*
X195613514Y-62836665D01*
X196280180Y-61312855D02*
X196280180Y-60741427D01*
X195280180Y-61027141D02*
X196280180Y-61027141D01*
X195327800Y-60027141D02*
X195280180Y-60122379D01*
X195280180Y-60122379D02*
X195280180Y-60312855D01*
X195280180Y-60312855D02*
X195327800Y-60408093D01*
X195327800Y-60408093D02*
X195423038Y-60455712D01*
X195423038Y-60455712D02*
X195803990Y-60455712D01*
X195803990Y-60455712D02*
X195899228Y-60408093D01*
X195899228Y-60408093D02*
X195946847Y-60312855D01*
X195946847Y-60312855D02*
X195946847Y-60122379D01*
X195946847Y-60122379D02*
X195899228Y-60027141D01*
X195899228Y-60027141D02*
X195803990Y-59979522D01*
X195803990Y-59979522D02*
X195708752Y-59979522D01*
X195708752Y-59979522D02*
X195613514Y-60455712D01*
X195327800Y-59598569D02*
X195280180Y-59503331D01*
X195280180Y-59503331D02*
X195280180Y-59312855D01*
X195280180Y-59312855D02*
X195327800Y-59217617D01*
X195327800Y-59217617D02*
X195423038Y-59169998D01*
X195423038Y-59169998D02*
X195470657Y-59169998D01*
X195470657Y-59169998D02*
X195565895Y-59217617D01*
X195565895Y-59217617D02*
X195613514Y-59312855D01*
X195613514Y-59312855D02*
X195613514Y-59455712D01*
X195613514Y-59455712D02*
X195661133Y-59550950D01*
X195661133Y-59550950D02*
X195756371Y-59598569D01*
X195756371Y-59598569D02*
X195803990Y-59598569D01*
X195803990Y-59598569D02*
X195899228Y-59550950D01*
X195899228Y-59550950D02*
X195946847Y-59455712D01*
X195946847Y-59455712D02*
X195946847Y-59312855D01*
X195946847Y-59312855D02*
X195899228Y-59217617D01*
X195946847Y-58884283D02*
X195946847Y-58503331D01*
X196280180Y-58741426D02*
X195423038Y-58741426D01*
X195423038Y-58741426D02*
X195327800Y-58693807D01*
X195327800Y-58693807D02*
X195280180Y-58598569D01*
X195280180Y-58598569D02*
X195280180Y-58503331D01*
X195280180Y-58169997D02*
X196280180Y-58169997D01*
X195899228Y-58169997D02*
X195946847Y-58074759D01*
X195946847Y-58074759D02*
X195946847Y-57884283D01*
X195946847Y-57884283D02*
X195899228Y-57789045D01*
X195899228Y-57789045D02*
X195851609Y-57741426D01*
X195851609Y-57741426D02*
X195756371Y-57693807D01*
X195756371Y-57693807D02*
X195470657Y-57693807D01*
X195470657Y-57693807D02*
X195375419Y-57741426D01*
X195375419Y-57741426D02*
X195327800Y-57789045D01*
X195327800Y-57789045D02*
X195280180Y-57884283D01*
X195280180Y-57884283D02*
X195280180Y-58074759D01*
X195280180Y-58074759D02*
X195327800Y-58169997D01*
X195327800Y-56884283D02*
X195280180Y-56979521D01*
X195280180Y-56979521D02*
X195280180Y-57169997D01*
X195280180Y-57169997D02*
X195327800Y-57265235D01*
X195327800Y-57265235D02*
X195423038Y-57312854D01*
X195423038Y-57312854D02*
X195803990Y-57312854D01*
X195803990Y-57312854D02*
X195899228Y-57265235D01*
X195899228Y-57265235D02*
X195946847Y-57169997D01*
X195946847Y-57169997D02*
X195946847Y-56979521D01*
X195946847Y-56979521D02*
X195899228Y-56884283D01*
X195899228Y-56884283D02*
X195803990Y-56836664D01*
X195803990Y-56836664D02*
X195708752Y-56836664D01*
X195708752Y-56836664D02*
X195613514Y-57312854D01*
X195280180Y-55979521D02*
X196280180Y-55979521D01*
X195327800Y-55979521D02*
X195280180Y-56074759D01*
X195280180Y-56074759D02*
X195280180Y-56265235D01*
X195280180Y-56265235D02*
X195327800Y-56360473D01*
X195327800Y-56360473D02*
X195375419Y-56408092D01*
X195375419Y-56408092D02*
X195470657Y-56455711D01*
X195470657Y-56455711D02*
X195756371Y-56455711D01*
X195756371Y-56455711D02*
X195851609Y-56408092D01*
X195851609Y-56408092D02*
X195899228Y-56360473D01*
X195899228Y-56360473D02*
X195946847Y-56265235D01*
X195946847Y-56265235D02*
X195946847Y-56074759D01*
X195946847Y-56074759D02*
X195899228Y-55979521D01*
X228254819Y-57596666D02*
X228969104Y-57596666D01*
X228969104Y-57596666D02*
X229111961Y-57549047D01*
X229111961Y-57549047D02*
X229207200Y-57453809D01*
X229207200Y-57453809D02*
X229254819Y-57310952D01*
X229254819Y-57310952D02*
X229254819Y-57215714D01*
X229254819Y-58072857D02*
X228254819Y-58072857D01*
X228254819Y-58072857D02*
X228254819Y-58453809D01*
X228254819Y-58453809D02*
X228302438Y-58549047D01*
X228302438Y-58549047D02*
X228350057Y-58596666D01*
X228350057Y-58596666D02*
X228445295Y-58644285D01*
X228445295Y-58644285D02*
X228588152Y-58644285D01*
X228588152Y-58644285D02*
X228683390Y-58596666D01*
X228683390Y-58596666D02*
X228731009Y-58549047D01*
X228731009Y-58549047D02*
X228778628Y-58453809D01*
X228778628Y-58453809D02*
X228778628Y-58072857D01*
X228588152Y-59501428D02*
X229254819Y-59501428D01*
X228207200Y-59263333D02*
X228921485Y-59025238D01*
X228921485Y-59025238D02*
X228921485Y-59644285D01*
X224559580Y-36857142D02*
X224607200Y-36809523D01*
X224607200Y-36809523D02*
X224654819Y-36666666D01*
X224654819Y-36666666D02*
X224654819Y-36571428D01*
X224654819Y-36571428D02*
X224607200Y-36428571D01*
X224607200Y-36428571D02*
X224511961Y-36333333D01*
X224511961Y-36333333D02*
X224416723Y-36285714D01*
X224416723Y-36285714D02*
X224226247Y-36238095D01*
X224226247Y-36238095D02*
X224083390Y-36238095D01*
X224083390Y-36238095D02*
X223892914Y-36285714D01*
X223892914Y-36285714D02*
X223797676Y-36333333D01*
X223797676Y-36333333D02*
X223702438Y-36428571D01*
X223702438Y-36428571D02*
X223654819Y-36571428D01*
X223654819Y-36571428D02*
X223654819Y-36666666D01*
X223654819Y-36666666D02*
X223702438Y-36809523D01*
X223702438Y-36809523D02*
X223750057Y-36857142D01*
X223654819Y-37761904D02*
X223654819Y-37285714D01*
X223654819Y-37285714D02*
X224131009Y-37238095D01*
X224131009Y-37238095D02*
X224083390Y-37285714D01*
X224083390Y-37285714D02*
X224035771Y-37380952D01*
X224035771Y-37380952D02*
X224035771Y-37619047D01*
X224035771Y-37619047D02*
X224083390Y-37714285D01*
X224083390Y-37714285D02*
X224131009Y-37761904D01*
X224131009Y-37761904D02*
X224226247Y-37809523D01*
X224226247Y-37809523D02*
X224464342Y-37809523D01*
X224464342Y-37809523D02*
X224559580Y-37761904D01*
X224559580Y-37761904D02*
X224607200Y-37714285D01*
X224607200Y-37714285D02*
X224654819Y-37619047D01*
X224654819Y-37619047D02*
X224654819Y-37380952D01*
X224654819Y-37380952D02*
X224607200Y-37285714D01*
X224607200Y-37285714D02*
X224559580Y-37238095D01*
X224654819Y-38761904D02*
X224654819Y-38190476D01*
X224654819Y-38476190D02*
X223654819Y-38476190D01*
X223654819Y-38476190D02*
X223797676Y-38380952D01*
X223797676Y-38380952D02*
X223892914Y-38285714D01*
X223892914Y-38285714D02*
X223940533Y-38190476D01*
X226619580Y-39407142D02*
X226667200Y-39359523D01*
X226667200Y-39359523D02*
X226714819Y-39216666D01*
X226714819Y-39216666D02*
X226714819Y-39121428D01*
X226714819Y-39121428D02*
X226667200Y-38978571D01*
X226667200Y-38978571D02*
X226571961Y-38883333D01*
X226571961Y-38883333D02*
X226476723Y-38835714D01*
X226476723Y-38835714D02*
X226286247Y-38788095D01*
X226286247Y-38788095D02*
X226143390Y-38788095D01*
X226143390Y-38788095D02*
X225952914Y-38835714D01*
X225952914Y-38835714D02*
X225857676Y-38883333D01*
X225857676Y-38883333D02*
X225762438Y-38978571D01*
X225762438Y-38978571D02*
X225714819Y-39121428D01*
X225714819Y-39121428D02*
X225714819Y-39216666D01*
X225714819Y-39216666D02*
X225762438Y-39359523D01*
X225762438Y-39359523D02*
X225810057Y-39407142D01*
X225714819Y-40311904D02*
X225714819Y-39835714D01*
X225714819Y-39835714D02*
X226191009Y-39788095D01*
X226191009Y-39788095D02*
X226143390Y-39835714D01*
X226143390Y-39835714D02*
X226095771Y-39930952D01*
X226095771Y-39930952D02*
X226095771Y-40169047D01*
X226095771Y-40169047D02*
X226143390Y-40264285D01*
X226143390Y-40264285D02*
X226191009Y-40311904D01*
X226191009Y-40311904D02*
X226286247Y-40359523D01*
X226286247Y-40359523D02*
X226524342Y-40359523D01*
X226524342Y-40359523D02*
X226619580Y-40311904D01*
X226619580Y-40311904D02*
X226667200Y-40264285D01*
X226667200Y-40264285D02*
X226714819Y-40169047D01*
X226714819Y-40169047D02*
X226714819Y-39930952D01*
X226714819Y-39930952D02*
X226667200Y-39835714D01*
X226667200Y-39835714D02*
X226619580Y-39788095D01*
X225810057Y-40740476D02*
X225762438Y-40788095D01*
X225762438Y-40788095D02*
X225714819Y-40883333D01*
X225714819Y-40883333D02*
X225714819Y-41121428D01*
X225714819Y-41121428D02*
X225762438Y-41216666D01*
X225762438Y-41216666D02*
X225810057Y-41264285D01*
X225810057Y-41264285D02*
X225905295Y-41311904D01*
X225905295Y-41311904D02*
X226000533Y-41311904D01*
X226000533Y-41311904D02*
X226143390Y-41264285D01*
X226143390Y-41264285D02*
X226714819Y-40692857D01*
X226714819Y-40692857D02*
X226714819Y-41311904D01*
X234643333Y-51094819D02*
X234643333Y-51809104D01*
X234643333Y-51809104D02*
X234690952Y-51951961D01*
X234690952Y-51951961D02*
X234786190Y-52047200D01*
X234786190Y-52047200D02*
X234929047Y-52094819D01*
X234929047Y-52094819D02*
X235024285Y-52094819D01*
X234167142Y-52094819D02*
X234167142Y-51094819D01*
X234167142Y-51094819D02*
X233786190Y-51094819D01*
X233786190Y-51094819D02*
X233690952Y-51142438D01*
X233690952Y-51142438D02*
X233643333Y-51190057D01*
X233643333Y-51190057D02*
X233595714Y-51285295D01*
X233595714Y-51285295D02*
X233595714Y-51428152D01*
X233595714Y-51428152D02*
X233643333Y-51523390D01*
X233643333Y-51523390D02*
X233690952Y-51571009D01*
X233690952Y-51571009D02*
X233786190Y-51618628D01*
X233786190Y-51618628D02*
X234167142Y-51618628D01*
X233262380Y-51094819D02*
X232643333Y-51094819D01*
X232643333Y-51094819D02*
X232976666Y-51475771D01*
X232976666Y-51475771D02*
X232833809Y-51475771D01*
X232833809Y-51475771D02*
X232738571Y-51523390D01*
X232738571Y-51523390D02*
X232690952Y-51571009D01*
X232690952Y-51571009D02*
X232643333Y-51666247D01*
X232643333Y-51666247D02*
X232643333Y-51904342D01*
X232643333Y-51904342D02*
X232690952Y-51999580D01*
X232690952Y-51999580D02*
X232738571Y-52047200D01*
X232738571Y-52047200D02*
X232833809Y-52094819D01*
X232833809Y-52094819D02*
X233119523Y-52094819D01*
X233119523Y-52094819D02*
X233214761Y-52047200D01*
X233214761Y-52047200D02*
X233262380Y-51999580D01*
D11*
%TO.C,JP4*%
X229790000Y-57400000D02*
X229790000Y-58000000D01*
X230490000Y-58700000D02*
X231890000Y-58700000D01*
X231890000Y-56700000D02*
X230490000Y-56700000D01*
X232590000Y-58000000D02*
X232590000Y-57400000D01*
X229790000Y-57400000D02*
G75*
G02*
X230490000Y-56700000I699999J1D01*
G01*
X230490000Y-58700000D02*
G75*
G02*
X229790000Y-58000000I-1J699999D01*
G01*
X231890000Y-56700000D02*
G75*
G02*
X232590000Y-57400000I0J-700000D01*
G01*
X232590000Y-58000000D02*
G75*
G02*
X231890000Y-58700000I-700000J0D01*
G01*
%TO.C,C51*%
X223790000Y-40157836D02*
X223790000Y-39942164D01*
X224510000Y-40157836D02*
X224510000Y-39942164D01*
%TO.C,C52*%
X224740000Y-40157836D02*
X224740000Y-39942164D01*
X225460000Y-40157836D02*
X225460000Y-39942164D01*
D12*
%TO.C,G\u002A\u002A\u002A*%
G36*
X198025460Y-59301675D02*
G01*
X198030722Y-59304618D01*
X198042028Y-59311049D01*
X198058992Y-59320749D01*
X198081231Y-59333494D01*
X198108360Y-59349063D01*
X198139995Y-59367236D01*
X198175750Y-59387789D01*
X198215243Y-59410503D01*
X198258087Y-59435155D01*
X198303900Y-59461523D01*
X198352296Y-59489387D01*
X198402892Y-59518524D01*
X198455302Y-59548713D01*
X198509142Y-59579733D01*
X198564028Y-59611362D01*
X198619576Y-59643379D01*
X198675401Y-59675561D01*
X198731118Y-59707688D01*
X198786344Y-59739537D01*
X198840694Y-59770888D01*
X198893782Y-59801519D01*
X198945226Y-59831208D01*
X198994641Y-59859734D01*
X199041642Y-59886875D01*
X199085844Y-59912409D01*
X199126864Y-59936116D01*
X199164317Y-59957773D01*
X199197818Y-59977160D01*
X199226983Y-59994053D01*
X199251428Y-60008233D01*
X199295599Y-60033880D01*
X199654044Y-59698857D01*
X199663375Y-59690135D01*
X199707269Y-59649115D01*
X199749652Y-59609513D01*
X199790192Y-59571640D01*
X199828553Y-59535808D01*
X199864403Y-59502330D01*
X199897407Y-59471517D01*
X199927230Y-59443680D01*
X199953539Y-59419132D01*
X199976000Y-59398185D01*
X199994278Y-59381150D01*
X200008040Y-59368340D01*
X200016951Y-59360065D01*
X200020678Y-59356638D01*
X200028867Y-59349442D01*
X200028867Y-59676142D01*
X200028867Y-60002841D01*
X199677075Y-60312294D01*
X199325284Y-60621746D01*
X200058604Y-60622700D01*
X200791925Y-60623654D01*
X200791925Y-60889959D01*
X200791925Y-61156265D01*
X199407467Y-61156265D01*
X198023008Y-61156265D01*
X198023008Y-60889950D01*
X198023008Y-60623635D01*
X198343806Y-60623635D01*
X198664604Y-60623635D01*
X198793674Y-60500264D01*
X198806463Y-60488033D01*
X198834471Y-60461181D01*
X198857569Y-60438899D01*
X198876175Y-60420751D01*
X198890708Y-60406299D01*
X198901587Y-60395108D01*
X198909228Y-60386741D01*
X198914050Y-60380760D01*
X198916473Y-60376730D01*
X198916913Y-60374214D01*
X198915789Y-60372775D01*
X198914813Y-60372217D01*
X198908005Y-60368377D01*
X198895162Y-60361158D01*
X198876674Y-60350778D01*
X198852928Y-60337454D01*
X198824315Y-60321406D01*
X198791224Y-60302852D01*
X198754043Y-60282008D01*
X198713161Y-60259094D01*
X198668968Y-60234328D01*
X198621853Y-60207927D01*
X198572205Y-60180111D01*
X198520413Y-60151096D01*
X198466866Y-60121102D01*
X198024897Y-59873546D01*
X198023929Y-59587526D01*
X198023911Y-59582386D01*
X198023791Y-59536865D01*
X198023731Y-59493668D01*
X198023728Y-59453376D01*
X198023780Y-59416571D01*
X198023885Y-59383834D01*
X198024041Y-59355746D01*
X198024244Y-59332887D01*
X198024493Y-59315840D01*
X198024785Y-59305186D01*
X198025117Y-59301506D01*
X198025460Y-59301675D01*
G37*
G36*
X198262880Y-55895235D02*
G01*
X198284478Y-55897613D01*
X198321699Y-55901746D01*
X198356232Y-55905626D01*
X198387390Y-55909172D01*
X198414481Y-55912305D01*
X198436819Y-55914944D01*
X198453713Y-55917010D01*
X198464474Y-55918422D01*
X198468413Y-55919100D01*
X198467938Y-55922966D01*
X198465471Y-55932563D01*
X198461409Y-55946427D01*
X198456159Y-55963101D01*
X198450435Y-55981101D01*
X198437357Y-56026304D01*
X198428072Y-56065932D01*
X198422526Y-56100658D01*
X198420666Y-56131153D01*
X198422437Y-56158087D01*
X198427784Y-56182132D01*
X198436653Y-56203959D01*
X198440717Y-56211509D01*
X198457626Y-56234972D01*
X198478459Y-56252574D01*
X198503992Y-56264852D01*
X198535000Y-56272348D01*
X198538300Y-56272704D01*
X198550471Y-56273378D01*
X198570171Y-56274018D01*
X198597384Y-56274625D01*
X198632094Y-56275199D01*
X198674283Y-56275738D01*
X198723934Y-56276244D01*
X198781031Y-56276715D01*
X198845558Y-56277152D01*
X198917497Y-56277554D01*
X198996831Y-56277921D01*
X199083545Y-56278254D01*
X199605786Y-56280074D01*
X199605786Y-56098464D01*
X199605786Y-55916854D01*
X199817327Y-55916854D01*
X200028867Y-55916854D01*
X200028867Y-56098155D01*
X200028867Y-56279457D01*
X200385569Y-56280420D01*
X200742270Y-56281384D01*
X200586630Y-56545810D01*
X200430990Y-56810235D01*
X200229929Y-56811213D01*
X200028867Y-56812190D01*
X200028867Y-56934927D01*
X200028867Y-57057663D01*
X199817327Y-57057663D01*
X199605786Y-57057663D01*
X199605786Y-56935116D01*
X199605786Y-56812569D01*
X199040103Y-56811037D01*
X199030846Y-56811011D01*
X198944368Y-56810749D01*
X198865253Y-56810461D01*
X198793325Y-56810144D01*
X198728411Y-56809798D01*
X198670336Y-56809419D01*
X198618925Y-56809008D01*
X198574004Y-56808561D01*
X198535397Y-56808077D01*
X198502931Y-56807555D01*
X198476431Y-56806992D01*
X198455722Y-56806387D01*
X198440630Y-56805739D01*
X198430979Y-56805045D01*
X198399073Y-56801391D01*
X198338768Y-56791988D01*
X198284908Y-56779827D01*
X198237016Y-56764687D01*
X198194617Y-56746343D01*
X198157232Y-56724573D01*
X198124385Y-56699154D01*
X198095599Y-56669863D01*
X198070397Y-56636477D01*
X198057832Y-56616200D01*
X198035249Y-56572180D01*
X198015607Y-56523590D01*
X197999508Y-56472216D01*
X197987550Y-56419846D01*
X197980335Y-56368266D01*
X197979577Y-56357221D01*
X197978821Y-56336338D01*
X197978435Y-56311097D01*
X197978404Y-56283370D01*
X197978717Y-56255030D01*
X197979361Y-56227949D01*
X197980323Y-56204001D01*
X197981590Y-56185057D01*
X197986014Y-56144706D01*
X197992732Y-56098707D01*
X198000902Y-56053860D01*
X198009994Y-56013361D01*
X198012624Y-56003260D01*
X198019032Y-55980558D01*
X198026289Y-55956783D01*
X198033840Y-55933610D01*
X198041130Y-55912715D01*
X198047603Y-55895774D01*
X198052705Y-55884462D01*
X198058894Y-55872846D01*
X198262880Y-55895235D01*
G37*
G36*
X202981939Y-56302224D02*
G01*
X203066911Y-56302247D01*
X203151683Y-56302304D01*
X203229577Y-56302402D01*
X203300943Y-56302545D01*
X203366134Y-56302739D01*
X203425499Y-56302989D01*
X203479391Y-56303300D01*
X203528161Y-56303679D01*
X203572158Y-56304130D01*
X203611736Y-56304658D01*
X203647245Y-56305270D01*
X203679036Y-56305970D01*
X203707460Y-56306764D01*
X203732869Y-56307657D01*
X203755613Y-56308655D01*
X203776044Y-56309763D01*
X203794514Y-56310986D01*
X203811373Y-56312330D01*
X203826972Y-56313801D01*
X203841663Y-56315402D01*
X203894256Y-56322754D01*
X203951482Y-56334271D01*
X204003873Y-56349169D01*
X204052652Y-56367865D01*
X204099046Y-56390777D01*
X204144278Y-56418320D01*
X204182268Y-56446802D01*
X204223473Y-56485952D01*
X204260549Y-56530475D01*
X204293385Y-56579784D01*
X204321869Y-56633295D01*
X204345892Y-56690420D01*
X204365343Y-56750574D01*
X204380112Y-56813170D01*
X204390088Y-56877623D01*
X204395160Y-56943345D01*
X204395218Y-57009752D01*
X204390152Y-57076257D01*
X204379851Y-57142273D01*
X204364205Y-57207215D01*
X204343102Y-57270497D01*
X204316434Y-57331532D01*
X204292679Y-57375764D01*
X204252520Y-57438075D01*
X204206039Y-57497805D01*
X204153911Y-57554109D01*
X204096813Y-57606140D01*
X204059281Y-57637511D01*
X204204812Y-57638500D01*
X204350343Y-57639488D01*
X204350343Y-57886871D01*
X204350343Y-58134254D01*
X203347413Y-58134254D01*
X202344483Y-58134254D01*
X202344483Y-57868206D01*
X202344483Y-57602158D01*
X202896945Y-57600486D01*
X202976425Y-57600221D01*
X203058005Y-57599891D01*
X203133026Y-57599523D01*
X203201389Y-57599116D01*
X203262993Y-57598673D01*
X203317739Y-57598194D01*
X203365528Y-57597681D01*
X203406260Y-57597134D01*
X203439835Y-57596553D01*
X203466154Y-57595942D01*
X203485117Y-57595299D01*
X203496625Y-57594626D01*
X203532229Y-57591245D01*
X203583017Y-57585439D01*
X203627392Y-57578974D01*
X203666045Y-57571713D01*
X203699670Y-57563521D01*
X203728960Y-57554259D01*
X203754606Y-57543793D01*
X203767951Y-57537280D01*
X203812024Y-57510507D01*
X203852509Y-57477634D01*
X203888789Y-57439375D01*
X203920244Y-57396444D01*
X203946257Y-57349556D01*
X203966209Y-57299423D01*
X203970419Y-57285799D01*
X203977657Y-57256975D01*
X203982326Y-57227937D01*
X203984753Y-57196294D01*
X203985263Y-57159655D01*
X203984201Y-57126440D01*
X203981237Y-57097381D01*
X203975919Y-57071309D01*
X203967783Y-57045977D01*
X203956368Y-57019138D01*
X203938141Y-56985845D01*
X203911060Y-56950302D01*
X203878463Y-56919917D01*
X203840358Y-56894694D01*
X203796750Y-56874637D01*
X203747647Y-56859752D01*
X203693055Y-56850041D01*
X203691456Y-56849843D01*
X203678322Y-56848255D01*
X203665495Y-56846808D01*
X203652583Y-56845494D01*
X203639192Y-56844305D01*
X203624930Y-56843233D01*
X203609403Y-56842271D01*
X203592218Y-56841411D01*
X203572982Y-56840647D01*
X203551301Y-56839970D01*
X203526784Y-56839372D01*
X203499035Y-56838847D01*
X203467663Y-56838386D01*
X203432275Y-56837983D01*
X203392476Y-56837629D01*
X203347875Y-56837317D01*
X203298077Y-56837039D01*
X203242690Y-56836788D01*
X203181320Y-56836557D01*
X203113575Y-56836337D01*
X203039061Y-56836121D01*
X202957385Y-56835903D01*
X202344483Y-56834301D01*
X202344483Y-56568231D01*
X202344483Y-56302160D01*
X202981939Y-56302224D01*
G37*
G36*
X203441389Y-63701777D02*
G01*
X203531014Y-63710738D01*
X203616950Y-63726127D01*
X203699417Y-63748008D01*
X203778637Y-63776448D01*
X203854832Y-63811512D01*
X203928224Y-63853266D01*
X203999034Y-63901774D01*
X204002413Y-63904326D01*
X204024809Y-63922492D01*
X204050247Y-63944868D01*
X204077446Y-63970182D01*
X204105125Y-63997165D01*
X204132003Y-64024543D01*
X204156801Y-64051046D01*
X204178236Y-64075403D01*
X204195029Y-64096342D01*
X204219082Y-64129822D01*
X204261468Y-64196630D01*
X204297655Y-64265458D01*
X204327960Y-64337097D01*
X204352699Y-64412340D01*
X204372187Y-64491978D01*
X204386742Y-64576803D01*
X204387892Y-64585996D01*
X204390369Y-64613948D01*
X204392195Y-64647143D01*
X204393370Y-64683984D01*
X204393895Y-64722876D01*
X204393768Y-64762223D01*
X204392991Y-64800427D01*
X204391562Y-64835893D01*
X204389483Y-64867024D01*
X204386752Y-64892225D01*
X204376694Y-64953102D01*
X204356500Y-65041136D01*
X204330252Y-65124930D01*
X204298004Y-65204369D01*
X204259811Y-65279340D01*
X204215725Y-65349728D01*
X204165803Y-65415420D01*
X204110096Y-65476301D01*
X204072014Y-65511944D01*
X204010772Y-65561158D01*
X203943985Y-65606127D01*
X203872283Y-65646506D01*
X203796299Y-65681948D01*
X203716664Y-65712108D01*
X203634009Y-65736642D01*
X203568838Y-65750812D01*
X203491390Y-65761768D01*
X203410031Y-65767509D01*
X203347413Y-65767877D01*
X203325611Y-65768005D01*
X203238978Y-65763229D01*
X203150982Y-65753151D01*
X203150160Y-65753032D01*
X203060922Y-65736882D01*
X202976018Y-65714934D01*
X202895599Y-65687270D01*
X202819815Y-65653974D01*
X202748816Y-65615126D01*
X202682752Y-65570809D01*
X202621775Y-65521105D01*
X202566033Y-65466097D01*
X202515678Y-65405867D01*
X202505407Y-65392032D01*
X202461242Y-65325353D01*
X202421684Y-65253372D01*
X202387023Y-65176860D01*
X202357551Y-65096588D01*
X202333558Y-65013329D01*
X202315333Y-64927853D01*
X202303167Y-64840934D01*
X202301541Y-64818586D01*
X202300568Y-64789652D01*
X202300274Y-64756477D01*
X202300374Y-64746120D01*
X202734814Y-64746120D01*
X202734881Y-64764327D01*
X202735743Y-64777011D01*
X202740253Y-64807148D01*
X202745876Y-64838123D01*
X202752125Y-64864694D01*
X202759477Y-64888584D01*
X202768406Y-64911516D01*
X202779388Y-64935212D01*
X202784774Y-64945862D01*
X202802024Y-64976296D01*
X202821149Y-65004136D01*
X202843704Y-65031504D01*
X202871246Y-65060525D01*
X202892274Y-65080618D01*
X202933065Y-65114139D01*
X202975934Y-65141995D01*
X203022553Y-65165206D01*
X203074592Y-65184794D01*
X203077497Y-65185740D01*
X203118478Y-65197848D01*
X203158958Y-65207267D01*
X203200515Y-65214214D01*
X203244726Y-65218908D01*
X203293166Y-65221564D01*
X203347413Y-65222402D01*
X203351401Y-65222398D01*
X203405193Y-65221441D01*
X203453289Y-65218650D01*
X203497264Y-65213807D01*
X203538696Y-65206695D01*
X203579160Y-65197096D01*
X203620234Y-65184794D01*
X203648180Y-65174957D01*
X203697181Y-65153605D01*
X203741633Y-65128097D01*
X203783209Y-65097411D01*
X203823580Y-65060525D01*
X203830694Y-65053304D01*
X203866919Y-65012276D01*
X203896464Y-64970356D01*
X203920052Y-64926233D01*
X203938403Y-64878592D01*
X203952239Y-64826119D01*
X203955320Y-64806639D01*
X203957610Y-64780163D01*
X203958779Y-64750356D01*
X203958826Y-64719378D01*
X203957752Y-64689388D01*
X203955556Y-64662549D01*
X203952239Y-64641021D01*
X203947883Y-64622378D01*
X203929791Y-64565872D01*
X203905309Y-64513126D01*
X203874703Y-64464401D01*
X203838238Y-64419960D01*
X203796180Y-64380064D01*
X203748795Y-64344975D01*
X203696347Y-64314956D01*
X203639104Y-64290268D01*
X203577329Y-64271173D01*
X203552730Y-64265174D01*
X203527730Y-64259790D01*
X203503882Y-64255636D01*
X203479738Y-64252567D01*
X203453847Y-64250435D01*
X203424758Y-64249091D01*
X203391023Y-64248389D01*
X203351191Y-64248182D01*
X203317123Y-64248339D01*
X203282147Y-64248922D01*
X203252749Y-64249913D01*
X203229585Y-64251289D01*
X203213311Y-64253028D01*
X203207108Y-64253983D01*
X203144086Y-64265690D01*
X203087333Y-64280250D01*
X203036047Y-64298026D01*
X202989428Y-64319380D01*
X202946674Y-64344675D01*
X202906984Y-64374273D01*
X202869558Y-64408536D01*
X202837376Y-64443666D01*
X202803552Y-64489209D01*
X202776706Y-64536897D01*
X202756582Y-64587205D01*
X202742921Y-64640605D01*
X202742760Y-64641465D01*
X202740414Y-64657619D01*
X202738342Y-64678139D01*
X202736649Y-64701048D01*
X202735438Y-64724368D01*
X202734814Y-64746120D01*
X202300374Y-64746120D01*
X202300618Y-64720728D01*
X202301555Y-64684071D01*
X202303044Y-64648172D01*
X202305040Y-64614699D01*
X202307500Y-64585317D01*
X202310383Y-64561693D01*
X202318439Y-64514981D01*
X202338322Y-64429942D01*
X202364377Y-64349126D01*
X202396739Y-64272262D01*
X202435546Y-64199078D01*
X202480931Y-64129306D01*
X202533030Y-64062673D01*
X202591978Y-63998911D01*
X202646349Y-63948241D01*
X202714534Y-63893973D01*
X202786547Y-63846120D01*
X202862146Y-63804828D01*
X202941085Y-63770241D01*
X203023121Y-63742505D01*
X203061129Y-63732187D01*
X203120563Y-63719089D01*
X203181503Y-63709494D01*
X203245799Y-63703130D01*
X203315304Y-63699727D01*
X203347852Y-63699178D01*
X203441389Y-63701777D01*
G37*
G36*
X198706438Y-61527724D02*
G01*
X198706768Y-61529407D01*
X198708891Y-61540785D01*
X198712001Y-61558014D01*
X198715971Y-61580356D01*
X198720674Y-61607071D01*
X198725983Y-61637422D01*
X198731771Y-61670670D01*
X198737912Y-61706076D01*
X198744277Y-61742902D01*
X198750741Y-61780409D01*
X198757176Y-61817858D01*
X198763456Y-61854512D01*
X198769453Y-61889632D01*
X198775040Y-61922478D01*
X198780091Y-61952313D01*
X198784479Y-61978398D01*
X198788076Y-61999995D01*
X198790756Y-62016364D01*
X198792391Y-62026768D01*
X198792856Y-62030468D01*
X198791844Y-62030788D01*
X198784930Y-62032615D01*
X198772606Y-62035736D01*
X198756180Y-62039822D01*
X198736958Y-62044543D01*
X198732989Y-62045522D01*
X198674182Y-62062514D01*
X198622047Y-62082626D01*
X198576305Y-62106046D01*
X198536678Y-62132961D01*
X198502889Y-62163559D01*
X198474658Y-62198025D01*
X198451708Y-62236549D01*
X198444392Y-62252177D01*
X198428142Y-62298140D01*
X198417671Y-62347311D01*
X198412977Y-62398474D01*
X198414061Y-62450412D01*
X198420921Y-62501909D01*
X198433556Y-62551748D01*
X198451966Y-62598714D01*
X198454656Y-62604305D01*
X198481315Y-62650624D01*
X198513474Y-62691954D01*
X198551206Y-62728350D01*
X198594588Y-62759869D01*
X198643694Y-62786565D01*
X198698600Y-62808495D01*
X198759381Y-62825713D01*
X198783711Y-62830959D01*
X198836907Y-62840027D01*
X198894818Y-62847116D01*
X198955694Y-62852102D01*
X199017786Y-62854857D01*
X199079344Y-62855254D01*
X199138618Y-62853167D01*
X199206741Y-62847639D01*
X199271327Y-62838889D01*
X199329742Y-62826927D01*
X199382401Y-62811586D01*
X199429718Y-62792699D01*
X199472108Y-62770101D01*
X199509984Y-62743625D01*
X199543762Y-62713104D01*
X199573854Y-62678372D01*
X199581593Y-62667875D01*
X199607011Y-62625766D01*
X199627263Y-62579185D01*
X199642085Y-62529184D01*
X199651215Y-62476815D01*
X199654387Y-62423131D01*
X199651339Y-62369182D01*
X199646456Y-62336741D01*
X199633703Y-62286176D01*
X199615228Y-62240535D01*
X199591014Y-62199798D01*
X199561042Y-62163945D01*
X199525293Y-62132956D01*
X199483750Y-62106808D01*
X199436393Y-62085483D01*
X199383204Y-62068958D01*
X199370192Y-62065628D01*
X199356248Y-62061915D01*
X199346510Y-62059147D01*
X199342543Y-62057755D01*
X199342703Y-62055906D01*
X199344003Y-62047341D01*
X199346478Y-62032354D01*
X199350022Y-62011545D01*
X199354531Y-61985515D01*
X199359899Y-61954864D01*
X199366023Y-61920195D01*
X199372796Y-61882106D01*
X199380115Y-61841199D01*
X199387874Y-61798075D01*
X199392721Y-61771251D01*
X199401697Y-61721902D01*
X199409516Y-61679408D01*
X199416259Y-61643372D01*
X199422006Y-61613398D01*
X199426836Y-61589088D01*
X199430829Y-61570045D01*
X199434064Y-61555873D01*
X199436622Y-61546175D01*
X199438583Y-61540554D01*
X199440026Y-61538612D01*
X199440241Y-61538584D01*
X199446304Y-61539552D01*
X199457781Y-61542591D01*
X199473111Y-61547255D01*
X199490731Y-61553098D01*
X199496547Y-61555117D01*
X199576749Y-61586348D01*
X199650702Y-61621802D01*
X199718470Y-61661555D01*
X199780116Y-61705682D01*
X199835706Y-61754260D01*
X199885303Y-61807365D01*
X199928972Y-61865072D01*
X199966778Y-61927458D01*
X199998784Y-61994597D01*
X200025056Y-62066567D01*
X200045657Y-62143443D01*
X200060652Y-62225301D01*
X200065660Y-62264774D01*
X200071418Y-62333909D01*
X200073861Y-62404940D01*
X200073027Y-62476113D01*
X200068952Y-62545672D01*
X200061673Y-62611865D01*
X200051227Y-62672936D01*
X200040684Y-62718768D01*
X200017238Y-62797501D01*
X199987929Y-62871618D01*
X199952620Y-62941378D01*
X199911174Y-63007038D01*
X199863453Y-63068855D01*
X199809320Y-63127088D01*
X199763237Y-63169762D01*
X199712686Y-63210157D01*
X199659360Y-63246052D01*
X199601159Y-63278979D01*
X199570523Y-63294241D01*
X199503718Y-63322940D01*
X199433416Y-63347041D01*
X199359018Y-63366690D01*
X199279927Y-63382034D01*
X199195542Y-63393218D01*
X199105265Y-63400391D01*
X199037954Y-63402682D01*
X198944830Y-63401012D01*
X198853371Y-63393784D01*
X198764386Y-63381121D01*
X198678684Y-63363145D01*
X198597076Y-63339978D01*
X198520370Y-63311744D01*
X198453494Y-63280708D01*
X198384017Y-63240816D01*
X198319251Y-63195285D01*
X198259422Y-63144421D01*
X198204753Y-63088531D01*
X198155470Y-63027919D01*
X198111798Y-62962894D01*
X198073960Y-62893761D01*
X198042181Y-62820826D01*
X198016687Y-62744396D01*
X197997701Y-62664777D01*
X197985448Y-62582276D01*
X197984438Y-62572711D01*
X197982588Y-62555416D01*
X197980995Y-62540800D01*
X197979921Y-62531280D01*
X197979918Y-62531255D01*
X197979555Y-62523989D01*
X197979321Y-62510311D01*
X197979218Y-62491356D01*
X197979247Y-62468259D01*
X197979412Y-62442154D01*
X197979714Y-62414177D01*
X197980550Y-62373978D01*
X197982886Y-62321262D01*
X197986743Y-62273315D01*
X197992333Y-62228544D01*
X197999867Y-62185357D01*
X198009555Y-62142161D01*
X198021607Y-62097365D01*
X198031195Y-62066203D01*
X198058933Y-61992866D01*
X198092574Y-61924243D01*
X198132112Y-61860338D01*
X198177544Y-61801155D01*
X198228866Y-61746698D01*
X198286074Y-61696969D01*
X198349164Y-61651973D01*
X198418132Y-61611713D01*
X198492974Y-61576193D01*
X198573685Y-61545417D01*
X198660262Y-61519388D01*
X198702557Y-61508211D01*
X198706438Y-61527724D01*
G37*
G36*
X199119914Y-63701777D02*
G01*
X199209539Y-63710738D01*
X199295474Y-63726127D01*
X199377941Y-63748008D01*
X199457161Y-63776448D01*
X199533357Y-63811512D01*
X199606748Y-63853266D01*
X199677559Y-63901774D01*
X199680937Y-63904326D01*
X199703333Y-63922492D01*
X199728771Y-63944868D01*
X199755970Y-63970182D01*
X199783649Y-63997165D01*
X199810528Y-64024543D01*
X199835325Y-64051046D01*
X199856761Y-64075403D01*
X199873554Y-64096342D01*
X199897607Y-64129822D01*
X199939993Y-64196630D01*
X199976180Y-64265458D01*
X200006485Y-64337097D01*
X200031224Y-64412340D01*
X200050712Y-64491978D01*
X200065266Y-64576803D01*
X200066417Y-64585996D01*
X200068893Y-64613948D01*
X200070720Y-64647143D01*
X200071895Y-64683984D01*
X200072419Y-64722876D01*
X200072293Y-64762223D01*
X200071515Y-64800427D01*
X200070087Y-64835893D01*
X200068007Y-64867024D01*
X200065277Y-64892225D01*
X200055219Y-64953102D01*
X200035025Y-65041136D01*
X200008776Y-65124930D01*
X199976529Y-65204369D01*
X199938335Y-65279340D01*
X199894250Y-65349728D01*
X199844327Y-65415420D01*
X199788621Y-65476301D01*
X199750538Y-65511944D01*
X199689297Y-65561158D01*
X199622510Y-65606127D01*
X199550808Y-65646506D01*
X199474824Y-65681948D01*
X199395188Y-65712108D01*
X199312534Y-65736642D01*
X199247363Y-65750812D01*
X199169914Y-65761768D01*
X199088556Y-65767509D01*
X199025938Y-65767877D01*
X199004135Y-65768005D01*
X198917503Y-65763229D01*
X198829507Y-65753151D01*
X198828685Y-65753032D01*
X198739447Y-65736882D01*
X198654543Y-65714934D01*
X198574124Y-65687270D01*
X198498339Y-65653974D01*
X198427340Y-65615126D01*
X198361277Y-65570809D01*
X198300299Y-65521105D01*
X198244558Y-65466097D01*
X198194203Y-65405867D01*
X198183932Y-65392032D01*
X198139766Y-65325353D01*
X198100208Y-65253372D01*
X198065548Y-65176860D01*
X198036076Y-65096588D01*
X198012082Y-65013329D01*
X197993857Y-64927853D01*
X197981691Y-64840934D01*
X197980066Y-64818586D01*
X197979092Y-64789652D01*
X197978799Y-64756477D01*
X197978899Y-64746120D01*
X198413339Y-64746120D01*
X198413406Y-64764327D01*
X198414268Y-64777011D01*
X198418778Y-64807148D01*
X198424400Y-64838123D01*
X198430650Y-64864694D01*
X198438001Y-64888584D01*
X198446931Y-64911516D01*
X198457913Y-64935212D01*
X198463299Y-64945862D01*
X198480549Y-64976296D01*
X198499673Y-65004136D01*
X198522228Y-65031504D01*
X198549770Y-65060525D01*
X198570799Y-65080618D01*
X198611590Y-65114139D01*
X198654459Y-65141995D01*
X198701077Y-65165206D01*
X198753117Y-65184794D01*
X198756022Y-65185740D01*
X198797002Y-65197848D01*
X198837483Y-65207267D01*
X198879040Y-65214214D01*
X198923250Y-65218908D01*
X198971691Y-65221564D01*
X199025938Y-65222402D01*
X199034390Y-65222380D01*
X199062034Y-65222040D01*
X199089009Y-65221336D01*
X199113594Y-65220334D01*
X199134067Y-65219100D01*
X199148707Y-65217701D01*
X199208191Y-65208076D01*
X199271552Y-65193010D01*
X199329697Y-65173516D01*
X199383259Y-65149376D01*
X199432870Y-65120374D01*
X199447897Y-65109362D01*
X199467900Y-65092508D01*
X199489526Y-65072521D01*
X199511240Y-65050932D01*
X199531507Y-65029273D01*
X199548794Y-65009077D01*
X199561565Y-64991875D01*
X199575308Y-64970041D01*
X199598801Y-64926048D01*
X199616287Y-64881948D01*
X199628218Y-64836197D01*
X199635044Y-64787252D01*
X199637219Y-64733570D01*
X199636911Y-64710056D01*
X199634367Y-64668728D01*
X199628882Y-64631616D01*
X199620011Y-64596741D01*
X199607307Y-64562126D01*
X199590324Y-64525795D01*
X199586049Y-64517595D01*
X199555003Y-64467296D01*
X199518176Y-64421720D01*
X199475812Y-64381053D01*
X199428154Y-64345479D01*
X199375446Y-64315184D01*
X199317932Y-64290354D01*
X199255854Y-64271173D01*
X199231255Y-64265174D01*
X199206254Y-64259790D01*
X199182407Y-64255636D01*
X199158263Y-64252567D01*
X199132371Y-64250435D01*
X199103283Y-64249091D01*
X199069548Y-64248389D01*
X199029715Y-64248182D01*
X198995647Y-64248339D01*
X198960672Y-64248922D01*
X198931274Y-64249913D01*
X198908110Y-64251289D01*
X198891836Y-64253028D01*
X198885632Y-64253983D01*
X198822611Y-64265690D01*
X198765857Y-64280250D01*
X198714572Y-64298026D01*
X198667952Y-64319380D01*
X198625199Y-64344675D01*
X198585509Y-64374273D01*
X198548082Y-64408536D01*
X198515900Y-64443666D01*
X198482076Y-64489209D01*
X198455231Y-64536897D01*
X198435107Y-64587205D01*
X198421446Y-64640605D01*
X198421285Y-64641465D01*
X198418939Y-64657619D01*
X198416867Y-64678139D01*
X198415174Y-64701048D01*
X198413963Y-64724368D01*
X198413339Y-64746120D01*
X197978899Y-64746120D01*
X197979143Y-64720728D01*
X197980080Y-64684071D01*
X197981568Y-64648172D01*
X197983564Y-64614699D01*
X197986025Y-64585317D01*
X197988907Y-64561693D01*
X197996964Y-64514981D01*
X198016846Y-64429942D01*
X198042901Y-64349126D01*
X198075264Y-64272262D01*
X198114070Y-64199078D01*
X198159455Y-64129306D01*
X198211554Y-64062673D01*
X198270502Y-63998911D01*
X198324874Y-63948241D01*
X198393058Y-63893973D01*
X198465072Y-63846120D01*
X198540670Y-63804828D01*
X198619610Y-63770241D01*
X198701646Y-63742505D01*
X198739654Y-63732187D01*
X198799088Y-63719089D01*
X198860027Y-63709494D01*
X198924324Y-63703130D01*
X198993829Y-63699727D01*
X199026376Y-63699178D01*
X199119914Y-63701777D01*
G37*
G36*
X204346639Y-60557815D02*
G01*
X204347450Y-60562260D01*
X204348142Y-60570310D01*
X204348723Y-60582404D01*
X204349200Y-60598980D01*
X204349582Y-60620477D01*
X204349877Y-60647335D01*
X204350093Y-60679992D01*
X204350237Y-60718887D01*
X204350318Y-60764459D01*
X204350343Y-60817148D01*
X204350343Y-61079464D01*
X203697066Y-61269909D01*
X203655982Y-61281892D01*
X203588916Y-61301482D01*
X203524064Y-61320459D01*
X203461788Y-61338716D01*
X203402448Y-61356147D01*
X203346402Y-61372644D01*
X203294012Y-61388102D01*
X203245638Y-61402414D01*
X203201638Y-61415472D01*
X203162374Y-61427170D01*
X203128205Y-61437401D01*
X203099491Y-61446059D01*
X203076593Y-61453037D01*
X203059870Y-61458228D01*
X203049682Y-61461525D01*
X203046389Y-61462822D01*
X203047471Y-61463173D01*
X203054884Y-61465202D01*
X203068939Y-61468915D01*
X203089184Y-61474197D01*
X203115170Y-61480935D01*
X203146448Y-61489012D01*
X203182567Y-61498315D01*
X203223078Y-61508728D01*
X203267531Y-61520138D01*
X203315477Y-61532429D01*
X203366466Y-61545487D01*
X203420048Y-61559197D01*
X203475773Y-61573444D01*
X203533192Y-61588114D01*
X203591855Y-61603092D01*
X203651313Y-61618264D01*
X203711115Y-61633514D01*
X203770812Y-61648728D01*
X203829954Y-61663792D01*
X203888091Y-61678591D01*
X203944774Y-61693009D01*
X203999554Y-61706934D01*
X204051980Y-61720249D01*
X204101602Y-61732840D01*
X204147971Y-61744592D01*
X204190638Y-61755391D01*
X204229152Y-61765123D01*
X204263064Y-61773672D01*
X204291924Y-61780923D01*
X204315283Y-61786763D01*
X204332690Y-61791076D01*
X204343697Y-61793748D01*
X204347852Y-61794664D01*
X204348103Y-61795964D01*
X204348489Y-61803819D01*
X204348824Y-61818253D01*
X204349104Y-61838655D01*
X204349325Y-61864412D01*
X204349485Y-61894910D01*
X204349578Y-61929538D01*
X204349602Y-61967683D01*
X204349552Y-62008732D01*
X204349425Y-62052072D01*
X204348454Y-62309480D01*
X203704388Y-62478742D01*
X203677101Y-62485913D01*
X203609597Y-62503655D01*
X203544122Y-62520865D01*
X203481055Y-62537445D01*
X203420770Y-62553295D01*
X203363647Y-62568316D01*
X203310061Y-62582409D01*
X203260389Y-62595474D01*
X203215009Y-62607413D01*
X203174298Y-62618127D01*
X203138631Y-62627515D01*
X203108387Y-62635480D01*
X203083942Y-62641921D01*
X203065673Y-62646740D01*
X203053958Y-62649838D01*
X203049172Y-62651115D01*
X203048680Y-62651592D01*
X203050092Y-62652740D01*
X203054078Y-62654559D01*
X203060914Y-62657130D01*
X203070876Y-62660536D01*
X203084240Y-62664858D01*
X203101282Y-62670178D01*
X203122279Y-62676577D01*
X203147506Y-62684138D01*
X203177241Y-62692941D01*
X203211759Y-62703069D01*
X203251336Y-62714602D01*
X203296249Y-62727624D01*
X203346773Y-62742215D01*
X203403186Y-62758457D01*
X203465762Y-62776432D01*
X203534779Y-62796222D01*
X203610512Y-62817908D01*
X203693238Y-62841571D01*
X204348454Y-63028916D01*
X204349425Y-63286730D01*
X204350396Y-63544544D01*
X204341870Y-63542784D01*
X204341358Y-63542645D01*
X204335046Y-63540726D01*
X204321909Y-63536646D01*
X204302243Y-63530496D01*
X204276339Y-63522369D01*
X204244492Y-63512359D01*
X204206994Y-63500557D01*
X204164140Y-63487057D01*
X204116223Y-63471950D01*
X204063535Y-63455330D01*
X204006372Y-63437289D01*
X203945026Y-63417920D01*
X203879790Y-63397315D01*
X203810958Y-63375567D01*
X203738824Y-63352769D01*
X203663681Y-63329012D01*
X203585822Y-63304391D01*
X203505542Y-63278997D01*
X203423132Y-63252923D01*
X203338888Y-63226261D01*
X202344432Y-62911497D01*
X202345402Y-62652858D01*
X202346372Y-62394219D01*
X202985716Y-62225721D01*
X203011026Y-62219049D01*
X203078090Y-62201356D01*
X203143024Y-62184203D01*
X203205457Y-62167690D01*
X203265021Y-62151916D01*
X203321345Y-62136978D01*
X203374059Y-62122975D01*
X203422794Y-62110006D01*
X203467181Y-62098169D01*
X203506849Y-62087563D01*
X203541428Y-62078286D01*
X203570550Y-62070438D01*
X203593844Y-62064116D01*
X203610940Y-62059419D01*
X203621468Y-62056446D01*
X203625060Y-62055295D01*
X203624746Y-62055172D01*
X203619108Y-62053530D01*
X203606757Y-62050088D01*
X203588142Y-62044969D01*
X203563714Y-62038293D01*
X203533923Y-62030182D01*
X203499220Y-62020756D01*
X203460056Y-62010138D01*
X203416880Y-61998448D01*
X203370144Y-61985808D01*
X203320298Y-61972339D01*
X203267793Y-61958163D01*
X203213078Y-61943400D01*
X203156606Y-61928172D01*
X203098825Y-61912601D01*
X203040186Y-61896807D01*
X202981141Y-61880912D01*
X202922139Y-61865037D01*
X202863632Y-61849303D01*
X202806069Y-61833832D01*
X202749901Y-61818745D01*
X202695579Y-61804164D01*
X202643553Y-61790209D01*
X202594274Y-61777002D01*
X202548192Y-61764664D01*
X202505757Y-61753316D01*
X202467421Y-61743080D01*
X202433634Y-61734078D01*
X202404846Y-61726429D01*
X202381508Y-61720256D01*
X202364070Y-61715680D01*
X202352983Y-61712822D01*
X202344483Y-61710678D01*
X202344483Y-61454911D01*
X202344483Y-61199144D01*
X203342691Y-60878713D01*
X203372053Y-60869287D01*
X203455748Y-60842419D01*
X203537485Y-60816178D01*
X203616974Y-60790658D01*
X203693923Y-60765952D01*
X203768041Y-60742152D01*
X203839039Y-60719354D01*
X203906624Y-60697650D01*
X203970506Y-60677133D01*
X204030395Y-60657898D01*
X204085998Y-60640037D01*
X204137026Y-60623643D01*
X204183188Y-60608812D01*
X204224192Y-60595635D01*
X204259748Y-60584206D01*
X204289564Y-60574619D01*
X204313351Y-60566967D01*
X204330816Y-60561344D01*
X204341670Y-60557842D01*
X204345621Y-60556557D01*
X204345701Y-60556536D01*
X204346639Y-60557815D01*
G37*
G36*
X198966093Y-57266760D02*
G01*
X198971106Y-57266901D01*
X199058935Y-57270675D01*
X199140423Y-57276825D01*
X199216396Y-57285460D01*
X199287675Y-57296690D01*
X199355087Y-57310626D01*
X199419453Y-57327378D01*
X199445035Y-57335087D01*
X199518038Y-57360885D01*
X199587592Y-57391159D01*
X199652788Y-57425446D01*
X199712718Y-57463281D01*
X199766471Y-57504203D01*
X199770891Y-57507940D01*
X199829241Y-57562428D01*
X199881452Y-57621316D01*
X199927518Y-57684591D01*
X199967431Y-57752238D01*
X200001182Y-57824243D01*
X200028765Y-57900591D01*
X200050171Y-57981267D01*
X200065394Y-58066259D01*
X200066833Y-58078315D01*
X200068937Y-58103905D01*
X200070550Y-58134203D01*
X200071660Y-58167679D01*
X200072259Y-58202801D01*
X200072335Y-58238042D01*
X200071880Y-58271869D01*
X200070883Y-58302753D01*
X200069334Y-58329164D01*
X200067224Y-58349572D01*
X200063992Y-58370915D01*
X200047654Y-58451763D01*
X200025386Y-58528099D01*
X199997024Y-58600260D01*
X199962403Y-58668581D01*
X199921356Y-58733399D01*
X199873719Y-58795050D01*
X199819327Y-58853870D01*
X199813843Y-58859281D01*
X199753728Y-58913223D01*
X199689560Y-58961294D01*
X199621208Y-59003541D01*
X199548541Y-59040011D01*
X199471428Y-59070749D01*
X199389739Y-59095802D01*
X199303343Y-59115218D01*
X199212109Y-59129042D01*
X199197815Y-59130272D01*
X199115907Y-59137321D01*
X199014605Y-59140101D01*
X198993725Y-59140002D01*
X198900472Y-59136696D01*
X198812480Y-59128606D01*
X198729166Y-59115606D01*
X198649943Y-59097565D01*
X198574228Y-59074357D01*
X198501435Y-59045853D01*
X198430979Y-59011923D01*
X198408396Y-58999613D01*
X198340327Y-58957278D01*
X198278098Y-58910167D01*
X198221706Y-58858274D01*
X198171148Y-58801592D01*
X198126419Y-58740117D01*
X198087516Y-58673840D01*
X198054436Y-58602758D01*
X198027175Y-58526863D01*
X198005728Y-58446150D01*
X197990093Y-58360612D01*
X197980266Y-58270244D01*
X197979693Y-58260586D01*
X197978969Y-58239525D01*
X197978534Y-58213868D01*
X197978380Y-58185350D01*
X197978495Y-58155708D01*
X197978870Y-58126675D01*
X197979495Y-58099988D01*
X197980361Y-58077382D01*
X197981457Y-58060592D01*
X197988739Y-57997441D01*
X198003320Y-57915729D01*
X198023365Y-57838957D01*
X198048991Y-57766843D01*
X198080317Y-57699109D01*
X198117461Y-57635473D01*
X198160540Y-57575657D01*
X198209673Y-57519379D01*
X198255698Y-57475063D01*
X198311105Y-57430359D01*
X198372047Y-57389564D01*
X198439259Y-57352142D01*
X198459275Y-57342253D01*
X198480813Y-57332137D01*
X198502331Y-57322474D01*
X198522701Y-57313737D01*
X198540790Y-57306397D01*
X198555469Y-57300928D01*
X198565607Y-57297802D01*
X198570073Y-57297490D01*
X198570306Y-57298141D01*
X198571739Y-57304716D01*
X198574241Y-57317744D01*
X198577689Y-57336492D01*
X198581958Y-57360232D01*
X198586922Y-57388232D01*
X198592457Y-57419761D01*
X198598438Y-57454089D01*
X198604739Y-57490485D01*
X198611236Y-57528219D01*
X198617804Y-57566560D01*
X198624317Y-57604777D01*
X198630652Y-57642140D01*
X198636682Y-57677918D01*
X198642283Y-57711380D01*
X198647331Y-57741796D01*
X198651699Y-57768435D01*
X198655264Y-57790566D01*
X198657899Y-57807460D01*
X198659481Y-57818384D01*
X198659884Y-57822609D01*
X198659599Y-57823041D01*
X198654350Y-57826230D01*
X198644089Y-57830555D01*
X198630688Y-57835208D01*
X198601993Y-57845484D01*
X198565198Y-57861800D01*
X198529843Y-57880755D01*
X198497955Y-57901241D01*
X198471563Y-57922149D01*
X198454788Y-57938890D01*
X198428761Y-57972766D01*
X198407715Y-58011173D01*
X198391775Y-58053272D01*
X198381064Y-58098222D01*
X198375707Y-58145182D01*
X198375828Y-58193312D01*
X198381552Y-58241771D01*
X198393003Y-58289719D01*
X198410305Y-58336315D01*
X198420933Y-58358025D01*
X198447032Y-58399888D01*
X198479038Y-58439522D01*
X198515872Y-58475800D01*
X198556451Y-58507594D01*
X198599696Y-58533779D01*
X198629808Y-58547764D01*
X198672048Y-58563326D01*
X198717579Y-58576398D01*
X198764122Y-58586423D01*
X198809398Y-58592846D01*
X198851129Y-58595111D01*
X198872948Y-58595111D01*
X198872948Y-58191485D01*
X199197815Y-58191485D01*
X199197815Y-58588691D01*
X199240312Y-58586148D01*
X199271976Y-58583567D01*
X199334357Y-58574023D01*
X199391904Y-58558877D01*
X199444534Y-58538172D01*
X199492161Y-58511952D01*
X199534701Y-58480260D01*
X199572068Y-58443140D01*
X199604177Y-58400635D01*
X199611228Y-58389510D01*
X199631357Y-58352808D01*
X199646200Y-58316094D01*
X199656232Y-58277683D01*
X199661928Y-58235889D01*
X199663762Y-58189028D01*
X199663029Y-58155980D01*
X199659989Y-58122702D01*
X199654182Y-58092700D01*
X199645176Y-58063815D01*
X199632534Y-58033891D01*
X199630305Y-58029207D01*
X199603409Y-57981803D01*
X199571117Y-57939668D01*
X199533489Y-57902847D01*
X199490581Y-57871383D01*
X199442452Y-57845318D01*
X199389159Y-57824696D01*
X199330761Y-57809560D01*
X199322959Y-57808076D01*
X199303619Y-57804911D01*
X199281344Y-57801758D01*
X199258211Y-57798867D01*
X199236295Y-57796490D01*
X199217675Y-57794877D01*
X199204425Y-57794281D01*
X199203595Y-57794451D01*
X199202631Y-57795395D01*
X199201780Y-57797547D01*
X199201036Y-57801330D01*
X199200390Y-57807168D01*
X199199837Y-57815484D01*
X199199368Y-57826700D01*
X199198978Y-57841240D01*
X199198659Y-57859526D01*
X199198403Y-57881983D01*
X199198205Y-57909033D01*
X199198056Y-57941100D01*
X199197951Y-57978605D01*
X199197880Y-58021973D01*
X199197839Y-58071627D01*
X199197820Y-58127990D01*
X199197815Y-58191485D01*
X198872948Y-58191485D01*
X198872948Y-57929665D01*
X198872948Y-57264220D01*
X198966093Y-57266760D01*
G37*
G36*
X198302544Y-66116651D02*
G01*
X198348018Y-66145118D01*
X198410064Y-66183987D01*
X198466348Y-66219292D01*
X198517257Y-66251287D01*
X198563183Y-66280225D01*
X198604514Y-66306359D01*
X198641640Y-66329944D01*
X198674950Y-66351233D01*
X198704833Y-66370479D01*
X198731679Y-66387937D01*
X198755877Y-66403859D01*
X198777817Y-66418500D01*
X198797887Y-66432114D01*
X198816478Y-66444953D01*
X198833978Y-66457272D01*
X198850777Y-66469324D01*
X198867264Y-66481362D01*
X198883829Y-66493641D01*
X198900861Y-66506414D01*
X198964832Y-66557195D01*
X199023090Y-66609218D01*
X199076266Y-66663374D01*
X199125593Y-66721008D01*
X199172303Y-66783465D01*
X199217628Y-66852090D01*
X199244709Y-66895474D01*
X199253048Y-66848139D01*
X199257917Y-66822055D01*
X199277451Y-66738636D01*
X199302055Y-66660524D01*
X199331670Y-66587798D01*
X199366235Y-66520535D01*
X199405690Y-66458813D01*
X199449977Y-66402712D01*
X199499034Y-66352309D01*
X199552803Y-66307682D01*
X199611223Y-66268910D01*
X199674234Y-66236072D01*
X199741776Y-66209245D01*
X199773676Y-66199127D01*
X199829588Y-66185103D01*
X199887527Y-66175364D01*
X199949032Y-66169676D01*
X200015646Y-66167807D01*
X200027187Y-66167856D01*
X200096711Y-66170746D01*
X200161794Y-66178307D01*
X200223947Y-66190834D01*
X200284679Y-66208619D01*
X200345500Y-66231958D01*
X200397518Y-66256748D01*
X200454217Y-66289859D01*
X200507639Y-66327568D01*
X200556747Y-66369067D01*
X200600501Y-66413542D01*
X200637862Y-66460183D01*
X200655045Y-66485544D01*
X200680957Y-66529753D01*
X200703524Y-66576825D01*
X200722985Y-66627502D01*
X200739582Y-66682525D01*
X200753556Y-66742636D01*
X200765147Y-66808576D01*
X200774597Y-66881086D01*
X200775626Y-66890359D01*
X200777307Y-66905760D01*
X200778845Y-66920461D01*
X200780247Y-66934836D01*
X200781520Y-66949262D01*
X200782673Y-66964114D01*
X200783710Y-66979766D01*
X200784641Y-66996594D01*
X200785472Y-67014973D01*
X200786210Y-67035279D01*
X200786862Y-67057887D01*
X200787436Y-67083171D01*
X200787938Y-67111508D01*
X200788376Y-67143272D01*
X200788757Y-67178838D01*
X200789088Y-67218583D01*
X200789376Y-67262881D01*
X200789628Y-67312107D01*
X200789852Y-67366636D01*
X200790054Y-67426845D01*
X200790242Y-67493107D01*
X200790423Y-67565799D01*
X200790604Y-67645295D01*
X200790792Y-67731971D01*
X200792294Y-68431755D01*
X199972214Y-68431755D01*
X199407651Y-68431755D01*
X198023008Y-68431755D01*
X198023008Y-68152219D01*
X198023008Y-67872683D01*
X198601541Y-67872683D01*
X199180075Y-67872683D01*
X199619981Y-67872683D01*
X199972214Y-67872683D01*
X200324448Y-67872683D01*
X200322253Y-67482655D01*
X200322027Y-67445418D01*
X200321646Y-67391894D01*
X200321212Y-67340295D01*
X200320735Y-67291184D01*
X200320222Y-67245125D01*
X200319680Y-67202680D01*
X200319118Y-67164411D01*
X200318543Y-67130883D01*
X200317964Y-67102658D01*
X200317388Y-67080299D01*
X200316823Y-67064369D01*
X200316277Y-67055431D01*
X200315051Y-67044536D01*
X200305347Y-66991222D01*
X200290058Y-66942444D01*
X200269362Y-66898437D01*
X200243440Y-66859439D01*
X200212469Y-66825686D01*
X200176630Y-66797414D01*
X200136100Y-66774859D01*
X200091061Y-66758257D01*
X200057949Y-66750799D01*
X200018074Y-66745791D01*
X199976872Y-66744198D01*
X199937263Y-66746247D01*
X199901964Y-66750929D01*
X199860554Y-66759869D01*
X199823974Y-66772456D01*
X199790947Y-66789257D01*
X199760196Y-66810835D01*
X199730444Y-66837756D01*
X199726556Y-66841698D01*
X199707830Y-66862177D01*
X199691786Y-66882843D01*
X199678160Y-66904514D01*
X199666685Y-66928008D01*
X199657097Y-66954144D01*
X199649131Y-66983738D01*
X199642520Y-67017609D01*
X199636999Y-67056576D01*
X199632304Y-67101456D01*
X199628169Y-67153067D01*
X199627741Y-67160670D01*
X199627090Y-67177817D01*
X199626430Y-67201397D01*
X199625771Y-67230739D01*
X199625122Y-67265174D01*
X199624495Y-67304031D01*
X199623900Y-67346641D01*
X199623347Y-67392333D01*
X199622848Y-67440438D01*
X199622413Y-67490286D01*
X199622052Y-67541207D01*
X199619981Y-67872683D01*
X199180075Y-67872683D01*
X199177693Y-67750859D01*
X199176587Y-67706443D01*
X199174663Y-67658442D01*
X199171996Y-67616515D01*
X199168473Y-67579860D01*
X199163976Y-67547672D01*
X199158389Y-67519148D01*
X199151597Y-67493484D01*
X199143485Y-67469877D01*
X199133935Y-67447523D01*
X199120829Y-67421728D01*
X199104202Y-67394288D01*
X199084900Y-67367759D01*
X199062247Y-67341417D01*
X199035566Y-67314538D01*
X199004182Y-67286399D01*
X198967419Y-67256276D01*
X198924601Y-67223446D01*
X198914160Y-67215684D01*
X198897972Y-67203806D01*
X198880438Y-67191129D01*
X198861204Y-67177412D01*
X198839918Y-67162415D01*
X198816226Y-67145894D01*
X198789774Y-67127609D01*
X198760210Y-67107319D01*
X198727179Y-67084780D01*
X198690329Y-67059753D01*
X198649305Y-67031995D01*
X198603756Y-67001265D01*
X198553326Y-66967321D01*
X198497664Y-66929921D01*
X198436414Y-66888825D01*
X198369225Y-66843790D01*
X198362982Y-66839607D01*
X198317310Y-66808970D01*
X198273465Y-66779503D01*
X198231852Y-66751480D01*
X198192875Y-66725176D01*
X198156940Y-66700866D01*
X198124453Y-66678827D01*
X198095817Y-66659332D01*
X198071439Y-66642658D01*
X198051723Y-66629079D01*
X198037075Y-66618870D01*
X198027899Y-66612307D01*
X198024600Y-66609665D01*
X198024395Y-66606335D01*
X198024186Y-66595905D01*
X198024011Y-66578944D01*
X198023870Y-66556002D01*
X198023763Y-66527629D01*
X198023693Y-66494374D01*
X198023660Y-66456787D01*
X198023665Y-66415417D01*
X198023710Y-66370814D01*
X198023795Y-66323527D01*
X198023922Y-66274106D01*
X198024897Y-65942884D01*
X198302544Y-66116651D01*
G37*
G36*
X202624019Y-66116651D02*
G01*
X202669493Y-66145118D01*
X202731540Y-66183987D01*
X202787823Y-66219292D01*
X202838733Y-66251287D01*
X202884659Y-66280225D01*
X202925990Y-66306359D01*
X202963116Y-66329944D01*
X202996425Y-66351233D01*
X203026309Y-66370479D01*
X203053155Y-66387937D01*
X203077353Y-66403859D01*
X203099292Y-66418500D01*
X203119363Y-66432114D01*
X203137953Y-66444953D01*
X203155453Y-66457272D01*
X203172252Y-66469324D01*
X203188740Y-66481362D01*
X203205305Y-66493641D01*
X203222336Y-66506414D01*
X203286308Y-66557195D01*
X203344566Y-66609218D01*
X203397742Y-66663374D01*
X203447069Y-66721008D01*
X203493778Y-66783465D01*
X203539103Y-66852090D01*
X203566185Y-66895474D01*
X203574524Y-66848139D01*
X203579392Y-66822055D01*
X203598926Y-66738636D01*
X203623530Y-66660524D01*
X203653145Y-66587798D01*
X203687710Y-66520535D01*
X203727166Y-66458813D01*
X203771452Y-66402712D01*
X203820510Y-66352309D01*
X203874278Y-66307682D01*
X203932698Y-66268910D01*
X203995709Y-66236072D01*
X204063252Y-66209245D01*
X204095151Y-66199127D01*
X204151064Y-66185103D01*
X204209002Y-66175364D01*
X204270508Y-66169676D01*
X204337122Y-66167807D01*
X204348662Y-66167856D01*
X204418186Y-66170746D01*
X204483269Y-66178307D01*
X204545422Y-66190834D01*
X204606154Y-66208619D01*
X204666975Y-66231958D01*
X204718994Y-66256748D01*
X204775692Y-66289859D01*
X204829115Y-66327568D01*
X204878223Y-66369067D01*
X204921976Y-66413542D01*
X204959337Y-66460183D01*
X204976520Y-66485544D01*
X205002432Y-66529753D01*
X205024999Y-66576825D01*
X205044460Y-66627502D01*
X205061057Y-66682525D01*
X205075031Y-66742636D01*
X205086623Y-66808576D01*
X205096073Y-66881086D01*
X205097101Y-66890359D01*
X205098782Y-66905760D01*
X205100320Y-66920461D01*
X205101722Y-66934836D01*
X205102996Y-66949262D01*
X205104148Y-66964114D01*
X205105186Y-66979766D01*
X205106117Y-66996594D01*
X205106947Y-67014973D01*
X205107685Y-67035279D01*
X205108338Y-67057887D01*
X205108911Y-67083171D01*
X205109413Y-67111508D01*
X205109851Y-67143272D01*
X205110232Y-67178838D01*
X205110563Y-67218583D01*
X205110851Y-67262881D01*
X205111103Y-67312107D01*
X205111327Y-67366636D01*
X205111530Y-67426845D01*
X205111718Y-67493107D01*
X205111898Y-67565799D01*
X205112079Y-67645295D01*
X205112267Y-67731971D01*
X205113769Y-68431755D01*
X204293690Y-68431755D01*
X203729126Y-68431755D01*
X202344483Y-68431755D01*
X202344483Y-68152219D01*
X202344483Y-67872683D01*
X202923017Y-67872683D01*
X203501550Y-67872683D01*
X203941456Y-67872683D01*
X204293690Y-67872683D01*
X204645924Y-67872683D01*
X204643728Y-67482655D01*
X204643502Y-67445418D01*
X204643121Y-67391894D01*
X204642688Y-67340295D01*
X204642210Y-67291184D01*
X204641697Y-67245125D01*
X204641155Y-67202680D01*
X204640593Y-67164411D01*
X204640019Y-67130883D01*
X204639439Y-67102658D01*
X204638863Y-67080299D01*
X204638298Y-67064369D01*
X204637752Y-67055431D01*
X204636527Y-67044536D01*
X204626823Y-66991222D01*
X204611533Y-66942444D01*
X204590838Y-66898437D01*
X204564915Y-66859439D01*
X204533944Y-66825686D01*
X204498105Y-66797414D01*
X204457576Y-66774859D01*
X204412536Y-66758257D01*
X204379424Y-66750799D01*
X204339549Y-66745791D01*
X204298347Y-66744198D01*
X204258738Y-66746247D01*
X204223439Y-66750929D01*
X204182029Y-66759869D01*
X204145449Y-66772456D01*
X204112422Y-66789257D01*
X204081671Y-66810835D01*
X204051919Y-66837756D01*
X204048031Y-66841698D01*
X204029305Y-66862177D01*
X204013262Y-66882843D01*
X203999635Y-66904514D01*
X203988161Y-66928008D01*
X203978573Y-66954144D01*
X203970606Y-66983738D01*
X203963995Y-67017609D01*
X203958475Y-67056576D01*
X203953779Y-67101456D01*
X203949644Y-67153067D01*
X203949216Y-67160670D01*
X203948566Y-67177817D01*
X203947906Y-67201397D01*
X203947246Y-67230739D01*
X203946597Y-67265174D01*
X203945970Y-67304031D01*
X203945375Y-67346641D01*
X203944823Y-67392333D01*
X203944324Y-67440438D01*
X203943888Y-67490286D01*
X203943527Y-67541207D01*
X203941456Y-67872683D01*
X203501550Y-67872683D01*
X203499168Y-67750859D01*
X203498063Y-67706443D01*
X203496138Y-67658442D01*
X203493472Y-67616515D01*
X203489948Y-67579860D01*
X203485451Y-67547672D01*
X203479864Y-67519148D01*
X203473073Y-67493484D01*
X203464960Y-67469877D01*
X203455410Y-67447523D01*
X203442304Y-67421728D01*
X203425678Y-67394288D01*
X203406376Y-67367759D01*
X203383722Y-67341417D01*
X203357041Y-67314538D01*
X203325658Y-67286399D01*
X203288894Y-67256276D01*
X203246076Y-67223446D01*
X203235635Y-67215684D01*
X203219447Y-67203806D01*
X203201913Y-67191129D01*
X203182680Y-67177412D01*
X203161393Y-67162415D01*
X203137701Y-67145894D01*
X203111250Y-67127609D01*
X203081685Y-67107319D01*
X203048654Y-67084780D01*
X203011804Y-67059753D01*
X202970781Y-67031995D01*
X202925231Y-67001265D01*
X202874801Y-66967321D01*
X202819139Y-66929921D01*
X202757890Y-66888825D01*
X202690701Y-66843790D01*
X202684457Y-66839607D01*
X202638786Y-66808970D01*
X202594940Y-66779503D01*
X202553327Y-66751480D01*
X202514350Y-66725176D01*
X202478416Y-66700866D01*
X202445928Y-66678827D01*
X202417293Y-66659332D01*
X202392915Y-66642658D01*
X202373199Y-66629079D01*
X202358550Y-66618870D01*
X202349374Y-66612307D01*
X202346075Y-66609665D01*
X202345870Y-66606335D01*
X202345662Y-66595905D01*
X202345486Y-66578944D01*
X202345345Y-66556002D01*
X202345239Y-66527629D01*
X202345168Y-66494374D01*
X202345135Y-66456787D01*
X202345140Y-66415417D01*
X202345185Y-66370814D01*
X202345270Y-66323527D01*
X202345397Y-66274106D01*
X202346372Y-65942884D01*
X202624019Y-66116651D01*
G37*
G36*
X202356734Y-58539970D02*
G01*
X202362470Y-58542500D01*
X202374799Y-58547940D01*
X202390490Y-58554866D01*
X202407499Y-58562375D01*
X202412182Y-58564428D01*
X202476495Y-58589903D01*
X202542101Y-58611081D01*
X202607039Y-58627391D01*
X202669349Y-58638268D01*
X202675870Y-58639116D01*
X202699887Y-58642010D01*
X202724446Y-58644571D01*
X202750050Y-58646808D01*
X202777198Y-58648733D01*
X202806392Y-58650358D01*
X202838131Y-58651692D01*
X202872918Y-58652746D01*
X202911251Y-58653532D01*
X202953633Y-58654061D01*
X203000563Y-58654342D01*
X203052543Y-58654388D01*
X203110073Y-58654209D01*
X203173654Y-58653816D01*
X203243786Y-58653220D01*
X203320970Y-58652431D01*
X203374409Y-58651878D01*
X203442487Y-58651278D01*
X203503840Y-58650880D01*
X203558952Y-58650690D01*
X203608304Y-58650714D01*
X203652378Y-58650959D01*
X203691657Y-58651432D01*
X203726621Y-58652137D01*
X203757753Y-58653082D01*
X203785535Y-58654274D01*
X203810449Y-58655717D01*
X203832976Y-58657419D01*
X203853600Y-58659385D01*
X203901166Y-58665301D01*
X203955943Y-58674609D01*
X204005114Y-58685930D01*
X204048086Y-58699122D01*
X204084266Y-58714044D01*
X204104538Y-58724687D01*
X204147468Y-58753080D01*
X204188219Y-58788143D01*
X204226356Y-58829378D01*
X204261446Y-58876285D01*
X204293054Y-58928368D01*
X204320745Y-58985129D01*
X204329771Y-59007221D01*
X204348427Y-59063117D01*
X204363995Y-59125627D01*
X204376447Y-59194540D01*
X204385753Y-59269648D01*
X204391887Y-59350741D01*
X204394818Y-59437610D01*
X204394520Y-59530045D01*
X204393701Y-59561140D01*
X204389823Y-59637486D01*
X204383317Y-59707699D01*
X204374041Y-59772514D01*
X204361855Y-59832667D01*
X204346619Y-59888894D01*
X204328194Y-59941931D01*
X204306438Y-59992513D01*
X204292537Y-60020435D01*
X204271015Y-60057888D01*
X204247106Y-60092444D01*
X204219340Y-60126166D01*
X204186244Y-60161118D01*
X204173875Y-60173233D01*
X204132524Y-60209949D01*
X204089283Y-60242286D01*
X204042266Y-60271568D01*
X203989590Y-60299117D01*
X203976620Y-60305151D01*
X203956690Y-60313818D01*
X203934733Y-60322840D01*
X203911874Y-60331805D01*
X203889236Y-60340305D01*
X203867944Y-60347930D01*
X203849122Y-60354268D01*
X203833894Y-60358911D01*
X203823382Y-60361447D01*
X203818712Y-60361467D01*
X203818491Y-60360749D01*
X203817061Y-60354076D01*
X203814487Y-60341038D01*
X203810907Y-60322396D01*
X203806461Y-60298911D01*
X203801290Y-60271344D01*
X203795532Y-60240455D01*
X203789327Y-60207006D01*
X203782815Y-60171756D01*
X203776136Y-60135467D01*
X203769428Y-60098900D01*
X203762833Y-60062816D01*
X203756489Y-60027974D01*
X203750536Y-59995137D01*
X203745114Y-59965065D01*
X203740363Y-59938518D01*
X203736421Y-59916258D01*
X203733429Y-59899045D01*
X203731527Y-59887640D01*
X203730853Y-59882804D01*
X203734014Y-59880501D01*
X203742497Y-59876600D01*
X203754440Y-59871977D01*
X203772526Y-59864805D01*
X203800203Y-59851958D01*
X203828458Y-59837036D01*
X203854682Y-59821439D01*
X203876265Y-59806568D01*
X203889439Y-59795858D01*
X203918049Y-59766824D01*
X203941552Y-59733557D01*
X203960059Y-59695746D01*
X203973679Y-59653079D01*
X203982522Y-59605243D01*
X203986697Y-59551925D01*
X203986314Y-59492813D01*
X203984436Y-59459100D01*
X203979372Y-59407690D01*
X203971753Y-59362758D01*
X203961380Y-59323837D01*
X203948050Y-59290465D01*
X203931563Y-59262175D01*
X203911719Y-59238504D01*
X203888316Y-59218987D01*
X203861155Y-59203159D01*
X203853229Y-59199390D01*
X203833163Y-59190840D01*
X203813934Y-59184518D01*
X203793871Y-59180110D01*
X203771299Y-59177304D01*
X203744548Y-59175787D01*
X203711943Y-59175247D01*
X203645837Y-59174959D01*
X203624361Y-59239109D01*
X203619382Y-59254310D01*
X203607821Y-59292175D01*
X203596106Y-59334212D01*
X203584103Y-59380977D01*
X203571679Y-59433022D01*
X203558699Y-59490900D01*
X203545029Y-59555166D01*
X203530535Y-59626372D01*
X203528182Y-59638116D01*
X203513354Y-59710249D01*
X203499209Y-59775521D01*
X203485580Y-59834488D01*
X203472301Y-59887707D01*
X203459205Y-59935735D01*
X203446125Y-59979130D01*
X203432896Y-60018448D01*
X203419351Y-60054245D01*
X203405322Y-60087080D01*
X203390645Y-60117508D01*
X203375151Y-60146087D01*
X203364675Y-60163595D01*
X203328236Y-60215034D01*
X203286445Y-60261478D01*
X203239810Y-60302562D01*
X203188838Y-60337917D01*
X203134039Y-60367177D01*
X203075920Y-60389975D01*
X203014992Y-60405944D01*
X202997163Y-60409246D01*
X202932114Y-60416940D01*
X202922732Y-60417091D01*
X202867243Y-60417983D01*
X202803319Y-60412510D01*
X202741112Y-60400656D01*
X202681389Y-60382557D01*
X202624922Y-60358347D01*
X202572478Y-60328162D01*
X202555240Y-60316355D01*
X202503504Y-60275095D01*
X202457411Y-60228877D01*
X202417036Y-60177834D01*
X202382456Y-60122100D01*
X202353746Y-60061807D01*
X202330982Y-59997089D01*
X202314239Y-59928079D01*
X202303594Y-59854911D01*
X202301963Y-59834139D01*
X202300642Y-59805644D01*
X202299922Y-59774229D01*
X202299806Y-59741984D01*
X202300300Y-59710998D01*
X202301408Y-59683362D01*
X202303136Y-59661165D01*
X202312425Y-59598319D01*
X202673656Y-59598319D01*
X202678186Y-59647291D01*
X202689926Y-59696256D01*
X202699208Y-59721744D01*
X202714281Y-59751239D01*
X202734158Y-59779367D01*
X202760019Y-59808008D01*
X202766662Y-59814638D01*
X202781786Y-59828772D01*
X202795439Y-59839545D01*
X202810042Y-59848740D01*
X202828015Y-59858144D01*
X202840702Y-59864057D01*
X202881852Y-59878476D01*
X202922732Y-59885639D01*
X202962922Y-59885537D01*
X203002001Y-59878158D01*
X203039546Y-59863492D01*
X203057222Y-59853000D01*
X203081536Y-59833838D01*
X203104752Y-59810614D01*
X203125074Y-59785173D01*
X203140709Y-59759361D01*
X203150342Y-59738553D01*
X203160343Y-59713420D01*
X203170356Y-59684408D01*
X203180555Y-59650918D01*
X203191112Y-59612349D01*
X203202200Y-59568101D01*
X203213992Y-59517572D01*
X203226659Y-59460161D01*
X203228971Y-59449519D01*
X203236265Y-59416815D01*
X203244140Y-59382608D01*
X203252322Y-59348009D01*
X203260536Y-59314127D01*
X203268507Y-59282074D01*
X203275960Y-59252959D01*
X203282621Y-59227893D01*
X203288213Y-59207987D01*
X203292463Y-59194349D01*
X203300091Y-59172187D01*
X203163208Y-59174102D01*
X203147099Y-59174341D01*
X203105747Y-59175136D01*
X203070726Y-59176164D01*
X203041129Y-59177514D01*
X203016051Y-59179276D01*
X202994585Y-59181539D01*
X202975824Y-59184393D01*
X202958862Y-59187925D01*
X202942792Y-59192227D01*
X202926708Y-59197386D01*
X202910681Y-59203493D01*
X202891750Y-59211820D01*
X202875711Y-59219951D01*
X202849011Y-59236974D01*
X202812712Y-59267078D01*
X202779467Y-59303003D01*
X202749794Y-59343912D01*
X202724209Y-59388972D01*
X202703230Y-59437348D01*
X202687372Y-59488204D01*
X202677153Y-59540707D01*
X202676227Y-59547985D01*
X202673656Y-59598319D01*
X202312425Y-59598319D01*
X202313142Y-59593470D01*
X202331331Y-59516696D01*
X202356577Y-59442315D01*
X202388939Y-59370200D01*
X202428475Y-59300223D01*
X202475242Y-59232257D01*
X202529299Y-59166176D01*
X202530543Y-59164769D01*
X202542096Y-59151459D01*
X202551314Y-59140412D01*
X202557288Y-59132743D01*
X202559110Y-59129567D01*
X202558057Y-59129110D01*
X202551030Y-59126728D01*
X202538324Y-59122672D01*
X202520987Y-59117271D01*
X202500064Y-59110851D01*
X202476604Y-59103741D01*
X202468754Y-59101367D01*
X202443591Y-59093654D01*
X202419744Y-59086197D01*
X202398697Y-59079468D01*
X202381930Y-59073940D01*
X202370926Y-59070084D01*
X202346372Y-59060872D01*
X202345402Y-58797710D01*
X202344432Y-58534547D01*
X202356734Y-58539970D01*
G37*
G36*
X200024581Y-52232392D02*
G01*
X200025512Y-52234741D01*
X200026297Y-52239113D01*
X200026950Y-52246009D01*
X200027482Y-52255932D01*
X200027906Y-52269387D01*
X200028235Y-52286875D01*
X200028479Y-52308900D01*
X200028651Y-52335964D01*
X200028764Y-52368572D01*
X200028830Y-52407225D01*
X200028860Y-52452427D01*
X200028867Y-52504682D01*
X200028867Y-52780171D01*
X199323417Y-53011825D01*
X199303740Y-53018287D01*
X199233542Y-53041346D01*
X199165332Y-53063761D01*
X199099455Y-53085419D01*
X199036258Y-53106205D01*
X198976086Y-53126006D01*
X198919286Y-53144707D01*
X198866204Y-53162193D01*
X198817186Y-53178352D01*
X198772578Y-53193069D01*
X198732726Y-53206229D01*
X198697977Y-53217719D01*
X198668675Y-53227424D01*
X198645168Y-53235231D01*
X198627801Y-53241025D01*
X198616920Y-53244692D01*
X198612872Y-53246118D01*
X198612844Y-53246133D01*
X198612655Y-53246557D01*
X198613376Y-53247252D01*
X198615257Y-53248304D01*
X198618548Y-53249798D01*
X198623499Y-53251820D01*
X198630360Y-53254454D01*
X198639382Y-53257787D01*
X198650814Y-53261904D01*
X198664906Y-53266890D01*
X198681909Y-53272830D01*
X198702072Y-53279810D01*
X198725646Y-53287915D01*
X198752881Y-53297230D01*
X198784027Y-53307842D01*
X198819333Y-53319834D01*
X198859051Y-53333294D01*
X198903429Y-53348305D01*
X198952719Y-53364954D01*
X199007170Y-53383325D01*
X199067032Y-53403504D01*
X199132555Y-53425577D01*
X199203990Y-53449629D01*
X199281586Y-53475745D01*
X199365594Y-53504010D01*
X199456264Y-53534510D01*
X199553845Y-53567331D01*
X200028867Y-53727092D01*
X200028867Y-54009807D01*
X200028867Y-54012204D01*
X200028851Y-54057572D01*
X200028805Y-54100647D01*
X200028733Y-54140844D01*
X200028637Y-54177578D01*
X200028520Y-54210264D01*
X200028383Y-54238318D01*
X200028230Y-54261156D01*
X200028063Y-54278192D01*
X200027884Y-54288843D01*
X200027695Y-54292523D01*
X200027675Y-54292522D01*
X200023680Y-54291184D01*
X200014625Y-54287798D01*
X200002425Y-54283079D01*
X200002025Y-54282922D01*
X199989946Y-54278238D01*
X199981122Y-54274905D01*
X199977441Y-54273635D01*
X199978121Y-54275465D01*
X199981628Y-54282721D01*
X199987466Y-54294218D01*
X199994945Y-54308577D01*
X199997972Y-54314398D01*
X200023710Y-54370538D01*
X200044304Y-54428348D01*
X200059636Y-54486925D01*
X200069591Y-54545368D01*
X200074051Y-54602775D01*
X200072900Y-54658245D01*
X200066022Y-54710876D01*
X200053299Y-54759767D01*
X200047655Y-54775322D01*
X200032923Y-54808967D01*
X200015612Y-54841353D01*
X199997322Y-54869345D01*
X199986522Y-54883149D01*
X199959681Y-54912772D01*
X199926723Y-54944167D01*
X199888294Y-54976770D01*
X199845044Y-55010016D01*
X199797621Y-55043339D01*
X199748559Y-55076357D01*
X199888713Y-55077347D01*
X200028867Y-55078338D01*
X200028867Y-55325719D01*
X200028867Y-55573100D01*
X199025938Y-55573100D01*
X198023008Y-55573100D01*
X198023008Y-55307190D01*
X198023008Y-55041280D01*
X198475365Y-55039323D01*
X198498784Y-55039217D01*
X198558768Y-55038901D01*
X198617232Y-55038531D01*
X198673629Y-55038114D01*
X198727409Y-55037656D01*
X198778024Y-55037164D01*
X198824925Y-55036643D01*
X198867563Y-55036101D01*
X198905389Y-55035543D01*
X198937856Y-55034975D01*
X198964413Y-55034405D01*
X198984513Y-55033838D01*
X198997606Y-55033281D01*
X199036412Y-55030884D01*
X199097005Y-55026489D01*
X199151194Y-55021582D01*
X199199700Y-55016024D01*
X199243245Y-55009675D01*
X199282552Y-55002394D01*
X199318342Y-54994041D01*
X199351337Y-54984476D01*
X199382259Y-54973557D01*
X199411830Y-54961145D01*
X199440771Y-54947099D01*
X199458140Y-54937591D01*
X199496056Y-54912029D01*
X199527541Y-54882942D01*
X199553001Y-54849837D01*
X199572842Y-54812223D01*
X199587472Y-54769607D01*
X199591513Y-54749290D01*
X199594386Y-54723312D01*
X199595835Y-54694860D01*
X199595801Y-54666397D01*
X199594226Y-54640382D01*
X199591051Y-54619278D01*
X199589937Y-54614473D01*
X199578406Y-54575105D01*
X199562392Y-54533377D01*
X199542896Y-54491674D01*
X199520921Y-54452382D01*
X199517712Y-54446748D01*
X199514232Y-54438776D01*
X199514122Y-54434938D01*
X199514530Y-54434763D01*
X199520354Y-54432590D01*
X199532527Y-54428172D01*
X199550443Y-54421725D01*
X199573493Y-54413465D01*
X199601073Y-54403611D01*
X199632575Y-54392379D01*
X199667392Y-54379985D01*
X199704920Y-54366646D01*
X199744550Y-54352579D01*
X199764218Y-54345591D01*
X199811211Y-54328792D01*
X199852335Y-54313930D01*
X199887407Y-54301076D01*
X199916241Y-54290299D01*
X199938655Y-54281667D01*
X199954464Y-54275251D01*
X199963485Y-54271119D01*
X199965534Y-54269340D01*
X199965155Y-54269196D01*
X199959333Y-54266985D01*
X199946809Y-54262233D01*
X199927870Y-54255050D01*
X199902803Y-54245544D01*
X199871897Y-54233825D01*
X199835439Y-54220001D01*
X199793717Y-54204182D01*
X199747018Y-54186477D01*
X199695630Y-54166994D01*
X199639841Y-54145843D01*
X199579938Y-54123133D01*
X199516210Y-54098972D01*
X199448943Y-54073471D01*
X199378426Y-54046737D01*
X199304945Y-54018881D01*
X199228790Y-53990011D01*
X199150247Y-53960236D01*
X199069604Y-53929666D01*
X198987149Y-53898408D01*
X198015314Y-53530005D01*
X197978964Y-53541367D01*
X197941704Y-53554132D01*
X197892094Y-53574489D01*
X197844271Y-53597826D01*
X197799676Y-53623365D01*
X197759750Y-53650328D01*
X197725936Y-53677936D01*
X197711773Y-53692201D01*
X197687494Y-53723762D01*
X197666934Y-53760317D01*
X197650806Y-53800501D01*
X197639821Y-53842950D01*
X197634810Y-53876643D01*
X197631423Y-53928780D01*
X197632263Y-53986127D01*
X197637314Y-54048080D01*
X197646563Y-54114035D01*
X197647391Y-54119074D01*
X197650045Y-54136733D01*
X197651804Y-54151026D01*
X197652521Y-54160596D01*
X197652046Y-54164087D01*
X197649005Y-54163843D01*
X197639082Y-54162827D01*
X197623202Y-54161111D01*
X197602208Y-54158791D01*
X197576940Y-54155963D01*
X197548241Y-54152725D01*
X197516951Y-54149174D01*
X197483913Y-54145405D01*
X197449967Y-54141515D01*
X197415956Y-54137602D01*
X197382720Y-54133762D01*
X197351102Y-54130091D01*
X197321942Y-54126686D01*
X197296082Y-54123644D01*
X197274363Y-54121062D01*
X197257628Y-54119035D01*
X197246717Y-54117662D01*
X197242473Y-54117038D01*
X197240142Y-54113473D01*
X197236917Y-54103275D01*
X197233217Y-54087511D01*
X197229218Y-54067210D01*
X197225097Y-54043401D01*
X197221031Y-54017113D01*
X197217197Y-53989374D01*
X197213771Y-53961213D01*
X197210932Y-53933659D01*
X197209934Y-53919448D01*
X197209017Y-53894854D01*
X197208579Y-53865574D01*
X197208588Y-53833138D01*
X197209016Y-53799076D01*
X197209831Y-53764916D01*
X197211005Y-53732189D01*
X197212506Y-53702424D01*
X197214304Y-53677152D01*
X197216370Y-53657901D01*
X197227393Y-53594103D01*
X197245124Y-53523874D01*
X197267969Y-53458794D01*
X197295863Y-53399004D01*
X197328737Y-53344644D01*
X197366525Y-53295854D01*
X197409162Y-53252774D01*
X197430048Y-53234750D01*
X197453925Y-53215704D01*
X197478901Y-53197557D01*
X197505534Y-53180031D01*
X197534383Y-53162852D01*
X197566008Y-53145743D01*
X197600967Y-53128429D01*
X197639820Y-53110636D01*
X197683126Y-53092086D01*
X197731443Y-53072504D01*
X197785330Y-53051615D01*
X197845346Y-53029143D01*
X197912051Y-53004812D01*
X197912950Y-53004488D01*
X197926778Y-52999474D01*
X197946974Y-52992124D01*
X197973192Y-52982566D01*
X198005088Y-52970925D01*
X198042315Y-52957328D01*
X198084529Y-52941902D01*
X198131384Y-52924772D01*
X198182536Y-52906066D01*
X198237638Y-52885910D01*
X198296347Y-52864430D01*
X198358317Y-52841753D01*
X198423202Y-52818005D01*
X198490657Y-52793312D01*
X198560338Y-52767802D01*
X198631899Y-52741600D01*
X198704995Y-52714833D01*
X198779280Y-52687628D01*
X198854410Y-52660111D01*
X198930039Y-52632408D01*
X199005822Y-52604646D01*
X199081414Y-52576951D01*
X199156470Y-52549451D01*
X199230644Y-52522270D01*
X199303592Y-52495536D01*
X199374967Y-52469375D01*
X199444426Y-52443914D01*
X199511623Y-52419279D01*
X199576212Y-52395597D01*
X199637848Y-52372993D01*
X199696187Y-52351595D01*
X199750883Y-52331529D01*
X199801591Y-52312922D01*
X199847965Y-52295899D01*
X199889661Y-52280587D01*
X199926333Y-52267113D01*
X199957636Y-52255604D01*
X199983226Y-52246185D01*
X200002756Y-52238983D01*
X200015881Y-52234125D01*
X200022257Y-52231737D01*
X200023494Y-52231560D01*
X200024581Y-52232392D01*
G37*
G36*
X204544728Y-69468986D02*
G01*
X204581850Y-69478967D01*
X204617948Y-69496397D01*
X204636111Y-69508362D01*
X204659389Y-69528932D01*
X204677591Y-69553073D01*
X204691536Y-69581956D01*
X204702042Y-69616753D01*
X204704142Y-69626025D01*
X204706518Y-69638978D01*
X204707964Y-69652008D01*
X204708598Y-69666981D01*
X204708537Y-69685763D01*
X204707896Y-69710220D01*
X204707865Y-69711185D01*
X204706635Y-69742246D01*
X204704976Y-69767996D01*
X204702609Y-69790619D01*
X204699252Y-69812296D01*
X204694626Y-69835210D01*
X204688449Y-69861544D01*
X204682368Y-69884586D01*
X204673794Y-69913879D01*
X204663718Y-69945966D01*
X204652640Y-69979406D01*
X204641061Y-70012761D01*
X204629482Y-70044590D01*
X204618403Y-70073454D01*
X204608327Y-70097913D01*
X204599752Y-70116526D01*
X204596204Y-70124088D01*
X204590288Y-70137888D01*
X204584523Y-70152413D01*
X204580513Y-70162369D01*
X204572892Y-70179373D01*
X204565528Y-70193965D01*
X204565112Y-70194724D01*
X204558282Y-70208190D01*
X204550447Y-70224993D01*
X204543221Y-70241679D01*
X204537194Y-70255100D01*
X204527979Y-70273753D01*
X204517305Y-70294045D01*
X204506462Y-70313452D01*
X204499052Y-70326265D01*
X204486716Y-70347640D01*
X204472740Y-70371894D01*
X204458338Y-70396921D01*
X204444721Y-70420616D01*
X204436458Y-70434995D01*
X204420498Y-70462709D01*
X204403621Y-70491960D01*
X204387383Y-70520049D01*
X204373341Y-70544279D01*
X204368015Y-70553458D01*
X204352596Y-70580067D01*
X204335936Y-70608861D01*
X204319715Y-70636934D01*
X204305613Y-70661382D01*
X204297219Y-70675904D01*
X204285881Y-70695372D01*
X204275698Y-70712694D01*
X204267536Y-70726400D01*
X204262262Y-70735019D01*
X204258785Y-70740690D01*
X204254003Y-70749355D01*
X204252127Y-70754112D01*
X204251122Y-70756972D01*
X204246980Y-70764827D01*
X204240725Y-70775205D01*
X204229322Y-70793185D01*
X204298807Y-70865660D01*
X204348554Y-70918203D01*
X204407920Y-70982974D01*
X204463376Y-71046075D01*
X204516200Y-71109004D01*
X204567675Y-71173259D01*
X204619079Y-71240337D01*
X204681510Y-71325886D01*
X204777070Y-71467084D01*
X204866171Y-71612017D01*
X204948705Y-71760455D01*
X205024565Y-71912164D01*
X205093645Y-72066913D01*
X205155837Y-72224470D01*
X205211034Y-72384605D01*
X205259128Y-72547085D01*
X205300012Y-72711678D01*
X205302364Y-72722181D01*
X205316077Y-72785729D01*
X205328197Y-72846470D01*
X205338950Y-72905884D01*
X205348563Y-72965452D01*
X205357262Y-73026654D01*
X205365275Y-73090969D01*
X205372827Y-73159879D01*
X205380147Y-73234864D01*
X205381818Y-73253090D01*
X205383798Y-73275650D01*
X205385448Y-73296295D01*
X205386801Y-73315972D01*
X205387888Y-73335628D01*
X205388739Y-73356209D01*
X205389387Y-73378664D01*
X205389863Y-73403938D01*
X205390198Y-73432979D01*
X205390424Y-73466735D01*
X205390573Y-73506151D01*
X205390675Y-73552175D01*
X205390685Y-73594727D01*
X205390490Y-73648051D01*
X205390064Y-73696751D01*
X205389418Y-73740242D01*
X205388560Y-73777938D01*
X205387500Y-73809252D01*
X205386246Y-73833600D01*
X205380405Y-73910075D01*
X205363134Y-74067434D01*
X205338871Y-74225609D01*
X205307824Y-74383839D01*
X205270197Y-74541363D01*
X205226198Y-74697421D01*
X205176033Y-74851251D01*
X205119909Y-75002093D01*
X205058031Y-75149186D01*
X204990607Y-75291768D01*
X204916653Y-75432110D01*
X204832084Y-75577336D01*
X204741229Y-75718981D01*
X204644386Y-75856660D01*
X204541849Y-75989990D01*
X204433917Y-76118585D01*
X204320885Y-76242060D01*
X204203050Y-76360031D01*
X204080708Y-76472114D01*
X204023579Y-76521180D01*
X203890748Y-76628236D01*
X203753798Y-76729145D01*
X203612966Y-76823793D01*
X203468486Y-76912067D01*
X203320596Y-76993853D01*
X203169532Y-77069036D01*
X203015530Y-77137502D01*
X202858825Y-77199138D01*
X202699655Y-77253830D01*
X202538254Y-77301463D01*
X202462865Y-77320131D01*
X202374860Y-77341924D01*
X202209708Y-77375099D01*
X202187277Y-77378867D01*
X202151112Y-77384339D01*
X202109629Y-77390076D01*
X202064109Y-77395936D01*
X202015827Y-77401779D01*
X201966065Y-77407464D01*
X201916099Y-77412850D01*
X201867209Y-77417796D01*
X201820673Y-77422162D01*
X201777769Y-77425807D01*
X201739776Y-77428589D01*
X201707972Y-77430369D01*
X201673753Y-77431591D01*
X201628829Y-77432584D01*
X201580247Y-77433105D01*
X201529252Y-77433174D01*
X201477090Y-77432809D01*
X201425007Y-77432031D01*
X201374246Y-77430858D01*
X201326054Y-77429311D01*
X201281676Y-77427407D01*
X201242356Y-77425168D01*
X201209340Y-77422611D01*
X201120851Y-77413788D01*
X201012634Y-77400895D01*
X200909346Y-77386051D01*
X200809602Y-77369035D01*
X200712015Y-77349624D01*
X200615200Y-77327598D01*
X200521441Y-77303629D01*
X200391012Y-77266048D01*
X200261147Y-77223833D01*
X200133503Y-77177562D01*
X200009735Y-77127811D01*
X199891501Y-77075160D01*
X199891430Y-77075127D01*
X199875256Y-77067825D01*
X199861516Y-77062155D01*
X199851661Y-77058678D01*
X199847142Y-77057958D01*
X199845321Y-77059171D01*
X199837572Y-77064684D01*
X199825531Y-77073458D01*
X199810380Y-77084615D01*
X199793302Y-77097276D01*
X199775479Y-77110564D01*
X199758095Y-77123600D01*
X199742332Y-77135506D01*
X199729373Y-77145404D01*
X199718423Y-77153718D01*
X199704480Y-77163962D01*
X199692979Y-77172028D01*
X199685666Y-77176667D01*
X199683330Y-77178010D01*
X199673743Y-77184096D01*
X199660954Y-77192704D01*
X199647073Y-77202426D01*
X199629026Y-77215157D01*
X199573735Y-77252369D01*
X199517014Y-77288086D01*
X199504805Y-77295575D01*
X199486447Y-77307053D01*
X199469529Y-77317858D01*
X199456574Y-77326389D01*
X199451562Y-77329701D01*
X199436279Y-77339303D01*
X199417229Y-77350828D01*
X199396405Y-77363106D01*
X199375804Y-77374970D01*
X199357421Y-77385251D01*
X199343249Y-77392780D01*
X199341487Y-77393674D01*
X199332211Y-77398406D01*
X199318294Y-77405528D01*
X199301305Y-77414237D01*
X199282809Y-77423731D01*
X199257000Y-77436698D01*
X199220416Y-77454321D01*
X199181545Y-77472328D01*
X199141880Y-77490066D01*
X199102915Y-77506880D01*
X199066145Y-77522117D01*
X199033062Y-77535123D01*
X199005161Y-77545244D01*
X198995416Y-77548549D01*
X198924552Y-77571283D01*
X198858610Y-77589947D01*
X198796462Y-77604755D01*
X198736975Y-77615924D01*
X198679022Y-77623670D01*
X198621471Y-77628209D01*
X198563192Y-77629757D01*
X198560760Y-77629743D01*
X198536486Y-77629608D01*
X198488403Y-77628003D01*
X198444574Y-77624443D01*
X198402919Y-77618673D01*
X198361359Y-77610435D01*
X198317813Y-77599473D01*
X198303741Y-77595550D01*
X198272966Y-77586325D01*
X198245974Y-77576999D01*
X198220775Y-77566718D01*
X198195378Y-77554632D01*
X198167794Y-77539888D01*
X198136032Y-77521634D01*
X198134739Y-77520873D01*
X198101977Y-77500857D01*
X198073077Y-77481462D01*
X198046694Y-77461538D01*
X198021484Y-77439936D01*
X197996102Y-77415506D01*
X197969203Y-77387099D01*
X197939444Y-77353565D01*
X197923727Y-77334754D01*
X197883399Y-77279736D01*
X197845949Y-77218573D01*
X197811740Y-77152013D01*
X197781135Y-77080803D01*
X197754497Y-77005691D01*
X197732191Y-76927424D01*
X197727628Y-76908939D01*
X197716269Y-76859082D01*
X197706530Y-76809701D01*
X197698224Y-76759461D01*
X197691163Y-76707026D01*
X197685161Y-76651059D01*
X197680030Y-76590225D01*
X197675583Y-76523189D01*
X197674994Y-76511699D01*
X197673985Y-76476170D01*
X197673985Y-76476129D01*
X197793804Y-76476129D01*
X197793812Y-76502631D01*
X197793983Y-76524730D01*
X197794331Y-76541376D01*
X197794869Y-76551520D01*
X197795572Y-76558890D01*
X197796909Y-76573207D01*
X197798551Y-76591008D01*
X197800290Y-76610039D01*
X197801858Y-76627239D01*
X197804061Y-76650986D01*
X197805890Y-76669697D01*
X197807526Y-76684931D01*
X197809154Y-76698247D01*
X197810956Y-76711205D01*
X197813115Y-76725365D01*
X197815815Y-76742285D01*
X197822292Y-76780638D01*
X197835304Y-76847426D01*
X197849761Y-76908605D01*
X197866034Y-76965409D01*
X197884493Y-77019073D01*
X197905507Y-77070834D01*
X197929447Y-77121925D01*
X197934155Y-77131186D01*
X197947972Y-77156799D01*
X197963007Y-77182807D01*
X197978359Y-77207771D01*
X197993124Y-77230253D01*
X198006401Y-77248813D01*
X198017287Y-77262012D01*
X198017308Y-77262034D01*
X198021586Y-77266923D01*
X198029058Y-77275726D01*
X198038118Y-77286553D01*
X198062130Y-77313715D01*
X198110157Y-77359411D01*
X198162834Y-77399359D01*
X198219880Y-77433453D01*
X198281011Y-77461589D01*
X198345947Y-77483663D01*
X198414405Y-77499569D01*
X198486104Y-77509202D01*
X198560760Y-77512459D01*
X198638092Y-77509235D01*
X198682799Y-77504170D01*
X198740486Y-77494363D01*
X198802167Y-77480726D01*
X198866681Y-77463572D01*
X198932866Y-77443213D01*
X198999560Y-77419962D01*
X199065602Y-77394132D01*
X199128165Y-77366891D01*
X199197764Y-77333493D01*
X199269900Y-77295707D01*
X199345177Y-77253204D01*
X199424200Y-77205655D01*
X199507571Y-77152729D01*
X199532789Y-77136122D01*
X199582807Y-77102121D01*
X199635834Y-77064861D01*
X199690279Y-77025514D01*
X199744550Y-76985254D01*
X199797055Y-76945253D01*
X199846201Y-76906684D01*
X199890397Y-76870720D01*
X199901241Y-76861712D01*
X199921227Y-76845160D01*
X199942039Y-76827970D01*
X199960603Y-76812684D01*
X199973776Y-76801744D01*
X199990700Y-76787406D01*
X200006123Y-76774058D01*
X200017855Y-76763577D01*
X200030103Y-76752427D01*
X200042399Y-76741429D01*
X200051852Y-76733170D01*
X200059473Y-76726559D01*
X200071597Y-76715821D01*
X200083786Y-76704839D01*
X200093078Y-76696412D01*
X200107292Y-76683605D01*
X200119672Y-76672537D01*
X200143839Y-76650797D01*
X200177895Y-76619474D01*
X200215173Y-76584554D01*
X200254789Y-76546903D01*
X200295860Y-76507386D01*
X200337502Y-76466869D01*
X200378832Y-76426216D01*
X200418965Y-76386293D01*
X200457020Y-76347966D01*
X200492111Y-76312099D01*
X200523356Y-76279558D01*
X200549871Y-76251208D01*
X200559800Y-76240436D01*
X200578995Y-76219764D01*
X200598518Y-76198905D01*
X200616564Y-76179784D01*
X200631329Y-76164325D01*
X200636029Y-76159405D01*
X200650373Y-76144047D01*
X200668217Y-76124593D01*
X200688779Y-76101923D01*
X200711280Y-76076916D01*
X200734938Y-76050454D01*
X200758972Y-76023415D01*
X200782602Y-75996680D01*
X200805046Y-75971129D01*
X200825524Y-75947641D01*
X200843255Y-75927097D01*
X200857458Y-75910376D01*
X200867352Y-75898358D01*
X200868666Y-75896737D01*
X200875812Y-75888204D01*
X200886377Y-75875824D01*
X200899161Y-75860997D01*
X200912962Y-75845125D01*
X200913053Y-75845022D01*
X200936607Y-75817606D01*
X200963566Y-75785459D01*
X200992837Y-75749906D01*
X201023327Y-75712277D01*
X201053941Y-75673899D01*
X201062924Y-75662634D01*
X201072334Y-75651048D01*
X201079218Y-75642822D01*
X201082509Y-75639251D01*
X201084217Y-75637671D01*
X201090723Y-75630405D01*
X201101037Y-75618126D01*
X201114643Y-75601488D01*
X201131029Y-75581143D01*
X201149682Y-75557743D01*
X201170088Y-75531941D01*
X201191733Y-75504389D01*
X201214105Y-75475739D01*
X201236690Y-75446644D01*
X201258974Y-75417757D01*
X201280444Y-75389729D01*
X201300586Y-75363214D01*
X201318888Y-75338863D01*
X201325866Y-75329566D01*
X201338180Y-75313303D01*
X201349452Y-75298562D01*
X201352930Y-75294004D01*
X201363151Y-75280388D01*
X201376793Y-75262017D01*
X201393177Y-75239813D01*
X201411622Y-75214703D01*
X201431450Y-75187610D01*
X201451979Y-75159460D01*
X201472531Y-75131175D01*
X201473145Y-75130329D01*
X201483770Y-75115796D01*
X201492795Y-75103650D01*
X201499283Y-75095139D01*
X201502298Y-75091512D01*
X201502694Y-75091122D01*
X201506236Y-75086589D01*
X201513107Y-75077057D01*
X201523487Y-75062271D01*
X201537551Y-75041978D01*
X201555477Y-75015923D01*
X201577441Y-74983852D01*
X201577776Y-74983363D01*
X201590349Y-74965129D01*
X201605410Y-74943506D01*
X201621095Y-74921157D01*
X201635542Y-74900747D01*
X201648594Y-74882402D01*
X201660162Y-74866094D01*
X201670258Y-74851770D01*
X201679697Y-74838252D01*
X201689291Y-74824360D01*
X201699854Y-74808918D01*
X201712200Y-74790746D01*
X201727143Y-74768666D01*
X201745496Y-74741501D01*
X201757055Y-74724349D01*
X201771621Y-74702630D01*
X201784708Y-74683002D01*
X201795625Y-74666504D01*
X201803681Y-74654178D01*
X201808186Y-74647063D01*
X201808648Y-74646299D01*
X201814516Y-74636996D01*
X201823367Y-74623361D01*
X201834083Y-74607107D01*
X201845544Y-74589945D01*
X201851381Y-74581244D01*
X201873323Y-74548234D01*
X201895219Y-74514856D01*
X201916221Y-74482426D01*
X201935479Y-74452263D01*
X201952143Y-74425683D01*
X201965366Y-74404004D01*
X201971868Y-74393251D01*
X201982272Y-74376504D01*
X201991783Y-74361695D01*
X201998944Y-74351119D01*
X202004315Y-74343155D01*
X202012995Y-74329641D01*
X202023860Y-74312319D01*
X202036042Y-74292573D01*
X202048671Y-74271791D01*
X202058572Y-74255451D01*
X202073268Y-74231439D01*
X202087884Y-74207800D01*
X202101158Y-74186574D01*
X202111827Y-74169798D01*
X202113133Y-74167770D01*
X202127509Y-74145072D01*
X202143507Y-74119235D01*
X202160663Y-74091057D01*
X202178513Y-74061339D01*
X202196594Y-74030877D01*
X202214442Y-74000470D01*
X202231593Y-73970918D01*
X202247583Y-73943019D01*
X202261949Y-73917571D01*
X202274227Y-73895373D01*
X202283953Y-73877223D01*
X202290663Y-73863921D01*
X202293894Y-73856265D01*
X202297940Y-73836273D01*
X202298020Y-73807382D01*
X202291935Y-73779181D01*
X202280277Y-73752900D01*
X202263637Y-73729768D01*
X202242605Y-73711015D01*
X202217773Y-73697872D01*
X202215839Y-73697162D01*
X202184098Y-73689357D01*
X202153328Y-73688881D01*
X202124117Y-73695529D01*
X202097047Y-73709095D01*
X202072706Y-73729374D01*
X202051677Y-73756161D01*
X202050890Y-73757403D01*
X202044951Y-73767183D01*
X202036986Y-73780744D01*
X202027723Y-73796797D01*
X202017889Y-73814052D01*
X202008212Y-73831220D01*
X201999419Y-73847012D01*
X201992237Y-73860139D01*
X201987395Y-73869311D01*
X201985619Y-73873240D01*
X201984288Y-73876224D01*
X201980016Y-73884082D01*
X201973824Y-73894818D01*
X201971974Y-73897978D01*
X201964771Y-73910495D01*
X201955287Y-73927171D01*
X201944542Y-73946208D01*
X201933554Y-73965813D01*
X201931660Y-73969195D01*
X201918999Y-73991457D01*
X201905424Y-74014830D01*
X201892447Y-74036733D01*
X201881579Y-74054584D01*
X201870613Y-74072579D01*
X201857414Y-74094837D01*
X201843896Y-74118118D01*
X201831725Y-74139578D01*
X201829288Y-74143946D01*
X201819036Y-74162309D01*
X201809580Y-74179237D01*
X201801882Y-74193010D01*
X201796903Y-74201907D01*
X201795226Y-74204836D01*
X201787399Y-74217514D01*
X201779967Y-74228350D01*
X201776460Y-74233414D01*
X201769125Y-74244873D01*
X201760120Y-74259575D01*
X201750659Y-74275569D01*
X201746069Y-74283434D01*
X201733403Y-74304907D01*
X201719949Y-74327461D01*
X201707940Y-74347341D01*
X201698713Y-74362482D01*
X201685728Y-74383794D01*
X201672103Y-74406161D01*
X201659613Y-74426669D01*
X201616713Y-74496026D01*
X201568282Y-74572103D01*
X201560319Y-74584455D01*
X201548098Y-74603440D01*
X201534945Y-74623899D01*
X201522604Y-74643120D01*
X201520944Y-74645702D01*
X201511708Y-74659950D01*
X201499718Y-74678312D01*
X201485663Y-74699744D01*
X201470234Y-74723203D01*
X201454118Y-74747645D01*
X201438006Y-74772028D01*
X201422586Y-74795307D01*
X201408549Y-74816440D01*
X201396583Y-74834382D01*
X201387378Y-74848091D01*
X201381622Y-74856523D01*
X201379503Y-74859610D01*
X201373015Y-74869216D01*
X201363772Y-74883004D01*
X201352675Y-74899630D01*
X201340625Y-74917746D01*
X201308731Y-74965442D01*
X201258326Y-75039289D01*
X201210997Y-75106622D01*
X201204399Y-75115886D01*
X201194602Y-75129753D01*
X201186665Y-75141122D01*
X201181863Y-75148174D01*
X201181226Y-75149133D01*
X201174163Y-75158952D01*
X201166065Y-75169298D01*
X201162564Y-75173766D01*
X201154405Y-75184803D01*
X201144339Y-75198900D01*
X201133790Y-75214083D01*
X201126634Y-75224469D01*
X201117727Y-75237202D01*
X201110905Y-75246722D01*
X201107246Y-75251510D01*
X201106329Y-75252637D01*
X201101374Y-75259279D01*
X201093322Y-75270397D01*
X201083057Y-75284767D01*
X201071461Y-75301163D01*
X201066714Y-75307893D01*
X201055549Y-75323597D01*
X201046066Y-75336765D01*
X201039148Y-75346178D01*
X201035677Y-75350617D01*
X201035301Y-75351025D01*
X201030142Y-75357206D01*
X201023510Y-75365727D01*
X201021964Y-75367773D01*
X201015247Y-75376636D01*
X201005430Y-75389568D01*
X200993576Y-75405170D01*
X200980747Y-75422044D01*
X200977024Y-75426940D01*
X200963278Y-75445046D01*
X200950081Y-75462466D01*
X200938776Y-75477426D01*
X200930705Y-75488150D01*
X200927689Y-75492138D01*
X200918076Y-75504623D01*
X200905594Y-75520637D01*
X200891522Y-75538542D01*
X200877142Y-75556698D01*
X200865090Y-75571857D01*
X200839681Y-75603864D01*
X200817793Y-75631523D01*
X200798571Y-75655915D01*
X200781164Y-75678121D01*
X200764719Y-75699222D01*
X200756388Y-75709893D01*
X200746403Y-75722547D01*
X200738629Y-75732241D01*
X200734268Y-75737466D01*
X200731886Y-75740235D01*
X200725089Y-75748449D01*
X200715683Y-75760011D01*
X200704948Y-75773353D01*
X200697709Y-75782345D01*
X200688406Y-75793727D01*
X200681568Y-75801881D01*
X200678308Y-75805462D01*
X200678144Y-75805605D01*
X200674386Y-75809741D01*
X200666945Y-75818392D01*
X200656817Y-75830388D01*
X200644996Y-75844564D01*
X200638413Y-75852487D01*
X200617702Y-75877244D01*
X200595301Y-75903811D01*
X200572027Y-75931235D01*
X200548694Y-75958566D01*
X200526119Y-75984851D01*
X200505119Y-76009141D01*
X200486509Y-76030482D01*
X200471106Y-76047925D01*
X200459726Y-76060517D01*
X200430636Y-76092268D01*
X200403663Y-76122313D01*
X200378287Y-76151276D01*
X200367954Y-76163074D01*
X200341422Y-76192457D01*
X200310247Y-76225963D01*
X200275082Y-76262932D01*
X200236581Y-76302708D01*
X200195396Y-76344631D01*
X200152181Y-76388043D01*
X200107590Y-76432286D01*
X200062276Y-76476702D01*
X200016892Y-76520633D01*
X199972091Y-76563420D01*
X199928527Y-76604406D01*
X199903432Y-76627566D01*
X199873680Y-76654533D01*
X199841969Y-76682856D01*
X199809365Y-76711605D01*
X199776939Y-76739849D01*
X199745760Y-76766658D01*
X199716895Y-76791101D01*
X199691413Y-76812248D01*
X199670384Y-76829168D01*
X199658547Y-76838516D01*
X199644837Y-76849436D01*
X199633880Y-76858255D01*
X199623910Y-76866159D01*
X199610148Y-76876761D01*
X199596342Y-76887150D01*
X199595860Y-76887508D01*
X199583710Y-76896583D01*
X199567686Y-76908633D01*
X199549814Y-76922130D01*
X199532124Y-76935546D01*
X199522530Y-76942794D01*
X199476211Y-76976723D01*
X199425343Y-77012471D01*
X199371752Y-77048815D01*
X199317267Y-77084532D01*
X199263716Y-77118398D01*
X199212925Y-77149191D01*
X199212471Y-77149459D01*
X199138190Y-77191244D01*
X199062927Y-77229532D01*
X198987524Y-77264001D01*
X198912822Y-77294331D01*
X198839665Y-77320203D01*
X198768894Y-77341296D01*
X198701351Y-77357289D01*
X198637879Y-77367863D01*
X198632464Y-77368512D01*
X198605829Y-77370908D01*
X198575829Y-77372574D01*
X198544635Y-77373469D01*
X198536029Y-77373493D01*
X198514421Y-77373552D01*
X198487358Y-77372782D01*
X198465620Y-77371117D01*
X198459954Y-77370364D01*
X198442788Y-77367467D01*
X198421916Y-77363373D01*
X198399568Y-77358575D01*
X198377976Y-77353560D01*
X198359371Y-77348820D01*
X198345985Y-77344844D01*
X198342431Y-77343615D01*
X198286250Y-77320270D01*
X198234088Y-77290868D01*
X198185801Y-77255274D01*
X198141244Y-77213353D01*
X198100274Y-77164970D01*
X198062746Y-77109992D01*
X198028517Y-77048283D01*
X198020803Y-77032453D01*
X197993716Y-76969235D01*
X197969496Y-76900100D01*
X197948455Y-76826010D01*
X197930906Y-76747929D01*
X197919690Y-76683255D01*
X197909245Y-76602302D01*
X197901731Y-76516835D01*
X197897212Y-76428202D01*
X197896308Y-76372087D01*
X198017099Y-76372087D01*
X198017104Y-76411020D01*
X198017420Y-76446570D01*
X198018067Y-76477460D01*
X198019064Y-76502413D01*
X198019259Y-76505900D01*
X198025577Y-76583102D01*
X198035558Y-76659214D01*
X198048966Y-76733216D01*
X198065561Y-76804086D01*
X198085107Y-76870804D01*
X198107365Y-76932347D01*
X198132097Y-76987695D01*
X198133808Y-76991110D01*
X198156345Y-77033040D01*
X198179157Y-77069392D01*
X198203449Y-77101942D01*
X198230427Y-77132465D01*
X198232226Y-77134342D01*
X198265198Y-77165489D01*
X198299247Y-77191108D01*
X198335931Y-77212095D01*
X198376805Y-77229348D01*
X198423424Y-77243764D01*
X198431616Y-77245885D01*
X198444132Y-77248737D01*
X198456288Y-77250778D01*
X198469667Y-77252151D01*
X198485852Y-77253000D01*
X198506427Y-77253469D01*
X198532972Y-77253701D01*
X198536029Y-77253715D01*
X198574472Y-77253324D01*
X198608186Y-77251633D01*
X198639516Y-77248326D01*
X198670803Y-77243090D01*
X198704391Y-77235610D01*
X198742624Y-77225572D01*
X198787974Y-77212165D01*
X198878117Y-77180491D01*
X198969727Y-77141774D01*
X199062446Y-77096172D01*
X199155914Y-77043843D01*
X199156698Y-77043378D01*
X199191731Y-77022335D01*
X199225637Y-77001526D01*
X199257322Y-76981644D01*
X199285695Y-76963381D01*
X199309665Y-76947432D01*
X199328139Y-76934488D01*
X199332561Y-76931312D01*
X199344760Y-76922767D01*
X199359788Y-76912424D01*
X199375358Y-76901864D01*
X199375593Y-76901706D01*
X199389986Y-76891804D01*
X199406322Y-76880234D01*
X199422970Y-76868189D01*
X199438297Y-76856862D01*
X199450672Y-76847445D01*
X199458463Y-76841130D01*
X199458865Y-76840494D01*
X199456392Y-76838033D01*
X199454093Y-76836741D01*
X199446098Y-76831727D01*
X199433376Y-76823519D01*
X199416838Y-76812711D01*
X199397395Y-76799895D01*
X199375959Y-76785664D01*
X199292751Y-76728657D01*
X199155903Y-76627655D01*
X199023897Y-76520918D01*
X198896880Y-76408602D01*
X198774998Y-76290866D01*
X198658399Y-76167866D01*
X198547228Y-76039759D01*
X198441631Y-75906704D01*
X198341757Y-75768858D01*
X198247750Y-75626377D01*
X198159758Y-75479419D01*
X198125743Y-75419691D01*
X198123327Y-75435978D01*
X198122995Y-75438106D01*
X198120696Y-75450879D01*
X198117424Y-75467304D01*
X198113773Y-75484373D01*
X198108101Y-75510993D01*
X198101099Y-75546105D01*
X198093411Y-75586687D01*
X198085239Y-75631696D01*
X198084242Y-75637267D01*
X198080193Y-75659590D01*
X198075748Y-75683730D01*
X198071703Y-75705357D01*
X198069824Y-75715663D01*
X198067114Y-75732098D01*
X198065251Y-75745499D01*
X198064559Y-75753680D01*
X198064559Y-75753772D01*
X198063813Y-75762848D01*
X198061898Y-75776373D01*
X198059222Y-75791455D01*
X198058199Y-75796940D01*
X198055186Y-75815324D01*
X198052177Y-75836348D01*
X198049692Y-75856458D01*
X198048945Y-75863099D01*
X198046409Y-75884682D01*
X198043729Y-75906410D01*
X198041371Y-75924453D01*
X198040468Y-75931431D01*
X198038213Y-75951263D01*
X198036009Y-75973439D01*
X198034226Y-75994337D01*
X198033543Y-76003073D01*
X198031830Y-76023914D01*
X198029722Y-76048621D01*
X198027424Y-76074813D01*
X198025141Y-76100108D01*
X198024159Y-76112191D01*
X198022526Y-76139021D01*
X198021068Y-76171413D01*
X198019806Y-76208090D01*
X198018759Y-76247774D01*
X198017946Y-76289186D01*
X198017386Y-76331050D01*
X198017099Y-76372087D01*
X197896308Y-76372087D01*
X197895755Y-76337749D01*
X197897424Y-76246823D01*
X197902285Y-76156770D01*
X197905923Y-76107746D01*
X197910053Y-76055083D01*
X197913943Y-76008979D01*
X197917644Y-75968895D01*
X197921201Y-75934289D01*
X197924664Y-75904621D01*
X197924804Y-75903503D01*
X197927279Y-75883427D01*
X197930012Y-75860834D01*
X197932435Y-75840404D01*
X197934211Y-75826019D01*
X197938382Y-75795630D01*
X197943626Y-75760520D01*
X197949745Y-75721799D01*
X197956543Y-75680574D01*
X197963822Y-75637955D01*
X197971386Y-75595050D01*
X197979039Y-75552969D01*
X197986583Y-75512819D01*
X197993821Y-75475710D01*
X198000557Y-75442750D01*
X198006593Y-75415048D01*
X198011734Y-75393713D01*
X198012816Y-75389356D01*
X198015656Y-75377393D01*
X198019548Y-75360632D01*
X198024126Y-75340655D01*
X198029025Y-75319042D01*
X198042877Y-75257593D01*
X198018922Y-75206661D01*
X198014774Y-75197916D01*
X198006655Y-75181248D01*
X197999847Y-75167866D01*
X197994965Y-75158962D01*
X197992625Y-75155729D01*
X197991823Y-75156358D01*
X197989208Y-75162063D01*
X197986339Y-75171784D01*
X197985420Y-75175457D01*
X197982442Y-75187141D01*
X197978062Y-75204175D01*
X197972607Y-75225295D01*
X197966404Y-75249232D01*
X197959778Y-75274721D01*
X197956241Y-75288325D01*
X197944742Y-75332861D01*
X197934778Y-75372107D01*
X197925989Y-75407624D01*
X197918015Y-75440972D01*
X197910495Y-75473713D01*
X197903068Y-75507406D01*
X197895374Y-75543613D01*
X197887052Y-75583893D01*
X197877743Y-75629807D01*
X197873648Y-75650550D01*
X197863573Y-75704978D01*
X197853544Y-75763622D01*
X197843800Y-75824828D01*
X197834583Y-75886943D01*
X197826131Y-75948315D01*
X197818686Y-76007290D01*
X197812487Y-76062216D01*
X197807774Y-76111440D01*
X197806368Y-76127594D01*
X197804081Y-76152749D01*
X197801734Y-76177516D01*
X197799660Y-76198323D01*
X197799509Y-76199906D01*
X197798678Y-76212698D01*
X197797867Y-76231585D01*
X197797090Y-76255518D01*
X197796361Y-76283445D01*
X197795696Y-76314319D01*
X197795107Y-76347088D01*
X197794609Y-76380704D01*
X197794216Y-76414116D01*
X197793943Y-76446274D01*
X197793804Y-76476129D01*
X197673985Y-76476129D01*
X197673771Y-76434891D01*
X197674301Y-76389138D01*
X197675525Y-76340191D01*
X197677389Y-76289327D01*
X197679844Y-76237824D01*
X197682838Y-76186962D01*
X197686320Y-76138019D01*
X197690238Y-76092272D01*
X197694541Y-76051000D01*
X197695344Y-76043935D01*
X197697583Y-76023276D01*
X197699943Y-76000447D01*
X197702030Y-75979227D01*
X197703105Y-75968575D01*
X197705295Y-75949597D01*
X197707558Y-75932727D01*
X197709547Y-75920676D01*
X197710878Y-75913438D01*
X197713429Y-75898049D01*
X197716293Y-75879459D01*
X197719067Y-75860235D01*
X197722973Y-75832475D01*
X197727308Y-75802871D01*
X197731490Y-75775879D01*
X197735927Y-75748799D01*
X197736400Y-75745965D01*
X197739145Y-75729128D01*
X197742302Y-75709319D01*
X197745277Y-75690247D01*
X197745627Y-75688012D01*
X197748666Y-75670338D01*
X197752787Y-75648296D01*
X197757494Y-75624478D01*
X197762290Y-75601476D01*
X197763726Y-75594789D01*
X197768163Y-75573993D01*
X197772180Y-75554965D01*
X197775386Y-75539578D01*
X197777385Y-75529703D01*
X197777478Y-75529226D01*
X197783454Y-75500288D01*
X197791244Y-75465186D01*
X197800574Y-75424994D01*
X197811172Y-75380788D01*
X197822765Y-75333642D01*
X197835080Y-75284634D01*
X197847845Y-75234836D01*
X197860785Y-75185325D01*
X197873629Y-75137176D01*
X197886104Y-75091463D01*
X197897937Y-75049263D01*
X197908854Y-75011650D01*
X197919656Y-74975229D01*
X197908874Y-74947432D01*
X197906541Y-74941340D01*
X197897752Y-74917432D01*
X197887391Y-74888105D01*
X197875920Y-74854747D01*
X197863798Y-74818747D01*
X197851485Y-74781490D01*
X197839441Y-74744365D01*
X197828125Y-74708759D01*
X197817998Y-74676059D01*
X197809518Y-74647654D01*
X197794571Y-74594868D01*
X197766971Y-74489213D01*
X197742399Y-74383704D01*
X197721307Y-74280342D01*
X197704147Y-74181131D01*
X197701447Y-74162953D01*
X197697361Y-74132951D01*
X197692952Y-74098186D01*
X197688349Y-74059884D01*
X197683684Y-74019271D01*
X197679090Y-73977570D01*
X197674697Y-73936008D01*
X197670638Y-73895810D01*
X197667042Y-73858201D01*
X197664043Y-73824406D01*
X197661771Y-73795650D01*
X197660359Y-73773159D01*
X197659898Y-73761393D01*
X197659355Y-73739649D01*
X197658916Y-73712269D01*
X197658587Y-73680359D01*
X197658377Y-73645023D01*
X197658295Y-73607366D01*
X197658349Y-73568493D01*
X197658546Y-73529510D01*
X197658704Y-73508062D01*
X197659060Y-73467429D01*
X197659486Y-73432613D01*
X197660031Y-73402432D01*
X197660743Y-73375704D01*
X197661672Y-73351246D01*
X197662866Y-73327877D01*
X197664374Y-73304414D01*
X197666244Y-73279676D01*
X197668527Y-73252479D01*
X197671270Y-73221642D01*
X197672219Y-73211259D01*
X197675531Y-73176481D01*
X197679086Y-73141022D01*
X197682709Y-73106524D01*
X197686225Y-73074628D01*
X197689459Y-73046976D01*
X197692235Y-73025212D01*
X197695127Y-73004486D01*
X197717413Y-72868166D01*
X197745532Y-72729633D01*
X197779056Y-72590549D01*
X197817558Y-72452575D01*
X197860611Y-72317373D01*
X197906048Y-72191426D01*
X202299137Y-72191426D01*
X202301654Y-72194159D01*
X202302200Y-72194084D01*
X202308269Y-72191471D01*
X202318244Y-72185979D01*
X202330168Y-72178782D01*
X202342085Y-72171053D01*
X202352038Y-72163964D01*
X202355477Y-72161443D01*
X202367693Y-72153397D01*
X202382835Y-72144269D01*
X202399045Y-72135091D01*
X202414468Y-72126895D01*
X202427245Y-72120714D01*
X202435519Y-72117578D01*
X202435722Y-72117529D01*
X202443014Y-72115380D01*
X202455622Y-72111305D01*
X202471829Y-72105871D01*
X202489917Y-72099643D01*
X202508633Y-72093531D01*
X202526789Y-72088351D01*
X202542017Y-72084753D01*
X202552246Y-72083279D01*
X202557250Y-72083158D01*
X202565381Y-72083775D01*
X202569041Y-72086625D01*
X202570416Y-72092859D01*
X202570479Y-72093448D01*
X202569157Y-72105794D01*
X202562405Y-72118462D01*
X202549667Y-72132213D01*
X202530391Y-72147807D01*
X202522116Y-72154004D01*
X202499475Y-72172036D01*
X202480915Y-72188522D01*
X202467249Y-72202706D01*
X202459291Y-72213831D01*
X202455265Y-72220282D01*
X202447180Y-72231157D01*
X202437644Y-72242578D01*
X202436080Y-72244367D01*
X202425705Y-72257548D01*
X202415754Y-72272165D01*
X202406889Y-72286954D01*
X202399774Y-72300653D01*
X202395074Y-72312001D01*
X202393451Y-72319736D01*
X202395570Y-72322594D01*
X202396449Y-72322219D01*
X202402176Y-72318507D01*
X202411786Y-72311672D01*
X202423784Y-72302762D01*
X202425951Y-72301139D01*
X202445830Y-72287478D01*
X202468813Y-72273892D01*
X202496272Y-72259617D01*
X202529581Y-72243889D01*
X202542450Y-72238012D01*
X202561636Y-72229212D01*
X202579014Y-72221204D01*
X202589489Y-72216832D01*
X202607432Y-72210343D01*
X202627927Y-72203715D01*
X202648280Y-72197855D01*
X202655824Y-72195898D01*
X202684473Y-72189886D01*
X202709541Y-72187488D01*
X202733441Y-72188601D01*
X202758587Y-72193120D01*
X202765451Y-72195286D01*
X202781458Y-72205595D01*
X202794299Y-72222049D01*
X202803289Y-72243868D01*
X202803817Y-72245808D01*
X202807022Y-72269885D01*
X202803543Y-72293068D01*
X202793176Y-72315815D01*
X202775718Y-72338584D01*
X202750967Y-72361832D01*
X202731214Y-72377277D01*
X202707781Y-72393437D01*
X202681016Y-72409775D01*
X202649959Y-72426844D01*
X202613651Y-72445195D01*
X202571134Y-72465381D01*
X202566115Y-72467492D01*
X202553498Y-72472015D01*
X202537425Y-72477179D01*
X202519417Y-72482560D01*
X202500995Y-72487738D01*
X202483679Y-72492290D01*
X202468993Y-72495795D01*
X202458456Y-72497831D01*
X202453590Y-72497976D01*
X202452158Y-72497613D01*
X202444781Y-72498132D01*
X202434286Y-72500380D01*
X202418145Y-72504739D01*
X202433583Y-72518492D01*
X202445369Y-72529963D01*
X202453122Y-72541060D01*
X202456847Y-72553325D01*
X202457809Y-72569410D01*
X202457807Y-72570856D01*
X202457617Y-72578458D01*
X202456739Y-72585221D01*
X202454650Y-72592370D01*
X202450828Y-72601131D01*
X202444751Y-72612731D01*
X202435895Y-72628395D01*
X202423739Y-72649349D01*
X202422635Y-72651210D01*
X202415655Y-72661584D01*
X202406300Y-72673225D01*
X202393493Y-72687400D01*
X202376158Y-72705376D01*
X202370652Y-72711287D01*
X202362194Y-72722359D01*
X202358245Y-72730711D01*
X202358869Y-72735555D01*
X202364127Y-72736106D01*
X202374082Y-72731576D01*
X202375092Y-72730973D01*
X202383574Y-72725889D01*
X202396619Y-72718045D01*
X202412642Y-72708395D01*
X202430055Y-72697895D01*
X202443796Y-72689692D01*
X202473200Y-72672969D01*
X202497547Y-72660598D01*
X202517486Y-72652384D01*
X202533664Y-72648133D01*
X202546731Y-72647652D01*
X202557337Y-72650746D01*
X202566129Y-72657222D01*
X202571428Y-72663183D01*
X202574052Y-72669104D01*
X202574542Y-72677489D01*
X202573445Y-72690848D01*
X202572063Y-72702152D01*
X202569823Y-72715876D01*
X202567602Y-72725473D01*
X202564913Y-72734713D01*
X202562060Y-72746106D01*
X202559821Y-72751615D01*
X202553315Y-72761833D01*
X202544515Y-72772548D01*
X202538371Y-72779158D01*
X202525346Y-72793167D01*
X202513304Y-72806116D01*
X202511201Y-72808331D01*
X202499607Y-72819721D01*
X202485351Y-72832836D01*
X202471041Y-72845261D01*
X202464909Y-72850401D01*
X202444073Y-72868014D01*
X202428375Y-72881599D01*
X202417212Y-72891716D01*
X202409984Y-72898926D01*
X202406088Y-72903789D01*
X202404923Y-72906867D01*
X202406204Y-72909511D01*
X202412093Y-72911648D01*
X202419895Y-72911121D01*
X202426394Y-72907792D01*
X202426734Y-72907499D01*
X202432999Y-72904428D01*
X202444163Y-72900489D01*
X202458059Y-72896460D01*
X202477879Y-72891911D01*
X202499744Y-72889289D01*
X202515792Y-72890938D01*
X202526338Y-72896968D01*
X202531694Y-72907491D01*
X202532176Y-72922616D01*
X202531803Y-72925940D01*
X202526169Y-72957099D01*
X202517400Y-72983659D01*
X202517167Y-72984200D01*
X202511090Y-72999144D01*
X202504505Y-73017150D01*
X202496641Y-73040322D01*
X202493800Y-73048138D01*
X202487487Y-73063352D01*
X202480616Y-73078097D01*
X202480422Y-73078487D01*
X202473841Y-73093138D01*
X202468254Y-73108151D01*
X202464201Y-73121719D01*
X202462224Y-73132037D01*
X202462865Y-73137298D01*
X202463379Y-73137246D01*
X202468141Y-73133765D01*
X202477091Y-73125858D01*
X202489421Y-73114279D01*
X202504324Y-73099780D01*
X202520993Y-73083114D01*
X202541358Y-73062896D01*
X202566728Y-73039206D01*
X202588139Y-73021294D01*
X202605876Y-73008967D01*
X202620227Y-73002032D01*
X202631481Y-73000298D01*
X202639924Y-73003572D01*
X202644792Y-73008999D01*
X202650766Y-73022959D01*
X202653577Y-73041445D01*
X202653052Y-73062910D01*
X202649021Y-73085803D01*
X202645952Y-73098396D01*
X202642016Y-73117533D01*
X202640758Y-73129699D01*
X202642185Y-73134958D01*
X202646303Y-73133374D01*
X202653119Y-73125013D01*
X202663029Y-73111775D01*
X202677035Y-73095259D01*
X202691562Y-73080018D01*
X202705016Y-73067706D01*
X202715802Y-73059978D01*
X202722704Y-73056836D01*
X202739304Y-73053392D01*
X202755201Y-73054974D01*
X202767862Y-73061509D01*
X202769838Y-73063158D01*
X202777184Y-73066835D01*
X202780997Y-73063881D01*
X202780919Y-73054487D01*
X202777361Y-73020180D01*
X202779569Y-72984893D01*
X202788488Y-72951156D01*
X202804361Y-72917553D01*
X202807100Y-72912836D01*
X202817898Y-72896248D01*
X202828268Y-72884323D01*
X202839885Y-72875056D01*
X202846974Y-72870640D01*
X202862166Y-72864069D01*
X202875865Y-72862791D01*
X202888273Y-72867088D01*
X202899590Y-72877244D01*
X202910016Y-72893542D01*
X202919752Y-72916263D01*
X202928999Y-72945690D01*
X202937956Y-72982107D01*
X202946825Y-73025795D01*
X202950613Y-73044901D01*
X202955753Y-73066740D01*
X202960372Y-73081131D01*
X202964460Y-73088056D01*
X202968003Y-73087499D01*
X202970990Y-73079443D01*
X202973410Y-73063872D01*
X202975612Y-73045241D01*
X202979048Y-73019898D01*
X202982725Y-72996265D01*
X202986397Y-72975793D01*
X202989817Y-72959936D01*
X202992737Y-72950144D01*
X202993082Y-72949292D01*
X202996566Y-72938336D01*
X202998007Y-72929368D01*
X202998776Y-72924119D01*
X203003915Y-72912052D01*
X203012287Y-72900050D01*
X203022009Y-72891115D01*
X203028543Y-72887545D01*
X203034823Y-72887311D01*
X203043910Y-72890834D01*
X203044716Y-72891207D01*
X203055208Y-72896553D01*
X203063263Y-72901422D01*
X203069536Y-72903960D01*
X203073231Y-72900348D01*
X203074246Y-72890164D01*
X203072673Y-72873129D01*
X203069463Y-72849792D01*
X203066423Y-72827461D01*
X203063913Y-72808613D01*
X203061647Y-72791084D01*
X203059343Y-72772715D01*
X203056717Y-72751342D01*
X203054604Y-72730587D01*
X203052600Y-72702927D01*
X203051245Y-72674620D01*
X203050755Y-72649349D01*
X203050768Y-72643682D01*
X203051039Y-72623986D01*
X203051839Y-72606919D01*
X203053392Y-72590481D01*
X203055925Y-72572672D01*
X203059665Y-72551493D01*
X203064839Y-72524942D01*
X203066485Y-72519915D01*
X203071533Y-72508665D01*
X203078927Y-72494239D01*
X203087728Y-72478541D01*
X203088370Y-72477447D01*
X203102108Y-72456189D01*
X203114708Y-72441797D01*
X203127117Y-72433905D01*
X203140281Y-72432145D01*
X203155145Y-72436150D01*
X203172656Y-72445551D01*
X203189633Y-72458803D01*
X203206344Y-72477732D01*
X203222550Y-72502521D01*
X203238615Y-72533728D01*
X203254901Y-72571910D01*
X203261302Y-72590415D01*
X203269881Y-72626375D01*
X203275002Y-72664967D01*
X203276517Y-72703938D01*
X203274278Y-72741035D01*
X203268138Y-72774007D01*
X203267615Y-72779025D01*
X203269718Y-72787116D01*
X203271240Y-72788735D01*
X203274982Y-72788665D01*
X203281139Y-72784262D01*
X203290945Y-72774810D01*
X203296665Y-72769195D01*
X203309443Y-72758748D01*
X203319654Y-72754419D01*
X203328273Y-72755957D01*
X203336274Y-72763110D01*
X203337641Y-72764877D01*
X203346522Y-72782682D01*
X203350379Y-72804284D01*
X203348830Y-72827715D01*
X203347957Y-72833110D01*
X203347107Y-72845884D01*
X203348560Y-72853764D01*
X203350678Y-72856798D01*
X203354023Y-72856887D01*
X203359767Y-72851507D01*
X203365481Y-72843501D01*
X203369890Y-72833130D01*
X203372163Y-72825996D01*
X203376960Y-72813870D01*
X203382949Y-72800450D01*
X203389886Y-72784290D01*
X203396841Y-72761287D01*
X203400550Y-72736480D01*
X203401556Y-72707150D01*
X203401573Y-72702026D01*
X203402970Y-72677215D01*
X203406361Y-72656058D01*
X203411477Y-72639824D01*
X203418047Y-72629783D01*
X203422183Y-72627081D01*
X203431758Y-72626840D01*
X203442309Y-72633551D01*
X203453295Y-72646952D01*
X203459339Y-72657566D01*
X203465418Y-72673051D01*
X203470295Y-72692392D01*
X203474267Y-72716819D01*
X203477633Y-72747564D01*
X203479088Y-72763119D01*
X203481181Y-72783864D01*
X203483003Y-72798729D01*
X203484752Y-72808748D01*
X203486626Y-72814957D01*
X203488826Y-72818391D01*
X203491548Y-72820086D01*
X203496991Y-72819982D01*
X203502075Y-72814352D01*
X203504122Y-72804197D01*
X203504748Y-72800392D01*
X203508191Y-72790442D01*
X203513624Y-72778872D01*
X203516990Y-72772101D01*
X203521361Y-72761440D01*
X203523075Y-72754348D01*
X203524612Y-72748140D01*
X203528933Y-72737456D01*
X203535062Y-72724899D01*
X203540852Y-72713080D01*
X203546593Y-72699396D01*
X203549913Y-72689013D01*
X203550202Y-72687696D01*
X203553314Y-72674343D01*
X203556724Y-72660682D01*
X203558889Y-72650651D01*
X203560220Y-72623342D01*
X203554746Y-72597883D01*
X203547192Y-72577572D01*
X203527711Y-72526640D01*
X203508483Y-72478354D01*
X203490421Y-72435024D01*
X203486734Y-72425640D01*
X203482725Y-72409219D01*
X203482269Y-72391583D01*
X203483403Y-72369813D01*
X203501989Y-72370794D01*
X203507416Y-72371308D01*
X203520832Y-72374172D01*
X203531050Y-72378406D01*
X203534713Y-72380956D01*
X203548747Y-72394144D01*
X203563675Y-72412699D01*
X203578508Y-72435162D01*
X203592255Y-72460073D01*
X203603929Y-72485972D01*
X203607878Y-72493710D01*
X203613641Y-72499318D01*
X203618717Y-72498751D01*
X203621928Y-72491638D01*
X203622418Y-72486448D01*
X203622622Y-72473495D01*
X203622276Y-72455771D01*
X203621469Y-72434924D01*
X203620292Y-72412599D01*
X203618835Y-72390446D01*
X203617189Y-72370110D01*
X203615445Y-72353240D01*
X203613691Y-72341482D01*
X203612578Y-72336042D01*
X203599737Y-72286874D01*
X203582456Y-72241842D01*
X203560216Y-72200209D01*
X203532499Y-72161235D01*
X203498787Y-72124182D01*
X203458562Y-72088311D01*
X203445628Y-72078615D01*
X203411305Y-72052883D01*
X203402772Y-72047252D01*
X203387485Y-72037673D01*
X203366957Y-72025128D01*
X203341890Y-72010029D01*
X203312990Y-71992793D01*
X203280959Y-71973832D01*
X203246502Y-71953559D01*
X203210322Y-71932391D01*
X203173123Y-71910739D01*
X203135609Y-71889018D01*
X203098483Y-71867642D01*
X203062450Y-71847025D01*
X203028213Y-71827580D01*
X203025458Y-71826021D01*
X203009220Y-71816786D01*
X202990662Y-71806182D01*
X202973280Y-71796206D01*
X202936399Y-71777945D01*
X202892015Y-71762240D01*
X202846287Y-71751986D01*
X202801562Y-71747844D01*
X202782006Y-71748041D01*
X202749788Y-71750195D01*
X202714729Y-71754277D01*
X202678561Y-71759971D01*
X202643017Y-71766960D01*
X202609830Y-71774926D01*
X202580733Y-71783552D01*
X202557457Y-71792522D01*
X202547323Y-71797388D01*
X202529675Y-71806710D01*
X202511877Y-71816957D01*
X202495666Y-71827074D01*
X202482780Y-71836003D01*
X202474953Y-71842689D01*
X202470757Y-71847565D01*
X202470404Y-71850013D01*
X202475399Y-71850405D01*
X202475972Y-71850388D01*
X202483898Y-71849246D01*
X202496360Y-71846666D01*
X202510927Y-71843144D01*
X202532648Y-71838025D01*
X202573565Y-71831238D01*
X202610976Y-71828918D01*
X202643670Y-71831176D01*
X202657695Y-71833725D01*
X202678039Y-71839168D01*
X202693896Y-71845717D01*
X202704506Y-71852934D01*
X202709108Y-71860381D01*
X202706944Y-71867622D01*
X202703024Y-71871672D01*
X202688197Y-71882205D01*
X202666243Y-71893430D01*
X202637434Y-71905241D01*
X202602039Y-71917533D01*
X202560332Y-71930200D01*
X202512583Y-71943138D01*
X202505561Y-71945035D01*
X202466975Y-71958294D01*
X202427686Y-71976113D01*
X202390758Y-71997135D01*
X202382417Y-72002901D01*
X202373731Y-72010747D01*
X202370825Y-72016450D01*
X202373912Y-72019394D01*
X202383203Y-72018966D01*
X202405864Y-72015269D01*
X202423899Y-72013696D01*
X202435857Y-72014611D01*
X202442285Y-72018006D01*
X202443784Y-72020073D01*
X202445838Y-72028429D01*
X202441996Y-72038160D01*
X202431925Y-72049835D01*
X202415289Y-72064024D01*
X202402322Y-72074421D01*
X202382774Y-72091089D01*
X202364775Y-72107559D01*
X202349449Y-72122749D01*
X202337920Y-72135574D01*
X202331313Y-72144952D01*
X202330770Y-72145974D01*
X202325817Y-72153359D01*
X202321857Y-72156384D01*
X202320454Y-72156967D01*
X202315224Y-72161989D01*
X202308733Y-72170482D01*
X202307000Y-72173103D01*
X202301036Y-72184014D01*
X202299137Y-72191426D01*
X197906048Y-72191426D01*
X197907788Y-72186604D01*
X197923324Y-72146721D01*
X197988269Y-71992073D01*
X198059109Y-71841752D01*
X198136227Y-71695018D01*
X198220008Y-71551131D01*
X198271257Y-71471131D01*
X202907576Y-71471131D01*
X202911147Y-71485892D01*
X202919920Y-71504763D01*
X202922234Y-71509027D01*
X202931037Y-71525518D01*
X202943222Y-71548639D01*
X202958750Y-71578313D01*
X202977582Y-71614466D01*
X202999679Y-71657025D01*
X203025002Y-71705915D01*
X203033440Y-71721989D01*
X203043536Y-71740618D01*
X203052434Y-71756392D01*
X203059399Y-71768014D01*
X203063696Y-71774188D01*
X203066404Y-71776716D01*
X203075771Y-71783711D01*
X203088865Y-71792288D01*
X203103738Y-71801136D01*
X203104416Y-71801519D01*
X203115523Y-71807873D01*
X203132121Y-71817447D01*
X203153261Y-71829689D01*
X203177997Y-71844050D01*
X203205382Y-71859981D01*
X203234468Y-71876932D01*
X203264308Y-71894351D01*
X203392743Y-71969397D01*
X203445628Y-71969397D01*
X203449105Y-71969387D01*
X203468173Y-71969126D01*
X203492934Y-71968547D01*
X203521886Y-71967698D01*
X203553527Y-71966625D01*
X203586356Y-71965376D01*
X203618870Y-71963995D01*
X203645383Y-71962775D01*
X203674730Y-71961303D01*
X203697834Y-71959952D01*
X203715446Y-71958654D01*
X203728313Y-71957343D01*
X203737184Y-71955952D01*
X203742809Y-71954414D01*
X203745936Y-71952663D01*
X203749208Y-71948568D01*
X203755999Y-71938741D01*
X203765562Y-71924221D01*
X203777300Y-71905931D01*
X203790614Y-71884796D01*
X203804905Y-71861738D01*
X203819906Y-71837252D01*
X203832470Y-71816433D01*
X203841869Y-71800318D01*
X203848548Y-71788033D01*
X203852953Y-71778706D01*
X203855530Y-71771464D01*
X203856724Y-71765435D01*
X203856981Y-71759745D01*
X203856855Y-71756527D01*
X203855971Y-71744806D01*
X203854360Y-71727547D01*
X203852157Y-71706082D01*
X203849496Y-71681743D01*
X203846511Y-71655863D01*
X203846136Y-71652691D01*
X203842560Y-71622352D01*
X203838769Y-71590015D01*
X203835040Y-71558054D01*
X203831651Y-71528845D01*
X203828879Y-71504763D01*
X203826513Y-71484091D01*
X203823140Y-71454642D01*
X203819464Y-71422579D01*
X203815793Y-71390567D01*
X203812431Y-71361272D01*
X203811743Y-71355263D01*
X203808918Y-71330017D01*
X203806977Y-71310963D01*
X203805881Y-71297016D01*
X203805590Y-71287092D01*
X203806065Y-71280106D01*
X203807267Y-71274974D01*
X203809157Y-71270611D01*
X203810106Y-71268839D01*
X203814945Y-71260184D01*
X203823309Y-71245460D01*
X203835013Y-71224995D01*
X203849867Y-71199113D01*
X203867684Y-71168140D01*
X203888277Y-71132402D01*
X203911457Y-71092225D01*
X203937037Y-71047934D01*
X203964829Y-70999854D01*
X203994646Y-70948312D01*
X204026299Y-70893633D01*
X204059602Y-70836143D01*
X204068546Y-70820703D01*
X204090426Y-70782901D01*
X204114234Y-70741738D01*
X204138824Y-70699191D01*
X204163053Y-70657242D01*
X204185777Y-70617868D01*
X204205852Y-70583049D01*
X204215016Y-70567152D01*
X204235496Y-70531655D01*
X204257257Y-70493979D01*
X204279287Y-70455870D01*
X204300579Y-70419073D01*
X204320123Y-70385334D01*
X204336908Y-70356398D01*
X204340354Y-70350454D01*
X204356153Y-70322910D01*
X204371524Y-70295687D01*
X204385783Y-70270022D01*
X204398247Y-70247151D01*
X204408236Y-70228312D01*
X204415065Y-70214742D01*
X204420096Y-70204258D01*
X204431147Y-70181494D01*
X204442586Y-70158209D01*
X204452609Y-70138081D01*
X204458713Y-70125609D01*
X204465185Y-70111470D01*
X204469594Y-70100703D01*
X204471223Y-70094971D01*
X204471774Y-70092003D01*
X204475264Y-70083116D01*
X204480905Y-70072339D01*
X204483987Y-70066743D01*
X204491392Y-70051292D01*
X204497503Y-70036121D01*
X204498104Y-70034423D01*
X204503257Y-70020386D01*
X204509787Y-70003201D01*
X204516429Y-69986202D01*
X204517939Y-69982374D01*
X204523924Y-69966624D01*
X204528966Y-69952531D01*
X204532101Y-69942761D01*
X204536144Y-69929594D01*
X204540780Y-69916318D01*
X204542563Y-69911540D01*
X204554002Y-69876953D01*
X204564240Y-69839384D01*
X204572877Y-69800797D01*
X204579512Y-69763158D01*
X204583745Y-69728431D01*
X204585175Y-69698582D01*
X204583830Y-69668115D01*
X204579819Y-69643791D01*
X204572822Y-69624922D01*
X204562518Y-69610644D01*
X204548585Y-69600091D01*
X204532034Y-69593642D01*
X204510431Y-69592212D01*
X204485991Y-69597309D01*
X204458487Y-69608985D01*
X204427688Y-69627292D01*
X204420393Y-69632284D01*
X204392086Y-69653768D01*
X204361330Y-69679957D01*
X204329448Y-69709589D01*
X204297758Y-69741400D01*
X204267583Y-69774129D01*
X204240243Y-69806512D01*
X204233146Y-69815369D01*
X204213447Y-69840025D01*
X204197234Y-69860495D01*
X204183543Y-69878061D01*
X204171407Y-69894002D01*
X204159861Y-69909599D01*
X204147940Y-69926131D01*
X204134678Y-69944879D01*
X204119109Y-69967123D01*
X204116835Y-69970382D01*
X204109596Y-69980784D01*
X204102669Y-69990813D01*
X204095883Y-70000757D01*
X204089069Y-70010905D01*
X204082056Y-70021545D01*
X204074674Y-70032965D01*
X204066752Y-70045453D01*
X204058119Y-70059297D01*
X204048606Y-70074786D01*
X204038042Y-70092207D01*
X204026257Y-70111849D01*
X204013079Y-70134000D01*
X203998339Y-70158948D01*
X203981867Y-70186980D01*
X203963492Y-70218386D01*
X203943043Y-70253454D01*
X203920350Y-70292471D01*
X203895243Y-70335726D01*
X203867551Y-70383506D01*
X203837104Y-70436101D01*
X203803732Y-70493798D01*
X203767264Y-70556885D01*
X203727529Y-70625650D01*
X203684358Y-70700382D01*
X203637580Y-70781369D01*
X203635795Y-70784458D01*
X203613907Y-70822357D01*
X203592510Y-70859412D01*
X203572014Y-70894909D01*
X203552832Y-70928136D01*
X203535374Y-70958383D01*
X203520050Y-70984936D01*
X203507273Y-71007083D01*
X203497453Y-71024113D01*
X203491002Y-71035313D01*
X203488760Y-71039193D01*
X203479214Y-71055376D01*
X203470893Y-71068961D01*
X203464625Y-71078619D01*
X203461238Y-71083024D01*
X203459281Y-71084178D01*
X203454865Y-71086362D01*
X203447629Y-71089725D01*
X203437200Y-71094431D01*
X203423202Y-71100644D01*
X203405260Y-71108528D01*
X203383000Y-71118246D01*
X203356047Y-71129961D01*
X203324026Y-71143839D01*
X203286561Y-71160041D01*
X203243279Y-71178733D01*
X203193804Y-71200077D01*
X203137761Y-71224237D01*
X203111220Y-71235630D01*
X203083227Y-71247621D01*
X203060708Y-71257440D01*
X203042888Y-71265639D01*
X203028993Y-71272769D01*
X203018247Y-71279383D01*
X203009877Y-71286033D01*
X203003107Y-71293271D01*
X202997162Y-71301649D01*
X202991269Y-71311720D01*
X202984652Y-71324036D01*
X202976536Y-71339148D01*
X202970943Y-71349397D01*
X202959023Y-71371313D01*
X202947478Y-71392630D01*
X202937393Y-71411340D01*
X202929856Y-71425435D01*
X202926470Y-71431757D01*
X202919335Y-71444721D01*
X202913705Y-71454463D01*
X202910573Y-71459244D01*
X202909312Y-71460985D01*
X202907576Y-71471131D01*
X198271257Y-71471131D01*
X198310836Y-71409349D01*
X198348368Y-71354352D01*
X198449037Y-71216025D01*
X198555232Y-71082849D01*
X198666966Y-70954810D01*
X198784249Y-70831896D01*
X198907095Y-70714093D01*
X199035514Y-70601390D01*
X199169520Y-70493772D01*
X199180803Y-70485139D01*
X199318822Y-70384640D01*
X199460639Y-70290642D01*
X199606076Y-70203220D01*
X199754958Y-70122452D01*
X199907108Y-70048413D01*
X200062352Y-69981181D01*
X200220513Y-69920832D01*
X200381415Y-69867442D01*
X200544882Y-69821089D01*
X200710738Y-69781848D01*
X200878808Y-69749797D01*
X200889238Y-69748082D01*
X200926412Y-69742448D01*
X200968854Y-69736608D01*
X201015152Y-69730718D01*
X201063889Y-69724930D01*
X201113652Y-69719399D01*
X201163025Y-69714278D01*
X201210594Y-69709720D01*
X201254945Y-69705879D01*
X201294663Y-69702910D01*
X201328332Y-69700965D01*
X201363252Y-69699667D01*
X201405373Y-69698642D01*
X201451656Y-69697955D01*
X201500429Y-69697605D01*
X201550018Y-69697592D01*
X201598750Y-69697917D01*
X201644954Y-69698580D01*
X201686955Y-69699581D01*
X201723082Y-69700921D01*
X201741823Y-69701936D01*
X201777138Y-69704393D01*
X201817650Y-69707737D01*
X201861956Y-69711816D01*
X201908655Y-69716478D01*
X201956345Y-69721572D01*
X202003624Y-69726946D01*
X202049092Y-69732450D01*
X202091347Y-69737930D01*
X202128987Y-69743236D01*
X202160611Y-69748217D01*
X202243580Y-69763142D01*
X202404741Y-69797183D01*
X202563429Y-69837404D01*
X202718933Y-69883600D01*
X202870541Y-69935569D01*
X203017541Y-69993107D01*
X203112213Y-70034180D01*
X203258171Y-70103725D01*
X203402293Y-70179948D01*
X203543591Y-70262317D01*
X203681078Y-70350300D01*
X203725494Y-70380057D01*
X203752783Y-70332341D01*
X203765568Y-70309995D01*
X203789525Y-70268198D01*
X203810763Y-70231262D01*
X203829952Y-70198029D01*
X203847760Y-70167341D01*
X203864857Y-70138042D01*
X203881913Y-70108971D01*
X203894478Y-70087549D01*
X203907962Y-70064439D01*
X203920601Y-70042666D01*
X203931395Y-70023950D01*
X203939345Y-70010016D01*
X203944268Y-70001507D01*
X203956307Y-69981703D01*
X203969631Y-69960768D01*
X203982150Y-69942020D01*
X203988178Y-69933257D01*
X204001954Y-69913085D01*
X204015915Y-69892483D01*
X204027811Y-69874766D01*
X204033230Y-69866731D01*
X204043757Y-69851583D01*
X204053271Y-69838428D01*
X204060222Y-69829435D01*
X204074925Y-69811184D01*
X204091992Y-69789025D01*
X204109543Y-69765400D01*
X204110845Y-69763650D01*
X204119749Y-69752512D01*
X204132634Y-69737213D01*
X204148513Y-69718854D01*
X204166397Y-69698536D01*
X204185299Y-69677360D01*
X204204233Y-69656425D01*
X204222209Y-69636833D01*
X204238242Y-69619684D01*
X204251343Y-69606079D01*
X204260525Y-69597118D01*
X204269972Y-69588632D01*
X204307747Y-69556860D01*
X204344326Y-69529496D01*
X204378772Y-69507206D01*
X204410149Y-69490656D01*
X204426565Y-69483712D01*
X204467151Y-69471360D01*
X204506517Y-69466450D01*
X204544728Y-69468986D01*
G37*
D11*
%TO.C,JP3*%
X232440000Y-53430000D02*
X232440000Y-54030000D01*
X233140000Y-54730000D02*
X234540000Y-54730000D01*
X234540000Y-52730000D02*
X233140000Y-52730000D01*
X235240000Y-54030000D02*
X235240000Y-53430000D01*
X232440000Y-53430000D02*
G75*
G02*
X233140000Y-52730000I700000J0D01*
G01*
X233140000Y-54730000D02*
G75*
G02*
X232440000Y-54030000I0J700000D01*
G01*
X234540000Y-52730000D02*
G75*
G02*
X235240000Y-53430000I1J-699999D01*
G01*
X235240000Y-54030000D02*
G75*
G02*
X234540000Y-54730000I-699999J-1D01*
G01*
%TD*%
M02*
